<svg xmlns="http://www.w3.org/2000/svg" version="1.1" xmlns:xlink="http://www.w3.org/1999/xlink" xmlns:svgjs="http://svgjs.com/svgjs" width="1000" height="1000"><rect width="1000" height="1000" rx="300" ry="300" fill="#ffffff"></rect><g transform="matrix(6.299212598425197,0,0,6.299212598425197,106.80950759527246,276.37795275590554)"><svg xmlns="http://www.w3.org/2000/svg" version="1.1" xmlns:xlink="http://www.w3.org/1999/xlink" xmlns:svgjs="http://svgjs.com/svgjs" width="127" height="71"><svg width="127" height="71" viewBox="0 0 127 71" fill="none" xmlns="http://www.w3.org/2000/svg">
<circle cx="37.5" cy="63.5" r="7.5" fill="#ACEEF3"></circle>
<circle cx="40" cy="10" r="10" fill="#FF7077"></circle>
<path d="M59.2031 56.4922C57.125 56.4922 55.125 56.1875 53.2031 55.5781C51.2812 54.9688 49.4453 54.0312 47.6953 52.7656V45.4766H51.2812L52.0547 50.8438C53.0703 51.4688 54.1719 51.9531 55.3594 52.2969C56.5469 52.6406 57.8281 52.8125 59.2031 52.8125C60.7656 52.8125 62.0859 52.5781 63.1641 52.1094C64.2578 51.625 65.0938 50.9609 65.6719 50.1172C66.25 49.2734 66.5391 48.2891 66.5391 47.1641C66.5391 46.1172 66.2891 45.1953 65.7891 44.3984C65.2891 43.6016 64.4609 42.9062 63.3047 42.3125C62.1641 41.7031 60.6016 41.1719 58.6172 40.7188C56.2734 40.1719 54.2891 39.4453 52.6641 38.5391C51.0547 37.6172 49.8281 36.5078 48.9844 35.2109C48.1562 33.8984 47.7422 32.3984 47.7422 30.7109C47.7422 28.9297 48.2109 27.3359 49.1484 25.9297C50.1016 24.5234 51.4219 23.4141 53.1094 22.6016C54.7969 21.7891 56.7656 21.3828 59.0156 21.3828C61.4062 21.3828 63.5156 21.75 65.3438 22.4844C67.1875 23.2031 68.7031 24.0781 69.8906 25.1094V31.9297H66.3047L65.5312 27.0547C64.8281 26.4922 63.9531 26.0234 62.9062 25.6484C61.8594 25.2734 60.5625 25.0859 59.0156 25.0859C57.7031 25.0859 56.5469 25.3203 55.5469 25.7891C54.5469 26.2422 53.7656 26.8828 53.2031 27.7109C52.6406 28.5391 52.3594 29.5156 52.3594 30.6406C52.3594 31.625 52.6094 32.4844 53.1094 33.2188C53.625 33.9531 54.4531 34.6016 55.5938 35.1641C56.75 35.7109 58.2891 36.2266 60.2109 36.7109C63.8047 37.6016 66.5234 38.9219 68.3672 40.6719C70.2266 42.4062 71.1562 44.5547 71.1562 47.1172C71.1562 48.9453 70.6641 50.5703 69.6797 51.9922C68.6953 53.3984 67.3047 54.5 65.5078 55.2969C63.7266 56.0938 61.625 56.4922 59.2031 56.4922ZM75.1641 56V53.0469L78.9844 52.3906V25.5078L75.1641 24.8516V21.875H87.4219V24.8516L83.6016 25.5078V52.3906L87.4219 53.0469V56H75.1641ZM91.2422 56V53.0469L95.0625 52.3906V25.5078L91.2422 24.8516V21.875H103.5V24.8516L99.6797 25.5078V37.2969H115.992V25.5078L112.172 24.8516V21.875H115.992H120.609H124.43V24.8516L120.609 25.5078V52.3906L124.43 53.0469V56H112.172V53.0469L115.992 52.3906V40.9297H99.6797V52.3906L103.5 53.0469V56H91.2422Z" fill="black"></path>
<circle cx="15" cy="35" r="15" fill="#FFB067"></circle>
</svg></svg></g></svg>