<svg width="30" height="30" viewBox="0 0 30 30" fill="none" xmlns="http://www.w3.org/2000/svg">
<circle cx="15" cy="15" r="14" stroke="black" stroke-width="2"/>
<path d="M7.25593 14.4338L7.25595 14.4339L12.4688 18.7793L23.5877 9.51208C23.5878 9.51204 23.5878 9.512 23.5879 9.51197C23.681 9.43416 23.7903 9.37356 23.9089 9.33255C24.0275 9.29153 24.154 9.27062 24.2813 9.27062C24.4086 9.27062 24.535 9.29153 24.6537 9.33255C24.7723 9.37358 24.8816 9.43422 24.9748 9.51208L24.8787 9.62719L24.9745 9.51184C25.068 9.58952 25.1439 9.68329 25.1964 9.78866C25.2489 9.89417 25.2765 10.0086 25.2765 10.125C25.2765 10.2414 25.2489 10.3558 25.1964 10.4614C25.1439 10.5667 25.068 10.6605 24.9746 10.7381C24.9746 10.7381 24.9746 10.7382 24.9745 10.7382L13.1623 20.5817L7.25593 14.4338ZM7.25593 14.4338C7.06814 14.2773 6.81842 14.1929 6.56253 14.1929C6.30663 14.1929 6.05692 14.2773 5.86913 14.4338C5.68054 14.591 5.56771 14.8106 5.56771 15.0469C5.56771 15.2831 5.68054 15.5028 5.86913 15.6599L11.7752 20.5817L7.25593 14.4338ZM12.8412 20.7612C12.9598 20.7202 13.069 20.6596 13.1622 20.5818H11.7754C11.8685 20.6596 11.9778 20.7202 12.0964 20.7612C12.215 20.8022 12.3415 20.8231 12.4688 20.8231C12.5961 20.8231 12.7225 20.8022 12.8412 20.7612Z" fill="black" stroke="black" stroke-width="0.3"/>
</svg>
