<svg width="34" height="19" viewBox="0 0 34 19" fill="none" xmlns="http://www.w3.org/2000/svg">
<path d="M0.401553 7.72601C0.2742 7.80533 0.173055 7.90011 0.104088 8.00477C0.0351207 8.10943 -0.000271457 8.22184 1.56767e-06 8.33536C0.000274593 8.44888 0.0362071 8.56122 0.105677 8.66574C0.175148 8.77027 0.276749 8.86485 0.404482 8.94392L15.9785 18.6237C16.252 18.7937 16.6188 18.8889 17.0007 18.8889C17.3827 18.8889 17.7495 18.7937 18.023 18.6237L33.597 8.94392C33.7245 8.86473 33.8259 8.77004 33.8951 8.66545C33.9643 8.56086 34 8.44849 34 8.33497C34 8.22144 33.9643 8.10907 33.8951 8.00448C33.8259 7.89989 33.7245 7.8052 33.597 7.72601C33.3354 7.56308 32.9843 7.47187 32.6187 7.47187C32.253 7.47187 31.9019 7.56308 31.6404 7.72601L17.0007 16.8286L2.35526 7.72601C2.09383 7.56364 1.74333 7.47278 1.37841 7.47278C1.01348 7.47278 0.66298 7.56364 0.401553 7.72601ZM0.401553 0.254142C0.2742 0.333461 0.173055 0.428247 0.104088 0.532904C0.0351207 0.637562 -0.000271457 0.74997 1.56767e-06 0.863493C0.000274593 0.977017 0.0362071 1.08936 0.105677 1.19388C0.175148 1.2984 0.276749 1.39299 0.404482 1.47206L15.9785 11.1519C16.252 11.3219 16.6188 11.417 17.0007 11.417C17.3827 11.417 17.7495 11.3219 18.023 11.1519L33.597 1.47206C33.7245 1.39286 33.8259 1.29818 33.8951 1.19359C33.9643 1.089 34 0.976622 34 0.863099C34 0.749575 33.9643 0.637202 33.8951 0.532613C33.8259 0.428023 33.7245 0.333336 33.597 0.254142C33.3354 0.0912133 32.9843 0 32.6187 0C32.253 0 31.9019 0.0912133 31.6404 0.254142L17.0007 9.35674L2.35526 0.254142C2.09383 0.0917722 1.74333 0.000910757 1.37841 0.000910757C1.01348 0.000910757 0.66298 0.0917722 0.401553 0.254142Z" fill="black"/>
</svg>
