<svg width="422" height="75" viewBox="0 0 422 75" fill="none" xmlns="http://www.w3.org/2000/svg">
<ellipse cx="39.1711" cy="67.0775" rx="7.83416" ry="7.92252" fill="#ACEEF3"/>
<ellipse cx="41.7825" cy="10.5634" rx="10.4455" ry="10.5634" fill="#FF7077"/>
<path d="M61.208 56.83C59.1299 56.83 57.1299 56.5253 55.208 55.916C53.2861 55.3066 51.4502 54.3691 49.7002 53.1035V45.8144H53.2861L54.0596 51.1816C55.0752 51.8066 56.1768 52.291 57.3643 52.6347C58.5518 52.9785 59.833 53.1503 61.208 53.1503C62.7705 53.1503 64.0908 52.916 65.1689 52.4472C66.2627 51.9628 67.0986 51.2988 67.6768 50.455C68.2549 49.6113 68.5439 48.6269 68.5439 47.5019C68.5439 46.455 68.2939 45.5331 67.7939 44.7363C67.2939 43.9394 66.4658 43.2441 65.3096 42.6503C64.1689 42.041 62.6064 41.5097 60.6221 41.0566C58.2783 40.5097 56.2939 39.7831 54.6689 38.8769C53.0596 37.955 51.833 36.8456 50.9893 35.5488C50.1611 34.2363 49.7471 32.7363 49.7471 31.0488C49.7471 29.2675 50.2158 27.6738 51.1533 26.2675C52.1064 24.8613 53.4268 23.7519 55.1143 22.9394C56.8018 22.1269 58.7705 21.7206 61.0205 21.7206C63.4111 21.7206 65.5205 22.0878 67.3486 22.8222C69.1924 23.541 70.708 24.416 71.8955 25.4472V32.2675H68.3096L67.5361 27.3925C66.833 26.83 65.958 26.3613 64.9111 25.9863C63.8643 25.6113 62.5674 25.4238 61.0205 25.4238C59.708 25.4238 58.5518 25.6581 57.5518 26.1269C56.5518 26.58 55.7705 27.2206 55.208 28.0488C54.6455 28.8769 54.3643 29.8535 54.3643 30.9785C54.3643 31.9628 54.6143 32.8222 55.1143 33.5566C55.6299 34.291 56.458 34.9394 57.5986 35.5019C58.7549 36.0488 60.2939 36.5644 62.2158 37.0488C65.8096 37.9394 68.5283 39.2597 70.3721 41.0097C72.2314 42.7441 73.1611 44.8925 73.1611 47.455C73.1611 49.2831 72.6689 50.9081 71.6846 52.33C70.7002 53.7363 69.3096 54.8378 67.5127 55.6347C65.7314 56.4316 63.6299 56.83 61.208 56.83ZM85.958 56.7363C84.083 56.7363 82.5908 56.1894 81.4814 55.0956C80.3877 53.9863 79.8408 52.2206 79.8408 49.7988V34.4003H75.833V30.9785H79.8408V24.8613H84.458V30.9785H89.9658V34.4003H84.458V49.7988C84.458 51.0175 84.7002 51.916 85.1846 52.4941C85.6689 53.0722 86.3174 53.3613 87.1299 53.3613C87.6768 53.3613 88.2861 53.3144 88.958 53.2206C89.6299 53.1113 90.1533 53.0175 90.5283 52.9394L91.1611 55.9628C90.4893 56.166 89.6611 56.3456 88.6768 56.5019C87.708 56.6581 86.8018 56.7363 85.958 56.7363ZM105.271 56.83C102.521 56.83 100.372 55.9472 98.8252 54.1816C97.2783 52.416 96.5049 49.666 96.5049 45.9316V34.6113L93.5986 33.955V30.9785H96.5049H101.122V45.9785C101.122 48.6816 101.521 50.541 102.317 51.5566C103.114 52.5722 104.356 53.08 106.044 53.08C107.685 53.08 109.036 52.7519 110.099 52.0956C111.177 51.4238 111.989 50.4785 112.536 49.2597V34.6113L109.138 33.955V30.9785H112.536H117.153V52.7285L120.06 53.3847V56.3378H113.005L112.7 52.5878C111.903 53.9472 110.872 54.9941 109.606 55.7285C108.356 56.4628 106.911 56.83 105.271 56.83ZM133.278 56.83C131.216 56.83 129.442 56.3222 127.958 55.3066C126.489 54.2753 125.364 52.8456 124.583 51.0175C123.802 49.1894 123.411 47.0566 123.411 44.6191V44.1269C123.411 41.4081 123.802 39.0253 124.583 36.9785C125.364 34.9316 126.497 33.3456 127.981 32.2206C129.466 31.08 131.247 30.5097 133.325 30.5097C134.825 30.5097 136.146 30.791 137.286 31.3535C138.442 31.9003 139.427 32.6972 140.239 33.7441V23.4081L136.419 22.7519V19.7753H140.239H144.856V52.7285L148.677 53.3847V56.3378H140.849L140.474 53.3144C139.646 54.4706 138.63 55.3456 137.427 55.9394C136.239 56.5331 134.856 56.83 133.278 56.83ZM134.45 53.08C135.825 53.08 136.981 52.7675 137.919 52.1425C138.856 51.5175 139.63 50.6347 140.239 49.4941V37.7285C139.646 36.666 138.872 35.8222 137.919 35.1972C136.966 34.5722 135.825 34.2597 134.497 34.2597C133.028 34.2597 131.817 34.6816 130.864 35.5253C129.911 36.3535 129.2 37.5097 128.731 38.9941C128.263 40.4628 128.028 42.1738 128.028 44.1269V44.6191C128.028 47.166 128.552 49.2128 129.599 50.7597C130.646 52.3066 132.263 53.08 134.45 53.08ZM157.372 66.58C157.013 66.58 156.544 66.5331 155.966 66.4394C155.388 66.3613 154.942 66.2831 154.63 66.205L155.099 62.5722C155.364 62.6035 155.731 62.6269 156.2 62.6425C156.669 62.6738 156.989 62.6894 157.161 62.6894C158.146 62.6894 158.942 62.3144 159.552 61.5644C160.177 60.8144 160.755 59.791 161.286 58.4941L162.388 55.8222L153.411 34.33L150.692 33.955V30.9785H161.333V33.955L158.263 34.4238L163.208 47.1035L164.403 50.4081H164.544L170.403 34.4238L167.169 33.955V30.9785H177.599V33.955L174.974 34.33L164.989 60.2285C164.521 61.4472 163.95 62.5331 163.278 63.4863C162.622 64.455 161.81 65.2128 160.841 65.7597C159.888 66.3066 158.731 66.58 157.372 66.58ZM191.591 56.3378V53.3847L195.411 52.7285V34.6113L191.591 33.955V30.9785H200.028V52.7285L203.849 53.3847V56.3378H191.591ZM195.177 24.7206V19.7753H200.028V24.7206H195.177ZM207.036 56.3378V53.3847L210.856 52.7285V34.6113L207.036 33.955V30.9785H214.981L215.31 34.7519C216.153 33.4081 217.208 32.3691 218.474 31.6347C219.755 30.8847 221.208 30.5097 222.833 30.5097C225.567 30.5097 227.685 31.3144 229.185 32.9238C230.685 34.5175 231.435 36.9863 231.435 40.33V52.7285L235.255 53.3847V56.3378H222.997V53.3847L226.817 52.7285V40.4238C226.817 38.1894 226.372 36.6035 225.481 35.666C224.606 34.7285 223.263 34.2597 221.45 34.2597C220.122 34.2597 218.942 34.58 217.911 35.2206C216.896 35.8613 216.083 36.7363 215.474 37.8456V52.7285L219.294 53.3847V56.3378H207.036ZM248.802 56.83C247.099 56.83 245.505 56.6581 244.021 56.3144C242.536 55.9706 240.958 55.4394 239.286 54.7206L239.239 48.6972H242.731L243.599 52.33C244.474 52.6894 245.317 52.955 246.13 53.1269C246.958 53.2831 247.849 53.3613 248.802 53.3613C250.677 53.3613 252.021 53.0019 252.833 52.2831C253.646 51.5644 254.052 50.6738 254.052 49.6113C254.052 48.6113 253.638 47.7675 252.81 47.08C251.997 46.3769 250.513 45.7831 248.356 45.2988C245.294 44.5956 243.036 43.6581 241.583 42.4863C240.146 41.2988 239.427 39.7206 239.427 37.7519C239.427 36.3769 239.825 35.1503 240.622 34.0722C241.419 32.9785 242.528 32.1113 243.95 31.4706C245.372 30.83 247.028 30.5097 248.919 30.5097C250.841 30.5097 252.481 30.7285 253.841 31.166C255.216 31.6035 256.411 32.1894 257.427 32.9238L257.661 38.7128H254.192L253.442 35.3378C252.896 34.9316 252.247 34.6191 251.497 34.4003C250.747 34.1816 249.888 34.0722 248.919 34.0722C247.481 34.0722 246.31 34.4081 245.403 35.08C244.513 35.7519 244.067 36.5956 244.067 37.6113C244.067 38.205 244.192 38.7206 244.442 39.1581C244.708 39.5956 245.208 39.9941 245.942 40.3535C246.677 40.6972 247.755 41.041 249.177 41.3847C252.708 42.2128 255.169 43.2675 256.56 44.5488C257.966 45.83 258.669 47.4081 258.669 49.2831C258.669 51.4238 257.872 53.2206 256.278 54.6738C254.7 56.1113 252.208 56.83 248.802 56.83ZM264.435 33.0644L261.81 31.33C262.544 30.2206 263.099 29.0878 263.474 27.9316C263.849 26.7597 264.036 25.5019 264.036 24.1581V19.7753H268.653V24.0878C268.653 25.1347 268.481 26.2128 268.138 27.3222C267.794 28.4316 267.302 29.4863 266.661 30.4863C266.036 31.4863 265.294 32.3456 264.435 33.0644ZM281.239 56.7363C279.364 56.7363 277.872 56.1894 276.763 55.0956C275.669 53.9863 275.122 52.2206 275.122 49.7988V34.4003H271.114V30.9785H275.122V24.8613H279.739V30.9785H285.247V34.4003H279.739V49.7988C279.739 51.0175 279.981 51.916 280.466 52.4941C280.95 53.0722 281.599 53.3613 282.411 53.3613C282.958 53.3613 283.567 53.3144 284.239 53.2206C284.911 53.1113 285.435 53.0175 285.81 52.9394L286.442 55.9628C285.771 56.166 284.942 56.3456 283.958 56.5019C282.989 56.6581 282.083 56.7363 281.239 56.7363ZM300.763 56.3378V53.3847L304.583 52.7285V23.4081L300.763 22.7519V19.7753H309.2V34.3535C310.075 33.1347 311.146 32.1894 312.411 31.5175C313.677 30.8456 315.083 30.5097 316.63 30.5097C319.349 30.5097 321.458 31.3222 322.958 32.9472C324.458 34.5722 325.208 37.0722 325.208 40.4472V52.7285L329.028 53.3847V56.3378H316.771V53.3847L320.591 52.7285V40.4003C320.591 38.3066 320.138 36.7597 319.231 35.7597C318.341 34.7597 317.005 34.2597 315.224 34.2597C313.958 34.2597 312.802 34.5644 311.755 35.1738C310.724 35.7675 309.872 36.58 309.2 37.6113V52.7285L313.021 53.3847V56.3378H300.763ZM340.396 56.83C337.755 56.83 335.747 56.1894 334.372 54.9081C332.997 53.6113 332.31 51.791 332.31 49.4472C332.31 47.8378 332.747 46.4394 333.622 45.2519C334.513 44.0488 335.794 43.1191 337.466 42.4628C339.138 41.791 341.138 41.455 343.466 41.455H347.989V38.9706C347.989 37.4394 347.521 36.2519 346.583 35.4081C345.661 34.5644 344.356 34.1425 342.669 34.1425C341.606 34.1425 340.685 34.2753 339.903 34.541C339.122 34.791 338.411 35.1425 337.771 35.5956L337.278 39.1347H333.716V33.3222C334.856 32.4003 336.185 31.705 337.7 31.2363C339.216 30.7519 340.896 30.5097 342.739 30.5097C345.817 30.5097 348.231 31.2441 349.981 32.7128C351.731 34.1816 352.606 36.2831 352.606 39.0175V51.2285C352.606 51.5566 352.606 51.8769 352.606 52.1894C352.622 52.5019 352.646 52.8144 352.677 53.1269L355.138 53.3847V56.3378H348.505C348.364 55.6503 348.255 55.0331 348.177 54.4863C348.099 53.9394 348.044 53.3925 348.013 52.8456C347.122 53.9863 346.005 54.9394 344.661 55.705C343.333 56.455 341.911 56.83 340.396 56.83ZM341.075 52.9628C342.606 52.9628 344.005 52.5956 345.271 51.8613C346.536 51.1269 347.442 50.2441 347.989 49.2128V44.6191H343.302C341.177 44.6191 339.583 45.1269 338.521 46.1425C337.458 47.1581 336.927 48.291 336.927 49.541C336.927 50.6503 337.271 51.5019 337.958 52.0956C338.646 52.6738 339.685 52.9628 341.075 52.9628ZM358.677 56.3378V53.3847L362.497 52.7285V34.6113L358.677 33.955V30.9785H366.622L367.021 34.2128L367.067 34.6581C367.786 33.3613 368.669 32.3456 369.716 31.6113C370.778 30.8769 371.989 30.5097 373.349 30.5097C373.833 30.5097 374.325 30.5566 374.825 30.6503C375.341 30.7285 375.708 30.8066 375.927 30.8847L375.317 35.1738L372.106 34.9863C370.888 34.9081 369.864 35.1894 369.036 35.83C368.208 36.455 367.567 37.2988 367.114 38.3613V52.7285L370.935 53.3847V56.3378H358.677ZM388.231 56.83C386.169 56.83 384.396 56.3222 382.911 55.3066C381.442 54.2753 380.317 52.8456 379.536 51.0175C378.755 49.1894 378.364 47.0566 378.364 44.6191V44.1269C378.364 41.4081 378.755 39.0253 379.536 36.9785C380.317 34.9316 381.45 33.3456 382.935 32.2206C384.419 31.08 386.2 30.5097 388.278 30.5097C389.778 30.5097 391.099 30.791 392.239 31.3535C393.396 31.9003 394.38 32.6972 395.192 33.7441V23.4081L391.372 22.7519V19.7753H395.192H399.81V52.7285L403.63 53.3847V56.3378H395.802L395.427 53.3144C394.599 54.4706 393.583 55.3456 392.38 55.9394C391.192 56.5331 389.81 56.83 388.231 56.83ZM389.403 53.08C390.778 53.08 391.935 52.7675 392.872 52.1425C393.81 51.5175 394.583 50.6347 395.192 49.4941V37.7285C394.599 36.666 393.825 35.8222 392.872 35.1972C391.919 34.5722 390.778 34.2597 389.45 34.2597C387.981 34.2597 386.771 34.6816 385.817 35.5253C384.864 36.3535 384.153 37.5097 383.685 38.9941C383.216 40.4628 382.981 42.1738 382.981 44.1269V44.6191C382.981 47.166 383.505 49.2128 384.552 50.7597C385.599 52.3066 387.216 53.08 389.403 53.08Z" fill="black"/>
<ellipse cx="15.6683" cy="36.9717" rx="15.6683" ry="15.845" fill="#FFB067"/>
</svg>
