<svg width="30" height="30" viewBox="0 0 30 30" fill="none" xmlns="http://www.w3.org/2000/svg">
<path d="M2.8125 1.875C2.56386 1.875 2.3254 1.97377 2.14959 2.14959C1.97377 2.3254 1.875 2.56386 1.875 2.8125V8.4375C1.875 8.68614 1.77623 8.9246 1.60041 9.10041C1.4246 9.27623 1.18614 9.375 0.9375 9.375C0.68886 9.375 0.450403 9.27623 0.274587 9.10041C0.0987721 8.9246 0 8.68614 0 8.4375V2.8125C0 2.06658 0.296316 1.35121 0.823762 0.823762C1.35121 0.296316 2.06658 0 2.8125 0L8.4375 0C8.68614 0 8.9246 0.0987721 9.10041 0.274587C9.27623 0.450403 9.375 0.68886 9.375 0.9375C9.375 1.18614 9.27623 1.4246 9.10041 1.60041C8.9246 1.77623 8.68614 1.875 8.4375 1.875H2.8125ZM20.625 0.9375C20.625 0.68886 20.7238 0.450403 20.8996 0.274587C21.0754 0.0987721 21.3139 0 21.5625 0L27.1875 0C27.9334 0 28.6488 0.296316 29.1762 0.823762C29.7037 1.35121 30 2.06658 30 2.8125V8.4375C30 8.68614 29.9012 8.9246 29.7254 9.10041C29.5496 9.27623 29.3111 9.375 29.0625 9.375C28.8139 9.375 28.5754 9.27623 28.3996 9.10041C28.2238 8.9246 28.125 8.68614 28.125 8.4375V2.8125C28.125 2.56386 28.0262 2.3254 27.8504 2.14959C27.6746 1.97377 27.4361 1.875 27.1875 1.875H21.5625C21.3139 1.875 21.0754 1.77623 20.8996 1.60041C20.7238 1.4246 20.625 1.18614 20.625 0.9375ZM0.9375 20.625C1.18614 20.625 1.4246 20.7238 1.60041 20.8996C1.77623 21.0754 1.875 21.3139 1.875 21.5625V27.1875C1.875 27.4361 1.97377 27.6746 2.14959 27.8504C2.3254 28.0262 2.56386 28.125 2.8125 28.125H8.4375C8.68614 28.125 8.9246 28.2238 9.10041 28.3996C9.27623 28.5754 9.375 28.8139 9.375 29.0625C9.375 29.3111 9.27623 29.5496 9.10041 29.7254C8.9246 29.9012 8.68614 30 8.4375 30H2.8125C2.06658 30 1.35121 29.7037 0.823762 29.1762C0.296316 28.6488 0 27.9334 0 27.1875L0 21.5625C0 21.3139 0.0987721 21.0754 0.274587 20.8996C0.450403 20.7238 0.68886 20.625 0.9375 20.625ZM29.0625 20.625C29.3111 20.625 29.5496 20.7238 29.7254 20.8996C29.9012 21.0754 30 21.3139 30 21.5625V27.1875C30 27.9334 29.7037 28.6488 29.1762 29.1762C28.6488 29.7037 27.9334 30 27.1875 30H21.5625C21.3139 30 21.0754 29.9012 20.8996 29.7254C20.7238 29.5496 20.625 29.3111 20.625 29.0625C20.625 28.8139 20.7238 28.5754 20.8996 28.3996C21.0754 28.2238 21.3139 28.125 21.5625 28.125H27.1875C27.4361 28.125 27.6746 28.0262 27.8504 27.8504C28.0262 27.6746 28.125 27.4361 28.125 27.1875V21.5625C28.125 21.3139 28.2238 21.0754 28.3996 20.8996C28.5754 20.7238 28.8139 20.625 29.0625 20.625Z" fill="black"/>
<path d="M5.625 26.25C5.625 26.25 3.75 26.25 3.75 24.375C3.75 22.5 5.625 16.875 15 16.875C24.375 16.875 26.25 22.5 26.25 24.375C26.25 26.25 24.375 26.25 24.375 26.25H5.625ZM20.625 9.375C20.625 10.8668 20.0324 12.2976 18.9775 13.3525C17.9226 14.4074 16.4918 15 15 15C13.5082 15 12.0774 14.4074 11.0225 13.3525C9.96763 12.2976 9.375 10.8668 9.375 9.375C9.375 7.88316 9.96763 6.45242 11.0225 5.39752C12.0774 4.34263 13.5082 3.75 15 3.75C16.4918 3.75 17.9226 4.34263 18.9775 5.39752C20.0324 6.45242 20.625 7.88316 20.625 9.375Z" fill="black"/>
</svg>
