<svg width="57" height="57" viewBox="0 0 57 57" fill="none" xmlns="http://www.w3.org/2000/svg">
<path d="M28.5 19.3393C27.297 19.3393 26.1058 19.5762 24.9944 20.0366C23.8829 20.497 22.8731 21.1717 22.0224 22.0224C21.1718 22.873 20.497 23.8829 20.0366 24.9943C19.5763 26.1058 19.3393 27.297 19.3393 28.5C19.3393 29.703 19.5763 30.8942 20.0366 32.0056C20.497 33.1171 21.1718 34.1269 22.0224 34.9776C22.8731 35.8282 23.8829 36.503 24.9944 36.9634C26.1058 37.4237 27.297 37.6607 28.5 37.6607C30.9296 37.6607 33.2597 36.6956 34.9776 34.9776C36.6956 33.2596 37.6607 30.9296 37.6607 28.5C37.6607 26.0704 36.6956 23.7403 34.9776 22.0224C33.2597 20.3044 30.9296 19.3393 28.5 19.3393V19.3393ZM22.3929 28.5C22.3929 27.698 22.5509 26.9038 22.8578 26.1629C23.1647 25.4219 23.6145 24.7487 24.1816 24.1816C24.7487 23.6145 25.422 23.1646 26.1629 22.8577C26.9039 22.5508 27.698 22.3928 28.5 22.3928C29.302 22.3928 30.0962 22.5508 30.8371 22.8577C31.5781 23.1646 32.2513 23.6145 32.8184 24.1816C33.3855 24.7487 33.8354 25.4219 34.1423 26.1629C34.4492 26.9038 34.6072 27.698 34.6072 28.5C34.6072 30.1197 33.9637 31.6731 32.8184 32.8184C31.6731 33.9637 30.1197 34.6071 28.5 34.6071C26.8803 34.6071 25.3269 33.9637 24.1816 32.8184C23.0363 31.6731 22.3929 30.1197 22.3929 28.5V28.5ZM44.1954 45.5898L40.6777 44.0447C40.177 43.8272 39.6324 43.7297 39.0874 43.7601C38.5424 43.7905 38.012 43.9479 37.5386 44.2198C36.5879 44.7694 35.9813 45.7404 35.8612 46.8336L35.4377 50.6608C35.3951 51.0454 35.2347 51.4074 34.9786 51.6974C34.7224 51.9875 34.383 52.1913 34.0066 52.2812C30.3849 53.1445 26.611 53.1445 22.9894 52.2812C22.6134 52.191 22.2744 51.9869 22.0186 51.6969C21.7629 51.4069 21.6028 51.0451 21.5603 50.6608L21.1369 46.8397C21.0761 46.302 20.8901 45.786 20.5938 45.3331C20.2975 44.8802 19.8993 44.5031 19.4309 44.232C18.9631 43.9614 18.4382 43.8046 17.8985 43.7742C17.3589 43.7438 16.8197 43.8406 16.3244 44.0569L12.8067 45.602C12.4511 45.7582 12.0557 45.8 11.6753 45.7216C11.2949 45.6432 10.9483 45.4485 10.6835 45.1643C8.15157 42.4511 6.26749 39.1994 5.17278 35.6535C5.05767 35.2808 5.06128 34.8815 5.18309 34.511C5.30491 34.1404 5.53891 33.8169 5.85271 33.5852L8.96125 31.2889C9.39886 30.9674 9.75468 30.5474 9.99992 30.0629C10.2452 29.5784 10.373 29.043 10.373 28.5C10.373 27.957 10.2452 27.4215 9.99992 26.9371C9.75468 26.4526 9.39886 26.0326 8.96125 25.7111L5.85271 23.4209C5.53851 23.189 5.30424 22.8652 5.18241 22.4942C5.06057 22.1232 5.05721 21.7235 5.17278 21.3506C6.26976 17.8077 8.15521 14.5595 10.6875 11.8499C10.9526 11.5661 11.2993 11.3717 11.6797 11.2937C12.0601 11.2156 12.4554 11.2578 12.8108 11.4142L16.3122 12.9553C16.8104 13.1697 17.3519 13.2645 17.8933 13.2321C18.4347 13.1998 18.9611 13.0411 19.4302 12.7689C19.8993 12.4966 20.2982 12.1183 20.5949 11.6643C20.8916 11.2103 21.0779 10.6931 21.1389 10.1541L21.5664 6.33105C21.6094 5.94213 21.7728 5.57635 22.0338 5.28476C22.2947 4.99317 22.6402 4.79032 23.0219 4.70452C24.8154 4.30552 26.6455 4.0938 28.5265 4.07141C30.3627 4.09177 32.1908 4.30552 33.9822 4.70452C34.3644 4.79016 34.7103 4.99323 34.9713 5.28527C35.2323 5.57732 35.3954 5.9437 35.4377 6.33309L35.8632 10.1562C35.955 11.004 36.3563 11.7882 36.9904 12.3584C37.6245 12.9286 38.4467 13.2448 39.2995 13.2464C39.7738 13.2464 40.2441 13.1466 40.6838 12.9532L44.1852 11.4122C44.5406 11.2557 44.9359 11.2136 45.3163 11.2917C45.6967 11.3697 46.0434 11.5641 46.3085 11.8478C48.8402 14.5576 50.7249 17.8058 51.8212 21.3485C51.9365 21.721 51.9332 22.1201 51.8118 22.4907C51.6903 22.8612 51.4567 23.1848 51.1433 23.4168L48.0388 25.7111C47.1533 26.3625 46.6179 27.3987 46.6179 28.5C46.6179 29.5993 47.1533 30.6354 48.0409 31.2889L51.1474 33.5811C51.7906 34.0575 52.0634 34.8881 51.8273 35.6514C50.7311 39.1937 48.8471 42.4418 46.3166 45.1521C46.0518 45.4362 45.7052 45.631 45.3247 45.7094C44.9443 45.7878 44.549 45.746 44.1934 45.5898H44.1954ZM33.1069 45.1867C33.5926 43.6654 34.6265 42.379 36.0077 41.5774C36.8963 41.0654 37.8926 40.7691 38.9165 40.7122C39.9404 40.6552 40.9634 40.8393 41.9032 41.2497L44.6392 42.4507C46.3966 40.4159 47.7569 38.0696 48.6495 35.5334L46.2291 33.7481V33.746C45.405 33.141 44.7346 32.3509 44.2717 31.4393C43.8089 30.5278 43.5666 29.5203 43.5643 28.4979C43.5643 26.4073 44.5761 24.4672 46.225 23.2539L46.2291 23.2519L48.6455 21.4666C47.7522 18.9309 46.3912 16.5852 44.6331 14.5513L41.9195 15.7442L41.9154 15.7462C41.0889 16.1127 40.1993 16.2999 39.2975 16.2999C37.6937 16.2975 36.1472 15.704 34.9536 14.6329C33.7601 13.5617 33.0033 12.0882 32.828 10.4941V10.49L32.4961 7.51788C31.1865 7.27397 29.8585 7.14253 28.5265 7.12498C27.1776 7.14195 25.8326 7.27339 24.506 7.51788L24.1741 10.4921C24.06 11.507 23.7094 12.481 23.1504 13.3358C22.5914 14.1905 21.8397 14.9023 20.9556 15.4137C20.0716 15.9251 19.0798 16.222 18.0602 16.2804C17.0405 16.3389 16.0214 16.1573 15.0847 15.7503L12.365 14.5533C10.6068 16.5872 9.24576 18.9329 8.35257 21.4686L10.7751 23.2539C11.5974 23.8595 12.2659 24.6499 12.7266 25.5614C13.1873 26.4728 13.4273 27.4797 13.4273 28.501C13.4273 29.5223 13.1873 30.5292 12.7266 31.4406C12.2659 32.3521 11.5974 33.1425 10.7751 33.7481L8.35257 35.5354C9.24407 38.0752 10.6044 40.4251 12.3629 42.4629L15.101 41.2619C16.0347 40.8531 17.0515 40.6697 18.0692 40.7262C19.0869 40.7828 20.0771 41.0779 20.9597 41.5876C21.8421 42.0973 22.5925 42.8069 23.1508 43.6593C23.709 44.5117 24.0595 45.4832 24.1741 46.4957V46.5059L24.5039 49.4862C27.1442 50.0053 29.8579 50.0053 32.4982 49.4862L32.828 46.4998C32.8768 46.0519 32.9705 45.6102 33.1089 45.1867H33.1069Z" fill="black"/>
</svg>
