<svg width="708" height="443" viewBox="0 0 708 443" fill="none" xmlns="http://www.w3.org/2000/svg">
<path d="M82.5319 239.011C83.0722 224.695 82.8853 210.359 81.972 196.063C79.938 166.582 75.617 137.32 69.0511 108.564C65.444 92.3646 61.0078 76.4455 56.3778 60.5488C56.2486 60.0667 55.5057 60.2013 55.6349 60.7057C69.934 116.759 81.6597 174.606 80.8522 232.879C80.626 249.19 78.8171 265.21 77.3312 281.41C77.3312 281.847 77.9773 282.015 78.0742 281.567C81.0244 267.699 81.9827 253.17 82.5319 239.011Z" fill="#EBEBEB"/>
<path d="M55.6348 60.7057C55.6348 60.7057 33.9708 117.947 38.8269 131.4C43.683 144.853 53.6751 147.723 53.6751 147.723C53.6751 147.723 40.4205 167.375 49.6804 185.906C58.9404 204.437 79.5169 203.507 80.9059 224.46C80.8844 224.46 82.0365 136.86 55.6348 60.7057Z" fill="#EBEBEB"/>
<path d="M78.5266 188.283C78.5632 188.186 78.5632 188.078 78.5266 187.98C75.4902 149.057 68.8359 110.257 57.5194 72.8356C57.5194 72.7235 57.3148 72.7572 57.3471 72.8356C61.6541 89.5843 65.4442 106.419 68.7175 123.34C65.8081 120.472 62.254 118.409 58.3808 117.342C58.3665 117.342 58.3528 117.348 58.3427 117.358C58.3326 117.369 58.3269 117.383 58.3269 117.398C58.3269 117.413 58.3326 117.427 58.3427 117.438C58.3528 117.448 58.3665 117.454 58.3808 117.454C62.3863 119.259 66.2195 121.344 69.0513 124.887C69.6866 128.25 70.3111 131.523 70.8925 134.842C66.0579 129.236 59.3391 126.411 52.5879 123.754C52.5018 123.754 52.4479 123.878 52.5879 123.911C59.576 126.882 66.5855 130.694 71.2909 136.972C72.9419 146.478 74.3776 156.011 75.5979 165.57C72.0958 161.757 67.608 159.082 62.677 157.868C62.5262 157.868 62.4401 158.059 62.6016 158.104C67.6872 159.631 72.2363 162.665 75.6948 166.837C75.7186 166.865 75.748 166.888 75.7809 166.904C76.2116 170.267 76.6208 173.631 76.9976 176.994C74.2931 174.609 71.2396 172.69 67.953 171.31C67.939 171.316 67.927 171.326 67.9186 171.339C67.9101 171.352 67.9056 171.367 67.9056 171.383C67.9056 171.399 67.9101 171.414 67.9186 171.427C67.927 171.44 67.939 171.45 67.953 171.456C71.3034 172.967 74.3723 175.081 77.0192 177.7C77.0192 177.7 77.0945 177.7 77.1376 177.756C77.4929 180.962 77.859 184.169 78.2143 187.375C73.3362 181.237 67.0047 176.531 59.8451 173.72C59.8183 173.715 59.7907 173.72 59.7669 173.734C59.7431 173.748 59.7246 173.77 59.7145 173.796C59.7043 173.822 59.7033 173.851 59.7114 173.878C59.7195 173.905 59.7363 173.929 59.759 173.944C66.8288 177.193 73.0415 182.169 77.8698 188.451C77.9188 188.524 77.9894 188.579 78.0709 188.608C78.1524 188.636 78.2405 188.636 78.322 188.608C78.7958 193.533 79.2085 198.466 79.5603 203.406C79.5603 203.473 79.6679 203.485 79.6679 203.406C79.3018 198.376 78.9214 193.335 78.5266 188.283Z" fill="white"/>
<path d="M61.1264 111.681C57.3686 109.001 52.5986 107.846 48.1086 107.465C48.0009 107.465 48.0009 107.622 48.1086 107.634C52.7709 108.351 56.7225 110.111 60.9756 112.006C61.1264 112.095 61.2879 111.804 61.1264 111.681Z" fill="white"/>
<path d="M63.7535 172.296C60.7403 170.499 57.4259 169.316 53.9874 168.81C53.869 168.81 53.8582 168.989 53.9874 169.001C57.3593 169.704 60.6208 170.893 63.6781 172.532C63.7035 172.53 63.7278 172.52 63.7479 172.504C63.7679 172.488 63.783 172.465 63.791 172.44C63.7991 172.415 63.7998 172.388 63.7931 172.362C63.7864 172.337 63.7727 172.314 63.7535 172.296Z" fill="white"/>
<path d="M139.481 132.331C130.32 138.927 121.907 146.585 114.403 155.155C106.67 164.222 100.698 174.764 96.8203 186.198C88.5989 210.031 84.1797 235.104 83.7379 260.423C83.4602 274.453 84.7575 288.467 87.6034 302.183C87.622 302.286 87.6789 302.376 87.7617 302.435C87.8445 302.494 87.9464 302.516 88.0449 302.497C88.1434 302.478 88.2305 302.418 88.2871 302.332C88.3436 302.246 88.3649 302.14 88.3464 302.037C84.812 277.835 84.9464 253.204 88.7448 229.045C92.4703 205.368 98.3062 179.606 112.767 160.357C120.638 149.875 130.458 141.635 140.159 133.115C140.654 132.689 140.008 131.949 139.481 132.331Z" fill="#EBEBEB"/>
<path d="M86.9683 243.394C92.1931 234.613 98.3317 226.459 105.273 219.079C116.116 207.801 125.236 199.785 126.646 192.319C128.057 184.852 115.793 179.37 115.793 179.37C115.793 179.37 130.792 182.173 134.894 175.615C138.996 169.057 140.978 131.12 140.978 131.12C140.978 131.12 113.693 151.389 100.987 179.819C88.2819 208.249 86.9683 243.394 86.9683 243.394Z" fill="#EBEBEB"/>
<path d="M131.448 140.839C119.97 152.577 108.417 165.088 101.655 180.514C99.3462 185.84 97.3365 191.301 95.6358 196.87C95.6358 196.87 95.6358 196.87 95.6358 196.87C95.2912 197.991 94.9359 199.112 94.559 200.233C94.53 200.289 94.5117 200.35 94.5052 200.413C91.3001 211.943 88.7154 223.65 86.7634 235.48C86.7634 235.547 86.8496 235.592 86.8711 235.48C88.0448 229.56 89.3368 223.574 90.7904 217.621C90.8438 217.632 90.8986 217.632 90.9519 217.621C93.2284 216.602 95.6448 215.963 98.1123 215.727C98.2738 215.727 98.263 215.413 98.1123 215.424C95.7033 215.538 93.3201 215.991 91.0273 216.769C92.3517 211.388 93.7838 206.029 95.3989 200.749C100.69 199.401 106.105 198.649 111.55 198.507V198.406C106.228 198.183 100.9 198.681 95.7004 199.886C95.9803 198.978 96.2711 198.081 96.5618 197.173C100.107 196.296 103.704 195.663 107.329 195.278C107.394 195.278 107.394 195.155 107.329 195.155C103.781 195.228 100.249 195.675 96.7879 196.489C98.263 191.915 99.8674 187.408 101.655 183.036C103.126 179.44 104.846 175.959 106.802 172.622C109.675 171.882 112.592 171.342 115.534 171.007C115.62 171.007 115.609 170.862 115.534 170.85C112.787 170.636 110.025 170.92 107.372 171.691C108.804 169.281 110.312 166.915 111.927 164.628C118.043 163.216 124.245 161.904 130.511 163.126C130.619 163.126 130.651 162.958 130.511 162.936C124.557 161.299 118.667 162.241 112.713 163.462C113.359 162.566 114.026 161.68 114.694 160.806C118.397 159.619 122.244 158.988 126.118 158.933C126.135 158.933 126.152 158.926 126.164 158.914C126.176 158.901 126.183 158.884 126.183 158.866C126.183 158.848 126.176 158.831 126.164 158.819C126.152 158.806 126.135 158.799 126.118 158.799C122.541 158.458 118.933 158.792 115.469 159.785C120.519 153.25 126.108 147.106 131.62 141.019C131.922 140.727 131.717 140.57 131.448 140.839Z" fill="white"/>
<path d="M131.114 166.714C129.332 166.448 127.527 166.381 125.731 166.512C125.515 166.512 125.526 166.915 125.731 166.915C127.529 166.915 129.316 166.837 131.114 166.915C131.133 166.906 131.148 166.892 131.159 166.874C131.169 166.856 131.175 166.836 131.175 166.814C131.175 166.793 131.169 166.773 131.159 166.755C131.148 166.737 131.133 166.723 131.114 166.714Z" fill="white"/>
<path d="M111.507 203.529C108.627 203.597 105.78 204.193 103.098 205.289C103.033 205.289 103.098 205.424 103.098 205.413C105.876 204.718 108.686 204.437 111.486 203.955C111.512 203.957 111.539 203.953 111.565 203.943C111.59 203.934 111.613 203.92 111.633 203.901C111.653 203.882 111.67 203.86 111.681 203.834C111.693 203.809 111.7 203.782 111.701 203.754C111.702 203.726 111.698 203.698 111.69 203.671C111.681 203.645 111.667 203.62 111.649 203.6C111.631 203.579 111.609 203.562 111.585 203.55C111.56 203.538 111.534 203.531 111.507 203.529V203.529Z" fill="white"/>
<path d="M105.628 190.805C104.429 190.8 103.232 190.912 102.053 191.142C101.935 191.142 101.946 191.366 102.053 191.366C103.247 191.433 104.445 191.377 105.628 191.198C105.843 191.153 105.833 190.816 105.628 190.805Z" fill="white"/>
<path d="M6.94478 172.61C15.8215 175.743 24.3283 179.914 32.302 185.043C40.5751 190.517 47.7466 197.615 53.4169 205.94C65.3724 223.248 74.5239 242.478 80.5077 262.867C83.8444 274.164 85.9041 285.827 86.6451 297.62C86.6314 297.698 86.5921 297.767 86.5341 297.818C86.4761 297.868 86.403 297.896 86.3275 297.896C86.252 297.896 86.1789 297.868 86.1209 297.818C86.0628 297.767 86.0236 297.698 86.0098 297.62C83.4984 277.183 77.925 257.281 69.4926 238.641C61.2233 220.379 50.7681 200.94 34.8001 188.843C26.1 182.252 16.3232 177.947 6.57869 173.384C6.07262 173.171 6.43871 172.42 6.94478 172.61Z" fill="#EBEBEB"/>
<path d="M74.1441 249.841C67.9722 243.99 61.202 238.862 53.9552 234.549C42.6817 228.036 33.4971 223.742 30.7191 218.047C27.9412 212.352 36.6197 204.953 36.6197 204.953C36.6197 204.953 25.1093 210.827 20.3394 206.511C15.5694 202.195 5.53418 171.96 5.53418 171.96C5.53418 171.96 32.1081 181.803 48.7115 201.758C65.3148 221.713 74.1441 249.841 74.1441 249.841Z" fill="#EBEBEB"/>
<path d="M72.7551 243.607C59.4573 217.621 41.745 194.124 17.4214 178.586C23.7684 182.859 29.7197 187.738 35.1984 193.16C30.2533 192.878 25.3245 193.961 20.91 196.298C20.8963 196.311 20.8867 196.328 20.8826 196.346C20.8785 196.365 20.8802 196.384 20.8874 196.401C20.8946 196.419 20.9069 196.434 20.9226 196.443C20.9382 196.453 20.9565 196.457 20.9746 196.455C25.6732 194.621 30.6662 193.742 35.6829 193.866C35.7428 193.864 35.8002 193.841 35.8444 193.799C36.7166 194.651 37.5672 195.514 38.4071 196.388C35.8383 196.513 33.2843 196.866 30.773 197.442C30.7587 197.442 30.745 197.448 30.7349 197.458C30.7248 197.469 30.7191 197.483 30.7191 197.498C30.7191 197.513 30.7248 197.527 30.7349 197.538C30.745 197.548 30.7587 197.554 30.773 197.554C33.4314 197.037 36.1338 196.804 38.8378 196.859C43.2991 201.539 47.505 206.476 51.4356 211.646C49.6339 211.379 47.7983 211.517 46.0519 212.049C46.0304 212.057 46.0116 212.071 45.9983 212.09C45.985 212.109 45.9779 212.132 45.9779 212.156C45.9779 212.18 45.985 212.203 45.9983 212.222C46.0116 212.241 46.0304 212.255 46.0519 212.262C47.9431 212.035 49.8516 212.008 51.7479 212.184C52.4801 213.148 53.2122 214.101 53.9014 215.076C48.4685 214.736 43.0181 215.289 37.7503 216.713C37.6749 216.713 37.6964 216.859 37.7503 216.848C43.2049 215.736 48.7743 215.359 54.3213 215.727C54.9996 216.657 55.6457 217.621 56.3025 218.574C53.0663 218.476 49.833 218.853 46.698 219.695C46.6834 219.69 46.6678 219.688 46.6524 219.691C46.6371 219.693 46.6226 219.699 46.61 219.708C46.5974 219.717 46.5871 219.73 46.58 219.744C46.5729 219.758 46.5692 219.774 46.5692 219.79C46.5692 219.807 46.5729 219.822 46.58 219.837C46.5871 219.851 46.5974 219.863 46.61 219.873C46.6226 219.882 46.6371 219.888 46.6524 219.89C46.6678 219.893 46.6834 219.891 46.698 219.886C49.9604 219.15 53.3041 218.882 56.6363 219.09C59.5004 223.182 62.2353 227.374 64.8733 231.623C63.4661 231.358 62.0182 231.451 60.6525 231.892C60.6382 231.892 60.6245 231.898 60.6145 231.909C60.6044 231.919 60.5987 231.933 60.5987 231.948C60.5987 231.963 60.6044 231.977 60.6145 231.988C60.6245 231.999 60.6382 232.004 60.6525 232.004C62.1774 231.883 63.7108 231.958 65.2179 232.229C67.5867 236.07 69.8694 239.942 72.066 243.843C72.4213 244.19 72.9704 243.944 72.7551 243.607Z" fill="white"/>
<path d="M52.0817 222.049C49.4681 221.871 46.8456 222.206 44.3507 223.036C44.2861 223.036 44.3507 223.17 44.3507 223.159C46.8936 222.713 49.4617 222.44 52.0387 222.341C52.2217 222.307 52.254 222.072 52.0817 222.049Z" fill="white"/>
<path d="M28.8888 190.391C27.7001 190.297 26.5046 190.372 25.3355 190.615C25.314 190.622 25.2952 190.636 25.2819 190.655C25.2686 190.675 25.2615 190.698 25.2615 190.721C25.2615 190.745 25.2686 190.768 25.2819 190.787C25.2952 190.806 25.314 190.82 25.3355 190.828C26.5092 190.704 27.6613 190.749 28.8349 190.704C28.8749 190.712 28.9161 190.702 28.9494 190.678C28.9827 190.654 29.0055 190.617 29.0126 190.575C29.0197 190.534 29.0107 190.491 28.9875 190.456C28.9643 190.422 28.9288 190.398 28.8888 190.391V190.391Z" fill="white"/>
<path d="M108.428 335.748H48.4209L56.981 270.502L59.1668 253.775H97.6818L99.8676 270.502L108.428 335.748Z" fill="#DBDBDB"/>
<path d="M99.8675 270.502H56.981L59.1667 253.775H97.6817L99.8675 270.502Z" fill="#C7C7C7"/>
<path d="M103.184 247.968H53.6538V262.139H103.184V247.968Z" fill="#DBDBDB"/>
<path d="M564.944 38.0602C562.095 45.6094 560.419 53.5829 559.98 61.6811H540.147H539.899V61.1093L540.06 59.5062C540.302 56.7236 540.733 53.9625 541.352 51.2439C542.392 46.7954 543.891 42.4767 545.821 38.3629C545.857 38.2627 545.924 38.1781 546.012 38.1231C546.1 38.0681 546.204 38.0459 546.305 38.0602H564.912H564.944Z" fill="#EBEBEB"/>
<path d="M564.341 90.8063H545.886C545.788 90.8167 545.691 90.7925 545.609 90.7375C545.526 90.6825 545.465 90.6 545.433 90.5036C543.303 85.8748 541.764 80.9751 540.857 75.9298C540.4 73.5019 540.098 71.0451 539.953 68.5756C539.953 68.4971 539.953 68.4074 539.899 68.329V67.746H540.2H559.657C560.012 67.746 560.002 67.746 560.023 68.1272C560.152 69.7976 560.26 71.4904 560.411 73.1607C560.667 75.823 561.08 78.4663 561.649 81.0755C562.316 84.2688 563.19 87.4113 564.266 90.4812C564.276 90.5933 564.298 90.6942 564.341 90.8063Z" fill="#EBEBEB"/>
<path d="M641.952 96.9049C641.952 97.017 641.845 97.1067 641.802 97.1852C640.233 99.6751 638.484 102.036 636.569 104.248C634.26 106.964 631.691 109.428 628.902 111.602C626.166 113.751 623.242 115.627 620.17 117.207C617.21 118.746 614.121 119.999 610.942 120.952C608.419 121.7 605.851 122.269 603.254 122.656L602.501 122.79H602.059L601.65 122.532L602.145 122.174C607.784 118.184 612.717 113.208 616.724 107.465C618.991 104.228 620.983 100.792 622.679 97.1964C622.708 97.0988 622.769 97.0151 622.852 96.9598C622.935 96.9045 623.033 96.8811 623.131 96.8937H642.006L641.952 96.9049Z" fill="#EBEBEB"/>
<path d="M623.497 61.6586H597.569V38.1162H597.871H617.801C617.889 38.105 617.977 38.1272 618.051 38.1787C618.124 38.2303 618.177 38.3076 618.199 38.3965C620.066 42.8292 621.449 47.4658 622.323 52.2192C622.791 54.6903 623.125 57.1867 623.325 59.6967C623.389 60.3021 623.443 60.9635 623.497 61.6586Z" fill="#EBEBEB"/>
<path d="M623.336 67.959C623.336 68.5083 623.336 69.0801 623.26 69.6182C623.153 70.9298 623.056 72.2527 622.883 73.5531C622.636 75.358 622.377 77.1742 622.022 78.9679C621.253 82.9037 620.129 86.755 618.663 90.47C618.639 90.5789 618.578 90.6749 618.49 90.7391C618.403 90.8034 618.295 90.8314 618.189 90.8175H597.418V67.959H623.336Z" fill="#EBEBEB"/>
<path d="M591.722 38.2172V61.838H566.408C566.408 61.2326 566.462 60.6497 566.527 60.0667C566.656 58.7439 566.753 57.421 566.957 56.1093C567.27 54.1139 567.593 52.1072 568.034 50.1229C568.867 46.1167 570.083 42.2072 571.663 38.4526C571.692 38.3601 571.75 38.2807 571.829 38.2277C571.907 38.1747 572 38.1512 572.093 38.1611H591.722V38.2172Z" fill="#EBEBEB"/>
<path d="M591.755 68.2729C591.755 75.6719 591.755 83.0747 591.755 90.4812V90.8063H571.501C571.402 90.8207 571.301 90.7967 571.218 90.7389C571.134 90.681 571.074 90.5933 571.049 90.4924C569.512 86.6611 568.357 82.6753 567.603 78.5979C567.227 76.5015 566.936 74.3827 566.688 72.2639C566.516 70.885 566.473 69.4837 566.387 68.0823C566.382 68.0339 566.382 67.9851 566.387 67.9366H591.399C591.69 67.9254 591.755 68.0039 591.755 68.2729Z" fill="#EBEBEB"/>
<path d="M650.986 61.8268H629.742C629.313 53.6812 627.641 45.6586 624.789 38.0602H644.59C644.688 38.0464 644.787 38.0678 644.871 38.1208C644.956 38.1738 645.02 38.2553 645.053 38.3517C647.321 43.0273 648.969 48.0016 649.952 53.1385C650.483 55.8729 650.843 58.6403 651.029 61.4232L650.986 61.8268Z" fill="#EBEBEB"/>
<path d="M650.997 67.7796C650.997 68.3177 650.997 68.8222 650.932 69.3267C650.796 71.322 650.562 73.3089 650.232 75.2796C649.446 79.8548 648.133 84.315 646.324 88.5642C646.044 89.248 645.721 89.9207 645.43 90.6045C645.41 90.6725 645.368 90.7311 645.311 90.7701C645.254 90.809 645.186 90.8258 645.118 90.8175H625.338C625.575 90.1112 625.812 89.4274 626.038 88.7323C627.183 85.2183 628.062 81.6161 628.665 77.9589C629.121 75.308 629.426 72.6315 629.58 69.9433C629.58 69.3043 629.656 68.6653 629.677 68.0375C629.677 67.8693 629.677 67.7796 629.904 67.8021C629.968 67.8077 630.033 67.8077 630.097 67.8021L650.997 67.7796Z" fill="#EBEBEB"/>
<path d="M641.371 32.0401V32.141H641.091C634.9 32.141 628.709 32.141 622.517 32.141C622.423 32.1529 622.327 32.1318 622.245 32.0811C622.163 32.0304 622.1 31.9529 622.065 31.8607C619.597 26.7231 616.499 21.9409 612.848 17.6344C610.694 15.1502 608.326 12.8762 605.774 10.8408C604.503 9.8318 603.19 8.87889 601.898 7.90357L601.682 7.73541L601.941 7.54483C601.941 7.43272 601.865 7.2982 601.812 7.13004C608.363 7.89565 614.728 9.88565 620.601 13.0044C628.992 17.3675 636.15 23.9274 641.371 32.0401V32.0401Z" fill="#EBEBEB"/>
<path d="M588.126 122.532C587.952 122.589 587.77 122.619 587.588 122.622C585.548 122.345 583.528 121.937 581.536 121.4C577.817 120.41 574.208 119.016 570.769 117.241C566.832 115.2 563.141 112.678 559.776 109.73C557.383 107.644 555.174 105.341 553.175 102.847C551.681 100.959 550.303 98.9747 549.051 96.9049C549.014 96.8458 548.985 96.7817 548.965 96.7143H549.267C555.038 96.7143 560.798 96.7143 566.57 96.7143C566.662 96.7064 566.755 96.7307 566.833 96.7835C566.911 96.8362 566.97 96.9144 567 97.0058C568.804 100.794 570.934 104.403 573.364 107.79C575.611 110.87 578.104 113.746 580.815 116.389C583.046 118.587 585.444 120.593 587.986 122.387L588.126 122.532Z" fill="#EBEBEB"/>
<path d="M587.9 7.70176C587.103 8.30713 586.177 8.99098 585.273 9.70847C582.254 12.1565 579.447 14.8763 576.885 17.8362C573.418 21.771 570.46 26.1618 568.088 30.8966C567.937 31.1993 567.808 31.5132 567.636 31.7934C567.606 31.8415 567.566 31.8824 567.52 31.9134C567.473 31.9443 567.421 31.9646 567.367 31.9728C567.054 31.9728 566.742 31.9728 566.43 31.9728H549.525C558.947 18.1277 571.598 9.79815 587.706 7.30939C587.706 7.38786 587.631 7.46633 587.588 7.5336L587.9 7.70176Z" fill="#EBEBEB"/>
<path d="M615.755 96.9161C613.354 101.279 610.463 105.328 607.142 108.979C604.224 112.251 600.942 115.149 597.365 117.611V96.9161H615.755Z" fill="#EBEBEB"/>
<path d="M591.722 96.9273V117.219C584.402 111.995 578.374 105.041 574.128 96.9273H591.722Z" fill="#EBEBEB"/>
<path d="M615.185 31.9616H597.569V12.6681C601.182 15.121 604.501 18.0152 607.454 21.2891C610.375 24.5616 612.965 28.1379 615.185 31.9616V31.9616Z" fill="#EBEBEB"/>
<path d="M591.722 13.2174V32.1186H574.818C578.953 24.5266 584.743 18.0523 591.722 13.2174V13.2174Z" fill="#EBEBEB"/>
<path d="M256.275 110.201H108.298V9.86542H256.275V110.201ZM109.375 109.08H255.198V10.9865H109.375V109.08Z" fill="#EBEBEB"/>
<path d="M256.275 24.1702H108.298V9.86542H256.275V24.1702ZM109.375 23.0491H255.198V10.9865H109.375V23.0491Z" fill="#EBEBEB"/>
<path d="M120.724 17.1523C120.724 17.8175 120.534 18.4678 120.179 19.0208C119.825 19.5739 119.32 20.005 118.73 20.2595C118.14 20.5141 117.49 20.5807 116.863 20.4509C116.237 20.3211 115.661 20.0008 115.21 19.5305C114.758 19.0601 114.45 18.4609 114.325 17.8085C114.201 17.1561 114.265 16.4799 114.509 15.8653C114.754 15.2508 115.168 14.7255 115.699 14.356C116.23 13.9864 116.855 13.7892 117.494 13.7892C118.35 13.7892 119.172 14.1435 119.778 14.7742C120.384 15.4049 120.724 16.2604 120.724 17.1523Z" fill="#C7C7C7"/>
<path d="M133.72 17.1523C133.72 17.8199 133.529 18.4723 133.172 19.0265C132.814 19.5807 132.307 20.0117 131.713 20.2645C131.12 20.5173 130.468 20.5806 129.84 20.4462C129.212 20.3118 128.636 19.9859 128.187 19.5099C127.737 19.034 127.434 18.4295 127.315 17.7734C127.197 17.1174 127.269 16.4395 127.521 15.826C127.774 15.2125 128.197 14.6912 128.735 14.3285C129.273 13.9658 129.903 13.778 130.544 13.7891C130.966 13.7891 131.383 13.8764 131.772 14.0461C132.161 14.2158 132.513 14.4644 132.809 14.7775C133.105 15.0906 133.338 15.4618 133.494 15.8695C133.65 16.2773 133.727 16.7133 133.72 17.1523Z" fill="#EBEBEB"/>
<path d="M146.727 17.1523C146.727 17.8175 146.538 18.4678 146.183 19.0208C145.828 19.5739 145.323 20.005 144.733 20.2595C144.143 20.5141 143.493 20.5807 142.867 20.4509C142.24 20.3211 141.665 20.0008 141.213 19.5305C140.761 19.0601 140.454 18.4609 140.329 17.8085C140.204 17.1561 140.268 16.4799 140.513 15.8653C140.757 15.2508 141.171 14.7255 141.702 14.356C142.234 13.9864 142.858 13.7892 143.497 13.7892C144.354 13.7892 145.175 14.1435 145.781 14.7742C146.387 15.4049 146.727 16.2604 146.727 17.1523Z" fill="#FFC727"/>
<path d="M354 443C549.509 443 708 422.261 708 396.678C708 371.094 549.509 350.355 354 350.355C158.491 350.355 0 371.094 0 396.678C0 422.261 158.491 443 354 443Z" fill="#EBEBEB"/>
<path d="M4.83447 335.748L92.1258 335.479L179.417 335.378L354 335.187L528.583 335.378L615.874 335.479L703.165 335.748L615.874 336.028L528.583 336.118L354 336.308L179.417 336.118L92.1258 336.017L4.83447 335.748Z" fill="#263238"/>
<path d="M562.586 60.2461H144.606V351.353H562.586V60.2461Z" fill="#DBDBDB"/>
<path d="M559.55 63.7998H147.643V347.799H559.55V63.7998Z" fill="#263238"/>
<path d="M617.026 373.18H90.1663V393.157H617.026V373.18Z" fill="#C7C7C7"/>
<path d="M90.1663 373.18L144.606 351.353H562.586L617.026 373.18H90.1663Z" fill="#DBDBDB"/>
<path d="M149.473 365.445L184.607 351.353H522.596L557.73 365.445H149.473Z" fill="#263238"/>
<path d="M536.271 85.3803H170.922V326.23H536.271V85.3803Z" fill="white"/>
<path d="M536.281 85.3803H170.62V94.6516H536.281V85.3803Z" fill="#455A64"/>
<path d="M177.695 90.0215C177.695 90.4784 177.564 90.9249 177.319 91.304C177.074 91.683 176.726 91.9774 176.319 92.1496C175.913 92.3218 175.466 92.3639 175.037 92.2706C174.607 92.1773 174.214 91.9528 173.907 91.6257C173.601 91.2987 173.395 90.884 173.316 90.4345C173.237 89.9851 173.289 89.5214 173.464 89.1025C173.639 88.6837 173.931 88.3288 174.301 88.0831C174.671 87.8375 175.102 87.7122 175.541 87.7233C176.117 87.738 176.665 87.9865 177.067 88.416C177.47 88.8454 177.695 89.4216 177.695 90.0215Z" fill="#C7C7C7"/>
<path d="M186.707 90.0215C186.707 90.4784 186.576 90.9249 186.331 91.304C186.086 91.683 185.738 91.9774 185.331 92.1496C184.925 92.3218 184.478 92.3639 184.049 92.2706C183.619 92.1773 183.226 91.9528 182.92 91.6257C182.613 91.2987 182.407 90.884 182.328 90.4345C182.249 89.9851 182.301 89.5214 182.476 89.1025C182.651 88.6837 182.943 88.3288 183.313 88.0831C183.683 87.8375 184.115 87.7122 184.553 87.7233C185.129 87.738 185.677 87.9865 186.08 88.416C186.482 88.8454 186.707 89.4216 186.707 90.0215V90.0215Z" fill="white"/>
<path d="M195.719 90.0215C195.719 90.4761 195.59 90.9204 195.347 91.2983C195.105 91.6762 194.76 91.9708 194.356 92.1448C193.953 92.3187 193.509 92.3642 193.081 92.2755C192.653 92.1869 192.26 91.968 191.951 91.6466C191.642 91.3252 191.432 90.9157 191.347 90.4699C191.262 90.0241 191.305 89.562 191.472 89.142C191.64 88.7221 191.922 88.3632 192.285 88.1106C192.648 87.8581 193.075 87.7233 193.512 87.7233C194.097 87.7233 194.659 87.9655 195.073 88.3965C195.487 88.8274 195.719 89.412 195.719 90.0215Z" fill="#FFC727"/>
<path d="M188.473 217.722L330.549 217.722V114.124L188.473 114.124V217.722Z" fill="#EBEBEB"/>
<path d="M205.076 143.575C205.076 145.998 205.766 148.367 207.059 150.382C208.352 152.397 210.191 153.968 212.341 154.895C214.491 155.823 216.858 156.065 219.141 155.593C221.424 155.12 223.521 153.953 225.166 152.239C226.812 150.526 227.933 148.342 228.387 145.965C228.841 143.588 228.608 141.125 227.718 138.886C226.827 136.647 225.318 134.733 223.383 133.387C221.448 132.04 219.172 131.322 216.845 131.322C213.723 131.322 210.73 132.613 208.523 134.91C206.316 137.208 205.076 140.325 205.076 143.575V143.575Z" fill="#DBDBDB"/>
<path d="M251.537 195.402H330.559L291.043 139.651L251.537 195.402Z" fill="#C7C7C7"/>
<path d="M220.592 195.458H285.821L253.206 159.146L220.592 195.458Z" fill="#DBDBDB"/>
<path d="M330.549 195.402H188.473V217.722H330.549V195.402Z" fill="#DBDBDB"/>
<path d="M350.759 306.387H430.147V231.601H350.759V306.387Z" fill="#EBEBEB"/>
<path d="M361.02 247.946C360.663 249.81 360.891 251.744 361.67 253.462C362.45 255.181 363.74 256.593 365.349 257.489C366.959 258.386 368.803 258.72 370.609 258.441C372.414 258.163 374.086 257.287 375.377 255.943C376.668 254.599 377.509 252.858 377.776 250.978C378.044 249.098 377.723 247.178 376.862 245.502C376.001 243.827 374.645 242.484 372.995 241.672C371.344 240.86 369.486 240.623 367.696 240.995C366.049 241.338 364.535 242.181 363.347 243.418C362.159 244.655 361.349 246.23 361.02 247.946V247.946Z" fill="#DBDBDB"/>
<path d="M373.112 290.266H430.158L401.635 250.02L373.112 290.266Z" fill="#C7C7C7"/>
<path d="M350.77 290.3H397.866L374.318 264.089L350.77 290.3Z" fill="#DBDBDB"/>
<path d="M430.158 290.266H350.77V306.376H430.158V290.266Z" fill="#DBDBDB"/>
<path d="M478.116 114.136H350.77V120.828H478.116V114.136Z" fill="#A6A6A6"/>
<path d="M505.81 127.981H350.77V134.674H505.81V127.981Z" fill="#DBDBDB"/>
<path d="M505.81 141.826H350.77V148.519H505.81V141.826Z" fill="#DBDBDB"/>
<path d="M505.81 155.682H350.77V162.375H505.81V155.682Z" fill="#DBDBDB"/>
<path d="M505.81 169.527H350.77V176.22H505.81V169.527Z" fill="#DBDBDB"/>
<path d="M453.695 183.373H350.77V190.065H453.695V183.373Z" fill="#DBDBDB"/>
<path d="M493.556 231.59H437.232V238.181H493.556V231.59Z" fill="#A6A6A6"/>
<path d="M505.799 245.233H437.232V251.825H505.799V245.233Z" fill="#DBDBDB"/>
<path d="M505.799 258.876H437.232V265.468H505.799V258.876Z" fill="#DBDBDB"/>
<path d="M505.799 272.508H437.232V279.1H505.799V272.508Z" fill="#DBDBDB"/>
<path d="M505.799 286.152H437.232V292.744H505.799V286.152Z" fill="#DBDBDB"/>
<path d="M483.769 299.795H437.232V306.387H483.769V299.795Z" fill="#DBDBDB"/>
<path d="M505.81 198.059H350.77V217.722H505.81V198.059Z" fill="#FFC727"/>
<path d="M330.549 231.59H188.473V251.253H330.549V231.59Z" fill="#A6A6A6"/>
<path d="M330.549 258.417H188.473V265.065H330.549V258.417Z" fill="#DBDBDB"/>
<path d="M330.549 272.183H188.473V278.831H330.549V272.183Z" fill="#DBDBDB"/>
<path d="M330.549 285.961H188.473V292.609H330.549V285.961Z" fill="#DBDBDB"/>
<path d="M285.821 299.728H188.473V306.376H285.821V299.728Z" fill="#DBDBDB"/>
<path d="M536.271 94.6403H526.505V326.219H536.271V94.6403Z" fill="#DBDBDB"/>
<path d="M531.382 215.839C530.714 215.839 530.073 215.562 529.601 215.07C529.128 214.578 528.863 213.911 528.863 213.215V99.5618C528.863 98.8661 529.128 98.1988 529.601 97.7069C530.073 97.2149 530.714 96.9385 531.382 96.9385C532.051 96.9385 532.691 97.2149 533.164 97.7069C533.636 98.1988 533.902 98.8661 533.902 99.5618V213.215C533.902 213.911 533.636 214.578 533.164 215.07C532.691 215.562 532.051 215.839 531.382 215.839Z" fill="#A6A6A6"/>
<path d="M310.995 215.581V379.907C310.963 383.446 309.586 386.828 307.164 389.312C304.742 391.795 301.473 393.178 298.074 393.157H49.9929C46.5935 393.178 43.3246 391.795 40.9027 389.312C38.4808 386.828 37.1033 383.446 37.072 379.907V215.581C37.1033 212.043 38.4812 208.662 40.9034 206.18C43.3256 203.698 46.5944 202.317 49.9929 202.341H298.009C299.697 202.32 301.373 202.647 302.94 203.301C304.507 203.956 305.934 204.926 307.141 206.156C308.347 207.386 309.308 208.851 309.97 210.468C310.631 212.086 310.979 213.823 310.995 215.581V215.581Z" fill="#455A64"/>
<path d="M292.184 210.357H56.3889V384.884H292.184V210.357Z" fill="white"/>
<path d="M70.4188 298.786H175.024V222.52H70.4188L70.4188 298.786Z" fill="#EBEBEB"/>
<path d="M82.6613 244.213C82.6719 245.984 83.1862 247.713 84.1391 249.18C85.0921 250.648 86.4411 251.788 88.016 252.459C89.5909 253.129 91.3211 253.298 92.9885 252.946C94.6558 252.594 96.1857 251.735 97.385 250.479C98.5843 249.222 99.3993 247.624 99.7274 245.886C100.055 244.148 99.8817 242.347 99.2282 240.712C98.5747 239.076 97.4706 237.679 96.0552 236.696C94.6399 235.713 92.9766 235.188 91.2752 235.188C90.1395 235.188 89.015 235.422 87.9663 235.876C86.9177 236.33 85.9657 236.996 85.1651 237.835C84.3646 238.674 83.7312 239.669 83.3015 240.763C82.8718 241.858 82.6542 243.03 82.6613 244.213V244.213Z" fill="#DBDBDB"/>
<path d="M116.848 282.363H175.024L145.931 241.32L116.848 282.363Z" fill="#C7C7C7"/>
<path d="M94.064 282.396H142.087L118.075 255.67L94.064 282.396Z" fill="#DBDBDB"/>
<path d="M175.024 282.363H70.4187V298.797H175.024V282.363Z" fill="#DBDBDB"/>
<path d="M208.209 371.252H278.154V320.255H208.209V371.252Z" fill="#EBEBEB"/>
<path d="M216.382 334.761C216.379 335.957 216.718 337.126 217.354 338.121C217.991 339.116 218.897 339.893 219.957 340.352C221.017 340.811 222.184 340.932 223.311 340.7C224.437 340.468 225.472 339.894 226.285 339.049C227.098 338.205 227.652 337.128 227.877 335.955C228.101 334.783 227.987 333.567 227.548 332.463C227.109 331.358 226.365 330.413 225.411 329.749C224.456 329.085 223.334 328.73 222.185 328.73C221.424 328.728 220.669 328.883 219.965 329.186C219.261 329.488 218.621 329.932 218.082 330.492C217.543 331.053 217.115 331.718 216.824 332.451C216.532 333.183 216.382 333.968 216.382 334.761V334.761Z" fill="#DBDBDB"/>
<path d="M239.262 360.265H278.154L258.708 332.822L239.262 360.265Z" fill="#C7C7C7"/>
<path d="M224.027 360.299H256.135L240.081 342.418L224.027 360.299Z" fill="#DBDBDB"/>
<path d="M278.154 360.277H208.209V371.263H278.154V360.277Z" fill="#DBDBDB"/>
<path d="M278.165 222.531H184.047V241.164H278.165V222.531Z" fill="#FFC727"/>
<path d="M278.165 248.237H184.047V250.849H278.165V248.237Z" fill="#DBDBDB"/>
<path d="M278.165 254.37H184.047V256.982H278.165V254.37Z" fill="#DBDBDB"/>
<path d="M278.165 260.502H184.047V263.114H278.165V260.502Z" fill="#DBDBDB"/>
<path d="M278.165 266.634H184.047V269.246H278.165V266.634Z" fill="#DBDBDB"/>
<path d="M278.165 272.766H184.047V275.378H278.165V272.766Z" fill="#DBDBDB"/>
<path d="M278.165 278.899H184.047V281.511H278.165V278.899Z" fill="#DBDBDB"/>
<path d="M238.153 285.031H184.047V287.643H238.153V285.031Z" fill="#DBDBDB"/>
<path d="M198.26 357.059H104.142V359.671H198.26V357.059Z" fill="#DBDBDB"/>
<path d="M198.26 320.266H104.142V322.878H198.26V320.266Z" fill="#DBDBDB"/>
<path d="M198.26 326.398H104.142V329.01H198.26V326.398Z" fill="#DBDBDB"/>
<path d="M198.26 332.53H104.142V335.142H198.26V332.53Z" fill="#DBDBDB"/>
<path d="M168.327 338.663H104.142V341.275H168.327V338.663Z" fill="#DBDBDB"/>
<path d="M198.26 350.927H104.142V353.539H198.26V350.927Z" fill="#DBDBDB"/>
<path d="M168.327 363.191H104.142V365.804H168.327V363.191Z" fill="#DBDBDB"/>
<path d="M278.165 307.306H70.4187V313.472H278.165V307.306Z" fill="#455A64"/>
<path d="M97.3157 320.266H70.4187V371.263H97.3157V320.266Z" fill="#FFC727"/>
<path d="M48.421 276.97H48.2595C47.5162 276.97 46.9136 277.598 46.9136 278.372V317.104C46.9136 317.878 47.5162 318.506 48.2595 318.506H48.421C49.1643 318.506 49.7669 317.878 49.7669 317.104V278.372C49.7669 277.598 49.1643 276.97 48.421 276.97Z" fill="#37474F"/>
<path d="M307.7 297.732C307.702 298.798 307.401 299.84 306.833 300.726C306.266 301.613 305.459 302.304 304.514 302.713C303.57 303.122 302.53 303.229 301.526 303.022C300.522 302.815 299.601 302.302 298.877 301.549C298.154 300.795 297.661 299.836 297.462 298.791C297.263 297.746 297.366 296.663 297.759 295.679C298.151 294.696 298.815 293.855 299.667 293.265C300.519 292.674 301.519 292.36 302.542 292.363C303.909 292.366 305.22 292.932 306.186 293.939C307.153 294.945 307.697 296.309 307.7 297.732V297.732Z" fill="#37474F"/>
<path d="M654.529 167.151H558.581C555.986 167.18 553.508 168.281 551.691 170.21C549.874 172.139 548.867 174.74 548.89 177.442V383.045C548.87 385.746 549.878 388.346 551.694 390.274C553.511 392.203 555.987 393.304 558.581 393.337H654.508C657.102 393.304 659.578 392.203 661.394 390.274C663.21 388.346 664.218 385.746 664.198 383.045V177.465C664.227 174.763 663.225 172.159 661.412 170.226C659.599 168.292 657.124 167.186 654.529 167.151V167.151ZM658.179 376.689C658.179 382.104 654.281 386.476 649.479 386.476H563.663C558.85 386.476 554.963 382.104 554.963 376.689V185.234C554.963 174.213 558.85 173.675 563.663 173.675H580.891C581.892 173.675 582.71 174.796 582.71 176.321V176.949C582.71 180.391 584.519 180.402 586.737 180.402H626.415C628.644 180.402 630.432 180.402 630.432 176.949V176.343C630.432 174.875 631.239 173.698 632.262 173.698H649.49C654.292 173.698 658.19 175.166 658.19 185.256L658.179 376.689Z" fill="#455A64"/>
<path d="M611.987 176.108H601.144C600.967 176.108 600.798 176.035 600.672 175.905C600.547 175.774 600.477 175.597 600.477 175.413V175.413C600.477 175.229 600.547 175.052 600.672 174.922C600.798 174.791 600.967 174.718 601.144 174.718H611.987C612.165 174.718 612.336 174.791 612.463 174.921C612.59 175.051 612.663 175.228 612.666 175.413V175.413C612.663 175.598 612.59 175.775 612.463 175.905C612.336 176.035 612.165 176.108 611.987 176.108V176.108Z" fill="white"/>
<path d="M658.179 185.234V376.689C658.179 382.104 654.281 386.476 649.479 386.476H563.663C558.85 386.476 554.963 382.104 554.963 376.689V185.234C554.963 174.213 558.85 173.675 563.663 173.675H580.891C581.892 173.675 582.71 174.796 582.71 176.321V176.949C582.71 180.391 584.519 180.402 586.738 180.402H626.415C628.644 180.402 630.432 180.402 630.432 176.949V176.343C630.432 174.875 631.239 173.698 632.262 173.698H649.49C654.281 173.675 658.179 175.144 658.179 185.234Z" fill="white"/>
<path d="M658.179 185.234V199.516H554.952V185.234C554.952 174.213 558.85 173.675 563.663 173.675H580.891C581.881 173.675 582.7 174.796 582.7 176.321V176.949C582.7 180.391 584.509 180.402 586.716 180.402H626.415C628.644 180.402 630.442 180.402 630.442 176.949V176.343C630.442 174.875 631.25 173.698 632.262 173.698H649.49C654.281 173.675 658.179 175.144 658.179 185.234Z" fill="#FFC727"/>
<path d="M564.74 192.543L561.693 189.572L564.74 186.601L565.214 187.117L562.705 189.572L565.214 192.027L564.74 192.543Z" fill="white"/>
<path d="M648.866 192.812H646.712V192.038C646.712 192.017 646.705 191.996 646.694 191.978C646.683 191.96 646.666 191.946 646.647 191.938L646.411 191.792C646.392 191.783 646.372 191.779 646.351 191.779C646.331 191.779 646.311 191.783 646.292 191.792L645.635 192.195L644.559 190.256L645.215 189.864C645.229 189.846 645.236 189.824 645.236 189.802C645.236 189.78 645.229 189.758 645.215 189.74V189.471C645.229 189.454 645.236 189.432 645.236 189.41C645.236 189.387 645.229 189.366 645.215 189.348L644.559 188.956L645.635 187.016L646.292 187.408C646.31 187.419 646.331 187.425 646.351 187.425C646.372 187.425 646.393 187.419 646.411 187.408L646.647 187.263C646.666 187.254 646.683 187.24 646.694 187.222C646.705 187.204 646.712 187.183 646.712 187.162V186.366H648.866V187.162C648.866 187.183 648.872 187.204 648.884 187.222C648.895 187.24 648.911 187.254 648.93 187.263L649.167 187.408C649.185 187.419 649.205 187.425 649.226 187.425C649.247 187.425 649.267 187.419 649.286 187.408L649.942 187.016L651.019 188.956L650.362 189.348C650.349 189.366 650.342 189.387 650.342 189.41C650.342 189.432 650.349 189.454 650.362 189.471V189.74C650.349 189.758 650.342 189.78 650.342 189.802C650.342 189.824 650.349 189.846 650.362 189.864L651.019 190.256L649.942 192.195L649.286 191.803C649.267 191.792 649.247 191.786 649.226 191.786C649.205 191.786 649.185 191.792 649.167 191.803L648.93 191.949C648.911 191.957 648.895 191.971 648.884 191.989C648.872 192.007 648.866 192.028 648.866 192.05V192.812ZM647.25 192.251H648.327V192.038C648.329 191.914 648.363 191.792 648.425 191.685C648.488 191.578 648.577 191.491 648.683 191.433C648.747 191.402 648.808 191.365 648.866 191.321C648.97 191.258 649.089 191.225 649.21 191.225C649.331 191.225 649.45 191.258 649.555 191.321L649.748 191.444L650.287 190.469L650.093 190.346C649.989 190.285 649.904 190.195 649.846 190.086C649.789 189.977 649.763 189.853 649.77 189.729V189.505C649.763 189.379 649.79 189.254 649.847 189.144C649.904 189.033 649.989 188.941 650.093 188.877L650.287 188.765L649.748 187.79L649.555 187.913C649.452 187.976 649.335 188.009 649.216 188.009C649.096 188.009 648.979 187.976 648.876 187.913L648.683 187.801C648.577 187.742 648.488 187.655 648.425 187.549C648.363 187.442 648.329 187.32 648.327 187.195V186.96H647.25V187.195C647.249 187.32 647.215 187.442 647.153 187.549C647.09 187.655 647.001 187.742 646.895 187.801C646.831 187.832 646.769 187.869 646.712 187.913C646.607 187.976 646.489 188.009 646.368 188.009C646.247 188.009 646.128 187.976 646.023 187.913L645.829 187.79L645.291 188.765L645.485 188.877C645.589 188.941 645.674 189.033 645.731 189.144C645.788 189.254 645.814 189.379 645.808 189.505V189.729C645.814 189.854 645.788 189.979 645.731 190.09C645.674 190.201 645.589 190.293 645.485 190.357L645.291 190.469L645.829 191.444L646.023 191.321C646.128 191.258 646.247 191.225 646.368 191.225C646.489 191.225 646.607 191.258 646.712 191.321C646.769 191.365 646.831 191.402 646.895 191.433C647.001 191.491 647.09 191.578 647.153 191.685C647.215 191.792 647.249 191.914 647.25 192.038V192.251ZM647.789 191.231C647.474 191.231 647.166 191.134 646.904 190.952C646.641 190.769 646.437 190.51 646.317 190.207C646.196 189.904 646.164 189.57 646.226 189.248C646.287 188.927 646.439 188.631 646.662 188.399C646.885 188.167 647.169 188.009 647.478 187.945C647.787 187.881 648.107 187.914 648.399 188.039C648.69 188.165 648.939 188.377 649.114 188.65C649.289 188.923 649.382 189.244 649.382 189.572C649.38 190.011 649.211 190.432 648.913 190.742C648.614 191.053 648.211 191.228 647.789 191.231V191.231ZM647.789 188.473C647.576 188.473 647.368 188.539 647.191 188.662C647.014 188.786 646.876 188.961 646.794 189.165C646.713 189.37 646.691 189.596 646.733 189.813C646.774 190.031 646.877 190.23 647.027 190.387C647.178 190.544 647.37 190.651 647.579 190.694C647.788 190.737 648.004 190.715 648.201 190.63C648.398 190.545 648.566 190.402 648.684 190.217C648.802 190.033 648.866 189.816 648.866 189.595C648.866 189.297 648.752 189.012 648.55 188.802C648.348 188.592 648.074 188.473 647.789 188.473Z" fill="white"/>
<path d="M577.887 177.969L577.725 178.148L577.628 178.249C577.418 178.026 577.166 177.848 576.889 177.727C576.612 177.605 576.314 177.543 576.013 177.543C575.712 177.543 575.414 177.605 575.137 177.727C574.86 177.848 574.609 178.026 574.398 178.249L574.312 178.148L574.15 177.98C574.213 177.911 574.282 177.847 574.355 177.79C574.503 177.661 574.666 177.552 574.839 177.465C575.045 177.362 575.262 177.286 575.486 177.24H575.809H576.304C576.506 177.266 576.704 177.315 576.896 177.386C577.034 177.442 577.167 177.509 577.294 177.588C577.432 177.664 577.561 177.755 577.682 177.857L577.854 178.025L577.887 177.969Z" fill="white"/>
<path d="M574.947 178.787L574.689 178.518C574.864 178.335 575.072 178.19 575.301 178.091C575.53 177.992 575.776 177.941 576.024 177.941C576.272 177.941 576.518 177.992 576.747 178.091C576.976 178.19 577.184 178.335 577.359 178.518L577.101 178.799C576.814 178.503 576.427 178.337 576.024 178.337C575.621 178.337 575.234 178.503 574.947 178.799V178.787Z" fill="white"/>
<path d="M576.885 179.056L576.627 179.337C576.557 179.262 576.473 179.203 576.381 179.162C576.288 179.122 576.189 179.101 576.089 179.101C575.988 179.101 575.889 179.122 575.797 179.162C575.704 179.203 575.62 179.262 575.55 179.337L575.292 179.056C575.505 178.84 575.791 178.719 576.089 178.719C576.386 178.719 576.672 178.84 576.885 179.056Z" fill="white"/>
<path d="M576.261 179.583C576.261 179.632 576.247 179.68 576.221 179.72C576.195 179.761 576.158 179.793 576.115 179.811C576.071 179.83 576.024 179.835 575.978 179.825C575.932 179.816 575.89 179.792 575.856 179.758C575.823 179.723 575.801 179.679 575.792 179.631C575.783 179.584 575.787 179.534 575.805 179.489C575.823 179.444 575.853 179.405 575.892 179.378C575.931 179.351 575.977 179.337 576.024 179.337C576.055 179.335 576.087 179.34 576.116 179.352C576.146 179.364 576.173 179.382 576.195 179.405C576.217 179.429 576.235 179.456 576.246 179.487C576.257 179.518 576.262 179.551 576.261 179.583V179.583Z" fill="white"/>
<path d="M561.693 178.496C561.693 178.309 561.764 178.129 561.891 177.997C562.019 177.864 562.191 177.79 562.371 177.79C562.552 177.79 562.726 177.864 562.854 177.996C562.983 178.128 563.057 178.308 563.06 178.496C563.06 178.686 562.987 178.869 562.858 179.003C562.729 179.138 562.554 179.213 562.371 179.213C562.19 179.21 562.018 179.134 561.891 178.999C561.764 178.865 561.693 178.684 561.693 178.496Z" fill="white"/>
<path d="M563.846 178.496C563.846 178.309 563.918 178.129 564.045 177.997C564.172 177.864 564.345 177.79 564.525 177.79C564.705 177.79 564.879 177.864 565.008 177.996C565.137 178.128 565.211 178.308 565.214 178.496C565.214 178.686 565.141 178.869 565.012 179.003C564.883 179.138 564.707 179.213 564.525 179.213C564.344 179.21 564.171 179.134 564.044 178.999C563.917 178.865 563.846 178.684 563.846 178.496Z" fill="white"/>
<path d="M566 178.496C566.02 178.323 566.101 178.163 566.227 178.047C566.353 177.932 566.515 177.868 566.683 177.868C566.851 177.868 567.013 177.932 567.139 178.047C567.265 178.163 567.346 178.323 567.367 178.496C567.379 178.597 567.371 178.699 567.342 178.797C567.313 178.894 567.265 178.984 567.2 179.06C567.135 179.136 567.056 179.198 566.967 179.239C566.878 179.281 566.781 179.303 566.683 179.303C566.586 179.303 566.489 179.281 566.4 179.239C566.311 179.198 566.231 179.136 566.166 179.06C566.102 178.984 566.053 178.894 566.025 178.797C565.996 178.699 565.987 178.597 566 178.496V178.496Z" fill="white"/>
<path d="M568.153 178.496C568.153 178.354 568.193 178.215 568.269 178.097C568.345 177.979 568.452 177.887 568.578 177.833C568.704 177.779 568.843 177.765 568.976 177.792C569.11 177.82 569.233 177.888 569.329 177.989C569.426 178.089 569.491 178.217 569.518 178.356C569.544 178.495 569.531 178.639 569.479 178.77C569.426 178.902 569.338 179.014 569.225 179.092C569.111 179.171 568.978 179.213 568.842 179.213C568.659 179.213 568.484 179.138 568.355 179.003C568.225 178.869 568.153 178.686 568.153 178.496V178.496Z" fill="white"/>
<path d="M570.307 178.496C570.309 178.308 570.383 178.128 570.512 177.996C570.641 177.864 570.815 177.79 570.996 177.79C571.176 177.79 571.348 177.864 571.475 177.997C571.603 178.129 571.674 178.309 571.674 178.496C571.674 178.684 571.603 178.865 571.476 178.999C571.349 179.134 571.177 179.21 570.996 179.213C570.813 179.213 570.638 179.138 570.508 179.003C570.379 178.869 570.307 178.686 570.307 178.496V178.496Z" fill="white"/>
<path d="M650.427 180.043H644.871V177.375H650.427V180.043ZM645.14 179.763H650.157V177.655H645.14V179.763Z" fill="white"/>
<path d="M648.909 177.823H645.323V179.595H648.909V177.823Z" fill="white"/>
<path d="M650.933 177.991H650.438V179.426H650.933V177.991Z" fill="white"/>
<path d="M570.64 374.772H569.854V378.528H568.39V376.611H565.795V378.528H564.33V374.772H563.544L567.098 370.96L570.64 374.772Z" fill="#EBEBEB"/>
<path d="M649.608 370.96H641.048V372.238H649.608V370.96Z" fill="#EBEBEB"/>
<path d="M649.608 374.099H641.048V375.377H649.608V374.099Z" fill="#EBEBEB"/>
<path d="M649.608 377.249H641.048V378.527H649.608V377.249Z" fill="#EBEBEB"/>
<path d="M570.479 218.316C569.57 218.907 568.519 219.219 567.448 219.219C566.376 219.219 565.326 218.907 564.417 218.316C563.351 217.63 562.53 216.6 562.077 215.384C561.624 214.167 561.564 212.83 561.907 211.575C562.25 210.32 562.976 209.216 563.976 208.43C564.976 207.644 566.195 207.218 567.448 207.218C568.701 207.218 569.92 207.644 570.92 208.43C571.92 209.216 572.646 210.32 572.989 211.575C573.331 212.83 573.272 214.167 572.819 215.384C572.366 216.6 571.544 217.63 570.479 218.316V218.316Z" fill="#DBDBDB"/>
<path d="M569.197 212.531C569.197 212.893 569.094 213.247 568.901 213.548C568.708 213.849 568.433 214.083 568.111 214.221C567.79 214.359 567.437 214.394 567.096 214.323C566.755 214.251 566.442 214.076 566.197 213.82C565.952 213.563 565.786 213.236 565.72 212.881C565.653 212.526 565.689 212.158 565.824 211.824C565.958 211.491 566.185 211.206 566.475 211.007C566.765 210.807 567.106 210.702 567.453 210.704C567.917 210.707 568.36 210.901 568.687 211.243C569.014 211.586 569.197 212.049 569.197 212.531V212.531Z" fill="white"/>
<path d="M570.479 217.565V218.316C569.569 218.907 568.519 219.22 567.448 219.22C566.376 219.22 565.326 218.907 564.417 218.316V217.565C564.463 216.761 564.802 216.005 565.365 215.452C565.929 214.9 566.674 214.592 567.448 214.592C568.222 214.592 568.966 214.9 569.53 215.452C570.093 216.005 570.432 216.761 570.479 217.565V217.565Z" fill="white"/>
<path d="M617.037 207.565H580.428V210.704H617.037V207.565Z" fill="#EBEBEB"/>
<path d="M612.386 212.801H580.428V214.886H612.386V212.801Z" fill="#EBEBEB"/>
<path d="M633.264 216.814H580.428V218.899H633.264V216.814Z" fill="#EBEBEB"/>
<path d="M554.963 299.425H658.179V224.179H554.963V299.425Z" fill="#EBEBEB"/>
<path d="M567.022 245.569C567.022 247.33 567.524 249.051 568.463 250.515C569.403 251.978 570.738 253.119 572.3 253.793C573.862 254.467 575.581 254.643 577.24 254.299C578.898 253.956 580.421 253.108 581.617 251.863C582.813 250.619 583.627 249.032 583.957 247.306C584.287 245.579 584.117 243.789 583.47 242.163C582.823 240.536 581.727 239.146 580.321 238.168C578.916 237.19 577.263 236.668 575.572 236.668C573.304 236.668 571.13 237.606 569.526 239.275C567.923 240.944 567.022 243.208 567.022 245.569V245.569Z" fill="#DBDBDB"/>
<path d="M600.789 283.215H658.179L629.484 242.711L600.789 283.215Z" fill="#C7C7C7"/>
<path d="M578.285 283.248H625.673L601.973 256.881L578.285 283.248Z" fill="#DBDBDB"/>
<path d="M658.179 283.215H554.963V299.425H658.179V283.215Z" fill="#DBDBDB"/>
<path d="M570.479 339.1C569.57 339.69 568.519 340.003 567.448 340.003C566.376 340.003 565.326 339.69 564.417 339.1C563.351 338.413 562.53 337.384 562.077 336.167C561.624 334.951 561.564 333.614 561.907 332.359C562.25 331.104 562.976 330 563.976 329.213C564.976 328.427 566.195 328.002 567.448 328.002C568.701 328.002 569.92 328.427 570.92 329.213C571.92 330 572.646 331.104 572.989 332.359C573.331 333.614 573.272 334.951 572.819 336.167C572.366 337.384 571.544 338.413 570.479 339.1V339.1Z" fill="#DBDBDB"/>
<path d="M567.453 335.142C568.422 335.142 569.208 334.324 569.208 333.315C569.208 332.306 568.422 331.488 567.453 331.488C566.484 331.488 565.698 332.306 565.698 333.315C565.698 334.324 566.484 335.142 567.453 335.142Z" fill="white"/>
<path d="M570.479 338.349V339.1C569.569 339.69 568.519 340.003 567.448 340.003C566.376 340.003 565.326 339.69 564.417 339.1V338.349C564.463 337.544 564.802 336.788 565.365 336.236C565.929 335.683 566.674 335.375 567.448 335.375C568.222 335.375 568.966 335.683 569.53 336.236C570.093 336.788 570.432 337.544 570.479 338.349V338.349Z" fill="white"/>
<path d="M627.503 328.349H580.428V331.488H627.503V328.349Z" fill="#EBEBEB"/>
<path d="M640.532 333.584H580.428V335.669H640.532V333.584Z" fill="#EBEBEB"/>
<path d="M600.897 337.597H580.428V339.683H600.897V337.597Z" fill="#EBEBEB"/>
<path d="M658.158 344.963H554.963V363.337H658.158V344.963Z" fill="#EBEBEB"/>
<path d="M583.615 363.348H567.529C568.12 361.62 569.211 360.125 570.651 359.067C572.091 358.01 573.81 357.442 575.572 357.442C577.334 357.442 579.053 358.01 580.493 359.067C581.933 360.125 583.024 361.62 583.615 363.348Z" fill="#DBDBDB"/>
<path d="M561.897 308.237C561.737 307.554 561.776 306.837 562.007 306.177C562.239 305.517 562.654 304.943 563.198 304.528C563.743 304.113 564.394 303.875 565.068 303.845C565.743 303.816 566.411 303.995 566.988 304.36C567.564 304.725 568.024 305.26 568.309 305.898C568.593 306.535 568.69 307.246 568.586 307.941C568.483 308.635 568.184 309.282 567.727 309.8C567.271 310.317 566.677 310.683 566.021 310.849C565.586 310.961 565.133 310.982 564.69 310.911C564.246 310.84 563.82 310.679 563.437 310.436C563.054 310.193 562.721 309.874 562.456 309.497C562.192 309.119 562.002 308.691 561.897 308.237V308.237Z" fill="#EBEBEB"/>
<path fill-rule="evenodd" clip-rule="evenodd" d="M564.751 308.809C564.654 308.752 564.578 308.663 564.46 308.674C564.341 308.685 564.46 308.674 564.46 308.618V307.194C564.452 307.183 564.448 307.169 564.448 307.155C564.448 307.141 564.452 307.127 564.46 307.116C564.804 306.936 564.955 306.578 565.17 306.264C565.284 306.105 565.365 305.923 565.408 305.73C565.451 305.537 565.454 305.337 565.418 305.143C565.418 305.042 565.418 304.997 565.547 304.974C565.593 304.955 565.643 304.952 565.69 304.966C565.737 304.981 565.778 305.011 565.806 305.053C565.907 305.248 565.973 305.461 566 305.681C566.021 305.856 566.021 306.033 566 306.208C566 306.342 565.946 306.465 565.924 306.6C565.903 306.735 565.989 306.6 566.021 306.6H567.173C567.335 306.6 567.421 306.6 567.442 306.757C567.454 306.826 567.443 306.898 567.412 306.961C567.381 307.023 567.331 307.074 567.27 307.105C567.27 307.105 567.195 307.105 567.195 307.161C567.195 307.217 567.195 307.161 567.27 307.217C567.346 307.273 567.378 307.519 567.27 307.643C567.162 307.766 567.162 307.643 567.162 307.71C567.162 307.777 567.227 307.71 567.259 307.8C567.284 307.832 567.301 307.871 567.309 307.912C567.317 307.952 567.315 307.995 567.305 308.035C567.294 308.075 567.275 308.112 567.249 308.143C567.222 308.175 567.189 308.199 567.152 308.214H567.076C567.076 308.214 567.076 308.214 567.076 308.27C567.115 308.289 567.148 308.32 567.171 308.357C567.194 308.395 567.206 308.439 567.206 308.483C567.206 308.528 567.194 308.572 567.171 308.61C567.148 308.647 567.115 308.677 567.076 308.696C567.01 308.719 566.938 308.719 566.872 308.696H565.063C565.056 308.73 565.04 308.761 565.018 308.787C564.996 308.813 564.968 308.832 564.937 308.843C564.905 308.855 564.872 308.857 564.839 308.851C564.807 308.845 564.776 308.83 564.751 308.809V308.809Z" fill="white"/>
<path fill-rule="evenodd" clip-rule="evenodd" d="M563.028 307.979C563.028 307.676 563.028 307.374 563.028 307.071C563.028 307.015 563.028 306.981 563.114 306.981C563.459 306.981 563.814 306.981 564.191 306.981C564.255 306.981 564.266 306.981 564.266 307.071V308.887C564.266 308.965 564.266 308.988 564.169 308.988H563.146C563.06 308.988 563.049 308.988 563.049 308.876C563.039 308.629 563.028 308.282 563.028 307.979Z" fill="white"/>
<path d="M569.068 308.237C568.909 307.554 568.948 306.838 569.179 306.178C569.411 305.519 569.825 304.945 570.369 304.531C570.914 304.116 571.564 303.878 572.238 303.848C572.912 303.818 573.579 303.996 574.156 304.36C574.732 304.725 575.193 305.259 575.478 305.895C575.763 306.531 575.861 307.241 575.759 307.936C575.657 308.63 575.36 309.277 574.905 309.796C574.45 310.314 573.858 310.681 573.203 310.849C572.767 310.962 572.313 310.985 571.868 310.915C571.424 310.845 570.997 310.684 570.612 310.441C570.228 310.198 569.893 309.878 569.628 309.5C569.363 309.121 569.173 308.692 569.068 308.237Z" fill="#FFC727"/>
<path d="M574.129 307.844C574.129 308.326 573.945 308.788 573.618 309.129C573.291 309.469 572.847 309.661 572.385 309.661C571.922 309.661 571.478 309.469 571.151 309.129C570.824 308.788 570.64 308.326 570.64 307.844C570.529 307.675 570.454 307.482 570.42 307.28C570.386 307.077 570.395 306.87 570.445 306.671C570.495 306.472 570.585 306.287 570.71 306.128C570.835 305.968 570.991 305.839 571.168 305.748C572.137 305.445 572.385 307.205 572.385 307.205C572.385 307.205 572.632 305.445 573.612 305.748C574.29 305.961 574.56 306.936 574.129 307.844Z" fill="white"/>
<path d="M629.484 306.936H580.999V308.988H629.484V306.936Z" fill="#EBEBEB"/>
<path d="M554.963 319.19L567.862 318.988L580.762 318.876L606.56 318.775L632.359 318.876L645.258 318.988L658.158 319.19L645.258 319.403L632.359 319.515L606.56 319.616L580.762 319.515L567.862 319.403L554.963 319.19Z" fill="#EBEBEB"/>
<path d="M399.945 416.307C399.137 413.931 357.456 358.999 354.657 358.012C354.345 357.878 336.481 371.711 336.481 371.711C335.749 372.765 301.121 365.927 301.121 365.927L301.649 409.234L364.412 406.476C364.412 406.476 373.026 411.487 380.843 415.545C384.179 417.412 387.625 419.059 391.158 420.478C394.335 421.229 400.763 418.662 399.945 416.307Z" fill="#EB9481"/>
<path d="M391.18 420.455C387.649 419.038 384.208 417.391 380.876 415.523V415.523C373.037 411.464 364.445 406.453 364.445 406.453L350.447 407.07L327.835 370.781C332.659 371.566 336.245 372.014 336.449 371.678C336.449 371.678 354.302 357.855 354.625 357.99C357.424 358.999 399.105 413.931 399.912 416.285C400.72 418.639 394.335 421.24 391.18 420.455Z" fill="white"/>
<path d="M400.3 416.364C399.449 413.942 357.586 359.043 354.711 358.001C353.634 357.597 344.869 363.494 336.46 371.689L363.486 407.036C363.486 407.036 388.036 419.906 391.298 420.702C394.561 421.498 401.161 418.796 400.3 416.364Z" fill="#FFC727"/>
<path d="M397.608 417.372C390.372 408.404 362.011 371.241 355.518 361.756C355.464 361.678 355.518 361.633 355.518 361.756C362.872 370.534 390.954 407.877 397.694 417.294C397.899 417.372 397.759 417.518 397.608 417.372Z" fill="#263238"/>
<path d="M386.733 418.74C385.925 417.738 385.325 416.571 384.973 415.315C384.621 414.059 384.524 412.74 384.687 411.442C384.962 409.108 386.092 406.975 387.842 405.489C387.896 405.489 387.971 405.545 387.917 405.601C386.405 407.359 385.481 409.581 385.287 411.933C385.093 414.285 385.638 416.638 386.841 418.639C386.895 418.718 386.787 418.807 386.733 418.74Z" fill="#263238"/>
<path d="M366.598 409.2C363.734 405.556 361.731 400.231 362.883 395.568C362.883 395.388 363.174 395.456 363.195 395.568C364.033 400.128 365.336 404.581 367.082 408.852C367.127 408.919 367.144 409.002 367.129 409.082C367.115 409.162 367.071 409.232 367.007 409.278C366.943 409.325 366.864 409.342 366.787 409.327C366.71 409.313 366.642 409.267 366.598 409.2Z" fill="#263238"/>
<path d="M369.828 411.162C366.975 407.518 364.961 402.193 366.113 397.53C366.113 397.35 366.404 397.418 366.436 397.53C367.265 402.09 368.564 406.544 370.313 410.814C370.357 410.881 370.374 410.964 370.36 411.044C370.346 411.123 370.301 411.194 370.237 411.24C370.205 411.263 370.17 411.279 370.132 411.288C370.094 411.296 370.055 411.297 370.017 411.289C369.94 411.275 369.872 411.229 369.828 411.162V411.162Z" fill="#263238"/>
<path d="M373.058 413.124C370.205 409.48 368.202 404.155 369.344 399.491C369.344 399.312 369.634 399.379 369.667 399.491C370.502 404.05 371.802 408.504 373.543 412.776C373.587 412.843 373.604 412.925 373.59 413.005C373.576 413.085 373.532 413.156 373.468 413.202C373.403 413.248 373.324 413.266 373.247 413.251C373.171 413.236 373.103 413.191 373.058 413.124Z" fill="#263238"/>
<path d="M376.299 415.13C373.435 411.487 371.432 406.162 372.574 401.498C372.574 401.319 372.864 401.386 372.897 401.498C373.731 406.059 375.034 410.513 376.784 414.783C376.828 414.85 376.845 414.932 376.831 415.012C376.817 415.092 376.773 415.163 376.708 415.209C376.677 415.232 376.641 415.248 376.603 415.256C376.565 415.264 376.526 415.265 376.488 415.258C376.412 415.243 376.344 415.197 376.299 415.13V415.13Z" fill="#263238"/>
<path d="M348.907 370.994C345.763 366.846 351.944 361.768 355.088 365.916C358.232 370.064 352.051 375.142 348.907 370.994Z" fill="#263238"/>
<path d="M365.155 416.397C366.103 412.373 365.338 408.068 365.08 403.998C365.067 403.909 365.034 403.825 364.983 403.752C364.933 403.679 364.867 403.619 364.79 403.578C364.714 403.536 364.629 403.514 364.543 403.513C364.456 403.512 364.371 403.532 364.294 403.572C364.282 403.558 364.267 403.546 364.25 403.539C364.233 403.531 364.215 403.527 364.197 403.527C364.178 403.527 364.16 403.531 364.144 403.539C364.127 403.546 364.112 403.558 364.1 403.572C361.074 406.527 358.846 410.258 357.639 414.39C356.983 416.812 357.316 420.366 360.224 421.005C363.131 421.644 364.606 418.751 365.155 416.397ZM362.356 418.987C358.221 421.812 358.425 415.747 358.985 413.987C359.358 412.833 359.811 411.709 360.342 410.624C361.458 408.423 362.68 406.283 364.003 404.211C364.003 406.218 364.186 408.202 364.261 410.198C364.358 412.63 364.628 417.44 362.356 418.987Z" fill="#263238"/>
<path d="M351.847 392.328C349.758 394.57 351.351 397.687 353.193 399.323C356.393 402.086 360.237 403.919 364.337 404.637C364.434 404.637 364.477 404.581 364.477 404.503C364.563 404.493 364.647 404.462 364.72 404.413C364.793 404.363 364.853 404.296 364.896 404.217C364.939 404.138 364.964 404.05 364.968 403.959C364.972 403.868 364.955 403.778 364.918 403.695C362.98 400.153 361.333 396.128 358.458 393.314C356.735 391.666 353.849 390.254 351.847 392.328ZM360.924 398.953C361.925 400.669 362.829 402.429 363.874 404.11C361.72 403.068 359.502 402.126 357.413 400.859C356.406 400.262 355.438 399.596 354.517 398.864C353.117 397.743 349.747 392.765 354.689 392.754C357.446 392.709 359.771 396.913 360.945 398.953H360.924Z" fill="#263238"/>
<path d="M299.086 355.602L270.779 353.281C270.779 353.281 229.863 340.949 206.261 347.396C179.17 354.806 175.347 387.754 202.89 400.96C230.175 414.009 350.092 409.211 350.092 409.211L324.379 369.559C324.379 369.559 284.884 359.907 250.31 361.869L299.259 367.732L299.086 355.602Z" fill="#37474F"/>
<path d="M298.796 363.987C294.586 363.27 290.322 362.866 286.079 362.496C281.837 362.126 277.465 361.756 273.158 361.476C264.589 360.893 255.996 360.759 247.414 361.073C246.606 361.073 245.809 361.151 245.002 361.207C244.828 361.155 244.652 361.114 244.474 361.084C244.065 360.983 243.645 360.882 243.236 360.815C242.45 360.68 241.675 360.579 240.889 360.467C239.263 360.243 237.658 360.097 236.011 359.817C235.914 359.817 235.871 359.963 236.011 359.974C237.648 360.321 239.241 360.77 240.889 361.095L242.299 361.375C239.155 361.611 236.022 361.936 232.888 362.306C232.791 362.306 232.791 362.474 232.888 362.463C237.195 362.104 241.502 361.981 245.745 361.969C249.987 361.958 254.24 361.969 258.493 362.115C267.107 362.44 275.721 363.057 284.249 363.808C289.051 364.223 293.875 364.739 298.699 364.839C299.173 364.862 299.269 364.066 298.796 363.987Z" fill="#263238"/>
<path d="M337.849 408.303C336.266 405.781 334.899 403.079 333.445 400.456L329.052 392.608C326.123 387.395 315.636 369.884 314.613 368.662C314.548 368.584 314.419 368.662 314.451 368.774C314.957 370.131 321.515 381.734 323.065 384.323C326.08 389.492 329.246 394.559 332.358 399.66C333.251 401.117 334.167 402.563 335.071 404.009C335.975 405.456 336.934 406.879 337.763 408.37C337.731 408.482 337.849 408.404 337.849 408.303Z" fill="#263238"/>
<path d="M196.979 424.289C197.679 421.879 236.819 364.963 239.564 363.808C239.876 363.662 258.353 376.588 258.353 376.588C259.129 377.608 293.401 369.077 293.401 369.077L294.844 412.361L232.027 412.698C232.027 412.698 223.682 418.124 216.027 422.574C212.778 424.6 209.412 426.416 205.948 428.011C202.804 428.942 196.268 426.689 196.979 424.289Z" fill="#EB9481"/>
<path d="M205.927 428.011C209.389 426.42 212.751 424.604 215.994 422.574V422.574C223.639 418.09 231.995 412.698 231.995 412.698L245.992 412.63L266.935 375.265C262.154 376.285 258.59 376.913 258.321 376.588C258.321 376.588 239.844 363.651 239.532 363.808C236.786 364.929 197.647 421.879 196.947 424.289C196.247 426.7 202.804 428.942 205.927 428.011Z" fill="white"/>
<path d="M196.613 424.379C197.345 421.913 236.678 364.963 239.489 363.842C240.565 363.382 249.578 368.842 258.353 376.599L232.953 413.258C232.953 413.258 209.028 427.316 205.798 428.269C202.567 429.222 195.881 426.845 196.613 424.379Z" fill="#FFC727"/>
<path d="M199.369 425.22C206.185 415.848 232.824 377.395 238.886 367.586C238.886 367.508 238.886 367.474 238.821 367.586C231.876 376.711 205.528 415.399 199.219 425.141C199.079 425.287 199.219 425.399 199.369 425.22Z" fill="#263238"/>
<path d="M210.298 426.072C211.057 425.03 211.6 423.835 211.892 422.564C212.185 421.292 212.222 419.971 212 418.684C211.637 416.374 210.434 414.299 208.64 412.888C208.64 412.888 208.511 412.955 208.554 413.011C210.145 414.692 211.17 416.866 211.473 419.205C211.775 421.544 211.341 423.922 210.234 425.982C210.232 425.993 210.233 426.003 210.235 426.013C210.238 426.023 210.242 426.033 210.248 426.041C210.254 426.05 210.261 426.057 210.27 426.062C210.279 426.067 210.288 426.071 210.298 426.072V426.072Z" fill="#263238"/>
<path d="M229.97 415.545C232.662 411.767 234.428 406.375 233.061 401.756C233.061 401.577 232.77 401.655 232.748 401.812C232.135 406.403 231.052 410.913 229.518 415.265C229.507 415.324 229.514 415.384 229.538 415.439C229.561 415.494 229.601 415.539 229.65 415.57C229.699 415.601 229.757 415.615 229.814 415.61C229.871 415.606 229.926 415.583 229.97 415.545V415.545Z" fill="#263238"/>
<path d="M226.826 417.664C229.518 413.886 231.284 408.494 229.927 403.875C229.927 403.695 229.626 403.774 229.604 403.931C228.991 408.522 227.908 413.032 226.374 417.384C226.363 417.442 226.37 417.503 226.394 417.558C226.417 417.612 226.456 417.658 226.506 417.689C226.555 417.719 226.612 417.733 226.67 417.729C226.727 417.725 226.782 417.702 226.826 417.664V417.664Z" fill="#263238"/>
<path d="M223.715 419.783C226.396 416.005 228.161 410.612 226.805 405.994C226.751 405.814 226.514 405.893 226.493 405.994C225.875 410.584 224.792 415.093 223.262 419.446C223.23 419.509 223.22 419.582 223.235 419.651C223.251 419.72 223.29 419.782 223.346 419.823C223.401 419.864 223.469 419.883 223.537 419.876C223.605 419.868 223.668 419.835 223.715 419.783V419.783Z" fill="#263238"/>
<path d="M220.549 421.913C223.241 418.124 225.007 412.731 223.639 408.112C223.639 407.933 223.348 408.012 223.327 408.169C222.714 412.76 221.631 417.27 220.097 421.621C220.083 421.681 220.087 421.744 220.11 421.8C220.132 421.857 220.171 421.905 220.221 421.937C220.272 421.97 220.33 421.985 220.389 421.98C220.448 421.976 220.504 421.952 220.549 421.913V421.913Z" fill="#263238"/>
<path d="M245.906 376.521C248.856 372.227 242.45 367.451 239.499 371.745C236.549 376.039 242.945 380.815 245.906 376.521Z" fill="#263238"/>
<path d="M236.904 427.002C239.779 426.229 239.952 422.664 239.176 420.276C237.778 416.2 235.371 412.581 232.199 409.783C232.124 409.716 232.059 409.783 232.016 409.783C231.936 409.747 231.849 409.732 231.762 409.738C231.675 409.743 231.59 409.77 231.515 409.816C231.44 409.862 231.376 409.925 231.328 410.001C231.28 410.077 231.251 410.164 231.241 410.254C231.176 414.323 230.606 418.662 231.736 422.642C232.393 424.996 234.18 427.742 236.904 427.002ZM232.328 416.476C232.328 414.48 232.393 412.485 232.328 410.489C233.745 412.491 235.06 414.567 236.269 416.711C236.844 417.755 237.351 418.837 237.787 419.951C238.423 421.689 238.864 427.731 234.643 425.13C232.328 423.684 232.328 418.864 232.328 416.476Z" fill="#263238"/>
<path d="M237.4 399.278C234.611 402.238 233.147 406.341 231.381 409.973C231.348 410.057 231.336 410.148 231.343 410.238C231.351 410.328 231.379 410.415 231.425 410.492C231.472 410.568 231.535 410.633 231.609 410.679C231.684 410.725 231.768 410.752 231.855 410.758C231.853 410.777 231.855 410.797 231.862 410.815C231.868 410.833 231.879 410.849 231.892 410.862C231.906 410.875 231.922 410.885 231.94 410.89C231.958 410.895 231.977 410.896 231.995 410.893C236.056 409.969 239.814 407.951 242.891 405.041C244.646 403.314 246.122 400.086 243.914 397.989C241.707 395.893 239.026 397.552 237.4 399.278ZM241.082 398.539C246.014 398.314 242.87 403.415 241.524 404.637C240.638 405.412 239.702 406.123 238.724 406.767C236.687 408.065 234.589 409.255 232.436 410.332C233.405 408.606 234.234 406.801 235.15 405.041C236.237 402.944 238.358 398.662 241.082 398.539Z" fill="#263238"/>
<path d="M294.962 355.714L323.141 354.94C323.141 354.94 352.213 339.369 376.138 344.66C403.53 350.714 407.923 386.218 387.896 399.368C362.528 416.027 247.737 416.106 247.737 416.106L271.425 371.667C271.425 371.667 309.358 362.25 343.986 362.508L295.35 370.781L294.962 355.714Z" fill="#37474F"/>
<path d="M269.831 374.57C269.859 374.499 269.877 374.423 269.885 374.346V374.155L269.982 373.729C270.057 373.438 270.154 373.158 270.251 372.866C270.348 372.575 270.466 372.306 270.574 372.025C270.706 371.752 270.857 371.49 271.026 371.241C271.026 371.241 271.026 371.241 271.091 371.185H271.145H271.209C275.387 370.254 303.781 365.221 308.012 364.604C312.244 363.987 316.54 363.483 320.826 362.956C329.357 361.947 337.931 361.386 346.517 361.274C347.324 361.274 348.132 361.274 348.939 361.274C349.108 361.214 349.281 361.165 349.456 361.129C349.865 361.017 350.275 360.893 350.684 360.804C351.459 360.624 352.234 360.478 353.009 360.333C354.625 360.03 356.24 359.806 357.855 359.447C357.952 359.447 357.995 359.582 357.855 359.604C356.24 360.03 354.625 360.557 353.042 360.972L351.642 361.319C354.797 361.409 357.941 361.577 361.096 361.79C361.116 361.79 361.135 361.798 361.149 361.813C361.163 361.828 361.171 361.848 361.171 361.869C361.171 361.889 361.163 361.909 361.149 361.924C361.135 361.939 361.116 361.947 361.096 361.947C356.789 361.801 352.482 361.891 348.229 362.082C343.976 362.272 339.744 362.485 335.502 362.866C326.888 363.606 318.381 364.649 309.854 365.815C305.073 366.476 276.119 371.689 271.306 372.037H271.242C271.212 372.156 271.172 372.272 271.123 372.384L270.736 373.203C270.606 373.46 270.477 373.718 270.327 373.976L270.1 374.346L269.982 374.525C269.982 374.581 269.874 374.66 269.864 374.716C269.853 374.772 269.777 374.671 269.831 374.57Z" fill="#263238"/>
<path d="M256.609 413.236C258.084 410.635 259.322 407.877 260.658 405.198L264.685 397.148C267.376 391.801 277.056 373.785 278.025 372.485C278.079 372.407 278.219 372.485 278.187 372.586C277.745 373.976 271.726 385.882 270.337 388.539C267.559 393.853 264.631 399.077 261.724 404.323C260.905 405.825 260.044 407.305 259.215 408.808C258.386 410.31 257.492 411.767 256.727 413.292C256.729 413.306 256.727 413.319 256.721 413.332C256.716 413.345 256.707 413.355 256.697 413.364C256.686 413.372 256.673 413.377 256.66 413.378C256.647 413.379 256.633 413.377 256.621 413.371C256.609 413.366 256.599 413.357 256.591 413.345C256.583 413.334 256.579 413.321 256.577 413.307C256.576 413.293 256.578 413.28 256.584 413.267C256.59 413.255 256.598 413.244 256.609 413.236Z" fill="#263238"/>
<path d="M351.427 236.747L345.494 270.188C345.214 271.174 345.731 271.937 346.646 271.869L362.959 270.748C363.453 270.674 363.918 270.455 364.299 270.118C364.679 269.781 364.961 269.339 365.112 268.843L371.045 235.401C371.325 234.415 370.808 233.664 369.893 233.72L353.591 234.841C353.095 234.915 352.629 235.133 352.246 235.47C351.863 235.807 351.579 236.249 351.427 236.747Z" fill="#37474F"/>
<path d="M353.365 236.601L347.432 270.042C347.152 271.029 347.669 271.791 348.573 271.724L364.886 270.603C365.381 270.529 365.846 270.311 366.227 269.974C366.608 269.637 366.89 269.194 367.039 268.697L372.983 235.255C373.263 234.269 372.746 233.507 371.831 233.574L355.518 234.695C355.024 234.771 354.56 234.99 354.179 235.327C353.799 235.664 353.516 236.105 353.365 236.601V236.601Z" fill="#455A64"/>
<path d="M357.93 237.8C357.943 238.086 357.874 238.37 357.731 238.615C357.589 238.86 357.38 239.056 357.131 239.177C356.881 239.298 356.603 239.339 356.331 239.296C356.059 239.252 355.806 239.125 355.604 238.932C355.401 238.738 355.258 238.486 355.193 238.208C355.128 237.93 355.144 237.637 355.239 237.369C355.333 237.1 355.503 236.866 355.725 236.698C355.947 236.529 356.213 236.433 356.488 236.421C356.854 236.406 357.212 236.543 357.482 236.801C357.752 237.059 357.914 237.419 357.93 237.8V237.8Z" fill="#263238"/>
<path d="M301.918 290.098C312.244 310.042 334.392 335.445 342.985 335.064C347.066 334.885 354.409 335.479 359.502 330.288C370.625 318.965 379.314 298.013 380.692 286.23C381.177 282.049 361.311 274.168 358.63 277.71C352.342 286.017 345.375 301.993 344.18 301.97C339.765 301.869 321.805 287.968 309.261 278.181C294.036 266.287 297.805 282.15 301.918 290.098Z" fill="#EB9481"/>
<path d="M380.025 264.762C377.527 256.455 375.664 254.672 377.128 246.545C378.087 241.175 375.212 238.238 371.831 242.688C366.307 249.975 367.373 261.399 368.838 265.255L380.025 264.762Z" fill="#EB9481"/>
<path d="M379.939 289.907C379.939 289.907 382.921 277.957 381.102 268.831C379.842 262.52 375.632 249.101 358.135 242.901C353.979 241.433 347.066 242.408 353.009 247.385C357.23 250.917 360.924 251.87 363.023 254.347C363.023 254.347 354.409 256.657 353.117 261.074C352.02 264.9 351.188 268.804 350.63 272.755C351.3 273.026 351.988 273.251 352.686 273.428C352.686 273.428 351.61 277.576 354.84 283.181L379.939 289.907Z" fill="#EB9481"/>
<path d="M378.97 263.002C376.385 260.962 370.83 256.735 365.134 254.919C358.802 252.912 346.097 250.805 344.675 255.681C343.663 259.269 348.444 260.513 348.444 260.513C348.444 260.513 343.06 260.793 342.78 264.235C342.565 267.374 346.323 268.103 346.323 268.103C346.323 268.103 343.093 268.865 343.416 271.926C343.836 275.603 350.608 273.405 354.183 276.746C354.969 277.497 378.97 263.002 378.97 263.002Z" fill="#EB9481"/>
<path d="M364.208 262.239C359.307 260.003 353.87 259.37 348.616 260.423C348.487 260.423 348.444 260.58 348.563 260.569C353.83 260.489 359.087 261.076 364.218 262.318L364.208 262.239Z" fill="#263238"/>
<path d="M362.065 268.831C359.577 267.789 352.234 266.32 346.377 267.979C346.237 267.979 346.204 268.136 346.377 268.125C351.628 267.762 356.902 268.022 362.097 268.899L362.065 268.831Z" fill="#263238"/>
<path d="M381.328 294.773C381.328 294.773 367.147 328.349 358.113 332.654C349.079 336.958 343.502 336.443 340.046 336.095C338.702 335.848 337.427 335.297 336.309 334.481C326.619 328.091 308.68 304.56 301.186 291.185C295.565 281.096 295.641 271.735 303.49 274.313C306.155 275.323 308.64 276.785 310.844 278.641C325.639 290.176 342.684 300.995 343.448 300.524C344.213 300.053 351.631 286.174 351.631 286.174L381.328 294.773Z" fill="#FFC727"/>
<path d="M344.74 307.508C344.64 308.252 344.64 309.007 344.74 309.75C344.845 310.527 345.063 311.283 345.386 311.992C345.492 311.249 345.492 310.494 345.386 309.75C345.281 308.973 345.063 308.217 344.74 307.508V307.508Z" fill="white"/>
<path d="M363.249 315.86C363.149 316.604 363.149 317.358 363.249 318.102C363.348 318.851 363.544 319.583 363.831 320.277C363.937 319.534 363.937 318.778 363.831 318.035C363.741 317.284 363.545 316.551 363.249 315.86V315.86Z" fill="white"/>
<path d="M330.624 323.965C330.523 324.709 330.523 325.464 330.624 326.207C330.713 326.959 330.908 327.692 331.205 328.382C331.306 327.639 331.306 326.884 331.205 326.14C331.105 325.392 330.91 324.66 330.624 323.965Z" fill="white"/>
<path d="M321.698 290.984C321.516 292.508 321.724 294.055 322.301 295.468C322.401 294.724 322.401 293.969 322.301 293.226C322.201 292.453 321.998 291.698 321.698 290.984V290.984Z" fill="white"/>
<path d="M318.769 304.492C319.483 304.597 320.208 304.597 320.923 304.492C321.644 304.4 322.348 304.196 323.011 303.887C322.297 303.783 321.572 303.783 320.858 303.887C320.139 303.991 319.436 304.195 318.769 304.492V304.492Z" fill="white"/>
<path d="M356.541 308.405C357.255 308.51 357.98 308.51 358.694 308.405C359.414 308.302 360.116 308.098 360.783 307.8C360.07 307.688 359.344 307.688 358.63 307.8C357.909 307.893 357.205 308.097 356.541 308.405V308.405Z" fill="white"/>
<path d="M337.354 320.199C338.068 320.303 338.793 320.303 339.507 320.199C340.229 320.106 340.933 319.902 341.596 319.593C340.131 319.413 338.647 319.633 337.289 320.232L337.354 320.199Z" fill="white"/>
<path d="M373.844 296.824C374.559 296.929 375.284 296.929 375.998 296.824C376.719 296.732 377.423 296.528 378.087 296.219C376.622 296.039 375.138 296.259 373.78 296.858L373.844 296.824Z" fill="white"/>
<path d="M355.152 331.196C355.867 331.301 356.592 331.301 357.306 331.196C358.027 331.104 358.731 330.9 359.395 330.591C358.681 330.48 357.955 330.48 357.241 330.591C356.52 330.684 355.816 330.888 355.152 331.196V331.196Z" fill="white"/>
<path d="M299.635 275.423C299.042 275.697 298.415 275.885 297.773 275.984C297.864 275.768 297.98 275.565 298.117 275.378C298.623 275.326 299.133 275.341 299.635 275.423Z" fill="white"/>
<path d="M335.534 299.313C334.959 299.777 334.449 300.32 334.016 300.928C333.569 301.529 333.207 302.193 332.939 302.901C334.088 301.962 334.98 300.725 335.523 299.313H335.534Z" fill="white"/>
<path d="M353.29 318.08C352.712 318.544 352.201 319.092 351.771 319.705C351.327 320.305 350.965 320.965 350.695 321.667C351.272 321.207 351.783 320.663 352.213 320.053C352.659 319.451 353.022 318.787 353.29 318.08Z" fill="white"/>
<path d="M363.379 293.203C362.802 293.664 362.29 294.207 361.86 294.818C361.414 295.419 361.052 296.084 360.784 296.791C361.361 296.326 361.872 295.779 362.302 295.165C362.746 294.566 363.108 293.906 363.379 293.203Z" fill="white"/>
<path d="M324.325 315.737C323.75 316.204 323.24 316.751 322.807 317.362C322.363 317.961 322.001 318.622 321.73 319.324C322.307 318.864 322.818 318.32 323.248 317.71C323.699 317.111 324.062 316.446 324.325 315.737Z" fill="white"/>
<path d="M310.931 284.168C310.354 284.628 309.842 285.172 309.412 285.782C308.962 286.381 308.599 287.046 308.336 287.755C309.485 286.817 310.377 285.579 310.92 284.168H310.931Z" fill="white"/>
<path d="M310.101 299.661C309.655 299.06 309.13 298.527 308.54 298.08C307.967 297.614 307.333 297.236 306.656 296.959C307.092 297.565 307.615 298.098 308.206 298.54C308.782 299.008 309.42 299.386 310.101 299.661V299.661Z" fill="white"/>
<path d="M372.843 306.992C372.398 306.394 371.876 305.862 371.293 305.412C370.715 304.947 370.077 304.57 369.397 304.291C369.843 304.889 370.364 305.421 370.948 305.871C371.526 306.336 372.164 306.714 372.843 306.992V306.992Z" fill="white"/>
<path d="M353.537 300.95C353.092 300.352 352.57 299.82 351.986 299.369C351.411 298.9 350.773 298.523 350.091 298.248C350.992 299.445 352.181 300.373 353.537 300.939V300.95Z" fill="white"/>
<path d="M332.272 313.349C331.832 312.745 331.31 312.213 330.721 311.768C330.148 311.295 329.509 310.917 328.826 310.647C329.275 311.246 329.8 311.777 330.387 312.228C330.963 312.69 331.597 313.067 332.272 313.349V313.349Z" fill="white"/>
<path d="M345.063 331.835C344.621 331.234 344.099 330.702 343.513 330.254C342.935 329.79 342.297 329.412 341.618 329.133C342.064 329.734 342.589 330.267 343.179 330.714C343.754 331.176 344.389 331.554 345.063 331.835V331.835Z" fill="white"/>
<path d="M336.309 334.481C326.619 328.091 308.68 304.56 301.186 291.185C295.565 281.096 295.641 271.735 303.49 274.313C307.851 282.217 326.888 316.791 336.309 334.481Z" fill="#263238"/>
<path d="M377.688 300.95C376.612 300.401 366.426 296.925 364.197 296.219C361.968 295.513 352.902 292.553 350.544 292.026C350.534 292.023 350.523 292.021 350.513 292.021C350.502 292.022 350.492 292.025 350.483 292.029C350.473 292.034 350.465 292.041 350.457 292.049C350.45 292.057 350.445 292.066 350.441 292.077C350.438 292.087 350.436 292.098 350.437 292.109C350.437 292.12 350.44 292.13 350.444 292.14C350.449 292.15 350.455 292.159 350.463 292.166C350.471 292.174 350.48 292.179 350.49 292.183C352.708 293.158 361.85 296.185 364.111 296.948C366.372 297.71 376.504 300.916 377.656 301.107C377.774 301.118 377.785 300.984 377.688 300.95Z" fill="#263238"/>
<path d="M326.059 356.644C325.036 357.765 259.171 360.008 258.838 359.582C257.922 358.461 266.03 314.806 272.771 298.102C281.385 276.69 286.338 274.717 289.288 273.439C293.046 271.78 299.926 272.094 301.595 272.8C303.49 273.585 311.759 283.058 314.279 290.737C319.34 306.185 326.952 355.624 326.059 356.644Z" fill="#FFC727"/>
<path d="M297.051 285.692C296.878 287.217 297.089 288.763 297.665 290.176C297.766 289.433 297.766 288.678 297.665 287.934C297.571 287.159 297.364 286.403 297.051 285.692Z" fill="white"/>
<path d="M297.611 318.427C297.429 319.951 297.637 321.498 298.214 322.912C298.315 322.168 298.315 321.413 298.214 320.669C298.114 319.896 297.911 319.142 297.611 318.427Z" fill="white"/>
<path d="M260.162 352.665C259.992 354.189 260.203 355.734 260.776 357.149C260.876 356.405 260.876 355.65 260.776 354.907C260.681 354.131 260.474 353.376 260.162 352.665V352.665Z" fill="white"/>
<path d="M287.145 354.021C287.044 354.765 287.044 355.52 287.145 356.263C287.243 357.017 287.442 357.753 287.738 358.449C287.838 357.706 287.838 356.951 287.738 356.207C287.647 355.452 287.447 354.715 287.145 354.021V354.021Z" fill="white"/>
<path d="M309.359 338.898C309.258 339.642 309.258 340.396 309.359 341.14C309.447 341.891 309.643 342.624 309.94 343.315C310.041 342.571 310.041 341.816 309.94 341.073C309.845 340.323 309.649 339.591 309.359 338.898Z" fill="white"/>
<path d="M277.681 305.266C277.58 306.01 277.58 306.764 277.681 307.508C277.769 308.259 277.965 308.992 278.262 309.683C278.369 308.94 278.369 308.184 278.262 307.441C278.173 306.69 277.977 305.957 277.681 305.266V305.266Z" fill="white"/>
<path d="M274.494 334.1C274.393 334.844 274.393 335.598 274.494 336.342C274.592 337.091 274.788 337.822 275.075 338.517C275.259 336.993 275.051 335.445 274.472 334.033L274.494 334.1Z" fill="white"/>
<path d="M314.064 311.253C313.963 311.996 313.963 312.751 314.064 313.495C314.162 314.244 314.358 314.975 314.645 315.67C314.752 314.926 314.752 314.171 314.645 313.427C314.555 312.677 314.359 311.944 314.064 311.253V311.253Z" fill="white"/>
<path d="M290.677 299.537C291.391 299.643 292.116 299.643 292.831 299.537C293.555 299.445 294.263 299.241 294.93 298.932C293.466 298.736 291.977 298.957 290.623 299.571L290.677 299.537Z" fill="white"/>
<path d="M274.795 321.129C276.26 321.309 277.744 321.089 279.102 320.49C278.388 320.384 277.663 320.384 276.949 320.49C276.204 320.588 275.478 320.803 274.795 321.129V321.129Z" fill="white"/>
<path d="M299.937 333.371C300.651 333.476 301.376 333.476 302.09 333.371C302.811 333.274 303.514 333.07 304.179 332.766C303.465 332.661 302.74 332.661 302.026 332.766C301.307 332.869 300.604 333.072 299.937 333.371V333.371Z" fill="white"/>
<path d="M281.277 347.25C281.991 347.354 282.716 347.354 283.431 347.25C284.15 347.147 284.853 346.943 285.519 346.644C284.805 346.54 284.08 346.54 283.366 346.644C282.647 346.749 281.944 346.952 281.277 347.25V347.25Z" fill="white"/>
<path d="M318.069 346.869C318.784 346.973 319.509 346.973 320.223 346.869C320.944 346.776 321.648 346.572 322.312 346.263C321.598 346.152 320.872 346.152 320.158 346.263C319.437 346.357 318.733 346.561 318.069 346.869V346.869Z" fill="white"/>
<path d="M295.372 276.051C296.086 276.157 296.811 276.157 297.525 276.051C298.248 275.948 298.954 275.745 299.625 275.446C298.91 275.341 298.186 275.341 297.471 275.446C296.747 275.542 296.04 275.746 295.372 276.051V276.051Z" fill="white"/>
<path d="M288.75 281.825C288.167 282.286 287.652 282.834 287.221 283.45C286.775 284.048 286.412 284.708 286.144 285.412C286.724 284.955 287.235 284.411 287.662 283.798C288.112 283.196 288.478 282.532 288.75 281.825V281.825Z" fill="white"/>
<path d="M304.104 306.297C302.956 307.239 302.061 308.475 301.509 309.885C302.092 309.426 302.603 308.878 303.027 308.259C303.475 307.663 303.838 307.002 304.104 306.297Z" fill="white"/>
<path d="M319.361 330.871C318.786 331.338 318.276 331.885 317.843 332.497C317.397 333.098 317.034 333.762 316.766 334.47C317.344 334.005 317.855 333.458 318.285 332.844C318.735 332.245 319.098 331.58 319.361 330.871V330.871Z" fill="white"/>
<path d="M302.392 349.559C301.815 350.02 301.303 350.563 300.874 351.174C300.424 351.773 300.061 352.438 299.797 353.147C300.379 352.692 300.891 352.148 301.315 351.532C301.765 350.933 302.128 350.268 302.392 349.559V349.559Z" fill="white"/>
<path d="M267.258 343.73C266.678 344.191 266.166 344.739 265.74 345.355C265.292 345.952 264.929 346.613 264.663 347.317C265.245 346.863 265.757 346.318 266.181 345.703C266.631 345.104 266.994 344.439 267.258 343.73Z" fill="white"/>
<path d="M287.447 326.387C286.872 326.85 286.361 327.393 285.929 328.001C285.482 328.603 285.12 329.267 284.852 329.974C285.426 329.511 285.937 328.968 286.37 328.36C286.818 327.76 287.181 327.095 287.447 326.387V326.387Z" fill="white"/>
<path d="M310.931 284.168C310.354 284.628 309.842 285.172 309.412 285.782C308.962 286.381 308.599 287.046 308.336 287.755C309.485 286.817 310.377 285.579 310.92 284.168H310.931Z" fill="white"/>
<path d="M310.101 299.661C309.655 299.06 309.13 298.527 308.54 298.08C307.967 297.614 307.333 297.236 306.656 296.959C307.092 297.565 307.615 298.098 308.206 298.54C308.782 299.008 309.42 299.386 310.101 299.661V299.661Z" fill="white"/>
<path d="M266.849 326.185C266.201 325.924 265.592 325.569 265.04 325.131L265.169 324.515L265.287 324.604C265.877 325.052 266.403 325.584 266.849 326.185V326.185Z" fill="white"/>
<path d="M312.309 325.658C311.866 325.057 311.344 324.525 310.758 324.077C310.18 323.613 309.542 323.235 308.863 322.956C309.309 323.557 309.835 324.09 310.424 324.537C311 324.999 311.634 325.377 312.309 325.658V325.658Z" fill="white"/>
<path d="M314.828 357.586C314.379 356.988 313.854 356.456 313.267 356.005C312.692 355.537 312.053 355.159 311.372 354.884C311.821 355.483 312.346 356.015 312.933 356.465C313.511 356.93 314.149 357.307 314.828 357.586V357.586Z" fill="white"/>
<path d="M281.277 294.549C280.831 293.934 280.301 293.39 279.705 292.934C279.129 292.466 278.491 292.088 277.81 291.813C278.249 292.417 278.772 292.949 279.36 293.394C279.942 293.874 280.588 294.263 281.277 294.549Z" fill="white"/>
<path d="M294.532 341.14C294.086 340.539 293.56 340.007 292.97 339.559C292.395 339.097 291.761 338.72 291.086 338.438C291.525 339.038 292.044 339.57 292.626 340.019C293.207 340.485 293.849 340.862 294.532 341.14Z" fill="white"/>
<path d="M275.291 356.241C274.848 355.64 274.326 355.108 273.74 354.66C273.165 354.192 272.526 353.814 271.845 353.539C272.284 354.143 272.807 354.675 273.395 355.12C273.972 355.586 274.611 355.963 275.291 356.241Z" fill="white"/>
<path d="M290.591 312.474C290.146 311.876 289.624 311.344 289.04 310.894C288.465 310.425 287.827 310.047 287.145 309.773C287.59 310.371 288.112 310.903 288.696 311.353C289.274 311.818 289.912 312.196 290.591 312.474V312.474Z" fill="white"/>
<path d="M278.424 279.302C250.224 301.813 225.943 332.9 228.387 342.642C230.972 352.934 250.719 364.301 268.076 366.487C271.629 366.936 282.375 339.716 278.725 338.461C275.882 337.519 262.962 333.831 261.4 332.003C260.324 330.737 280.049 301.241 286.413 285.883C293.078 269.863 285.972 273.282 278.424 279.302Z" fill="#EB9481"/>
<path d="M271.393 337.777C271.393 337.777 282.246 338.797 289.31 339.817C293.251 340.389 299.926 341.992 302.64 343.786C306.688 346.476 322.021 360.422 318.845 364.357C315.981 367.922 311.555 362.362 311.555 362.362C311.555 362.362 316.939 367.967 313.052 370.59C309.165 373.214 304.04 365.422 304.04 365.422C304.04 365.422 310.155 370.949 305.752 373.348C301.918 375.422 295.124 367.082 295.124 367.082C295.124 367.082 302.155 372.149 298.43 374.682C294.327 377.474 282.623 366.297 282.623 366.297C273.352 367.418 267.635 366.868 261.088 365.019C259.882 364.682 271.393 337.777 271.393 337.777Z" fill="#EB9481"/>
<path d="M305.687 367.272C305.267 366.678 304.825 366.095 304.395 365.501C303.591 364.321 302.713 363.197 301.767 362.138C300.841 361.106 299.872 360.131 298.86 359.189C297.848 358.248 296.642 357.295 295.63 356.263C295.622 356.256 295.613 356.25 295.603 356.246C295.593 356.243 295.583 356.241 295.572 356.242C295.562 356.242 295.552 356.245 295.542 356.25C295.533 356.254 295.524 356.261 295.517 356.269C295.51 356.277 295.504 356.286 295.501 356.297C295.497 356.307 295.496 356.318 295.496 356.329C295.497 356.34 295.499 356.351 295.504 356.36C295.508 356.37 295.515 356.379 295.522 356.387C296.558 357.39 297.536 358.457 298.451 359.582C299.388 360.647 300.303 361.723 301.229 362.799C302.155 363.875 303.092 364.828 304.018 365.86C304.481 366.364 304.922 366.902 305.364 367.429C305.75 367.962 306.179 368.461 306.645 368.92C306.699 368.92 306.753 368.92 306.731 368.842C306.436 368.282 306.086 367.756 305.687 367.272V367.272Z" fill="#263238"/>
<path d="M312.653 363.561C311.217 361.335 309.634 359.215 307.915 357.216C306.167 355.232 304.234 353.433 302.144 351.846C302.136 351.839 302.127 351.833 302.117 351.829C302.107 351.826 302.097 351.824 302.086 351.825C302.076 351.825 302.066 351.828 302.056 351.832C302.047 351.837 302.038 351.844 302.031 351.852C302.024 351.86 302.019 351.869 302.015 351.88C302.011 351.89 302.01 351.901 302.01 351.912C302.011 351.923 302.013 351.933 302.018 351.943C302.022 351.953 302.029 351.962 302.036 351.97C303.781 353.954 305.557 355.916 307.323 357.889C308.185 358.842 311.986 363.337 312.449 363.752C312.556 363.819 312.707 363.651 312.653 363.561Z" fill="#263238"/>
<path d="M299.226 370.96C297.834 368.896 296.312 366.93 294.672 365.075C292.829 363.345 290.867 361.756 288.803 360.321C288.728 360.321 288.631 360.389 288.696 360.445C290.526 362.182 292.389 363.875 294.079 365.691C294.941 366.588 298.139 370.333 299.022 371.106C299.04 371.134 299.069 371.154 299.101 371.16C299.133 371.166 299.167 371.159 299.194 371.14C299.221 371.12 299.24 371.091 299.246 371.057C299.252 371.023 299.245 370.989 299.226 370.96V370.96Z" fill="#263238"/>
<path d="M279.91 337.373L264.728 367.586C264.728 367.586 230.52 358.18 227.569 342.048C224.619 325.916 263.812 288.831 275.904 280.064C287.996 271.298 295.372 270.121 285.832 290.087C276.292 310.053 261.53 330.591 262.736 331.622C263.759 332.485 279.91 337.373 279.91 337.373Z" fill="#FFC727"/>
<path d="M255.834 315.356C255.733 316.099 255.733 316.854 255.834 317.598C255.924 318.352 256.12 319.089 256.415 319.784C256.516 319.04 256.516 318.285 256.415 317.542C256.315 316.789 256.119 316.054 255.834 315.356V315.356Z" fill="white"/>
<path d="M260.162 352.665C259.992 354.189 260.203 355.734 260.776 357.149C260.876 356.405 260.876 355.65 260.776 354.907C260.681 354.131 260.474 353.376 260.162 352.665V352.665Z" fill="white"/>
<path d="M242.504 334.481C242.403 335.225 242.403 335.979 242.504 336.723C242.597 337.475 242.796 338.207 243.096 338.898C243.202 338.155 243.202 337.399 243.096 336.656C243.001 335.905 242.802 335.172 242.504 334.481Z" fill="white"/>
<path d="M277.724 305.389L277.659 305.501C277.654 305.427 277.654 305.352 277.659 305.277C277.686 305.311 277.707 305.349 277.724 305.389V305.389Z" fill="white"/>
<path d="M269.519 285.535C269.346 287.06 269.557 288.606 270.133 290.019C270.233 289.276 270.233 288.521 270.133 287.777C270.04 287.002 269.833 286.245 269.519 285.535V285.535Z" fill="white"/>
<path d="M275.096 338.539C274.809 337.845 274.614 337.113 274.515 336.364C274.515 336.14 274.494 335.916 274.45 335.692L275 335.86C275 335.994 275.053 336.14 275.075 336.275C275.184 337.025 275.192 337.787 275.096 338.539V338.539Z" fill="white"/>
<path d="M277.229 279.212C277.943 279.318 278.668 279.318 279.382 279.212C280.123 279.115 280.848 278.911 281.535 278.607C280.072 278.415 278.585 278.632 277.229 279.235V279.212Z" fill="white"/>
<path d="M241.621 317.463C242.335 317.568 243.06 317.568 243.774 317.463C244.495 317.371 245.2 317.167 245.863 316.858C245.149 316.753 244.424 316.753 243.709 316.858C242.99 316.961 242.288 317.164 241.621 317.463V317.463Z" fill="white"/>
<path d="M256.673 336.656C257.388 336.761 258.113 336.761 258.827 336.656C259.552 336.564 260.259 336.359 260.926 336.05C260.212 335.946 259.487 335.946 258.773 336.05C258.05 336.152 257.344 336.356 256.673 336.656V336.656Z" fill="white"/>
<path d="M247.736 358.718C248.451 358.824 249.176 358.824 249.89 358.718C250.615 358.626 251.322 358.422 251.99 358.113C250.525 357.933 249.041 358.153 247.683 358.752L247.736 358.718Z" fill="white"/>
<path d="M231.403 343.382C232.117 343.487 232.842 343.487 233.556 343.382C234.277 343.29 234.981 343.086 235.645 342.777C234.18 342.596 232.696 342.817 231.338 343.416L231.403 343.382Z" fill="white"/>
<path d="M262.994 298.058C263.708 298.163 264.433 298.163 265.148 298.058C265.872 297.965 266.58 297.761 267.247 297.452C265.783 297.272 264.298 297.492 262.94 298.091L262.994 298.058Z" fill="white"/>
<path d="M288.75 281.825C288.167 282.286 287.652 282.834 287.221 283.45C286.775 284.048 286.412 284.708 286.144 285.412C286.724 284.955 287.235 284.411 287.662 283.798C288.112 283.196 288.478 282.532 288.75 281.825V281.825Z" fill="white"/>
<path d="M267.258 307.923C266.678 308.384 266.166 308.932 265.74 309.548C265.292 310.145 264.929 310.806 264.663 311.51C265.245 311.056 265.757 310.512 266.181 309.896C266.631 309.297 266.994 308.632 267.258 307.923Z" fill="white"/>
<path d="M267.258 343.73C266.678 344.191 266.166 344.739 265.74 345.355C265.292 345.952 264.929 346.613 264.663 347.317C265.245 346.863 265.757 346.318 266.181 345.703C266.631 345.104 266.994 344.439 267.258 343.73Z" fill="white"/>
<path d="M244.851 348.561C243.703 349.504 242.809 350.74 242.256 352.149C242.839 351.691 243.351 351.142 243.774 350.523C244.222 349.927 244.585 349.266 244.851 348.561Z" fill="white"/>
<path d="M250.321 325.658C249.746 326.122 249.235 326.665 248.803 327.273C248.354 327.873 247.992 328.537 247.726 329.246C248.303 328.785 248.814 328.242 249.244 327.631C249.69 327.03 250.053 326.365 250.321 325.658V325.658Z" fill="white"/>
<path d="M265.955 362.575C264.812 363.519 263.922 364.755 263.371 366.162C264.52 365.224 265.412 363.987 265.955 362.575V362.575Z" fill="white"/>
<path d="M265.89 325.12L265.643 325.546C265.406 325.4 265.18 325.232 264.954 325.064C264.367 324.616 263.845 324.084 263.403 323.483C264.078 323.765 264.712 324.142 265.287 324.604C265.492 324.773 265.707 324.941 265.89 325.12Z" fill="white"/>
<path d="M236.291 330.591C235.846 329.993 235.324 329.461 234.74 329.01C234.163 328.545 233.525 328.168 232.845 327.889C233.288 328.49 233.81 329.022 234.396 329.47C234.974 329.935 235.612 330.312 236.291 330.591Z" fill="white"/>
<path d="M254.94 347.508C254.498 346.907 253.976 346.375 253.389 345.927C252.812 345.462 252.174 345.085 251.494 344.806C251.94 345.407 252.466 345.939 253.056 346.387C253.631 346.849 254.265 347.226 254.94 347.508V347.508Z" fill="white"/>
<path d="M281.277 294.549C280.831 293.934 280.301 293.39 279.705 292.934C279.129 292.466 278.491 292.088 277.81 291.813C278.249 292.417 278.772 292.949 279.36 293.394C279.942 293.874 280.588 294.263 281.277 294.549Z" fill="white"/>
<path d="M255.726 306.992C254.819 305.802 253.632 304.875 252.28 304.302C252.723 304.903 253.245 305.435 253.831 305.883C254.409 306.343 255.047 306.717 255.726 306.992Z" fill="white"/>
<path d="M259.882 363.393C260.604 362.395 265.847 352.676 266.946 350.535C268.044 348.393 272.609 339.705 273.557 337.407C273.561 337.388 273.56 337.369 273.553 337.351C273.546 337.333 273.534 337.319 273.518 337.309C273.503 337.299 273.484 337.294 273.466 337.296C273.448 337.297 273.431 337.305 273.417 337.317C272.071 339.391 267.441 348.147 266.278 350.299C265.115 352.452 260.141 362.182 259.731 363.326C259.699 363.427 259.828 363.46 259.882 363.393Z" fill="#263238"/>
<path d="M280.093 337.272L279.382 338.506C279.382 338.506 279.285 338.64 279.382 338.506C279.479 338.371 279.867 337.452 279.867 337.452C275.237 336.331 270.628 335.131 266.074 333.663C265.503 333.472 264.932 333.281 264.362 333.057C263.749 332.842 263.164 332.553 262.617 332.194C262.571 332.157 262.528 332.115 262.488 332.071C262.42 331.987 262.366 331.892 262.327 331.79C262.286 331.617 262.286 331.437 262.327 331.263C262.38 331.107 262.445 330.927 262.51 330.781C262.574 330.636 262.768 330.198 262.897 329.918C263.166 329.358 263.457 328.797 263.737 328.259C264.878 326.017 266.063 323.909 267.28 321.768C269.745 317.508 272.2 313.248 274.752 309.066C277.164 305.098 279.673 300.614 282.203 296.735C282.354 296.499 282.742 296.286 282.279 297.138C279.953 301.477 277.853 305.221 275.452 309.47L268.195 322.295C266.989 324.436 265.761 326.555 264.609 328.719C264.319 329.257 264.028 329.84 263.759 330.344C263.619 330.613 263.5 330.882 263.371 331.151L263.263 331.454L263.188 331.398C263.194 331.424 263.194 331.451 263.188 331.476C263.188 331.476 263.188 331.577 263.188 331.544V331.465C263.637 331.73 264.105 331.959 264.588 332.149L266.246 332.788C268.475 333.629 270.747 334.38 273.029 335.109L280.093 337.272Z" fill="#263238"/>
<path d="M263.263 331.465V331.544C263.263 331.544 263.263 331.488 263.263 331.476C263.27 331.451 263.27 331.424 263.263 331.398V331.465Z" fill="#263238"/>
<path d="M281.568 302.351C281.891 302.093 281.858 302.351 281.708 302.497C280.878 303.618 279.608 304.795 278.682 305.782C277.596 306.954 276.438 308.052 275.215 309.066C276.17 307.774 277.202 306.546 278.305 305.389C279.323 304.298 280.413 303.283 281.568 302.351V302.351Z" fill="#263238"/>
<path d="M300.163 284.683C296.459 285.804 289.783 280.199 287.037 275.457C286.844 275.132 287.177 271.623 287.382 267.34C287.5 264.751 287.576 261.847 287.457 259.201C287.457 258.663 303.608 262.464 303.608 262.464C302.847 265.82 302.486 269.262 302.532 272.71C302.55 273.088 302.6 273.463 302.682 273.831C302.682 273.831 302.682 273.943 302.682 274.011C303.113 276.017 303.738 283.618 300.163 284.683Z" fill="#EB9481"/>
<path d="M288.448 259.224C289.385 263.708 292.551 274.347 301.068 274.134C301.613 274.128 302.157 274.071 302.694 273.966C302.701 273.906 302.701 273.846 302.694 273.786C302.614 273.417 302.56 273.043 302.532 272.665C302.49 269.217 302.851 265.776 303.609 262.419C303.609 262.419 291.937 259.717 288.448 259.224Z" fill="#263238"/>
<path d="M307.345 232.722C307.345 232.722 312.535 234.964 313.493 240.435C314.451 245.906 313.256 251.645 312.804 251.948C312.352 252.251 307.345 232.722 307.345 232.722Z" fill="#263238"/>
<path d="M285.519 239.65C284.012 245.603 287.673 262.497 291.775 266.13C297.816 271.399 307.377 271.544 311.598 264.067C315.69 256.825 310.618 234.919 305.999 231.623C299.194 226.791 287.748 230.85 285.519 239.65Z" fill="#EB9481"/>
<path d="M302.133 250.771C302.133 250.771 302.058 250.85 302.069 250.894C302.349 252.015 302.478 253.372 301.563 253.966C301.563 253.966 301.563 254.045 301.563 254.033C302.758 253.585 302.564 251.802 302.133 250.771Z" fill="#263238"/>
<path d="M300.906 249.807C299.119 250.065 299.754 253.775 301.412 253.529C303.07 253.282 302.413 249.594 300.906 249.807Z" fill="#263238"/>
<path d="M308.314 249.672C308.314 249.672 308.411 249.672 308.411 249.762C308.572 250.883 308.949 252.206 310.004 252.408V252.475C308.777 252.576 308.282 250.793 308.314 249.672Z" fill="#263238"/>
<path d="M309.089 248.294C310.844 247.823 311.609 251.5 309.994 251.937C308.378 252.374 307.625 248.686 309.089 248.294Z" fill="#263238"/>
<path d="M298.774 247.172C299.25 247.033 299.717 246.864 300.174 246.668C300.693 246.561 301.163 246.277 301.509 245.861C301.591 245.708 301.624 245.532 301.602 245.358C301.581 245.185 301.507 245.023 301.391 244.897C301.118 244.687 300.796 244.557 300.459 244.521C300.122 244.486 299.781 244.546 299.474 244.695C298.809 244.887 298.237 245.331 297.87 245.939C297.795 246.083 297.763 246.247 297.775 246.41C297.788 246.573 297.845 246.729 297.94 246.859C298.036 246.989 298.165 247.088 298.313 247.144C298.461 247.199 298.621 247.209 298.774 247.172V247.172Z" fill="#263238"/>
<path d="M310.263 245.289C309.769 245.276 309.277 245.235 308.788 245.166C308.261 245.198 307.738 245.049 307.302 244.74C307.183 244.615 307.106 244.453 307.085 244.279C307.063 244.104 307.098 243.927 307.183 243.776C307.395 243.502 307.674 243.292 307.99 243.168C308.306 243.043 308.648 243.009 308.981 243.069C309.673 243.087 310.335 243.366 310.844 243.854C310.953 243.974 311.025 244.125 311.053 244.287C311.081 244.449 311.063 244.616 311.002 244.768C310.94 244.92 310.837 245.05 310.706 245.143C310.575 245.235 310.421 245.286 310.263 245.289V245.289Z" fill="#263238"/>
<path d="M302.101 261.78C302.391 262.076 302.773 262.254 303.178 262.284C303.586 262.194 303.974 262.023 304.319 261.78C304.319 261.78 304.395 261.78 304.373 261.78C304.255 262.035 304.072 262.252 303.845 262.408C303.617 262.564 303.353 262.653 303.081 262.665C302.839 262.652 302.606 262.563 302.413 262.409C302.221 262.255 302.078 262.043 302.004 261.802C302.004 261.802 302.058 261.746 302.101 261.78Z" fill="#263238"/>
<path d="M302.683 258.181C303.038 258.586 303.471 258.908 303.953 259.128C304.435 259.348 304.956 259.461 305.482 259.459C305.94 259.467 306.397 259.406 306.839 259.28L307.097 259.201L307.334 259.123C307.39 259.098 307.436 259.055 307.467 259C307.498 258.946 307.512 258.883 307.507 258.82V258.82C307.51 258.783 307.51 258.745 307.507 258.708V258.708V258.607C307.388 257.722 307.076 256.365 307.076 256.365C307.41 256.477 309.122 256.926 309.014 256.466C308.241 252.482 307.079 248.59 305.547 244.852C305.533 244.833 305.514 244.819 305.493 244.812C305.471 244.805 305.448 244.805 305.427 244.813C305.405 244.82 305.387 244.834 305.373 244.854C305.36 244.873 305.353 244.896 305.353 244.919C306.053 248.585 307.356 252.105 308.12 255.782C307.51 255.611 306.879 255.531 306.247 255.547C306.139 255.603 306.893 258.103 306.914 258.506C306.232 258.707 305.518 258.762 304.815 258.667C304.111 258.573 303.434 258.331 302.823 257.957C302.672 257.957 302.597 258.047 302.683 258.181Z" fill="#263238"/>
<path d="M306.268 258.865C305.911 259.584 305.38 260.194 304.728 260.636C304.365 260.863 303.945 260.968 303.523 260.939C302.607 260.861 302.446 260.02 302.446 259.269C302.471 258.87 302.54 258.475 302.65 258.092C303.744 258.75 305.014 259.021 306.268 258.865Z" fill="#263238"/>
<path d="M304.728 260.636C304.365 260.863 303.945 260.968 303.523 260.939C302.607 260.861 302.446 260.02 302.446 259.269C302.918 259.202 303.398 259.299 303.811 259.547C304.224 259.794 304.547 260.178 304.728 260.636Z" fill="#FF98B9"/>
<path d="M287.651 255.67C289.568 255.939 290.752 249.874 290.989 247.587C291.205 245.569 290.828 239.336 290.849 238.91C290.871 238.484 299.646 242.946 304.007 240.76C308.368 238.574 310.747 233.753 310.467 231.791C310.188 229.83 303.706 225.693 298.731 226.287C293.756 226.881 288.147 234.549 288.147 234.549C288.795 233.475 289.363 232.35 289.848 231.186C289.729 230.962 286.758 232.845 286.553 235.3C286.553 235.3 286.704 232.229 286.456 232.217C286.208 232.206 284.141 235.177 285.003 236.993C285.003 236.993 282.558 240.076 282.752 242.946C282.946 245.816 285.412 255.356 287.651 255.67Z" fill="#263238"/>
<path d="M307.097 239.19C305.867 240.195 304.494 240.993 303.027 241.556C301.363 241.999 299.619 241.999 297.956 241.556C296.278 241.196 294.67 240.548 293.197 239.639C291.883 238.854 290.677 237.845 289.32 237.184C288.976 237.016 288.696 237.542 288.933 237.8C291.456 240.444 294.729 242.173 298.268 242.733C299.912 242.995 301.594 242.807 303.147 242.188C304.701 241.569 306.073 240.54 307.13 239.202C307.13 239.202 307.119 239.179 307.097 239.19Z" fill="#263238"/>
<path d="M289.514 253.372C289.514 253.372 285.519 248.103 283.204 249.616C280.889 251.13 284.109 258.932 286.973 259.852C287.334 259.995 287.72 260.061 288.106 260.046C288.493 260.03 288.872 259.934 289.222 259.762C289.572 259.591 289.885 259.347 290.142 259.047C290.4 258.746 290.596 258.395 290.72 258.013L289.514 253.372Z" fill="#EB9481"/>
<path d="M284.173 251.825C284.173 251.825 284.173 251.892 284.173 251.903C286.198 252.621 287.339 254.459 288.179 256.388C288.052 256.189 287.886 256.021 287.691 255.896C287.496 255.771 287.278 255.691 287.051 255.662C286.823 255.633 286.593 255.656 286.375 255.729C286.157 255.802 285.957 255.924 285.788 256.085C285.788 256.085 285.788 256.208 285.853 256.186C286.194 256.051 286.566 256.03 286.918 256.124C287.271 256.218 287.587 256.424 287.824 256.713C288.214 257.196 288.554 257.722 288.836 258.282C288.943 258.462 289.256 258.349 289.18 258.136C289.051 255.468 286.887 251.926 284.173 251.825Z" fill="#263238"/>
<path d="M285.089 276.701C286.853 278.94 288.737 281.073 290.731 283.091C292.56 285.067 294.955 286.373 297.557 286.813C300.088 287.049 302.618 286.511 303.544 283.293C304.201 280.524 304.263 277.638 303.727 274.84C303.722 274.825 303.72 274.809 303.723 274.793C303.725 274.777 303.731 274.762 303.74 274.749C303.748 274.736 303.76 274.725 303.774 274.717C303.788 274.71 303.803 274.706 303.818 274.706C303.834 274.706 303.849 274.71 303.863 274.717C303.877 274.725 303.889 274.736 303.897 274.749C303.906 274.762 303.912 274.777 303.914 274.793C303.917 274.809 303.915 274.825 303.91 274.84C304.491 279.044 305.094 285.569 301.423 287.026C297.31 288.663 293.272 286.455 290.375 283.495C288.348 281.467 286.542 279.211 284.992 276.769C285.024 276.712 285.089 276.656 285.089 276.701Z" fill="#263238"/>
</svg>
