<svg width="633" height="536" viewBox="0 0 633 536" fill="none" xmlns="http://www.w3.org/2000/svg">
<g filter="url(#filter0_d_301_4535)">
<path d="M579.865 442.963C579.732 442.963 581.818 433.864 582.01 433.302C584.289 426.836 592.515 415.666 600.193 415.873C601.47 415.941 602.718 416.278 603.855 416.862C604.993 417.445 605.995 418.262 606.795 419.259C607.595 420.256 608.176 421.411 608.499 422.648C608.822 423.885 608.881 425.176 608.671 426.437C607.975 431.807 603.019 436.29 598.566 438.835C593.328 441.823 579.88 442.963 579.865 442.963Z" fill="#263238"/>
<path d="M580.723 405.946C580.59 405.946 584.022 397.247 584.304 396.729C587.544 390.663 597.353 380.869 604.913 382.245C606.163 382.507 607.345 383.029 608.38 383.777C609.415 384.525 610.282 385.483 610.922 386.589C611.563 387.694 611.963 388.922 612.098 390.192C612.233 391.463 612.098 392.747 611.703 393.963C610.224 399.185 604.617 402.839 599.868 404.689C594.201 406.864 580.738 405.946 580.723 405.946Z" fill="#263238"/>
<path d="M590.369 364.802C590.221 364.802 593.654 356.103 593.935 355.585C597.175 349.534 606.999 339.74 614.559 341.101C615.81 341.364 616.991 341.887 618.026 342.638C619.061 343.388 619.926 344.347 620.566 345.454C621.205 346.561 621.604 347.79 621.736 349.062C621.869 350.333 621.732 351.618 621.335 352.833C619.855 358.041 614.248 361.71 609.499 363.559C603.847 365.719 590.369 364.802 590.369 364.802Z" fill="#263238"/>
<path d="M597.574 325.566C597.427 325.566 600.859 316.867 601.14 316.334C604.38 310.283 614.204 300.489 621.764 301.865C623.014 302.127 624.196 302.649 625.231 303.397C626.267 304.145 627.133 305.104 627.773 306.209C628.414 307.314 628.815 308.542 628.949 309.813C629.084 311.083 628.949 312.368 628.555 313.583C627.075 318.805 621.453 322.46 616.719 324.309C611.052 326.469 597.574 325.566 597.574 325.566Z" fill="#263238"/>
<path d="M594.512 291.465C594.364 291.465 595.385 282.203 595.518 281.626C596.998 274.924 603.922 262.881 611.585 262.215C612.86 262.139 614.136 262.332 615.331 262.782C616.526 263.231 617.614 263.927 618.522 264.824C619.43 265.722 620.14 266.8 620.604 267.99C621.068 269.179 621.277 270.453 621.217 271.728C621.217 277.158 616.778 282.173 612.606 285.206C607.753 288.727 594.512 291.465 594.512 291.465Z" fill="#263238"/>
<path d="M576.137 441.957C576.27 441.957 574.791 432.754 574.658 432.192C572.808 425.579 565.337 413.891 557.658 413.595C556.38 413.581 555.113 413.836 553.94 414.344C552.767 414.852 551.714 415.601 550.85 416.544C549.986 417.486 549.33 418.6 548.925 419.812C548.52 421.025 548.376 422.309 548.5 423.582C548.841 428.996 553.501 433.79 557.777 436.616C562.777 439.944 576.122 441.957 576.137 441.957Z" fill="#263238"/>
<path d="M580.191 400.798C580.339 400.798 577.468 391.921 577.232 391.359C574.391 385.1 565.233 374.685 557.599 375.558C556.334 375.738 555.121 376.183 554.04 376.864C552.958 377.544 552.032 378.445 551.321 379.507C550.611 380.569 550.132 381.769 549.916 383.028C549.701 384.288 549.752 385.579 550.069 386.817C551.223 392.113 556.563 396.152 561.209 398.297C566.683 400.827 580.176 400.798 580.191 400.798Z" fill="#263238"/>
<path d="M589.364 362.006C589.497 362.006 586.641 353.129 586.405 352.582C583.579 346.323 574.421 335.908 566.787 336.781C565.522 336.96 564.309 337.403 563.227 338.082C562.145 338.76 561.218 339.659 560.506 340.72C559.794 341.78 559.314 342.979 559.096 344.238C558.878 345.496 558.928 346.787 559.241 348.025C560.41 353.336 565.736 357.36 570.397 359.52C575.856 362.035 589.349 362.006 589.364 362.006Z" fill="#263238"/>
<path d="M596.065 325.907C596.213 325.907 593.343 317.03 593.106 316.468C590.266 310.224 581.123 299.809 573.474 300.682C572.209 300.86 570.997 301.303 569.915 301.982C568.834 302.661 567.907 303.56 567.197 304.621C566.486 305.682 566.007 306.881 565.791 308.14C565.575 309.398 565.627 310.688 565.943 311.926C567.097 317.237 572.438 321.261 577.099 323.406C582.558 325.936 596.065 325.907 596.065 325.907Z" fill="#263238"/>
<path d="M594.231 292.574C594.379 292.574 590.562 284.037 590.251 283.52C586.745 277.602 576.507 268.266 569.006 269.982C567.768 270.299 566.611 270.874 565.61 271.668C564.61 272.463 563.788 273.46 563.199 274.593C562.609 275.727 562.266 276.972 562.191 278.248C562.116 279.524 562.31 280.801 562.762 281.996C564.493 287.129 570.234 290.562 575.101 292.175C580.812 294.083 594.231 292.574 594.231 292.574Z" fill="#263238"/>
<path d="M586.153 263.073C586.271 263.073 586.819 253.797 586.789 253.205C586.39 246.34 581.611 233.321 574.169 231.383C572.925 231.096 571.634 231.073 570.38 231.318C569.126 231.563 567.938 232.068 566.893 232.802C565.848 233.536 564.969 234.482 564.313 235.579C563.657 236.675 563.24 237.897 563.088 239.165C562.259 244.535 565.781 250.217 569.346 253.96C573.533 258.221 586.138 263.059 586.153 263.073Z" fill="#263238"/>
<path d="M578.652 492.673C578.652 492.673 578.164 488.752 577.572 481.947C576.98 475.141 576.3 465.406 575.989 453.704C575.826 447.786 575.767 441.513 575.885 434.796C575.885 431.423 576.063 428.05 576.196 424.44C576.315 422.694 576.448 420.933 576.566 419.143C576.684 417.353 576.98 415.518 577.173 413.684C578.186 406.215 579.604 398.807 581.419 391.492C583.239 384.02 585.31 376.519 587.337 369.033C589.364 361.547 591.361 354.061 592.929 346.619C594.524 339.352 595.597 331.981 596.139 324.56C596.52 317.614 596.283 310.648 595.429 303.744C594.729 297.487 593.657 291.277 592.219 285.147C590.917 279.481 589.393 274.362 588.002 269.849C586.612 265.337 585.177 261.461 583.993 258.28C581.581 251.918 579.939 248.397 579.939 248.397C579.939 248.397 581.655 251.889 584.2 258.191C585.472 261.342 586.937 265.204 588.476 269.687C590.014 274.169 591.612 279.274 593.033 284.94C594.63 291.027 595.87 297.202 596.746 303.433C597.764 310.407 598.16 317.457 597.93 324.501C597.534 332.023 596.61 339.508 595.163 346.9C593.684 354.446 591.908 362.021 590.029 369.566C588.15 377.111 586.183 384.671 584.54 392.069C582.909 399.305 581.675 406.624 580.842 413.995C580.694 415.785 580.427 417.486 580.368 419.291C580.309 421.096 580.191 422.857 580.102 424.602C580.102 427.976 579.998 431.467 580.028 434.766C580.028 441.409 580.25 447.682 580.546 453.467C581.093 465.051 582.025 474.683 582.721 481.399C583.416 488.116 584.008 491.904 584.008 491.904C584.059 492.254 584.041 492.612 583.955 492.955C583.868 493.299 583.714 493.622 583.503 493.907C583.291 494.191 583.026 494.431 582.722 494.613C582.417 494.795 582.08 494.915 581.729 494.966C581.379 495.018 581.021 495 580.678 494.913C580.334 494.826 580.011 494.673 579.726 494.461C579.442 494.25 579.202 493.984 579.02 493.68C578.838 493.376 578.718 493.038 578.667 492.688V492.673H578.652Z" fill="#263238"/>
<path d="M562.2 477.39H599.084V485.024H595.873L589.215 526.686H572.083L565.411 485.024H562.2V477.39Z" fill="#263238" stroke="#263238" stroke-linecap="round" stroke-linejoin="round"/>
<path d="M319.167 505.249C319.167 505.249 317.895 512.75 318.827 514.436C319.759 516.123 321.253 518.342 321.253 518.342H333L333.636 514.717C335.256 516.515 337.244 517.943 339.466 518.904C342.587 520.014 345.605 518.904 349.26 519.185C352.352 519.422 359.616 519.185 359.616 519.185L359.409 515.265L338.208 505.766L330.618 499.849C330.618 499.849 323.961 505.855 319.167 505.249Z" fill="#263238" stroke="#263238" stroke-linecap="round" stroke-linejoin="round"/>
<path d="M231.671 505.248C231.671 505.248 233.683 511.359 232.943 513.031C232.204 514.702 230.991 518.342 230.991 518.342H219.258L218.223 514.717C216.794 516.523 214.952 517.96 212.852 518.904C209.893 520.014 206.698 518.904 203.088 519.185C200.025 519.422 192.731 519.185 192.731 519.185L192.524 515.265L212.689 505.766L220.693 501.328C220.693 501.328 226.937 505.855 231.671 505.248Z" fill="#263238" stroke="#263238" stroke-linecap="round" stroke-linejoin="round"/>
<path d="M325.499 216.81C325.499 216.81 330.352 279.629 332.039 309.662C333.725 339.695 334.509 353.321 334.702 374.463C334.894 395.605 335.826 437.385 335.826 453.082C335.842 469.107 334.8 485.115 332.704 501.002L318.516 508.563C318.516 508.563 313.93 468.262 312.081 453.822C310.409 440.758 304.299 387.601 301.532 371.164C298.765 354.727 286.16 297.575 286.16 297.575C286.16 297.575 269.339 357.538 264.989 381.49C260.639 405.443 244.276 459.459 240.77 472.597C237.264 485.734 231.671 505.219 231.671 505.219C229.699 505.797 227.628 505.959 225.591 505.692C224.676 505.62 223.793 505.325 223.019 504.832C222.245 504.34 221.604 503.665 221.152 502.867C221.152 502.867 225.28 463.542 226.981 444.427C229.097 420.756 229.763 389.332 232.337 376.179C234.911 363.027 234.822 337.831 237.811 320.921C239.512 311.319 248.167 219.458 248.167 219.458C248.167 219.458 296.161 238.884 325.499 216.81Z" fill="#263238" stroke="#263238" stroke-linecap="round" stroke-linejoin="round"/>
<path d="M332.705 501.002L321.653 509.968" stroke="white" stroke-width="0.5" stroke-linecap="round" stroke-linejoin="round"/>
<path d="M220.708 501.298L229.481 508.03" stroke="white" stroke-width="0.5" stroke-linecap="round" stroke-linejoin="round"/>
<path d="M293.41 237.952L292.522 274.584L298.736 268.385" stroke="white" stroke-width="0.5" stroke-linecap="round" stroke-linejoin="round"/>
<path d="M289.533 296.51L307.184 274.554" stroke="white" stroke-width="0.5" stroke-linecap="round" stroke-linejoin="round"/>
<path d="M312.08 276.152L297.36 290.592" stroke="white" stroke-width="0.5" stroke-linecap="round" stroke-linejoin="round"/>
<path d="M279.029 277.765C274.476 267.683 266.693 259.406 256.911 254.241" stroke="white" stroke-width="0.5" stroke-linecap="round" stroke-linejoin="round"/>
<path d="M301.473 228.04L300.629 232.33L293.765 233.928L294.549 228.587" stroke="white" stroke-width="0.5" stroke-linecap="round" stroke-linejoin="round"/>
<path d="M293.765 233.928C293.765 233.928 280.908 233.395 274.384 231.25L275.759 226.974" stroke="white" stroke-width="0.5" stroke-linecap="round" stroke-linejoin="round"/>
<path d="M269.812 225.909L268.51 231.25C268.51 231.25 258.316 230.717 256.674 229.12" stroke="white" stroke-width="0.5" stroke-linecap="round" stroke-linejoin="round"/>
<path d="M300.629 232.286C304.129 232.182 307.557 231.271 310.645 229.622L315.306 226.945L313.501 223.202" stroke="white" stroke-width="0.5" stroke-linecap="round" stroke-linejoin="round"/>
<path d="M331.831 93.8806C331.831 93.8806 341.123 101.944 343.904 107.27C346.685 112.596 383.199 187.043 383.051 192.133C382.903 197.222 377.503 206.927 367.975 206.927C358.447 206.927 322.333 148.902 322.333 148.902L331.831 93.8806Z" fill="white"/>
<g style="mix-blend-mode:multiply" opacity="0.5">
<path d="M332.971 102.817L333.592 103.157C334.687 103.793 337.143 105.228 339.836 107.018C342.878 109.352 345.652 112.017 348.106 114.963C348.106 114.963 344.762 106.086 339.865 101.84C337.142 99.5004 334.609 96.9477 332.29 94.2062L332.971 102.817Z" fill="#92E3A9"/>
</g>
<path d="M331.831 93.8806C331.831 93.8806 341.123 101.944 343.904 107.27C346.685 112.596 383.199 187.043 383.051 192.133C382.903 197.222 377.503 206.927 367.975 206.927C358.447 206.927 322.333 148.902 322.333 148.902L331.831 93.8806Z" stroke="#263238" stroke-linecap="round" stroke-linejoin="round"/>
<path opacity="0.5" d="M355.104 171.731C353.876 170.251 344.747 155.56 343.815 150.071C342.883 144.582 345.295 137.555 345.295 133.886C345.295 130.217 339.495 140.292 339.185 139.079C338.874 137.865 335.22 124.728 335.22 124.728L324.02 139.212L322.348 148.932C322.348 148.932 336.492 171.642 349.423 188.641C358.625 185.682 372.517 181.17 375.506 179.365C380.136 176.628 356.332 173.269 355.104 171.731Z" fill="#92E3A9"/>
<path d="M287.225 83.8202L331.891 93.8806C331.891 93.8806 334.998 116.768 334.642 129.136C334.287 141.505 325.085 217.994 325.085 217.994C325.085 217.994 301.413 242.139 248.271 219.473C248.271 219.473 246.421 215.908 245.726 189.248C245.06 162.957 225.295 114.135 226.878 108.572C230.132 97.1651 269.22 86.2022 274.354 85.8915C278.685 85.4798 282.984 84.7879 287.225 83.8202Z" fill="white" stroke="#263238" stroke-linecap="round" stroke-linejoin="round"/>
<g style="mix-blend-mode:multiply" opacity="0.5">
<path d="M291.264 217.861L250.357 201.823L257.429 124.121L303.958 145.899L331.846 133.353L311.903 214.443L291.264 217.861Z" fill="#92E3A9"/>
</g>
<g style="mix-blend-mode:multiply" opacity="0.5">
<path d="M303.366 97.2392C305.275 97.2392 322.925 100.775 332.956 102.817C332.379 97.5795 331.876 93.9399 331.876 93.9399L287.211 83.8795C282.97 84.8522 278.67 85.549 274.339 85.9656C269.205 86.2763 230.118 97.2392 226.863 108.646C226.345 110.495 228.15 117.064 230.828 125.985C234.734 115.91 238.225 107.61 239.424 106.442C242.116 103.749 269.013 96.7657 269.013 96.7657L303.366 97.2392Z" fill="#92E3A9"/>
</g>
<path d="M299.357 106.663L293.217 120.393L306.68 215.523L296.812 228.838L287.447 217.979L290.066 121.606L277.668 107.137L285.598 92.135L299.357 106.663Z" fill="#263238"/>
<path d="M346.922 137.407L311.134 157.261L265.107 133.176L257.813 201.157L303.396 223.128L337.912 202.356L346.922 137.407Z" fill="#92E3A9" stroke="#263238" stroke-linecap="round" stroke-linejoin="round"/>
<path d="M309.772 172.53L311.134 161.611" stroke="#263238" stroke-width="0.5" stroke-linecap="round" stroke-linejoin="round"/>
<path d="M303.396 223.128L309.018 178.521" stroke="#263238" stroke-width="0.5" stroke-linecap="round" stroke-linejoin="round"/>
<path d="M291.383 80.0032C291.383 80.0032 299.446 80.0032 302.952 85.3293C306.459 90.6554 313.19 111.708 313.19 111.708L288.927 104.888L274.221 120.082C274.221 120.082 260.743 100.109 266.232 87.4301C271.721 74.751 291.383 80.0032 291.383 80.0032Z" fill="white" stroke="#263238" stroke-linecap="round" stroke-linejoin="round"/>
<g style="mix-blend-mode:multiply" opacity="0.5">
<path d="M305.408 90.2559C304.714 88.5546 303.893 86.9078 302.952 85.3292C299.446 79.9291 291.383 80.0031 291.383 80.0031C291.383 80.0031 271.75 74.751 266.232 87.4005C264.456 91.4986 264.752 96.3661 265.773 101.071C266.735 98.5557 268.91 93.5107 271.691 90.7145C275.449 86.9566 275.893 90.2263 275.893 90.2263L296.931 88.5545C299.717 89.302 302.549 89.8703 305.408 90.2559V90.2559Z" fill="#92E3A9"/>
</g>
<path d="M294.845 67.7532C294.845 67.7532 296.206 95.7448 292.67 101.263C289.134 106.782 285.11 104.666 282.165 101.263C279.221 97.8605 275.892 90.256 275.892 90.256L272.297 69.5433C272.297 69.5433 293.247 73.4048 294.845 67.7532Z" fill="white" stroke="#263238" stroke-linecap="round" stroke-linejoin="round"/>
<g style="mix-blend-mode:multiply" opacity="0.5">
<path d="M287.255 90.256C290.302 89.3831 293.008 87.5963 295.007 85.137C295.007 83.554 295.007 81.9858 295.007 80.4619C291.56 76.5117 283.645 69.0552 274.827 71.4519C274.073 71.659 273.348 71.8958 272.682 72.1325L275.878 90.256C275.878 90.256 279.221 97.9197 282.151 101.263L279.192 88.0516C280.224 89.0944 281.513 89.8471 282.928 90.2341C284.343 90.6211 285.836 90.6286 287.255 90.256Z" fill="#92E3A9"/>
</g>
<path d="M307.184 42.2914C307.184 42.2914 311.237 41.9955 311.326 48.7567C311.415 55.5179 307.435 61.1991 304.698 58.8467C301.961 56.4943 306.429 39.2141 307.184 42.2914Z" fill="white" stroke="#263238" stroke-linecap="round" stroke-linejoin="round"/>
<path d="M279.355 7.28712C260.905 11.6368 255.964 23.5613 256.112 34.3615C256.112 38.4892 258.021 45.6351 260.55 53.1656L260.225 52.4851C260.225 52.4851 254.677 42.8093 253.863 48.6236C253.049 54.438 258.538 60.4594 260.358 62.3975C260.863 62.8627 261.514 63.1378 262.2 63.1756C262.885 63.2133 263.563 63.0115 264.116 62.6047C267.785 71.4815 271.883 79.4263 274.561 81.5863C280.361 86.2763 288.512 88.6878 294.993 83.0658C301.473 77.4438 307.879 45.3836 307.879 45.3836C309.417 12.9535 297.804 2.96706 279.355 7.28712Z" fill="white"/>
<g style="mix-blend-mode:multiply" opacity="0.5">
<path d="M269.531 41.4334C269.531 41.4334 275.967 36.0629 282.417 36.0629C288.868 36.0629 302.301 41.9808 303.899 46.8038C304.875 49.7628 303.721 59.3054 302.641 66.5548C305.748 56.3465 307.938 45.4279 307.938 45.4279C309.417 13.0127 297.789 2.99661 279.355 7.34627C260.92 11.6959 255.964 23.6205 256.112 34.4207C256.112 38.5484 258.021 45.6942 260.55 53.2248L260.225 52.5442C260.225 52.5442 254.677 42.8684 253.863 48.6828C253.049 54.4971 258.538 60.5186 260.358 62.4567C260.863 62.9219 261.514 63.1969 262.2 63.2347C262.885 63.2725 263.563 63.0707 264.116 62.6638C267.785 71.5407 271.883 79.4854 274.561 81.6455C274.561 81.6455 268.392 67.7532 266.246 61.8501C264.101 55.947 264.693 45.6794 269.531 41.4334Z" fill="#92E3A9"/>
</g>
<path d="M279.355 7.28712C260.905 11.6368 255.964 23.5613 256.112 34.3615C256.112 38.4892 258.021 45.6351 260.55 53.1656L260.225 52.4851C260.225 52.4851 254.677 42.8093 253.863 48.6236C253.049 54.438 258.538 60.4594 260.358 62.3975C260.863 62.8627 261.514 63.1378 262.2 63.1756C262.885 63.2133 263.563 63.0115 264.116 62.6047C267.785 71.4815 271.883 79.4263 274.561 81.5863C280.361 86.2763 288.512 88.6878 294.993 83.0658C301.473 77.4438 307.879 45.3836 307.879 45.3836C309.417 12.9535 297.804 2.96706 279.355 7.28712Z" stroke="#263238" stroke-linecap="round" stroke-linejoin="round"/>
<path d="M301.044 54.8225C300.12 56.2118 298.687 57.1826 297.055 57.5258C295.422 57.8689 293.72 57.5569 292.315 56.6571" stroke="#263238" stroke-linecap="round" stroke-linejoin="round"/>
<path d="M281.352 56.7754C280.428 58.1647 278.995 59.1355 277.363 59.4787C275.73 59.8218 274.028 59.5098 272.623 58.6099" stroke="#263238" stroke-linecap="round" stroke-linejoin="round"/>
<path d="M282.299 52.3075C279.914 51.1109 277.333 50.3541 274.679 50.0735C271.158 49.9256 267.696 52.7958 267.696 52.7958" stroke="#263238" stroke-linecap="round" stroke-linejoin="round"/>
<path d="M290.791 67.2502C290.666 68.1493 290.192 68.9631 289.473 69.5166C288.753 70.07 287.845 70.3187 286.944 70.2092C286.003 70.2378 285.073 70.0055 284.255 69.5382C283.438 69.0708 282.766 68.3865 282.313 67.5609" stroke="#263238" stroke-linecap="round" stroke-linejoin="round"/>
<path d="M293.898 74.396C293.898 74.396 285.258 76.9703 279.709 74.7363C280.434 76.0394 281.426 77.1752 282.619 78.0699C283.812 78.9646 285.179 79.5981 286.633 79.9292C289.918 80.8021 293.898 74.396 293.898 74.396Z" fill="#263238"/>
<path d="M302.124 48.4164C302.124 48.4164 298.884 48.1353 295.821 48.1649C293.01 48.1649 290.214 51.8192 290.214 51.8192L289.223 56.2576" stroke="#263238" stroke-linecap="round" stroke-linejoin="round"/>
<path d="M275.463 32.453C282.173 38.0716 289.505 42.9017 297.315 46.8482C310.039 53.21 319.803 40.9303 313.841 34.8941C307.879 28.8578 321.608 41.5221 323.768 33.9472C325.928 26.3723 306.163 0.377954 286.308 0.00808574C266.453 -0.361783 261.645 12.0806 261.645 12.0806C261.645 12.0806 259.308 5.67447 257.547 9.21042C256.523 11.1348 255.937 13.2617 255.831 15.439C255.831 15.439 251.807 18.398 250.031 20.1585C248.256 21.9191 250.534 23.7832 250.534 23.7832C250.534 23.7832 246.984 32.6601 248.877 39.51L259.071 54.3048C260.301 54.2649 261.505 53.9426 262.59 53.3628C263.675 52.783 264.612 51.9613 265.329 50.9612C267.992 47.4696 266.039 36.5807 266.039 36.5807C266.039 36.5807 266.202 48.2981 269.324 45.7238C272.445 43.1496 267.844 31.6984 267.844 31.6984L275.463 32.453Z" fill="#263238"/>
<path d="M266.602 20.3508C266.602 20.3508 275.686 27.186 282.254 33.4294C288.823 39.6728 298.839 42.0695 301.813 40.6936" stroke="white" stroke-width="0.5" stroke-miterlimit="10" stroke-linecap="round"/>
<path d="M294.667 28.9465C294.667 28.9465 281.648 25.9876 278.585 20.336C275.522 14.6844 266.039 15.3502 266.039 15.3502C268.408 13.1656 271.298 11.6264 274.433 10.8803C277.568 10.1342 280.842 10.2061 283.941 11.0893" stroke="white" stroke-width="0.5" stroke-miterlimit="10" stroke-linecap="round"/>
<path d="M261.66 23.1471C261.66 23.1471 271.839 38.4892 265.418 43.2088" stroke="white" stroke-width="0.5" stroke-miterlimit="10" stroke-linecap="round"/>
<path d="M226.877 108.587C226.877 108.587 199.256 183.892 200.528 192.295C201.8 200.699 216.299 197.355 220.871 196.216C225.442 195.077 243.063 167.115 243.181 161.093C244.32 160.381 245.294 159.435 246.038 158.318C246.783 157.201 247.282 155.938 247.501 154.613C248.581 149.76 249.321 132.421 242.308 119.416" fill="white"/>
<g style="mix-blend-mode:multiply" opacity="0.5">
<path d="M226.877 108.587C226.877 108.587 199.256 183.892 200.528 192.295C201.238 196.897 205.913 197.962 210.736 197.814C214.11 188.301 215.426 170.917 217.956 162.306C220.752 152.675 229.866 127.746 235.414 114.638L226.877 108.587Z" fill="#92E3A9"/>
</g>
<path d="M226.877 108.587C226.877 108.587 199.256 183.892 200.528 192.295C201.8 200.699 216.299 197.355 220.871 196.216C225.442 195.077 243.063 167.115 243.181 161.093C244.32 160.381 245.294 159.435 246.038 158.318C246.783 157.201 247.282 155.938 247.501 154.613C248.581 149.76 249.321 132.421 242.308 119.416" stroke="#263238" stroke-linecap="round" stroke-linejoin="round"/>
<path d="M247.753 185.416C247.753 185.416 212.246 183.256 207.689 182.886C203.132 182.516 197.673 188.804 201.963 197.503C206.254 206.202 213.074 206.705 221.448 205.122C229.822 203.539 248.315 192.251 248.315 192.251L247.753 185.416Z" fill="white"/>
<path opacity="0.5" d="M247.753 185.416C247.753 185.416 212.246 183.256 207.689 182.886C203.132 182.516 197.673 188.804 201.963 197.503C206.254 206.202 213.074 206.705 221.448 205.122C229.822 203.539 248.315 192.251 248.315 192.251L247.753 185.416Z" fill="#92E3A9" stroke="#263238" stroke-linecap="round" stroke-linejoin="round"/>
<path d="M247.753 185.416C247.753 185.416 212.246 183.256 207.689 182.886C203.132 182.516 197.673 188.804 201.963 197.503C206.254 206.202 213.074 206.705 221.448 205.122C229.822 203.539 248.315 192.251 248.315 192.251L247.753 185.416Z" stroke="#263238" stroke-linecap="round" stroke-linejoin="round"/>
<path d="M253.419 176.761C253.419 176.761 258.006 171.893 259.219 171.997C260.432 172.101 269.339 171.612 270.093 173.698C270.848 175.784 269.649 174.867 268.421 175.563C267.193 176.258 261.098 177.042 261.098 177.042C261.098 177.042 266.35 177.471 267.933 178.403C269.516 179.335 276.218 185.519 276.189 186.733C276.159 187.946 275.345 188.212 273.718 188.212C272.09 188.212 273.289 189.381 272.845 190.55C272.401 191.718 269.191 191.467 269.191 191.467C269.191 191.467 269.472 195.521 267.045 195.313C264.619 195.106 260.269 191.94 260.269 191.94C260.269 191.94 251.289 195.225 248.064 194.973C245.945 194.878 243.84 195.353 241.968 196.349C244.68 189.234 248.55 182.615 253.419 176.761Z" fill="white"/>
<g style="mix-blend-mode:multiply" opacity="0.5">
<path d="M253.419 176.761C248.562 182.575 244.694 189.147 241.968 196.216C243.84 195.22 245.945 194.744 248.064 194.84C249.124 194.858 250.183 194.744 251.215 194.5C251.858 191.671 252.239 188.788 252.354 185.889C252.354 181.584 259.219 171.997 259.219 171.997C257.991 171.893 253.419 176.761 253.419 176.761Z" fill="#92E3A9"/>
</g>
<path d="M253.419 176.761C253.419 176.761 258.006 171.893 259.219 171.997C260.432 172.101 269.339 171.612 270.093 173.698C270.848 175.784 269.649 174.867 268.421 175.563C267.193 176.258 261.098 177.042 261.098 177.042C261.098 177.042 266.35 177.471 267.933 178.403C269.516 179.335 276.218 185.519 276.189 186.733C276.159 187.946 275.345 188.212 273.718 188.212C272.09 188.212 273.289 189.381 272.845 190.55C272.401 191.718 269.191 191.467 269.191 191.467C269.191 191.467 269.472 195.521 267.045 195.313C264.619 195.106 260.269 191.94 260.269 191.94C260.269 191.94 251.289 195.225 248.064 194.973C245.945 194.878 243.84 195.353 241.968 196.349C244.68 189.234 248.55 182.615 253.419 176.761Z" stroke="#263238" stroke-linecap="round" stroke-linejoin="round"/>
<path d="M273.718 188.079L265.803 181.791L259.352 180.859" stroke="#263238" stroke-linecap="round" stroke-linejoin="round"/>
<path d="M269.176 191.334L260.403 186.585L256.378 185.86" stroke="#263238" stroke-linecap="round" stroke-linejoin="round"/>
<path d="M350.65 170.769C350.65 170.769 346.064 165.916 344.851 166.005C343.638 166.094 334.731 165.635 333.977 167.706C333.222 169.778 334.42 168.875 335.648 169.585C338.041 170.277 340.493 170.748 342.972 170.991C342.972 170.991 337.72 171.42 336.137 172.367C334.554 173.314 327.852 179.483 327.881 180.681C327.911 181.88 328.725 182.161 330.352 182.161C331.979 182.161 330.781 183.33 331.225 184.498C331.669 185.667 334.879 185.401 334.879 185.401C334.879 185.401 334.598 189.455 337.024 189.262C339.451 189.07 343.8 185.889 343.8 185.889C343.8 185.889 352.781 189.174 356.006 188.848C358.126 188.75 360.234 189.23 362.101 190.239C359.378 183.165 355.51 176.587 350.65 170.769V170.769Z" fill="white" stroke="#263238" stroke-linecap="round" stroke-linejoin="round"/>
<path d="M330.352 182.087L338.252 175.814L344.703 174.882" stroke="#263238" stroke-linecap="round" stroke-linejoin="round"/>
<path d="M334.879 185.342L343.652 180.608L347.677 179.868" stroke="#263238" stroke-linecap="round" stroke-linejoin="round"/>
<path d="M355.932 178.137C355.932 178.137 371.156 176.391 376.378 180.312C381.601 184.232 380.728 194.219 380.728 194.219" stroke="#263238" stroke-linecap="round" stroke-linejoin="round"/>
<path d="M235.666 500.07C235.666 500.07 237.293 496.83 242.486 497.481C247.679 498.132 250.934 504.302 247.354 506.24C243.773 508.178 235.666 500.07 235.666 500.07Z" fill="#92E3A9" stroke="#263238" stroke-linecap="round" stroke-linejoin="round"/>
<path d="M243.344 349.401C243.344 349.401 255.565 351.857 261.438 355.762C267.312 359.668 268.273 360.645 269.738 368.471C271.203 376.298 265.832 397.306 265.832 408.062C265.832 418.818 258.006 484.314 258.006 489.714C258.006 495.114 263.391 506.329 262.903 510.234C262.695 513.043 263.027 515.865 263.879 518.549C263.879 518.549 267.297 520.99 262.903 521.508C258.509 522.026 258.006 522.484 254.1 520.532C250.194 518.579 248.182 508.799 244.809 505.87C241.436 502.941 239.438 499.523 239.438 497.067C239.438 494.611 247.25 485.35 247.25 485.35C247.25 485.35 246.273 471.664 245.77 459.932C245.267 448.2 239.853 422.294 239.853 411.11C239.853 399.925 247.25 373.472 247.25 373.472C247.25 373.472 228.268 375.795 220.871 370.912C213.474 366.03 221.847 344.518 243.344 349.401Z" fill="white" stroke="#263238" stroke-linecap="round" stroke-linejoin="round"/>
<path d="M244.809 505.811C244.809 505.811 235.932 498.192 235.666 500.13C235.399 502.068 235.34 517.351 235.991 518.963C236.642 520.576 254.174 522.218 263.273 523.846C272.372 525.473 268.791 519.614 266.838 518.312C264.885 517.01 244.809 505.811 244.809 505.811Z" fill="#92E3A9" stroke="#263238" stroke-linecap="round" stroke-linejoin="round"/>
<path opacity="0.2" d="M244.809 505.811C244.809 505.811 235.932 498.192 235.666 500.13C235.399 502.068 235.34 517.351 235.991 518.963C236.642 520.576 254.174 522.218 263.273 523.846C272.372 525.473 268.791 519.614 266.838 518.312C264.885 517.01 244.809 505.811 244.809 505.811Z" fill="black"/>
<path d="M247.354 514.421C249.131 512.292 251.209 510.432 253.523 508.903C256.271 506.951 259.356 505.522 262.622 504.686L266.838 512.794C263.931 513.48 261.104 514.472 258.405 515.753C256.357 516.994 254.498 518.524 252.887 520.295C252.887 520.295 248.004 517.025 247.354 514.421Z" fill="#263238" stroke="#263238" stroke-linecap="round" stroke-linejoin="round"/>
<path d="M256.127 505.337C255.716 505.389 255.321 505.524 254.965 505.734C254.608 505.944 254.299 506.224 254.055 506.558C253.811 506.892 253.638 507.272 253.547 507.676C253.455 508.079 253.447 508.496 253.523 508.903C253.848 512.158 254.174 522.544 255.476 522.869C256.778 523.195 273.008 525.828 278.851 526.109C284.695 526.39 291.19 526.435 291.19 523.52C291.19 520.606 290.214 519.304 288.927 519.304C287.64 519.304 284.695 518.327 280.804 516.064C276.913 513.8 267.489 505.027 264.53 504.701C261.571 504.376 257.754 502.408 256.127 505.337Z" fill="#92E3A9" stroke="#263238" stroke-linecap="round" stroke-linejoin="round"/>
<path opacity="0.2" d="M256.127 505.337C255.716 505.389 255.321 505.524 254.965 505.734C254.608 505.944 254.299 506.224 254.055 506.558C253.811 506.892 253.638 507.272 253.547 507.676C253.455 508.079 253.447 508.496 253.523 508.903C253.848 512.158 254.174 522.544 255.476 522.869C256.778 523.195 273.008 525.828 278.851 526.109C284.695 526.39 291.19 526.435 291.19 523.52C291.19 520.606 290.214 519.304 288.927 519.304C287.64 519.304 284.695 518.327 280.804 516.064C276.913 513.8 267.489 505.027 264.53 504.701C261.571 504.376 257.754 502.408 256.127 505.337Z" fill="black"/>
<path d="M119.985 519.304C119.985 517.841 119.552 516.41 118.739 515.194C117.926 513.977 116.771 513.029 115.419 512.469C114.067 511.909 112.58 511.763 111.145 512.048C109.71 512.334 108.392 513.038 107.357 514.073C106.323 515.107 105.618 516.426 105.333 517.86C105.047 519.295 105.194 520.783 105.754 522.134C106.314 523.486 107.262 524.641 108.478 525.454C109.695 526.267 111.125 526.701 112.588 526.701C114.55 526.701 116.432 525.922 117.819 524.534C119.206 523.147 119.985 521.266 119.985 519.304V519.304Z" fill="#263238" stroke="#263238" stroke-linecap="round" stroke-linejoin="round"/>
<path d="M112.588 522.987C114.631 522.987 116.287 521.332 116.287 519.289C116.287 517.246 114.631 515.59 112.588 515.59C110.546 515.59 108.89 517.246 108.89 519.289C108.89 521.332 110.546 522.987 112.588 522.987Z" fill="white" stroke="#263238" stroke-linecap="round" stroke-linejoin="round"/>
<path d="M199.256 519.304C199.256 517.841 198.822 516.41 198.009 515.194C197.196 513.977 196.041 513.029 194.689 512.469C193.337 511.909 191.85 511.763 190.415 512.048C188.98 512.334 187.662 513.038 186.628 514.073C185.593 515.107 184.889 516.426 184.603 517.86C184.318 519.295 184.464 520.783 185.024 522.134C185.584 523.486 186.532 524.641 187.749 525.454C188.965 526.267 190.395 526.701 191.858 526.701C193.82 526.701 195.702 525.922 197.089 524.534C198.476 523.147 199.256 521.266 199.256 519.304V519.304Z" fill="#263238" stroke="#263238" stroke-linecap="round" stroke-linejoin="round"/>
<path d="M195.557 519.304C195.557 518.572 195.34 517.857 194.934 517.249C194.527 516.641 193.95 516.166 193.274 515.887C192.598 515.607 191.854 515.533 191.137 515.676C190.419 515.819 189.76 516.171 189.243 516.688C188.726 517.206 188.373 517.865 188.231 518.582C188.088 519.3 188.161 520.043 188.441 520.719C188.721 521.395 189.195 521.973 189.803 522.379C190.412 522.785 191.127 523.002 191.858 523.002C192.839 523.002 193.78 522.613 194.474 521.919C195.167 521.225 195.557 520.285 195.557 519.304V519.304Z" fill="white" stroke="#263238" stroke-linecap="round" stroke-linejoin="round"/>
<path d="M225.161 519.304C225.161 517.841 224.728 516.41 223.915 515.194C223.102 513.977 221.947 513.029 220.595 512.469C219.243 511.909 217.756 511.763 216.321 512.048C214.886 512.334 213.568 513.038 212.533 514.073C211.499 515.107 210.794 516.426 210.509 517.86C210.223 519.295 210.37 520.783 210.93 522.134C211.49 523.486 212.438 524.641 213.654 525.454C214.871 526.267 216.301 526.701 217.764 526.701C219.726 526.701 221.608 525.922 222.995 524.534C224.382 523.147 225.161 521.266 225.161 519.304V519.304Z" fill="#263238" stroke="#263238" stroke-linecap="round" stroke-linejoin="round"/>
<path d="M221.463 519.304C221.466 518.568 221.25 517.848 220.843 517.235C220.436 516.622 219.856 516.144 219.177 515.861C218.498 515.578 217.75 515.503 217.029 515.646C216.307 515.789 215.644 516.143 215.124 516.663C214.603 517.183 214.249 517.846 214.107 518.568C213.964 519.29 214.038 520.038 214.321 520.717C214.604 521.396 215.083 521.976 215.695 522.383C216.308 522.79 217.028 523.005 217.764 523.002C218.745 523.002 219.686 522.613 220.38 521.919C221.073 521.225 221.463 520.285 221.463 519.304V519.304Z" fill="white" stroke="#263238" stroke-linecap="round" stroke-linejoin="round"/>
<path d="M180.378 392.306H164.725V510.826H180.378V392.306Z" fill="#263238" stroke="#263238" stroke-linecap="round" stroke-linejoin="round"/>
<path d="M184.564 454.236H160.567V510.826H184.564V454.236Z" fill="#263238" stroke="#263238" stroke-linecap="round" stroke-linejoin="round"/>
<path d="M111.064 508.592H221.625C223.195 508.592 224.7 509.216 225.81 510.326C226.92 511.435 227.543 512.941 227.543 514.51V515.294H105.146V514.51C105.146 512.941 105.77 511.435 106.88 510.326C107.99 509.216 109.495 508.592 111.064 508.592Z" fill="#263238" stroke="#263238" stroke-linecap="round" stroke-linejoin="round"/>
<path d="M156.573 346.471H136.452V378.902H156.573V346.471Z" fill="#263238" stroke="#263238" stroke-linecap="round" stroke-linejoin="round"/>
<path d="M237.737 374.419H107.366C101.376 374.419 96.521 379.274 96.521 385.263V388.178C96.521 394.167 101.376 399.022 107.366 399.022H237.737C243.726 399.022 248.581 394.167 248.581 388.178V385.263C248.581 379.274 243.726 374.419 237.737 374.419Z" fill="#92E3A9" stroke="#263238" stroke-linecap="round" stroke-linejoin="round"/>
<path opacity="0.1" d="M237.737 374.419H107.366C101.376 374.419 96.521 379.274 96.521 385.263V388.178C96.521 394.167 101.376 399.022 107.366 399.022H237.737C243.726 399.022 248.581 394.167 248.581 388.178V385.263C248.581 379.274 243.726 374.419 237.737 374.419Z" fill="black"/>
<path d="M248.581 386.713C248.581 383.453 247.286 380.325 244.98 378.02C242.675 375.714 239.548 374.419 236.287 374.419H169.208C167.556 374.361 165.91 374.637 164.368 375.23C162.825 375.822 161.418 376.719 160.229 377.867C159.041 379.015 158.095 380.391 157.45 381.912C156.804 383.433 156.472 385.068 156.472 386.721C156.472 388.373 156.804 390.008 157.45 391.53C158.095 393.051 159.041 394.426 160.229 395.574C161.418 396.722 162.825 397.619 164.368 398.211C165.91 398.804 167.556 399.08 169.208 399.022H236.287C239.549 399.019 242.676 397.72 244.981 395.412C247.287 393.104 248.581 389.975 248.581 386.713V386.713Z" fill="#92E3A9" stroke="#263238" stroke-miterlimit="10"/>
<path opacity="0.1" d="M248.581 387.098C248.581 385.483 248.263 383.885 247.646 382.393C247.028 380.901 246.122 379.546 244.98 378.404C243.839 377.263 242.483 376.357 240.992 375.739C239.5 375.121 237.901 374.803 236.287 374.803H169.208C167.556 374.746 165.91 375.022 164.368 375.614C162.825 376.207 161.418 377.104 160.229 378.252C159.041 379.4 158.095 380.775 157.45 382.296C156.804 383.817 156.472 385.453 156.472 387.105C156.472 388.758 156.804 390.393 157.45 391.914C158.095 393.435 159.041 394.811 160.229 395.959C161.418 397.107 162.825 398.004 164.368 398.596C165.91 399.188 167.556 399.464 169.208 399.407H236.287C237.903 399.407 239.503 399.088 240.995 398.47C242.488 397.851 243.844 396.944 244.986 395.801C246.127 394.658 247.033 393.301 247.65 391.807C248.267 390.314 248.583 388.714 248.581 387.098V387.098Z" fill="black"/>
<path d="M186.148 346.486H107.736C105.902 346.487 104.088 346.12 102.398 345.408C100.709 344.696 99.1793 343.653 97.8996 342.34C96.62 341.028 95.6162 339.472 94.9475 337.765C94.2787 336.058 93.9586 334.234 94.0061 332.402L95.9442 255.957C96.0292 252.374 97.5137 248.966 100.08 246.464C102.646 243.962 106.089 242.563 109.674 242.568H174.371C177.654 242.562 180.829 243.734 183.322 245.871C185.814 248.007 187.457 250.967 187.953 254.211L199.715 330.715C200.008 332.668 199.877 334.661 199.33 336.559C198.783 338.456 197.834 340.213 196.546 341.71C195.258 343.207 193.663 344.409 191.868 345.233C190.074 346.057 188.122 346.485 186.148 346.486V346.486Z" fill="#92E3A9" stroke="#263238" stroke-linecap="round" stroke-linejoin="round"/>
<path opacity="0.1" d="M186.148 346.486H107.736C105.902 346.487 104.088 346.12 102.398 345.408C100.709 344.696 99.1793 343.653 97.8996 342.34C96.62 341.028 95.6162 339.472 94.9475 337.765C94.2787 336.058 93.9586 334.234 94.0061 332.402L95.9442 255.957C96.0292 252.374 97.5137 248.966 100.08 246.464C102.646 243.962 106.089 242.563 109.674 242.568H174.371C177.654 242.562 180.829 243.734 183.322 245.871C185.814 248.007 187.457 250.967 187.953 254.211L199.715 330.715C200.008 332.668 199.877 334.661 199.33 336.559C198.783 338.456 197.834 340.213 196.546 341.71C195.258 343.207 193.663 344.409 191.868 345.233C190.074 346.057 188.122 346.485 186.148 346.486V346.486Z" fill="black"/>
<path d="M160.538 395.102L126.155 417.738" stroke="#263238" stroke-linecap="round" stroke-linejoin="round"/>
<path d="M124.853 414.261L118.935 418.241C118.472 418.557 118.084 418.971 117.8 419.455C117.515 419.938 117.342 420.479 117.291 421.037C117.24 421.596 117.313 422.159 117.505 422.685C117.697 423.212 118.004 423.69 118.402 424.085L118.906 424.558C119.57 425.212 120.454 425.597 121.385 425.638C122.317 425.679 123.231 425.373 123.951 424.78L129.365 420.342C129.767 420.009 130.096 419.597 130.331 419.131C130.567 418.666 130.703 418.156 130.732 417.635C130.761 417.115 130.683 416.593 130.501 416.104C130.319 415.615 130.038 415.169 129.676 414.794V414.794C129.063 414.152 128.244 413.746 127.362 413.649C126.479 413.552 125.591 413.768 124.853 414.261V414.261Z" fill="#263238" stroke="#263238" stroke-linecap="round" stroke-linejoin="round"/>
<path d="M165.908 508.592H199.833C201.402 508.592 202.908 509.216 204.017 510.326C205.127 511.435 205.751 512.941 205.751 514.51V515.294H165.908V508.592Z" fill="#263238" stroke="#263238" stroke-linecap="round" stroke-linejoin="round"/>
<path d="M193.071 307.088C199.763 307.088 205.188 304.001 205.188 300.194C205.188 296.386 199.763 293.299 193.071 293.299C186.38 293.299 180.955 296.386 180.955 300.194C180.955 304.001 186.38 307.088 193.071 307.088Z" fill="white" stroke="#263238" stroke-linecap="round" stroke-linejoin="round"/>
<path d="M226.789 356.739C226.789 356.739 246.333 357.715 250.742 367.983C251.65 371.499 252.146 375.108 252.221 378.739C252.221 384.109 270.301 487.732 270.789 489.699C271.277 491.667 282.033 506.802 283.497 510.22C284.962 513.637 286.456 516.581 286.456 516.581C286.456 516.581 290.895 518.534 290.377 519.999C289.859 521.464 279.621 521.952 275.227 521.952C270.833 521.952 265.936 511.211 263.007 510.22C260.077 509.228 256.645 505.781 256.645 503.873C256.645 501.964 258.124 487.746 258.124 487.746C256.25 476.148 252.971 464.821 248.36 454.014C241.821 439.116 233.684 417.353 232.707 407.1C231.731 396.848 231.731 387.053 231.731 387.053L219.392 385.086C219.392 385.086 217.912 359.668 226.789 356.739Z" fill="white" stroke="#263238" stroke-linecap="round" stroke-linejoin="round"/>
<path d="M266.513 515.072C266.513 515.072 270.419 499.168 280.479 505.337L284.696 512.468C284.696 512.468 275.286 512.468 272.357 521.567C270.926 521.045 269.646 520.179 268.627 519.047C267.608 517.915 266.882 516.55 266.513 515.072V515.072Z" fill="#263238" stroke="#263238" stroke-linecap="round" stroke-linejoin="round"/>
<path d="M186.34 327.061L185.867 327.135C181.428 309.056 175.436 290.577 175.436 290.577C175.436 290.577 146.039 298.344 129.085 293.077C129.085 293.077 120.459 335.553 120.459 346.649C120.459 355.526 118.625 364.551 125.341 369.758C125.991 370.715 126.826 371.531 127.797 372.158C128.768 372.786 129.854 373.213 130.993 373.413C149.324 376.86 180.911 375.661 186.177 376.712C191.444 377.762 219.392 385.086 219.392 385.086C219.392 385.086 221.063 369.67 225.798 359.668C230.532 349.667 252.147 351.369 252.147 351.369L186.34 327.061Z" fill="#263238" stroke="#263238" stroke-linecap="round" stroke-linejoin="round"/>
<path d="M179.549 208.614C179.549 208.614 175.496 203.525 171.116 209.132C166.737 214.739 170.214 234.209 172.374 241.991C174.534 249.773 211.018 282.055 214.45 284.452C217.883 286.849 262.607 296.953 266.513 295.104C270.419 293.255 271.543 283.89 269.324 278.83C267.105 273.77 225.31 263.029 225.31 263.029L179.549 208.614Z" fill="white"/>
<g style="mix-blend-mode:multiply" opacity="0.5">
<path d="M214.45 284.481C217.882 286.863 262.607 296.983 266.513 295.134C268.762 294.068 270.078 290.488 270.374 286.686C263.465 283.904 255.269 282.025 251.466 282.247C245.948 282.558 249.647 287.707 240.799 286.257C231.952 284.807 221.862 280.339 212.689 275.101C203.517 269.864 187.05 254.389 187.05 254.389L199.966 255.868L185.245 251.326L198.043 246.518L187.05 245.867C187.754 244.126 188.082 242.255 188.012 240.378C188.012 236.576 180.762 222.462 180.762 222.462L173.069 243.603C178.44 253.25 211.21 282.218 214.45 284.481Z" fill="#92E3A9"/>
</g>
<path d="M179.549 208.614C179.549 208.614 175.496 203.525 171.116 209.132C166.737 214.739 170.214 234.209 172.374 241.991C174.534 249.773 211.018 282.055 214.45 284.452C217.883 286.849 262.607 296.953 266.513 295.104C270.419 293.255 271.543 283.89 269.324 278.83C267.105 273.77 225.31 263.029 225.31 263.029L179.549 208.614Z" stroke="#263238" stroke-linecap="round" stroke-linejoin="round"/>
<path d="M193.915 249.492L183.869 253.383L200.765 259.005" stroke="#263238" stroke-width="0.5" stroke-linecap="round" stroke-linejoin="round"/>
<path d="M266.616 278.785C265.325 279.05 264.144 279.699 263.228 280.647C262.311 281.595 261.703 282.797 261.482 284.097C260.61 288.727 265.166 292.678 265.166 292.678C265.166 292.678 274.768 295.977 277.638 288.239C280.508 280.502 271.262 278.49 266.616 278.785Z" fill="white"/>
<g style="mix-blend-mode:multiply" opacity="0.5">
<path d="M265.166 292.678C265.166 292.678 273.363 295.474 276.869 289.837C272.053 287.156 266.904 285.122 261.556 283.786C261.525 283.888 261.5 283.992 261.482 284.097C260.61 288.728 265.166 292.678 265.166 292.678Z" fill="#92E3A9"/>
</g>
<path d="M266.616 278.785C265.325 279.05 264.144 279.699 263.228 280.647C262.311 281.595 261.703 282.797 261.482 284.097C260.61 288.727 265.166 292.678 265.166 292.678C265.166 292.678 274.768 295.977 277.638 288.239C280.508 280.502 271.262 278.49 266.616 278.785Z" stroke="#263238" stroke-linecap="round" stroke-linejoin="round"/>
<path d="M294.978 289.482C297.66 289.912 300.131 291.2 302.02 293.151C304.816 296.303 302.538 297.59 300.748 297.131C298.958 296.672 293.069 287.973 294.978 289.482Z" fill="white" stroke="#263238" stroke-linecap="round" stroke-linejoin="round"/>
<path d="M293.114 288.905C295.712 289.703 297.981 291.323 299.579 293.521C301.917 297.013 299.476 297.959 297.774 297.279C296.073 296.598 291.427 287.144 293.114 288.905Z" fill="white" stroke="#263238" stroke-linecap="round" stroke-linejoin="round"/>
<path d="M276.366 282.011C276.366 282.011 271.928 283.638 271.439 286.449C271.359 287.327 271.462 288.211 271.742 289.047C272.022 289.882 272.474 290.65 273.067 291.302C273.067 291.302 277.505 294.853 279.192 295.222C280.878 295.592 284.666 297.752 285.11 295.696C285.554 293.639 281.056 291.82 281.056 291.82C281.056 291.82 289.652 292.338 289.933 294.068C290.214 295.799 293.321 297.59 296.073 297.634C298.824 297.678 295.496 292.116 294.83 290.725C294.164 289.334 281.87 282.114 276.366 282.011Z" fill="white" stroke="#263238" stroke-linecap="round" stroke-linejoin="round"/>
<path d="M135.476 194.81C135.476 194.81 108.431 210.537 106.315 211.573C104.2 212.609 102.099 228.883 102.099 230.421C102.099 231.96 129.144 293.077 129.144 293.077C129.144 293.077 135.801 298.714 155.286 298.714C174.771 298.714 176.28 295.755 176.28 295.755L177.833 269.968C177.833 269.968 184.491 252.54 185.009 249.462C185.526 246.385 179.549 208.614 179.549 208.614L151.883 190.165C151.883 190.165 140.61 183.537 135.476 194.81Z" fill="white"/>
<g style="mix-blend-mode:multiply" opacity="0.5">
<path d="M109.067 222.758C111.183 219.37 130.653 206.676 130.653 206.676L137.843 202.445L147.06 188.464C143.361 187.783 138.42 188.345 135.476 194.81C135.476 194.81 108.372 210.537 106.315 211.558C104.259 212.579 102.099 228.868 102.099 230.407C102.099 230.747 103.371 233.883 105.354 238.603C106.123 231.605 107.588 225.125 109.067 222.758Z" fill="#92E3A9"/>
</g>
<path d="M135.476 194.81C135.476 194.81 108.431 210.537 106.315 211.573C104.2 212.609 102.099 228.883 102.099 230.421C102.099 231.96 129.144 293.077 129.144 293.077C129.144 293.077 135.801 298.714 155.286 298.714C174.771 298.714 176.28 295.755 176.28 295.755L177.833 269.968C177.833 269.968 184.491 252.54 185.009 249.462C185.526 246.385 179.549 208.614 179.549 208.614L151.883 190.165C151.883 190.165 140.61 183.537 135.476 194.81Z" stroke="#263238" stroke-linecap="round" stroke-linejoin="round"/>
<path d="M144.545 219.207L152.43 227.714L150.788 263.887L162.328 266.935L163.541 251.134L167.787 267.541L176.294 259.035L157.904 227.107L160.331 217.387L150.004 205.847L143.332 221.648" fill="#263238"/>
<path d="M144.545 219.207L152.43 227.714L150.788 263.887L162.328 266.935L163.541 251.134L167.787 267.541L176.294 259.035L157.904 227.107L160.331 217.387L150.004 205.847L143.332 221.648" stroke="#263238" stroke-linecap="round" stroke-linejoin="round"/>
<path d="M130.194 194.899C130.194 194.899 131.88 206.158 134.129 211.174C136.378 216.189 141.453 224.696 141.453 224.696L152.149 213.985L162.861 221.382C162.861 221.382 161.736 202.8 157.786 194.352C153.836 185.904 134.691 177.442 130.194 194.899Z" fill="white" stroke="#263238" stroke-linecap="round" stroke-linejoin="round"/>
<g style="mix-blend-mode:multiply" opacity="0.5">
<path d="M137.843 202.445L148.539 186.17C146.587 185.315 144.498 184.814 142.37 184.691C140.535 185.061 138.464 185.519 136.274 186.008C133.597 187.487 131.377 190.269 130.194 194.884C130.194 194.884 131.037 200.566 132.339 205.67L137.843 202.445Z" fill="#92E3A9"/>
</g>
<path d="M156.662 191.511C155.214 194.701 154.448 198.158 154.413 201.661C154.413 207.283 155.537 213.496 155.537 216.307V224.755C155.537 224.755 148.776 216.307 143.702 210.108C138.627 203.909 134.692 198.273 135.254 193.213C135.816 188.153 140.891 168.417 140.891 168.417C143.571 168.393 146.205 169.118 148.495 170.511C150.785 171.905 152.64 173.911 153.851 176.302C158.348 184.75 156.662 191.511 156.662 191.511Z" fill="white" stroke="#263238" stroke-linecap="round" stroke-linejoin="round"/>
<g style="mix-blend-mode:multiply" opacity="0.5">
<path d="M139.115 181.717L137.429 182.531C136.393 186.969 135.476 191.215 135.254 193.213C134.706 198.095 138.361 203.569 143.169 209.487L143.776 197.843L156.662 191.556L146.306 181.333L139.115 181.717Z" fill="#92E3A9"/>
</g>
<path d="M167.61 185.46C167.61 185.46 163.882 192.369 167.906 192.651C171.93 192.932 171.057 189.484 171.634 188.345C172.211 187.206 174.8 189.825 173.365 195.24C171.93 200.654 164.74 204.442 160.42 200.122C156.1 195.802 157.268 191.245 158.703 187.768C160.139 184.291 165.923 182.59 167.61 185.46Z" fill="#263238" stroke="#263238" stroke-linecap="round" stroke-linejoin="round"/>
<path d="M159.532 124.388C158.274 124.21 156.958 124.077 155.597 124.003C150.64 123.751 145.24 124.077 141.379 127.169C133.36 133.59 134.706 146.491 135.283 155.471C135.934 165.665 135.801 180.534 143.45 187.916C156.366 200.373 176.561 187.043 176.561 172.278C176.561 166.035 176.797 156.522 177.212 154.391C177.751 151.76 178.122 149.096 178.321 146.417C179.209 132.821 171.501 126.089 159.532 124.388Z" fill="white" stroke="#263238" stroke-linecap="round" stroke-linejoin="round"/>
<g style="mix-blend-mode:multiply" opacity="0.5">
<path d="M164.296 190.579C160.682 190.529 157.075 190.252 153.496 189.751C148.007 188.907 140.387 180.016 144.19 167.751C147.992 155.486 148.007 149.124 148.007 149.124L135.061 141.032C134.764 145.844 134.844 150.672 135.298 155.471C135.949 165.665 135.816 180.534 143.465 187.916C149.738 193.982 157.727 193.923 164.296 190.579Z" fill="#92E3A9"/>
</g>
<path d="M156.958 163.742C157.767 163.742 158.423 162.615 158.423 161.226C158.423 159.837 157.767 158.711 156.958 158.711C156.149 158.711 155.493 159.837 155.493 161.226C155.493 162.615 156.149 163.742 156.958 163.742Z" fill="#263238"/>
<path d="M171.412 161.848C171.323 163.238 170.584 164.318 169.785 164.259C168.986 164.2 168.394 163.046 168.483 161.655C168.571 160.265 169.296 159.185 170.11 159.244C170.924 159.303 171.501 160.457 171.412 161.848Z" fill="#263238"/>
<path d="M152.416 155.205C152.416 155.205 155.375 148.962 160.124 151.906Z" fill="white"/>
<path d="M152.416 155.205C152.416 155.205 155.375 148.962 160.124 151.906" stroke="#263238" stroke-linecap="round" stroke-linejoin="round"/>
<path d="M167.832 153.001C167.832 153.001 171.338 148.976 173.335 155.575Z" fill="white"/>
<path d="M167.832 153.001C167.832 153.001 171.338 148.976 173.335 155.575" stroke="#263238" stroke-linecap="round" stroke-linejoin="round"/>
<path d="M165.553 166.227C165.553 166.479 165.553 166.73 165.553 166.952C165.923 169.526 167.758 171.39 167.033 172.456C166.308 173.521 162.594 173.935 162.594 173.935" fill="white"/>
<path d="M165.553 166.227C165.553 166.479 165.553 166.73 165.553 166.952C165.923 169.526 167.758 171.39 167.033 172.456C166.308 173.521 162.594 173.935 162.594 173.935" stroke="#263238" stroke-linecap="round" stroke-linejoin="round"/>
<path d="M161.218 179.809C161.218 179.809 154.753 181.806 152.342 176.583Z" fill="white"/>
<path d="M161.218 179.809C161.218 179.809 154.753 181.806 152.342 176.583" stroke="#263238" stroke-linecap="round" stroke-linejoin="round"/>
<path d="M155.7 167.381C159.9 167.381 163.305 163.976 163.305 159.777C163.305 155.577 159.9 152.172 155.7 152.172C151.5 152.172 148.096 155.577 148.096 159.777C148.096 163.976 151.5 167.381 155.7 167.381Z" stroke="#263238" stroke-width="0.5" stroke-linecap="round" stroke-linejoin="round"/>
<path d="M172.907 167.381C176.673 167.381 179.727 163.976 179.727 159.777C179.727 155.577 176.673 152.172 172.907 152.172C169.14 152.172 166.086 155.577 166.086 159.777C166.086 163.976 169.14 167.381 172.907 167.381Z" stroke="#263238" stroke-width="0.5" stroke-linecap="round" stroke-linejoin="round"/>
<path d="M148.096 159.777L137.236 160.235" stroke="#263238" stroke-width="0.5" stroke-linecap="round" stroke-linejoin="round"/>
<path d="M179.727 159.777H176.945" stroke="#263238" stroke-width="0.5" stroke-linecap="round" stroke-linejoin="round"/>
<path d="M163.29 157.454H166.441" stroke="#263238" stroke-width="0.5" stroke-linecap="round" stroke-linejoin="round"/>
<path d="M172.951 115.407C167.273 114.416 161.534 113.823 155.774 113.632C155.774 113.632 145.699 108.883 132.102 114.224C112.647 121.828 113.076 147.808 117.899 164.363C119.379 169.364 122.856 176.953 119.66 181.969C117.648 185.135 111.893 183.448 112.766 179.099C113.638 174.749 115.059 176.228 116.213 175.651C117.367 175.074 115.636 174.497 113.047 173.639C110.458 172.781 108.194 175.119 107.868 180.815C107.01 196.349 129.898 206.632 138.627 193.05C142.177 187.132 139.026 176.85 137.488 169.378C136.999 166.792 136.668 164.178 136.496 161.552C139.258 161.287 141.82 159.993 143.672 157.927C145.043 156.048 146.213 154.03 147.163 151.906C148.199 151.906 149.279 151.98 150.463 152.098C162.298 153.282 165.879 133.131 165.879 133.131C165.879 133.131 171.797 144.39 173.572 148.547L175.347 152.69C175.347 152.69 180.096 153.282 184.831 143.206C189.565 133.131 184.209 117.227 172.951 115.407Z" fill="#263238" stroke="#263238" stroke-linecap="round" stroke-linejoin="round"/>
<path d="M165.198 128.397C165.198 128.397 179.757 133.397 180.2 142.038C180.644 150.678 178.381 151.122 178.381 151.122" stroke="white" stroke-width="0.5" stroke-miterlimit="10" stroke-linecap="round"/>
<path d="M163.394 125.216C163.394 125.216 177.02 122.035 181.576 131.134" stroke="white" stroke-width="0.5" stroke-miterlimit="10" stroke-linecap="round"/>
<path d="M146.572 116.117C146.572 116.117 160.198 122.938 162.476 129.314C164.755 135.691 152.934 147.941 145.196 150.219C137.458 152.498 131.57 149.761 126.111 153.859C120.651 157.957 122.93 169.304 122.93 169.304" stroke="white" stroke-width="0.5" stroke-miterlimit="10" stroke-linecap="round"/>
<path d="M118.787 156.581C118.787 156.581 115.148 147.941 122.885 143.399C130.623 138.857 137.429 143.399 146.069 137.94C154.709 132.48 156.07 125.675 156.07 125.675" stroke="white" stroke-width="0.5" stroke-miterlimit="10" stroke-linecap="round"/>
<path d="M138.804 164.422C138.804 164.422 134.026 152.808 129.232 156.906C124.439 161.004 132.65 171.938 138.109 170.577" fill="white"/>
<path d="M138.804 164.422C138.804 164.422 134.026 152.808 129.232 156.906C124.439 161.004 132.65 171.938 138.109 170.577" stroke="#263238" stroke-linecap="round" stroke-linejoin="round"/>
<g opacity="0.37">
<path d="M138.804 164.422C138.804 164.422 134.026 152.808 129.232 156.906C124.439 161.004 132.65 171.938 138.109 170.577" fill="#92E3A9"/>
<path d="M138.804 164.422C138.804 164.422 134.026 152.808 129.232 156.906C124.439 161.004 132.65 171.938 138.109 170.577" stroke="#263238" stroke-linecap="round" stroke-linejoin="round"/>
</g>
<path d="M109.615 212.742C109.615 212.742 107.292 210.996 102.128 214.887C96.9651 218.778 92.1568 236.472 95.3821 243.973C98.6073 251.474 107.218 290.473 111.227 292.604C115.237 294.734 158.348 294.557 163.438 293.358C168.527 292.16 172.078 285.502 171.22 279.747C170.362 273.992 164.681 272.498 163.009 272.453C161.337 272.409 126.998 270.456 126.998 270.456L116.331 225.391" fill="white"/>
<g style="mix-blend-mode:multiply" opacity="0.5">
<path d="M164.799 283.697C162.343 280.664 123.255 285.946 119.083 283.697C114.911 281.449 112.899 277.173 115.947 274.288C118.994 271.403 110.118 270.752 110.192 268.207C110.266 265.663 115.355 264.967 115.029 261.564C114.704 258.162 103.711 257.451 103.978 247.716C104.244 237.982 106.685 226.205 108.89 222.876C110.11 221.472 111.514 220.238 113.062 219.207L109.615 212.727C109.615 212.727 107.292 210.981 102.128 214.872C96.9651 218.763 92.1568 236.472 95.3821 243.973C98.6073 251.474 107.218 290.473 111.227 292.604C115.237 294.734 158.348 294.557 163.438 293.358C165.083 292.832 166.578 291.919 167.798 290.697C169.018 289.474 169.928 287.977 170.451 286.331C167.714 285.547 165.524 284.585 164.799 283.697Z" fill="#92E3A9"/>
</g>
<path d="M109.615 212.742C109.615 212.742 107.292 210.996 102.128 214.887C96.9651 218.778 92.1568 236.472 95.3821 243.973C98.6073 251.474 107.218 290.473 111.227 292.604C115.237 294.734 158.348 294.557 163.438 293.358C168.527 292.16 172.078 285.502 171.22 279.747C170.362 273.992 164.681 272.498 163.009 272.453C161.337 272.409 126.998 270.456 126.998 270.456L116.331 225.391" stroke="#263238" stroke-linecap="round" stroke-linejoin="round"/>
<path d="M113.934 278.771C116.479 271.285 126.983 271.137 126.983 271.137C122.794 270.039 118.413 269.883 114.156 270.678" stroke="#263238" stroke-width="0.5" stroke-linecap="round" stroke-linejoin="round"/>
<path d="M169.356 274.318C167.801 274.983 166.474 276.088 165.539 277.497C164.603 278.905 164.099 280.556 164.089 282.247C163.911 288.313 167.935 289.438 168.927 290.133C169.918 290.828 175.895 294.039 178.306 292.071C180.718 290.103 183.559 284.807 181.265 280.369C178.972 275.93 171.708 274.377 169.356 274.318Z" fill="white"/>
<g style="mix-blend-mode:multiply" opacity="0.5">
<path d="M178.306 292.071C178.921 291.55 179.468 290.953 179.934 290.296L174.904 287.618C170.288 286.346 165.894 285.044 164.799 283.697C164.608 283.497 164.369 283.349 164.104 283.268C164.385 288.446 167.98 289.482 168.927 290.133C169.873 290.784 175.895 294.039 178.306 292.071Z" fill="#92E3A9"/>
</g>
<path d="M169.356 274.318C167.801 274.983 166.474 276.088 165.539 277.497C164.603 278.905 164.099 280.556 164.089 282.247C163.911 288.313 167.935 289.438 168.927 290.133C169.918 290.828 175.895 294.039 178.306 292.071C180.718 290.103 183.559 284.807 181.265 280.369C178.972 275.93 171.708 274.377 169.356 274.318Z" stroke="#263238" stroke-linecap="round" stroke-linejoin="round"/>
<path d="M177.685 279.747C177.685 279.747 174.016 281.153 173.513 283.919C173.01 286.686 173.187 288.18 173.824 288.358C174.46 288.535 176.575 289.497 176.575 289.497L183.1 292.885C183.1 292.885 188.278 298.803 189.979 299.276C191.681 299.75 190.216 298.64 189.979 297.353C189.239 295.509 188.28 293.761 187.124 292.145L194.847 298.98C194.847 298.98 197.392 299.898 196.8 297.959C196.208 296.021 192.258 292.042 192.258 292.042L199.552 298.655C199.552 298.655 201.031 299.335 201.031 298.477C201.114 298.047 201.084 297.603 200.944 297.188C200.804 296.773 200.559 296.402 200.232 296.11C199.404 295.444 194.433 289.748 194.433 289.748L201.357 293.994C201.357 293.994 202.836 295.962 203.872 295.992C204.907 296.021 204.316 295.356 203.531 293.033C202.747 290.71 197.48 287.307 195.601 285.976C193.722 284.644 183.455 279.91 177.685 279.747Z" fill="white" stroke="#263238" stroke-linecap="round" stroke-linejoin="round"/>
<path d="M508.703 277.972H450.914L461.315 244.24H519.103L508.703 277.972Z" fill="#263238" stroke="#263238" stroke-linecap="round" stroke-linejoin="round"/>
<path d="M504.161 281.153H446.387L456.788 247.406H514.561L504.161 281.153Z" fill="white" stroke="#263238" stroke-linecap="round" stroke-linejoin="round"/>
<path d="M421.133 267.793H516.352C518.706 267.793 520.964 268.728 522.628 270.393C524.293 272.058 525.228 274.316 525.228 276.67V301.495H421.133V267.793Z" fill="#263238" stroke="#263238" stroke-linecap="round" stroke-linejoin="round"/>
<path d="M508.185 267.793H404.045V301.54H508.185V267.793Z" fill="white" stroke="#263238" stroke-linecap="round" stroke-linejoin="round"/>
<path d="M484.75 292.485H401.559V296.939H484.75V292.485Z" fill="white" stroke="#263238" stroke-linecap="round" stroke-linejoin="round"/>
<path d="M484.75 288.032H419.313V292.485H484.75V288.032Z" fill="#263238" stroke="#263238" stroke-linecap="round" stroke-linejoin="round"/>
<path d="M401.899 298.255H336.255V301.318H401.899V298.255Z" fill="white" stroke="#263238" stroke-linecap="round" stroke-linejoin="round"/>
<path d="M452.379 189.854H310.882V281.108H452.379V189.854Z" fill="white" stroke="#263238" stroke-linecap="round" stroke-linejoin="round"/>
<path d="M452.379 189.854H318.605V281.108H452.379V189.854Z" fill="#263238" stroke="#263238" stroke-linecap="round" stroke-linejoin="round"/>
<path d="M403.423 232.256H372.458V302.709H403.423V232.256Z" fill="white" stroke="#263238" stroke-linecap="round" stroke-linejoin="round"/>
<path d="M406.279 232.256H375.313V302.709H406.279V232.256Z" fill="#263238" stroke="#263238" stroke-linecap="round" stroke-linejoin="round"/>
<path d="M373.257 233.084H407.004V281.33" stroke="white" stroke-linejoin="round"/>
<path d="M309.906 296.613H215.116V301.569H309.906V296.613Z" fill="white" stroke="#263238" stroke-linecap="round" stroke-linejoin="round"/>
<path d="M334.406 296.613H239.616V301.569H334.406V296.613Z" fill="white" stroke="#263238" stroke-linecap="round" stroke-linejoin="round"/>
<path d="M211.461 309.736H66.2215L59.3271 521.981C59.2891 522.569 59.3685 523.159 59.5607 523.716C59.7529 524.272 60.054 524.785 60.4464 525.225C60.8389 525.664 61.3149 526.021 61.8466 526.274C62.3784 526.528 62.9552 526.673 63.5436 526.701V526.701C64.6318 526.669 65.6686 526.231 66.4492 525.472C67.2299 524.714 67.6976 523.69 67.7601 522.603L81.6228 349.164C81.7987 346.071 83.1264 343.156 85.3443 340.992C87.5623 338.829 90.5099 337.575 93.6065 337.476H184.076C187.172 337.575 190.117 338.83 192.333 340.993C194.548 343.157 195.873 346.072 196.045 349.164L209.923 522.573C209.985 523.658 210.451 524.679 211.228 525.438C212.006 526.196 213.039 526.636 214.125 526.671C214.713 526.645 215.29 526.502 215.822 526.25C216.355 525.998 216.832 525.643 217.226 525.205C217.62 524.768 217.922 524.256 218.116 523.7C218.31 523.144 218.392 522.554 218.356 521.967L211.461 309.736Z" fill="#92E3A9" stroke="#263238" stroke-linecap="round" stroke-linejoin="round"/>
<path d="M211.787 319.501L211.461 309.736H163.956H113.727H66.2215L65.896 319.501H211.787Z" fill="#263238" stroke="#263238" stroke-linecap="round" stroke-linejoin="round"/>
<path d="M542.213 309.736H396.928L390.049 521.981C390.013 522.568 390.094 523.156 390.287 523.711C390.48 524.266 390.781 524.777 391.174 525.215C391.566 525.653 392.041 526.008 392.572 526.261C393.103 526.513 393.678 526.658 394.265 526.686V526.686C395.351 526.651 396.384 526.211 397.162 525.453C397.939 524.694 398.405 523.672 398.467 522.588L412.374 349.164C412.55 346.071 413.878 343.156 416.096 340.992C418.314 338.829 421.261 337.575 424.358 337.476H514.828C517.923 337.575 520.869 338.83 523.084 340.993C525.3 343.157 526.624 346.072 526.797 349.164L540.674 522.573C540.729 523.663 541.192 524.692 541.97 525.457C542.748 526.221 543.785 526.665 544.876 526.701C545.463 526.673 546.038 526.528 546.569 526.276C547.1 526.023 547.575 525.668 547.967 525.23C548.36 524.792 548.661 524.281 548.854 523.726C549.047 523.171 549.128 522.583 549.092 521.996L542.213 309.736Z" fill="#92E3A9" stroke="#263238" stroke-linecap="round" stroke-linejoin="round"/>
<path d="M543.174 319.501L542.864 309.736H495.358H445.115H397.609L397.298 319.501H543.174Z" fill="#263238" stroke="#263238" stroke-linecap="round" stroke-linejoin="round"/>
<path d="M551.785 301.54H54.4448V312.725H551.785V301.54Z" fill="white" stroke="#263238" stroke-linecap="round" stroke-linejoin="round"/>
<path d="M551.8 301.54H195.335V312.725H551.8V301.54Z" fill="white" stroke="#263238" stroke-linecap="round" stroke-linejoin="round"/>
</g>
<defs>
<filter id="filter0_d_301_4535" x="49.9448" y="0" width="583.055" height="535.201" filterUnits="userSpaceOnUse" color-interpolation-filters="sRGB">
<feFlood flood-opacity="0" result="BackgroundImageFix"/>
<feColorMatrix in="SourceAlpha" type="matrix" values="0 0 0 0 0 0 0 0 0 0 0 0 0 0 0 0 0 0 127 0" result="hardAlpha"/>
<feOffset dy="4"/>
<feGaussianBlur stdDeviation="2"/>
<feComposite in2="hardAlpha" operator="out"/>
<feColorMatrix type="matrix" values="0 0 0 0 0 0 0 0 0 0 0 0 0 0 0 0 0 0 0.25 0"/>
<feBlend mode="normal" in2="BackgroundImageFix" result="effect1_dropShadow_301_4535"/>
<feBlend mode="normal" in="SourceGraphic" in2="effect1_dropShadow_301_4535" result="shape"/>
</filter>
</defs>
</svg>
