<svg width="700" height="438" viewBox="0 0 700 438" fill="none" xmlns="http://www.w3.org/2000/svg">
<g filter="url(#filter0_d_301_4712)">
<path d="M366.541 429.963C548.496 429.963 696 425.882 696 420.848C696 415.813 548.496 411.732 366.541 411.732C184.586 411.732 37.0818 415.813 37.0818 420.848C37.0818 425.882 184.586 429.963 366.541 429.963Z" fill="#92E3A9"/>
<path opacity="0.8" d="M366.541 429.963C548.496 429.963 696 425.882 696 420.848C696 415.813 548.496 411.732 366.541 411.732C184.586 411.732 37.0818 415.813 37.0818 420.848C37.0818 425.882 184.586 429.963 366.541 429.963Z" fill="white"/>
<path d="M524.887 78.2151C524.239 78.2151 523.618 78.4067 523.16 78.7476C522.702 79.0886 522.444 79.5511 522.444 80.0333V89.3545H477.81V80.0333C477.81 79.5511 477.552 79.0886 477.094 78.7476C476.636 78.4067 476.015 78.2151 475.367 78.2151C474.719 78.2151 474.098 78.4067 473.64 78.7476C473.182 79.0886 472.925 79.5511 472.925 80.0333V314.823C472.925 315.305 473.182 315.767 473.64 316.108C474.098 316.449 474.719 316.641 475.367 316.641C476.015 316.641 476.636 316.449 477.094 316.108C477.552 315.767 477.81 315.305 477.81 314.823V262.301H522.444V314.823C522.444 315.305 522.702 315.767 523.16 316.108C523.618 316.449 524.239 316.641 524.887 316.641C525.535 316.641 526.156 316.449 526.614 316.108C527.072 315.767 527.33 315.305 527.33 314.823V79.9969C527.317 79.521 527.054 79.0679 526.597 78.7347C526.14 78.4016 525.526 78.215 524.887 78.2151V78.2151ZM522.444 258.701H477.81V246.919H522.444V258.701ZM522.444 243.271H477.81V231.501H522.444V243.271ZM522.444 227.852H477.81V216.119H522.444V227.852ZM522.444 212.446H477.81V200.761H522.444V212.446ZM522.444 197.052H477.81V185.501H522.444V197.052ZM522.444 181.707H477.81V170.082H522.444V181.707ZM522.444 166.434H477.81V154.7H522.444V166.434ZM522.444 151.016H477.81V139.282H522.444V151.016ZM522.444 135.634H477.81V123.864H522.444V135.634ZM522.444 120.215H477.81V108.421H522.444V120.215ZM522.444 104.785H477.81V92.9909H522.444V104.785Z" fill="white"/>
<path d="M102.087 267.501C102.087 267.501 138.645 230.253 120.814 221.441C102.267 212.337 93.5546 239.913 89.6302 253.453C81.2602 282.35 83.6214 288.483 89.2394 282.132L102.087 267.501Z" fill="#92E3A9"/>
<path opacity="0.5" d="M102.087 267.501C102.087 267.501 138.645 230.253 120.814 221.441C102.267 212.337 93.5546 239.913 89.6302 253.453C81.2602 282.35 83.6214 288.483 89.2394 282.132L102.087 267.501Z" fill="white"/>
<path d="M115.799 290.41C115.799 290.41 166.622 264.01 153.578 251.428C140.013 238.325 119.74 262.338 110.116 274.168C89.5816 299.477 89.1582 305.853 97.2351 301.198L115.799 290.41Z" fill="#92E3A9"/>
<path opacity="0.5" d="M115.799 290.41C115.799 290.41 166.622 264.01 153.578 251.428C140.013 238.325 119.74 262.338 110.116 274.168C89.5816 299.477 89.1582 305.853 97.2351 301.198L115.799 290.41Z" fill="white"/>
<path d="M116.906 321.029C116.906 321.029 160.873 306.325 153.366 295.295C145.55 283.816 125.374 299.962 115.717 307.986C95.0854 325.126 93.5221 329.95 100.606 327.271L116.906 321.029Z" fill="#92E3A9"/>
<path opacity="0.5" d="M116.906 321.029C116.906 321.029 160.873 306.325 153.366 295.295C145.55 283.816 125.374 299.962 115.717 307.986C95.0854 325.126 93.5221 329.95 100.606 327.271L116.906 321.029Z" fill="white"/>
<path d="M119.511 351.78C119.511 351.78 163.478 337.077 155.987 326.047C148.155 314.58 127.995 330.713 118.322 338.75C97.7068 355.889 96.1273 360.714 103.227 358.023L119.511 351.78Z" fill="#92E3A9"/>
<path opacity="0.5" d="M119.511 351.78C119.511 351.78 163.478 337.077 155.987 326.047C148.155 314.58 127.995 330.713 118.322 338.75C97.7068 355.889 96.1273 360.714 103.227 358.023L119.511 351.78Z" fill="white"/>
<path d="M67.9397 283.065C67.9397 283.065 19.6086 254.18 7.0536 267.028C-5.97365 280.362 30.6004 288.156 48.5942 291.695C86.9921 299.247 95.3295 297.756 87.0572 293.295L67.9397 283.065Z" fill="#92E3A9"/>
<path opacity="0.5" d="M67.9397 283.065C67.9397 283.065 19.6086 254.18 7.0536 267.028C-5.97365 280.362 30.6004 288.156 48.5942 291.695C86.9921 299.247 95.3295 297.756 87.0572 293.295L67.9397 283.065Z" fill="white"/>
<path d="M69.3728 307.198C69.3728 307.198 14.3001 286.035 5.42527 300.495C-3.80779 315.538 34.1341 317.72 52.6491 318.52C92.3008 320.241 100.085 317.55 90.7863 314.398L69.3728 307.198Z" fill="#92E3A9"/>
<path opacity="0.5" d="M69.3728 307.198C69.3728 307.198 14.3001 286.035 5.42527 300.495C-3.80779 315.538 34.1341 317.72 52.6491 318.52C92.3008 320.241 100.085 317.55 90.7863 314.398L69.3728 307.198Z" fill="white"/>
<path d="M76.0331 334.253C76.0331 334.253 28.8093 317.284 21.7583 329.684C14.4142 342.569 46.5589 343.756 62.3056 344.108C95.8834 344.884 102.381 342.459 94.4178 340.035L76.0331 334.253Z" fill="#92E3A9"/>
<path opacity="0.5" d="M76.0331 334.253C76.0331 334.253 28.8093 317.284 21.7583 329.684C14.4142 342.569 46.5589 343.756 62.3056 344.108C95.8834 344.884 102.381 342.459 94.4178 340.035L76.0331 334.253Z" fill="white"/>
<path d="M78.3454 356.108C78.3454 356.108 33.7922 335.502 25.0151 347.271C15.8797 359.502 47.6825 363.223 63.2826 364.823C96.5673 368.241 103.358 366.362 95.8508 363.247L78.3454 356.108Z" fill="#92E3A9"/>
<path opacity="0.5" d="M78.3454 356.108C78.3454 356.108 33.7922 335.502 25.0151 347.271C15.8797 359.502 47.6825 363.223 63.2826 364.823C96.5673 368.241 103.358 366.362 95.8508 363.247L78.3454 356.108Z" fill="white"/>
<path d="M74.1279 246.471C74.1279 246.471 65.7578 192.373 38.3029 197.901C9.78952 203.67 33.662 231.04 45.7773 244.277C71.5224 272.446 80.9997 275.55 78.9642 266.749L74.1279 246.471Z" fill="#92E3A9"/>
<path opacity="0.5" d="M74.1279 246.471C74.1279 246.471 65.7578 192.373 38.3029 197.901C9.78952 203.67 33.662 231.04 45.7773 244.277C71.5224 272.446 80.9997 275.55 78.9642 266.749L74.1279 246.471Z" fill="white"/>
<path d="M43.9209 217.61C43.9209 217.61 85.7058 275.889 92.1869 302.944C99.645 334.023 100.85 368.738 95.7042 395.938" stroke="#92E3A9" stroke-width="1.25197" stroke-linecap="round" stroke-linejoin="round"/>
<path d="M85.5918 284.944L106.061 238.277" stroke="#92E3A9" stroke-width="1.25197" stroke-linecap="round" stroke-linejoin="round"/>
<path d="M92.1868 302.944L130.715 266.883" stroke="#92E3A9" stroke-width="1.25197" stroke-linecap="round" stroke-linejoin="round"/>
<path d="M89.7282 296.386L33.939 278.944" stroke="#92E3A9" stroke-width="1.25197" stroke-linecap="round" stroke-linejoin="round"/>
<path d="M97.0232 327.368L138.971 303.441" stroke="#92E3A9" stroke-width="1.25197" stroke-linecap="round" stroke-linejoin="round"/>
<path d="M94.7921 317.102L50.9717 310.314" stroke="#92E3A9" stroke-width="1.25197" stroke-linecap="round" stroke-linejoin="round"/>
<path d="M96.8928 342.084L62.9568 338.084" stroke="#92E3A9" stroke-width="1.25197" stroke-linecap="round" stroke-linejoin="round"/>
<path d="M99.7588 358.253L122.589 343.029" stroke="#92E3A9" stroke-width="1.25197" stroke-linecap="round" stroke-linejoin="round"/>
<path d="M99.3028 365.102L60.3025 357.805" stroke="#92E3A9" stroke-width="1.25197" stroke-linecap="round" stroke-linejoin="round"/>
<path d="M70.415 373.987H116.515V381.09H112.493L104.172 419.842H82.7584L74.4372 381.09H70.415V373.987Z" fill="#92E3A9"/>
<path opacity="0.5" d="M70.415 373.987H116.515V381.09H112.493L104.172 419.842H82.7584L74.4372 381.09H70.415V373.987Z" fill="white"/>
<path d="M146.332 8.05722C144.333 6.72786 141.892 5.82105 139.264 5.43098C136.635 5.04092 133.914 5.18181 131.383 5.83903C122.427 8.05722 113.845 17.6936 116.011 25.8513C117.525 31.4998 124.56 39.8271 126.693 43.0029C128.826 46.1786 125.83 51.5484 119.056 62.7C112.282 73.8515 109.66 84.3122 129.298 93.5244C148.937 102.737 171.165 88.1183 182.564 77.6334C193.962 67.1485 174.014 43.0029 172.305 32.7846C170.595 22.5664 167.664 2.9784 146.332 8.05722Z" fill="#263238"/>
<path d="M192.497 78.3367C187.61 81.9759 181.706 84.7686 175.204 86.5159C168.702 88.2632 161.763 88.9221 154.88 88.4458L150.174 103.052L159.131 136.398L217.607 113.84L204.368 88.3852L192.497 78.3367Z" fill="#92E3A9" stroke="#263238" stroke-linecap="round" stroke-linejoin="round"/>
<path opacity="0.3" d="M192.497 78.3367C187.61 81.9759 181.706 84.7686 175.204 86.5159C168.702 88.2632 161.763 88.9221 154.88 88.4458L150.174 103.052L159.131 136.398L217.607 113.84L204.368 88.3852L192.497 78.3367Z" fill="#263238"/>
<path d="M192.497 78.3367L183.54 34.1667L156.997 38.2153L143.758 44.5668C143.758 44.5668 127.963 53.7911 127.963 54.7366C127.963 55.682 154.685 88.9671 154.685 88.9671C161.637 89.2733 168.598 88.4848 175.114 86.6531C181.629 84.8214 187.552 81.9876 192.497 78.3367Z" fill="white"/>
<path d="M192.497 78.3367L183.54 34.1667L156.997 38.2153L143.758 44.5668C143.758 44.5668 127.963 53.7911 127.963 54.7366C127.963 55.682 154.685 88.9671 154.685 88.9671C161.637 89.2733 168.598 88.4848 175.114 86.6531C181.629 84.8214 187.552 81.9876 192.497 78.3367Z" stroke="#263238" stroke-linecap="round" stroke-linejoin="round"/>
<path opacity="0.5" d="M156.883 76.4456C156.883 76.4456 175.594 66.1183 173.868 69.1729C172.142 72.2274 159.212 79.8517 155.744 80.082C152.275 80.3123 156.883 76.4456 156.883 76.4456Z" fill="#92E3A9"/>
<path d="M157.453 56.8333L158.186 57.403L162.746 60.9909L163.918 74.7728L169.504 74.1183L165.091 61.2091L172.158 72.1425L178.036 67.7667L165.4 59.2333L165.091 52.4575L158.626 50.0454" fill="#263238"/>
<path d="M147.178 40.4695C147.178 40.4695 141.625 42.3725 141.625 46.1786C141.625 49.9847 147.634 59.0393 151.395 60.9423C155.157 62.8454 161.606 54.1302 161.606 54.1302C161.606 54.1302 171.376 57.6211 173.981 54.4453C176.587 51.2695 168.005 40.7846 162.469 37.924C156.932 35.0634 147.178 40.4695 147.178 40.4695Z" fill="white" stroke="#263238" stroke-linecap="round" stroke-linejoin="round"/>
<path d="M142.488 36.6516C144.015 39.5553 145.298 42.5267 146.331 45.5486C147.178 48.7244 158.707 54.1305 159.977 54.4456C161.247 54.7608 162.11 44.2759 162.11 44.2759L158.707 31.8879L142.488 36.6516Z" fill="white"/>
<g style="mix-blend-mode:multiply" opacity="0.5">
<path d="M159.065 33.2088C158.349 33.0593 157.62 32.9459 156.883 32.8694L145.11 35.9603L143.563 38.9664C144.344 40.5906 145.338 42.7725 145.94 44.5422C147.87 45.7005 150.202 46.4277 152.666 46.6392C156.199 46.821 159.309 44.7846 161.508 42.2876L159.065 33.2088Z" fill="#92E3A9"/>
</g>
<path d="M142.488 36.6516C144.015 39.5553 145.298 42.5267 146.331 45.5486C147.178 48.7244 158.707 54.1305 159.977 54.4456C161.247 54.7608 162.11 44.2759 162.11 44.2759L158.707 31.8879L142.488 36.6516Z" stroke="#263238" stroke-linecap="round" stroke-linejoin="round"/>
<path d="M134.802 31.2452C134.802 31.2452 130.096 28.3967 130.096 31.2452C130.096 34.0937 134.379 35.6938 137.782 35.6938" fill="white"/>
<path d="M134.802 31.2452C134.802 31.2452 130.096 28.3967 130.096 31.2452C130.096 34.0937 134.379 35.6938 137.782 35.6938" stroke="#263238" stroke-linecap="round" stroke-linejoin="round"/>
<path d="M159.978 22.0331C159.978 22.0331 162.974 18.5422 163.821 22.3604C164.211 24.8461 163.295 27.3477 161.264 29.3423L159.978 22.0331Z" fill="white" stroke="#263238" stroke-linecap="round" stroke-linejoin="round"/>
<g opacity="0.5">
<path d="M134.802 31.2452C134.802 31.2452 130.096 28.3967 130.096 31.2452C130.096 34.0937 134.379 35.6938 137.782 35.6938" fill="#92E3A9"/>
<path d="M134.802 31.2452C134.802 31.2452 130.096 28.3967 130.096 31.2452C130.096 34.0937 134.379 35.6938 137.782 35.6938" stroke="#263238" stroke-linecap="round" stroke-linejoin="round"/>
</g>
<path opacity="0.5" d="M159.978 22.0331C159.978 22.0331 162.974 18.5422 163.821 22.3604C164.211 24.8461 163.295 27.3477 161.264 29.3423L159.978 22.0331Z" fill="#92E3A9" stroke="#263238" stroke-linecap="round" stroke-linejoin="round"/>
<path d="M129.51 22.0575C129.51 22.0575 133.174 33.4152 141.039 39.0273C148.904 44.6395 157.323 44.688 160.238 34.6879C162.632 26.4454 156.688 15.4514 156.688 15.4514C156.688 15.4514 137.505 3.69378 129.51 22.0575Z" fill="white"/>
<g style="mix-blend-mode:multiply" opacity="0.5">
<path d="M143.172 11.7545L146.152 17.3303C146.152 17.3303 150.842 16.5546 153.48 20.7728C156.118 24.991 158.772 31.1728 157.258 35.9607C155.809 40.5183 152.373 42.0214 147.08 42.1305C152.845 43.9608 158.072 42.1305 160.238 34.6637C162.632 26.4213 156.688 15.4273 156.688 15.4273C156.688 15.4273 150.191 11.4636 143.172 11.7545Z" fill="#92E3A9"/>
</g>
<path d="M129.51 22.0575C129.51 22.0575 133.174 33.4152 141.039 39.0273C148.904 44.6395 157.323 44.688 160.238 34.6879C162.632 26.4454 156.688 15.4514 156.688 15.4514C156.688 15.4514 137.505 3.69378 129.51 22.0575Z" stroke="#263238" stroke-linecap="round" stroke-linejoin="round"/>
<path d="M144.068 28.0575C144.524 28.7 144.442 29.3909 143.889 29.6091C143.335 29.8272 142.521 29.4757 142.081 28.8333C141.641 28.1909 141.707 27.5121 142.26 27.2939C142.814 27.0757 143.628 27.4272 144.068 28.0575Z" fill="#263238"/>
<path d="M152.568 26.0938C152.894 26.7726 152.682 27.4514 152.096 27.5969C151.509 27.7423 150.76 27.3302 150.467 26.6514C150.174 25.9726 150.353 25.2938 150.94 25.1484C151.526 25.0029 152.242 25.4393 152.568 26.0938Z" fill="#263238"/>
<path d="M153.154 22.4572C152.489 22.1245 151.696 21.9633 150.896 21.9984C150.096 22.0334 149.333 22.2627 148.725 22.6511C146.38 24.0087 150.809 30.8088 150.809 30.8088C150.809 30.8088 150.891 32.9542 147.194 31.9603" stroke="#263238" stroke-width="0.5" stroke-linecap="round" stroke-linejoin="round"/>
<path d="M153.154 34.1667C152.9 34.6131 152.511 35.0095 152.016 35.3246C151.521 35.6398 150.935 35.865 150.304 35.9825C149.672 36.1001 149.012 36.1067 148.376 36.002C147.741 35.8972 147.146 35.6839 146.64 35.3789" stroke="#263238" stroke-width="0.5" stroke-linecap="round" stroke-linejoin="round"/>
<path d="M143.237 24.2634C143.237 24.2634 139.069 21.3421 137.245 26.9785" stroke="#263238" stroke-width="0.5" stroke-linecap="round" stroke-linejoin="round"/>
<path d="M156.932 11.8514C152.356 8.89384 148.66 8.9302 147.048 9.31809C145.539 8.61718 143.823 8.20109 142.048 8.10596C129.249 6.83322 127.539 14.1666 127.539 21.1363C127.539 28.1061 119.397 36.3849 124.983 37.3425C126.511 37.6155 128.12 37.4783 129.526 36.955C130.932 36.4317 132.045 35.5559 132.669 34.4819C132.669 34.4819 138.645 27.2091 138.645 22.0818C138.645 16.9545 146.087 17.4393 146.087 17.4393C146.408 17.0863 146.828 16.7891 147.318 16.5682C147.808 16.3473 148.357 16.2079 148.926 16.1595C149.495 16.1112 150.072 16.155 150.616 16.2881C151.16 16.4211 151.66 16.6402 152.079 16.9302C155.467 19.0878 155.857 21.6212 158.593 22.2757C161.329 22.9303 165.905 19.6575 165.905 19.6575C163.298 16.8238 160.29 14.2068 156.932 11.8514V11.8514Z" fill="#263238"/>
<path d="M146.445 13.7547C146.445 13.7547 141.3 10.6759 136.675 14.1304C132.05 17.585 132.555 24.1184 131.008 28.3487C129.461 32.579 125.325 33.3427 125.325 33.3427" stroke="white" stroke-width="0.5" stroke-linecap="round" stroke-linejoin="round"/>
<path d="M142.847 12.603C142.847 12.603 137.294 8.506 130.308 13.6939C124.983 17.6697 127.361 20.2758 126.318 26.8091" stroke="white" stroke-width="0.5" stroke-linecap="round" stroke-linejoin="round"/>
<path d="M149.034 11.827C149.034 11.827 158.805 8.37245 162.973 17.2089" stroke="white" stroke-width="0.5" stroke-linecap="round" stroke-linejoin="round"/>
<path d="M127.963 54.7607L113.193 99.0034L156.509 108.143L158.642 102.422L130.194 92.6519L139.85 67.1972C139.85 67.1972 138.58 62.4335 131.708 57.0395" fill="white"/>
<g style="mix-blend-mode:multiply" opacity="0.5">
<path d="M158.707 102.458L130.259 92.6879L139.915 67.2332C139.159 65.1201 137.931 63.1165 136.284 61.3059L135.356 60.7847V67.815C135.356 72.312 127.8 86.6515 125.146 90.0212C122.491 93.3909 118.355 97.6091 118.355 97.6091L126.66 94.797L158.137 104.179L158.707 102.458Z" fill="#92E3A9"/>
</g>
<path d="M127.963 54.7607L113.193 99.0034L156.509 108.143L158.642 102.422L130.194 92.6519L139.85 67.1972C139.85 67.1972 138.58 62.4335 131.708 57.0395" stroke="#263238" stroke-linecap="round" stroke-linejoin="round"/>
<path d="M249.752 68.0455L216.956 62.9182L183.459 34.106L188.41 57.2819L208.96 71.8516L250.256 73.2577L249.752 68.0455Z" fill="white"/>
<g style="mix-blend-mode:multiply" opacity="0.5">
<path d="M183.459 34.106L187.449 52.603L189.989 58.3849L190.315 58.6031C191.276 57.8637 196.698 53.6697 198.082 53.6697C199.466 53.6697 215.083 63.791 212.819 64.5789L210.54 65.4152L249.442 70.191L249.719 67.9728L216.988 62.8576L183.459 34.106Z" fill="#92E3A9"/>
</g>
<path d="M249.752 68.0455L216.956 62.9182L183.459 34.106L188.41 57.2819L208.96 71.8516L250.256 73.2577L249.752 68.0455Z" stroke="#263238" stroke-linecap="round" stroke-linejoin="round"/>
<path d="M555.908 313.368L138.271 267.816C136.943 267.67 135.748 267.136 134.948 266.334C134.148 265.532 133.808 264.526 134.004 263.537L168.787 86.9183C168.883 86.4294 169.107 85.9594 169.447 85.5351C169.787 85.1108 170.236 84.7406 170.768 84.4456C171.301 84.1506 171.906 83.9367 172.549 83.8161C173.193 83.6954 173.862 83.6704 174.519 83.7425L182.433 84.6031C183.435 84.7151 184.46 84.5991 185.372 84.2704C186.285 83.9416 187.042 83.4154 187.546 82.7607L198.049 69.2455C198.368 68.8211 198.801 68.4499 199.32 68.1545C201.778 66.8311 204.834 66.2744 207.836 66.603L313.113 78.094C315.474 78.3464 317.674 79.1335 319.414 80.3485C319.879 80.6947 320.244 81.1069 320.489 81.5607L329.853 98.8214C330.181 99.4319 330.72 99.9673 331.414 100.374C332.109 100.78 332.935 101.043 333.81 101.137L592.156 129.331C593.484 129.475 594.68 130.005 595.483 130.805C596.286 131.605 596.63 132.609 596.439 133.597L561.656 310.204C561.455 311.191 560.737 312.077 559.66 312.67C558.583 313.263 557.233 313.514 555.908 313.368V313.368Z" fill="#263238" stroke="#263238" stroke-miterlimit="10"/>
<path d="M560.354 312.508H146.397C145.195 312.508 144.005 312.331 142.894 311.989C141.784 311.647 140.775 311.145 139.925 310.512C139.076 309.88 138.401 309.129 137.941 308.302C137.482 307.476 137.245 306.59 137.245 305.695V133.282C137.245 131.476 138.209 129.743 139.925 128.465C141.642 127.188 143.969 126.47 146.397 126.47H147.52C149.352 126.468 151.142 126.058 152.659 125.293C154.176 124.529 155.352 123.444 156.037 122.179L162.339 110.385C163.043 109.024 164.331 107.874 166.003 107.113C167.798 106.323 169.844 105.905 171.93 105.9H278.33C279.76 105.899 281.178 106.092 282.515 106.47C284.372 107.027 285.922 108.035 286.912 109.331L297.741 123.064C298.548 124.09 299.701 124.941 301.087 125.532C302.472 126.123 304.041 126.434 305.638 126.434H560.354C562.781 126.434 565.109 127.152 566.825 128.429C568.541 129.707 569.505 131.439 569.505 133.246V305.695C569.505 306.59 569.269 307.476 568.809 308.302C568.349 309.129 567.675 309.88 566.825 310.512C565.975 311.145 564.966 311.647 563.856 311.989C562.746 312.331 561.556 312.508 560.354 312.508V312.508Z" fill="#92E3A9"/>
<path opacity="0.1" d="M560.354 312.508H146.397C145.195 312.508 144.005 312.331 142.894 311.989C141.784 311.647 140.775 311.145 139.925 310.512C139.076 309.88 138.401 309.129 137.941 308.302C137.482 307.476 137.245 306.59 137.245 305.695V133.282C137.245 131.476 138.209 129.743 139.925 128.465C141.642 127.188 143.969 126.47 146.397 126.47H147.52C149.352 126.468 151.142 126.058 152.659 125.293C154.176 124.529 155.352 123.444 156.037 122.179L162.339 110.385C163.043 109.024 164.331 107.874 166.003 107.113C167.798 106.323 169.844 105.905 171.93 105.9H278.33C279.76 105.899 281.178 106.092 282.515 106.47C284.372 107.027 285.922 108.035 286.912 109.331L297.741 123.064C298.548 124.09 299.701 124.941 301.087 125.532C302.472 126.123 304.041 126.434 305.638 126.434H560.354C562.781 126.434 565.109 127.152 566.825 128.429C568.541 129.707 569.505 131.439 569.505 133.246V305.695C569.505 306.59 569.269 307.476 568.809 308.302C568.349 309.129 567.675 309.88 566.825 310.512C565.975 311.145 564.966 311.647 563.856 311.989C562.746 312.331 561.556 312.508 560.354 312.508V312.508Z" fill="#263238"/>
<path d="M560.354 312.508H146.397C145.195 312.508 144.005 312.331 142.894 311.989C141.784 311.647 140.775 311.145 139.925 310.512C139.076 309.88 138.401 309.129 137.941 308.302C137.482 307.476 137.245 306.59 137.245 305.695V133.282C137.245 131.476 138.209 129.743 139.925 128.465C141.642 127.188 143.969 126.47 146.397 126.47H147.52C149.352 126.468 151.142 126.058 152.659 125.293C154.176 124.529 155.352 123.444 156.037 122.179L162.339 110.385C163.043 109.024 164.331 107.874 166.003 107.113C167.798 106.323 169.844 105.905 171.93 105.9H278.33C279.76 105.899 281.178 106.092 282.515 106.47C284.372 107.027 285.922 108.035 286.912 109.331L297.741 123.064C298.548 124.09 299.701 124.941 301.087 125.532C302.472 126.123 304.041 126.434 305.638 126.434H560.354C562.781 126.434 565.109 127.152 566.825 128.429C568.541 129.707 569.505 131.439 569.505 133.246V305.695C569.505 306.59 569.269 307.476 568.809 308.302C568.349 309.129 567.675 309.88 566.825 310.512C565.975 311.145 564.966 311.647 563.856 311.989C562.746 312.331 561.556 312.508 560.354 312.508V312.508Z" stroke="#263238" stroke-miterlimit="10"/>
<path d="M254.213 125.888H187.97C186.389 125.888 184.873 125.421 183.755 124.589C182.637 123.757 182.01 122.629 182.01 121.452V121.452C182.007 120.868 182.16 120.29 182.459 119.75C182.757 119.211 183.196 118.72 183.749 118.307C184.303 117.894 184.961 117.566 185.685 117.342C186.409 117.119 187.185 117.003 187.97 117.003H254.213C255.798 117.003 257.318 117.472 258.439 118.306C259.56 119.141 260.189 120.272 260.189 121.452V121.452C260.189 122.036 260.035 122.613 259.734 123.152C259.434 123.692 258.993 124.181 258.438 124.593C257.883 125.005 257.224 125.332 256.499 125.554C255.774 125.776 254.997 125.89 254.213 125.888V125.888Z" fill="white"/>
<path d="M560.354 342.592H146.397C143.969 342.592 141.642 341.875 139.925 340.597C138.209 339.32 137.245 337.587 137.245 335.78V163.367C137.245 161.56 138.209 159.828 139.925 158.55C141.642 157.273 143.969 156.555 146.397 156.555H147.52C149.353 156.554 151.143 156.145 152.661 155.38C154.179 154.615 155.354 153.53 156.037 152.264L162.339 140.482C163.039 139.119 164.328 137.968 166.003 137.209C167.796 136.415 169.844 135.996 171.93 135.997H278.33C279.76 135.996 281.178 136.189 282.515 136.567C284.377 137.125 285.928 138.138 286.912 139.44L297.741 153.185C298.548 154.211 299.701 155.062 301.087 155.653C302.472 156.244 304.041 156.555 305.638 156.555H560.354C562.781 156.555 565.109 157.273 566.825 158.55C568.541 159.828 569.505 161.56 569.505 163.367V335.78C569.505 337.587 568.541 339.32 566.825 340.597C565.109 341.875 562.781 342.592 560.354 342.592V342.592Z" fill="#263238" stroke="#263238" stroke-miterlimit="10"/>
<path d="M285.951 90.3362L220.229 84.2756C218.659 84.1272 217.232 83.5226 216.259 82.5939C215.285 81.6651 214.845 80.4875 215.034 79.318C215.233 78.148 216.048 77.0847 217.3 76.3619C218.552 75.6391 220.139 75.3159 221.711 75.4634L287.417 81.5241C288.988 81.6694 290.418 82.2732 291.392 83.2028C292.366 84.1323 292.805 85.3116 292.611 86.4817V86.4817C292.515 87.0605 292.266 87.6195 291.879 88.1266C291.491 88.6337 290.974 89.079 290.355 89.437C289.737 89.7951 289.029 90.0588 288.273 90.2131C287.518 90.3674 286.729 90.4092 285.951 90.3362V90.3362Z" fill="#92E3A9"/>
<path opacity="0.5" d="M285.951 90.3362L220.229 84.2756C218.659 84.1272 217.232 83.5226 216.259 82.5939C215.285 81.6651 214.845 80.4875 215.034 79.318C215.233 78.148 216.048 77.0847 217.3 76.3619C218.552 75.6391 220.139 75.3159 221.711 75.4634L287.417 81.5241C288.988 81.6694 290.418 82.2732 291.392 83.2028C292.366 84.1323 292.805 85.3116 292.611 86.4817V86.4817C292.515 87.0605 292.266 87.6195 291.879 88.1266C291.491 88.6337 290.974 89.079 290.355 89.437C289.737 89.7951 289.029 90.0588 288.273 90.2131C287.518 90.3674 286.729 90.4092 285.951 90.3362V90.3362Z" fill="white"/>
<path d="M254.213 155.985H187.97C187.185 155.985 186.409 155.87 185.685 155.647C184.961 155.423 184.303 155.095 183.749 154.682C183.196 154.268 182.757 153.778 182.459 153.238C182.16 152.699 182.007 152.121 182.01 151.537V151.537C182.01 150.359 182.637 149.23 183.754 148.396C184.871 147.562 186.387 147.092 187.97 147.088H254.213C255.798 147.088 257.318 147.557 258.439 148.391C259.56 149.226 260.189 150.357 260.189 151.537V151.537C260.189 152.717 259.56 153.848 258.439 154.682C257.318 155.517 255.798 155.985 254.213 155.985V155.985Z" fill="#92E3A9"/>
<path opacity="0.5" d="M254.213 155.985H187.97C187.185 155.985 186.409 155.87 185.685 155.647C184.961 155.423 184.303 155.095 183.749 154.682C183.196 154.268 182.757 153.778 182.459 153.238C182.16 152.699 182.007 152.121 182.01 151.537V151.537C182.01 150.359 182.637 149.23 183.754 148.396C184.871 147.562 186.387 147.092 187.97 147.088H254.213C255.798 147.088 257.318 147.557 258.439 148.391C259.56 149.226 260.189 150.357 260.189 151.537V151.537C260.189 152.717 259.56 153.848 258.439 154.682C257.318 155.517 255.798 155.985 254.213 155.985V155.985Z" fill="white"/>
<path d="M573.886 208.41H132.848C128.109 208.41 124.267 211.27 124.267 214.798V413.454C124.267 416.981 128.109 419.841 132.848 419.841H573.886C578.625 419.841 582.468 416.981 582.468 413.454V214.798C582.468 211.27 578.625 208.41 573.886 208.41Z" fill="white"/>
<g style="mix-blend-mode:multiply">
<path d="M582.467 265.319C531.677 300.654 473.97 330.04 411.322 352.471C318.747 385.429 212.933 408.144 151.281 419.841H573.869C574.998 419.843 576.115 419.679 577.158 419.359C578.201 419.038 579.149 418.568 579.948 417.975C580.747 417.381 581.38 416.677 581.812 415.901C582.245 415.125 582.467 414.293 582.467 413.454V265.319Z" fill="#92E3A9"/>
</g>
<path opacity="0.2" d="M582.467 265.319C531.677 300.654 473.97 330.04 411.322 352.471C318.747 385.429 212.933 408.144 151.281 419.841H573.869C574.998 419.843 576.115 419.679 577.158 419.359C578.201 419.038 579.149 418.568 579.948 417.975C580.747 417.381 581.38 416.677 581.812 415.901C582.245 415.125 582.467 414.293 582.467 413.454V265.319Z" fill="white"/>
<path d="M573.886 208.41H132.848C128.109 208.41 124.267 211.27 124.267 214.798V413.454C124.267 416.981 128.109 419.841 132.848 419.841H573.886C578.625 419.841 582.468 416.981 582.468 413.454V214.798C582.468 211.27 578.625 208.41 573.886 208.41Z" stroke="#263238" stroke-miterlimit="10"/>
<path d="M130.894 226.98V218.495C130.899 216.8 131.806 215.175 133.418 213.977C135.03 212.78 137.215 212.107 139.492 212.107H158.138" stroke="#263238" stroke-miterlimit="10"/>
<path d="M130.894 355.841V237.319" stroke="#263238" stroke-miterlimit="10"/>
<path d="M575.823 396.278V409.696C575.825 410.536 575.605 411.368 575.175 412.144C574.744 412.921 574.113 413.626 573.316 414.221C572.518 414.815 571.572 415.287 570.529 415.609C569.487 415.931 568.37 416.096 567.242 416.096H552.211" stroke="#263238" stroke-miterlimit="10"/>
<path d="M575.823 223.998V386.302" stroke="#263238" stroke-miterlimit="10"/>
<path d="M421.483 285.72H285.234C282.779 285.72 280.789 287.201 280.789 289.029V340.775C280.789 342.602 282.779 344.084 285.234 344.084H421.483C423.938 344.084 425.929 342.602 425.929 340.775V289.029C425.929 287.201 423.938 285.72 421.483 285.72Z" fill="#263238" stroke="#263238" stroke-miterlimit="10"/>
<path d="M421.483 285.72H285.234C282.779 285.72 280.789 287.201 280.789 289.029V300.156C280.789 301.984 282.779 303.465 285.234 303.465H421.483C423.938 303.465 425.929 301.984 425.929 300.156V289.029C425.929 287.201 423.938 285.72 421.483 285.72Z" fill="white" stroke="#263238" stroke-miterlimit="10"/>
<path d="M156.509 108.143L159.489 112.276L165.823 115.67C166.221 115.888 166.699 116.011 167.192 116.024C167.686 116.037 168.174 115.939 168.592 115.743L169.145 115.476C169.548 115.294 169.848 115.009 169.989 114.674C170.129 114.34 170.102 113.978 169.911 113.658L166.312 107.5L168.738 108.906C169.123 109.127 169.609 109.228 170.092 109.187C170.575 109.147 171.018 108.968 171.327 108.688V108.688C171.596 108.439 171.742 108.129 171.742 107.809C171.742 107.49 171.596 107.18 171.327 106.931L165.677 101.609L158.609 102.421L156.509 108.143Z" fill="white" stroke="#263238" stroke-miterlimit="10"/>
<path d="M169.21 115.476L163.543 109.937" stroke="#263238" stroke-width="0.5" stroke-linecap="round" stroke-linejoin="round"/>
<path d="M165.888 115.67L161.443 111.282" stroke="#263238" stroke-width="0.5" stroke-linecap="round" stroke-linejoin="round"/>
<path d="M249.751 68.0457L258.61 68.4335L269.39 73.5608C269.39 73.5608 269.992 75.1245 268.494 75.3427C266.996 75.5609 258.903 73.3426 258.903 73.3426L250.256 73.2578L249.751 68.0457Z" fill="white" stroke="#263238" stroke-miterlimit="10"/>
<path d="M250.207 72.4455L259.505 75.5728C259.505 75.5728 261.004 74.0091 258.903 73.3424L255.842 71.7788" fill="white"/>
<path d="M250.207 72.4455L259.505 75.5728C259.505 75.5728 261.004 74.0091 258.903 73.3424L255.842 71.7788" stroke="#263238" stroke-linejoin="round"/>
<path d="M578.706 190.652L574.863 182.095L570.547 177.695C570.476 177.614 570.372 177.554 570.249 177.522C570.127 177.491 569.995 177.49 569.872 177.521C569.75 177.551 569.644 177.611 569.572 177.69C569.5 177.77 569.465 177.865 569.473 177.961V190.64L572.729 193.828L578.706 190.652Z" fill="white"/>
<path d="M641.334 228.071L609.092 228.919C607.902 228.95 606.725 228.728 605.699 228.28C604.672 227.831 603.838 227.174 603.295 226.386L578.706 190.652C578.706 190.652 573.169 192.882 572.746 193.828C572.322 194.773 590.951 229.549 596.667 240.228C597.148 241.125 597.99 241.888 599.078 242.413C600.166 242.939 601.445 243.2 602.741 243.161L638.778 242.022" fill="white"/>
<path d="M641.334 228.071L609.092 228.919C607.902 228.95 606.725 228.728 605.699 228.28C604.672 227.831 603.838 227.174 603.295 226.386L578.706 190.652C578.706 190.652 573.169 192.882 572.746 193.828C572.322 194.773 590.951 229.549 596.667 240.228C597.148 241.125 597.99 241.888 599.078 242.413C600.166 242.939 601.445 243.2 602.741 243.161L638.778 242.022" stroke="#263238" stroke-miterlimit="10"/>
<path d="M581.067 195.101L576.019 196.652" stroke="#263238" stroke-width="0.75" stroke-miterlimit="10"/>
<g opacity="0.5">
<g opacity="0.5">
<path d="M641.334 228.071L609.092 228.919C607.902 228.95 606.725 228.728 605.699 228.28C604.672 227.831 603.838 227.174 603.295 226.386L578.706 190.652C578.706 190.652 573.169 192.882 572.746 193.828C572.322 194.773 590.951 229.549 596.667 240.228C597.148 241.125 597.99 241.888 599.078 242.413C600.166 242.939 601.445 243.2 602.741 243.161L638.778 242.022" fill="#92E3A9"/>
<path d="M641.334 228.071L609.092 228.919C607.902 228.95 606.725 228.728 605.699 228.28C604.672 227.831 603.838 227.174 603.295 226.386L578.706 190.652C578.706 190.652 573.169 192.882 572.746 193.828C572.322 194.773 590.951 229.549 596.667 240.228C597.148 241.125 597.99 241.888 599.078 242.413C600.166 242.939 601.445 243.2 602.741 243.161L638.778 242.022" stroke="#263238" stroke-miterlimit="10"/>
</g>
<path opacity="0.5" d="M581.067 195.101L576.019 196.652" stroke="#263238" stroke-width="0.75" stroke-miterlimit="10"/>
</g>
<path d="M578.706 190.652L574.863 182.095L570.547 177.695C570.476 177.614 570.372 177.554 570.249 177.522C570.127 177.491 569.995 177.49 569.872 177.521C569.75 177.551 569.644 177.611 569.572 177.69C569.5 177.77 569.465 177.865 569.473 177.961V190.64L572.729 193.828L578.706 190.652Z" fill="#92E3A9"/>
<path opacity="0.5" d="M578.706 190.652L574.863 182.095L570.547 177.695C570.476 177.614 570.372 177.554 570.249 177.522C570.127 177.491 569.995 177.49 569.872 177.521C569.75 177.551 569.644 177.611 569.572 177.69C569.5 177.77 569.465 177.865 569.473 177.961V190.64L572.729 193.828L578.706 190.652Z" fill="white"/>
<path d="M578.706 190.652L574.863 182.095L570.547 177.695C570.476 177.614 570.372 177.554 570.249 177.522C570.127 177.491 569.995 177.49 569.872 177.521C569.75 177.551 569.644 177.611 569.572 177.69C569.5 177.77 569.465 177.865 569.473 177.961V190.64L572.729 193.828L578.706 190.652Z" stroke="#263238" stroke-miterlimit="10"/>
<path d="M651.316 205.489C649.768 206.95 648.658 208.64 648.06 210.446C647.587 212.774 648.337 221.731 648.337 221.731L631.564 223.137C631.564 223.137 632.834 214.034 632.899 212.519C633.436 210.64 634.506 208.868 636.036 207.321C637.567 205.775 639.523 204.489 641.774 203.549C647.539 201.44 652.44 202.471 651.316 205.489Z" fill="white"/>
<g style="mix-blend-mode:multiply" opacity="0.5">
<path d="M651.203 205.586C648.158 204.967 644.461 204.277 641.335 203.719C639.185 204.671 637.323 205.943 635.863 207.455C634.403 208.967 633.378 210.687 632.85 212.507C632.85 213.089 632.623 214.786 632.395 216.652C634.023 216.374 636.612 215.949 638.534 215.695C640.056 215.512 641.554 215.232 643.012 214.858L642.442 222.131H642.816L648.288 221.671C648.288 221.671 647.539 212.713 648.011 210.386C648.606 208.635 649.694 206.999 651.203 205.586V205.586Z" fill="#92E3A9"/>
</g>
<path d="M651.316 205.489C649.768 206.95 648.658 208.64 648.06 210.446C647.587 212.774 648.337 221.731 648.337 221.731L631.564 223.137C631.564 223.137 632.834 214.034 632.899 212.519C633.436 210.64 634.506 208.868 636.036 207.321C637.567 205.775 639.523 204.489 641.774 203.549C647.539 201.44 652.44 202.471 651.316 205.489Z" stroke="#263238" stroke-width="1.00396" stroke-miterlimit="10"/>
<path d="M654.801 207.028C668.708 193.355 635.179 179.149 626.369 192.737C625.141 194.413 624.169 196.185 623.471 198.022C622.135 198.628 618.585 200.252 617.934 200.701C617.283 201.149 619.562 202.301 620.816 202.871C618.423 207.246 618.781 211.852 619.465 212.895C620.653 214.689 626.516 214.713 630.375 214.18C634.234 213.646 635.765 210.895 636.889 210.143C638.012 209.392 643.614 210.349 645.584 210.786C647.555 211.222 652.098 209.731 654.801 207.028Z" fill="white"/>
<g style="mix-blend-mode:multiply" opacity="0.5">
<path d="M641.041 205.719C641.041 205.719 641.334 206.75 638.533 207.586C635.733 208.422 635.179 207.792 634.348 209.247C633.996 210.203 633.282 211.064 632.292 211.728C631.302 212.392 630.078 212.83 628.763 212.992C626.11 213.367 623.429 213.622 620.735 213.756C622.949 214.677 627.346 214.604 630.505 214.18C634.348 213.659 635.895 210.895 637.019 210.143C638.143 209.392 643.744 210.35 645.715 210.786C646.177 210.855 646.653 210.855 647.115 210.786C647.85 209.568 648.291 208.263 648.418 206.931L641.041 205.719Z" fill="#92E3A9"/>
</g>
<path d="M654.801 207.028C668.708 193.355 635.179 179.149 626.369 192.737C625.141 194.413 624.169 196.185 623.471 198.022C622.135 198.628 618.585 200.252 617.934 200.701C617.283 201.149 619.562 202.301 620.816 202.871C618.423 207.246 618.781 211.852 619.465 212.895C620.653 214.689 626.516 214.713 630.375 214.18C634.234 213.646 635.765 210.895 636.889 210.143C638.012 209.392 643.614 210.349 645.584 210.786C647.555 211.222 652.098 209.731 654.801 207.028Z" stroke="#263238" stroke-miterlimit="10"/>
<path d="M627.639 199.222C627.281 199.804 626.679 200.168 626.288 200.034C625.897 199.901 625.864 199.319 626.288 198.737C626.711 198.156 627.249 197.792 627.639 197.925C628.03 198.059 627.998 198.64 627.639 199.222Z" fill="#263238"/>
<path d="M627.314 195.489C627.314 195.489 628.942 194.482 629.268 196.798" stroke="#263238" stroke-width="0.5" stroke-linecap="round" stroke-linejoin="round"/>
<path d="M620.491 205.222C620.491 205.222 620.491 206.434 623.422 206.434" stroke="#263238" stroke-width="0.5" stroke-linecap="round" stroke-linejoin="round"/>
<path d="M616.517 284.543L615.231 296.398C615.231 296.398 606.324 343.598 606.747 349.017C607.17 354.435 608.131 410.411 608.131 410.411L618.862 411.684L630.913 349.598L647.832 286.507L616.517 284.543Z" fill="#92E3A9" stroke="#263238" stroke-miterlimit="10"/>
<path opacity="0.2" d="M616.517 284.543L615.231 296.398C615.231 296.398 606.324 343.598 606.747 349.017C607.17 354.435 608.131 410.411 608.131 410.411L618.862 411.684L630.913 349.598L647.832 286.507L616.517 284.543Z" fill="#263238"/>
<path d="M630.098 327.659C630.098 327.659 625.978 345.708 622.868 354.556C619.758 363.405 619.774 372.229 619.774 381.829C619.774 391.429 615.133 409.126 615.133 409.126" stroke="#263238" stroke-width="0.75" stroke-miterlimit="10"/>
<path d="M638.289 281.635C645.356 278.871 652.945 277.041 655.111 280.714C659.41 288.059 654.264 299.223 654.264 299.223L658.188 350.714L665.37 412.836L654.638 411.551C654.638 411.551 638.159 359.126 635.586 355.926C633.013 352.726 628.958 307.841 628.958 307.841L620.816 302.326" fill="#92E3A9"/>
<path d="M638.289 281.635C645.356 278.871 652.945 277.041 655.111 280.714C659.41 288.059 654.264 299.223 654.264 299.223L658.188 350.714L665.37 412.836L654.638 411.551C654.638 411.551 638.159 359.126 635.586 355.926C633.013 352.726 628.958 307.841 628.958 307.841L620.816 302.326" stroke="#263238" stroke-miterlimit="10"/>
<g opacity="0.2">
<path opacity="0.2" d="M638.289 281.635C645.356 278.871 652.945 277.041 655.111 280.714C659.41 288.059 654.264 299.223 654.264 299.223L658.188 350.714L665.37 412.836L654.638 411.551C654.638 411.551 638.159 359.126 635.586 355.926C633.013 352.726 628.958 307.841 628.958 307.841L620.816 302.326" fill="#263238"/>
</g>
<path d="M646.659 320.641C646.903 332.581 648.532 338.326 649.802 341.478C651.349 345.32 650.828 352.617 650.828 356.023C650.828 359.429 648.76 355.259 653.417 371.017C658.074 386.775 661.152 408.666 661.152 408.666" stroke="#263238" stroke-width="0.75" stroke-miterlimit="10"/>
<path d="M646.659 294.616C646.659 294.616 647.164 293.841 646.659 311.901C646.659 312.871 646.659 313.804 646.659 314.714" stroke="#263238" stroke-width="0.75" stroke-miterlimit="10"/>
<path d="M622.836 291.186L622.494 296.592L620.816 300.35L623.324 302.532" stroke="#263238" stroke-width="0.75" stroke-linecap="round" stroke-linejoin="round"/>
<path d="M619.546 294.411C619.546 294.411 623.748 297.538 634.658 296.592" stroke="#263238" stroke-width="0.75" stroke-linecap="round" stroke-linejoin="round"/>
<path d="M645.324 291.707C653.466 290.495 653.987 288.823 656.804 287.417C656.857 285.124 656.303 282.847 655.176 280.713C653.043 277.077 645.405 278.871 638.354 281.635L634.935 285.659L616.583 284.544L615.996 289.901C625.419 292.308 635.498 292.928 645.324 291.707V291.707Z" fill="#263238"/>
<path d="M618.357 288.253L618.178 290.386L622.835 291.186L623.194 288.386L618.357 288.253Z" fill="white" stroke="#263238" stroke-width="0.75" stroke-miterlimit="10"/>
<path d="M650.86 291.417L650.079 286.107L652.44 285.526L653.629 290.241" fill="#92E3A9"/>
<path d="M650.86 291.417L650.079 286.107L652.44 285.526L653.629 290.241" stroke="#263238" stroke-miterlimit="10"/>
<path d="M632.655 293.186L631.075 286.992H635.032L636.612 292.301" fill="#92E3A9"/>
<path d="M632.655 293.186L631.075 286.992H635.032L636.612 292.301" stroke="#263238" stroke-miterlimit="10"/>
<g opacity="0.2">
<path opacity="0.2" d="M650.86 291.416L650.079 286.107L652.44 285.525L653.629 290.241" fill="#263238"/>
<path opacity="0.2" d="M632.655 293.186L631.075 286.992H635.032L636.612 292.301" fill="#263238"/>
</g>
<path d="M614.417 237.562C614.417 237.562 613.065 244.289 609.01 255.743C604.956 267.198 600.868 280.931 600.868 280.931L603.132 287.986L609.89 280.592L614.417 237.562Z" fill="#263238" stroke="#263238" stroke-miterlimit="10"/>
<path d="M625.701 227.828C625.701 227.828 616.224 229.501 615.328 232.858C614.845 234.404 614.54 235.977 614.417 237.562L628.86 228.834L646.919 223.452L625.701 227.828Z" fill="#263238" stroke="#263238" stroke-miterlimit="10"/>
<path d="M628.291 225.234C628.291 225.234 620.588 231.719 617.527 234.386C614.465 237.053 614.449 265.671 614.449 269.877C614.449 274.083 611.388 285.501 616.501 287.792C621.614 290.083 652.896 289.32 655.973 285.501C659.051 281.683 661.087 235.913 660.582 231.719C660.198 229.838 659.203 228.054 657.681 226.525C656.16 224.995 654.159 223.766 651.854 222.943C648.287 221.719 628.291 225.234 628.291 225.234Z" fill="white"/>
<g style="mix-blend-mode:multiply" opacity="0.5">
<path d="M651.854 222.943C651.429 222.815 650.977 222.742 650.519 222.725L648.304 223.586C652.032 225.859 654.596 229.018 655.567 232.531C656.597 237.636 656.503 242.831 655.29 247.913C654.183 253.525 636.303 247.913 639.657 249.998C643.012 252.083 655.567 255.61 656.137 257.477C656.707 259.344 649.916 262.459 647.474 262.677C645.031 262.895 649.102 267.041 651.659 270.568C654.215 274.095 653.287 279.053 647.474 282.422C641.66 285.792 628.161 287.453 622.331 287.622C620.442 287.622 619.27 287.986 618.911 288.398C627.868 289.889 653.222 288.919 655.974 285.501C659.052 281.683 661.087 235.913 660.582 231.719C660.199 229.838 659.203 228.054 657.682 226.525C656.16 224.995 654.16 223.766 651.854 222.943V222.943Z" fill="#92E3A9"/>
</g>
<path d="M628.291 225.234C628.291 225.234 620.588 231.719 617.527 234.386C614.465 237.053 614.449 265.671 614.449 269.877C614.449 274.083 611.388 285.501 616.501 287.792C621.614 290.083 652.896 289.32 655.973 285.501C659.051 281.683 661.087 235.913 660.582 231.719C660.198 229.838 659.203 228.054 657.681 226.525C656.16 224.995 654.159 223.766 651.854 222.943C648.287 221.719 628.291 225.234 628.291 225.234Z" stroke="#263238" stroke-miterlimit="10"/>
<path d="M644.037 254.264C635.781 252.349 628.551 246.992 628.551 246.992C630.383 253.358 635.357 258.981 642.49 262.749" fill="white"/>
<path d="M644.037 254.264C635.781 252.349 628.551 246.992 628.551 246.992C630.383 253.358 635.357 258.981 642.49 262.749" stroke="#263238" stroke-width="0.75" stroke-linecap="round" stroke-linejoin="round"/>
<path d="M650.323 218.749L625.718 222.943L624.187 228.289L651.854 222.943L650.323 218.749Z" fill="white" stroke="#263238" stroke-miterlimit="10"/>
<path d="M620.296 419.684L618.863 411.636L608.131 410.363L599.191 415.102L591.18 418.375V419.684H620.296Z" fill="#263238" stroke="#263238" stroke-miterlimit="10"/>
<path d="M666.705 420.314L665.369 412.835L654.638 411.55L645.698 416.29L637.687 419.575V420.314H666.705Z" fill="#263238" stroke="#263238" stroke-miterlimit="10"/>
<path d="M574.016 183.67L567.405 180.822C567.405 180.822 564.832 180.592 565.939 182.725L572.55 186.519" fill="white"/>
<path d="M574.016 183.67L567.405 180.822C567.405 180.822 564.832 180.592 565.939 182.725L572.55 186.519" stroke="#263238" stroke-linecap="round" stroke-linejoin="round"/>
<path d="M573.039 191.076C572.728 190.492 572.269 189.957 571.687 189.501L570.45 188.507L563.724 182.301C563.724 182.301 561.64 181.258 562.096 183.513L566.265 189.573L558.856 184.398C558.856 184.398 557.455 183.537 557.455 184.749C557.455 185.961 564.18 191.307 564.18 191.307L556.755 188.713C556.755 188.713 555.127 189.573 556.299 190.434C557.471 191.295 563.708 193.028 563.708 193.028L558.155 192.858C558.155 192.858 556.527 193.889 557.683 194.24C558.839 194.592 565.337 195.61 565.337 195.61C566.162 196.132 567.105 196.542 568.121 196.822L569.75 199.064L575.986 196.725L573.039 191.076Z" fill="white" stroke="#263238" stroke-linecap="round" stroke-linejoin="round"/>
<path d="M639.624 244.883L602.464 251.368C600.562 251.617 598.602 251.368 596.919 250.663C595.235 249.958 593.932 248.841 593.231 247.501L569.782 199.016L576.019 196.677L601.927 232.398C602.514 233.215 603.44 233.869 604.566 234.265C605.692 234.66 606.959 234.775 608.18 234.592L636.595 228.616" fill="white"/>
<path d="M639.624 244.883L602.464 251.368C600.562 251.617 598.602 251.368 596.919 250.663C595.235 249.958 593.932 248.841 593.231 247.501L569.782 199.016L576.019 196.677L601.927 232.398C602.514 233.215 603.44 233.869 604.566 234.265C605.692 234.66 606.959 234.775 608.18 234.592L636.595 228.616" stroke="#263238" stroke-miterlimit="10"/>
<path d="M579.52 201.246L572.29 203.937" stroke="#263238" stroke-width="0.75" stroke-miterlimit="10"/>
<path d="M635 192.883C635 192.883 631.043 195.828 633.013 198.034C634.18 199.308 635.071 200.711 635.651 202.192C635.651 202.192 634.023 205.137 635.325 205.137C636.628 205.137 635.977 202.931 638.289 203.428C640.601 203.925 642.897 206.858 640.927 207.84C639.453 208.454 637.891 208.942 636.27 209.295C636.063 209.342 635.88 209.433 635.742 209.556C635.604 209.68 635.517 209.831 635.493 209.991C635.469 210.15 635.508 210.312 635.605 210.455C635.703 210.599 635.855 210.718 636.042 210.798C638.184 211.875 640.651 212.541 643.223 212.737C645.327 212.771 647.427 212.608 649.476 212.252C649.476 212.252 655.99 205.634 660.68 203.913C665.369 202.192 663.318 194.349 663.318 193.367C663.318 192.386 658.709 190.18 658.709 190.18C658.709 190.18 660.028 187.973 654.101 183.076C648.173 178.179 636.97 177.186 636.644 178.907C636.53 179.362 636.593 179.833 636.827 180.263C637.061 180.692 637.455 181.063 637.963 181.331C637.963 181.331 628.079 178.143 623.471 181.573C618.862 185.004 635 192.883 635 192.883Z" fill="#263238" stroke="#263238" stroke-miterlimit="10"/>
<path d="M635 192.883C635 192.883 643.012 200.156 654.883 200.859" stroke="white" stroke-width="0.5" stroke-linecap="round" stroke-linejoin="round"/>
<path d="M632.166 195.101C632.166 195.101 635.895 203.174 651.316 205.477" stroke="white" stroke-width="0.5" stroke-linecap="round" stroke-linejoin="round"/>
</g>
<defs>
<filter id="filter0_d_301_4712" x="0" y="5.21533" width="700" height="432.748" filterUnits="userSpaceOnUse" color-interpolation-filters="sRGB">
<feFlood flood-opacity="0" result="BackgroundImageFix"/>
<feColorMatrix in="SourceAlpha" type="matrix" values="0 0 0 0 0 0 0 0 0 0 0 0 0 0 0 0 0 0 127 0" result="hardAlpha"/>
<feOffset dy="4"/>
<feGaussianBlur stdDeviation="2"/>
<feComposite in2="hardAlpha" operator="out"/>
<feColorMatrix type="matrix" values="0 0 0 0 0 0 0 0 0 0 0 0 0 0 0 0 0 0 0.25 0"/>
<feBlend mode="normal" in2="BackgroundImageFix" result="effect1_dropShadow_301_4712"/>
<feBlend mode="normal" in="SourceGraphic" in2="effect1_dropShadow_301_4712" result="shape"/>
</filter>
</defs>
</svg>
