<svg width="551" height="450" viewBox="0 0 551 450" fill="none" xmlns="http://www.w3.org/2000/svg">
<path d="M436.102 27.6587C436.184 27.6587 438.621 22.2667 438.73 21.9469C439.968 17.8 439.437 9.17512 434.646 6.65048C433.827 6.26172 432.922 6.0195 431.986 5.93912C431.051 5.85873 430.105 5.94191 429.21 6.18342C428.315 6.42492 427.489 6.81951 426.784 7.34228C426.079 7.86506 425.512 8.50469 425.116 9.22082C423.333 12.2595 424.586 16.2921 426.301 19.148C428.234 22.4381 436.102 27.6473 436.102 27.6587Z" fill="#68C5B2"/>
<path d="M549.051 67.1963C545.062 63.7691 534.92 65.1857 530.36 67.0935C529.965 67.2534 524.152 70.4178 524.234 70.5206L524.316 70.5891C522.723 70.8062 520.994 71.0461 519.129 71.3431C515.685 71.9257 511.792 72.5997 507.626 73.6278C503.112 74.6312 498.675 75.8634 494.34 77.3177C489.469 78.9152 484.776 80.8726 480.318 83.1666L480.168 83.258C481.257 82.1956 484.171 79.1226 484.375 78.8713C487.097 75.25 489.82 66.9221 486.131 63.2551C485.493 62.6698 484.717 62.2023 483.852 61.8825C482.987 61.5627 482.053 61.3976 481.108 61.3976C480.163 61.3976 479.228 61.5627 478.363 61.8825C477.498 62.2023 476.722 62.6698 476.084 63.2551C473.267 65.6769 472.953 69.8237 473.525 72.9881C474.179 76.5409 479.256 83.0867 479.665 83.6122C475.198 86.0321 470.931 88.7038 466.896 91.6088C464.527 93.2995 462.213 95.0359 459.912 96.8408C460.81 95.8927 461.614 95.0473 461.709 94.9102C464.432 91.2889 467.154 82.961 463.479 79.294C462.841 78.7087 462.065 78.2413 461.2 77.9215C460.335 77.6017 459.4 77.4365 458.455 77.4365C457.51 77.4365 456.576 77.6017 455.711 77.9215C454.846 78.2413 454.07 78.7087 453.432 79.294C450.614 81.7158 450.301 85.8741 450.873 89.027C451.445 92.18 455.651 97.8804 456.781 99.3084L454.167 101.376C449.988 104.712 445.836 108.059 441.643 111.235C440.173 112.377 438.662 113.417 437.164 114.479C437.968 113.634 438.635 112.925 438.73 112.811C441.453 109.19 444.175 100.862 440.486 97.1836C439.853 96.5946 439.081 96.1227 438.219 95.798C437.356 95.4733 436.423 95.3028 435.478 95.2974C434.533 95.2921 433.597 95.4519 432.729 95.7668C431.862 96.0817 431.082 96.5447 430.44 97.1264C427.635 99.5483 427.309 103.707 427.88 106.859C428.452 110.012 432.264 115.165 433.598 116.935C432.032 117.986 430.453 119.037 428.874 119.997C427.771 120.625 426.764 121.299 425.621 121.882L422.299 123.664C420.134 124.726 417.916 125.834 415.778 126.84C414.294 127.536 412.865 128.176 411.436 128.839C412.919 127.696 415.765 125.526 415.982 125.32C418.799 122.388 420.674 118.9 421.428 115.187C421.76 114.875 422.052 114.535 422.299 114.171C422.797 113.497 423.122 112.744 423.254 111.959C423.386 111.174 423.322 110.375 423.066 109.612C422.809 108.849 422.367 108.14 421.766 107.528C421.166 106.916 420.42 106.416 419.576 106.06C415.642 104.54 409.598 106.7 405.405 109.201C405.582 106.768 405.5 105.272 405.5 105.272L404.398 105.363L405.201 103.752C405.745 102.747 406.154 101.627 406.63 100.554C407.692 98.0403 408.618 95.4472 409.489 92.8311C411.463 93.6308 418.501 96.4296 422.326 96.5438C426.151 96.6581 431.011 95.9269 433.557 93.2995C434.173 92.6975 434.633 91.9944 434.908 91.235C435.182 90.4755 435.265 89.6763 435.151 88.8885C435.037 88.1007 434.729 87.3414 434.246 86.6591C433.763 85.9769 433.116 85.3866 432.345 84.9259C427.581 82.2984 418.024 85.5085 414.049 88.1816C413.804 88.353 411.204 90.5464 409.816 91.7687C410.319 90.1922 410.837 88.6158 411.286 86.9936C412.579 82.3441 413.723 77.5919 414.893 72.8624C415.247 71.4116 415.629 69.9722 415.996 68.5214C416.69 68.8184 424.981 72.2912 429.255 72.4169C433.067 72.5311 437.94 71.8 440.486 69.1726C441.1 68.5709 441.558 67.8685 441.832 67.1102C442.105 66.3519 442.187 65.5542 442.073 64.7677C441.959 63.9813 441.652 63.2234 441.17 62.5421C440.688 61.8608 440.043 61.2711 439.274 60.8104C434.51 58.1715 424.953 61.3816 420.978 64.0662C420.679 64.2604 416.895 67.4133 416.064 68.2587C416.867 65.0829 417.725 61.9185 418.705 58.8227C420.005 54.6472 421.633 50.5485 423.579 46.5536C423.905 46.6907 432.536 50.3463 436.919 50.4719C440.718 50.5976 445.605 49.855 448.15 47.2276C448.764 46.6251 449.221 45.9222 449.493 45.1634C449.765 44.4046 449.846 43.6067 449.731 42.8202C449.616 42.0337 449.307 41.276 448.824 40.5951C448.341 39.9143 447.694 39.3252 446.925 38.8654C442.16 36.2265 432.618 39.4366 428.643 42.1212C428.33 42.3268 424.327 45.7196 423.647 46.3822C423.769 46.1537 423.851 45.9024 423.973 45.674C426.041 41.686 428.534 37.8626 431.42 34.2502C432.985 32.2511 434.605 30.4004 436.239 28.6412C437.763 29.4637 444.774 33.1421 448.708 33.6333C452.643 34.1246 457.421 33.8047 460.293 31.44C460.983 30.8977 461.531 30.2408 461.901 29.5112C462.272 28.7815 462.457 27.9951 462.446 27.202C462.434 26.4088 462.226 25.6265 461.834 24.9046C461.443 24.1827 460.876 23.5373 460.171 23.0093C455.787 19.9477 445.877 22.2667 441.575 24.5629C441.344 24.6771 439.125 26.1736 437.491 27.2703C438.24 26.4935 438.989 25.671 439.724 24.9284C442.446 22.1411 445.169 19.7306 447.647 17.6173C449.008 16.4749 450.369 15.3325 451.554 14.3843C453.555 14.5329 461.6 15.0469 465.289 13.9845C468.978 12.9221 473.13 10.7744 474.369 7.55295C474.684 6.80564 474.81 6.0115 474.74 5.22106C474.669 4.43061 474.403 3.66116 473.959 2.96166C473.514 2.26216 472.901 1.64792 472.159 1.15803C471.416 0.668126 470.56 0.313288 469.645 0.116095C464.064 -0.900617 456.536 4.99403 453.977 8.6839C453.759 9.00376 450.995 14.3386 451.091 14.3958H451.213C450.015 15.3097 448.749 16.315 447.388 17.4231C444.883 19.5022 442.092 21.8669 439.22 24.62C436.123 27.553 433.232 30.635 430.562 33.8504C427.554 37.4559 424.935 41.2789 422.735 45.2741L422.653 45.4226C422.871 44.0289 423.293 40.122 423.279 39.8136C423.17 35.5411 419.957 27.3389 414.485 25.968C413.572 25.7684 412.62 25.7302 411.688 25.8558C410.757 25.9815 409.867 26.2682 409.074 26.6979C408.282 27.1276 407.605 27.6908 407.086 28.3517C406.566 29.0127 406.217 29.7571 406.058 30.5375C405.31 33.8504 407.774 37.4603 410.333 39.8364C413.205 42.5096 421.754 45.5483 422.435 45.8567C420.303 49.9376 418.507 54.1361 417.058 58.4228C416.187 60.9246 415.411 63.4607 414.662 66.0196C414.798 64.8087 414.907 63.7349 414.893 63.5749C414.784 59.3025 411.572 51.1002 406.099 49.7294C405.187 49.5316 404.236 49.4948 403.307 49.6213C402.377 49.7478 401.488 50.0349 400.698 50.4644C399.907 50.8939 399.231 51.4565 398.713 52.1165C398.194 52.7765 397.845 53.5197 397.686 54.2989C396.924 57.6117 399.402 61.2216 401.947 63.5978C404.493 65.9739 411.762 68.7613 413.682 69.481C413.41 70.4634 413.124 71.4345 412.851 72.4169C411.558 77.1349 410.306 81.8529 408.89 86.4338C408.4 88.056 407.842 89.6325 407.297 91.2089C407.406 90.1465 407.488 89.2326 407.488 89.0956C407.379 84.8231 404.166 76.6208 398.694 75.25C397.782 75.0522 396.831 75.0154 395.901 75.1419C394.971 75.2684 394.083 75.5555 393.292 75.985C392.501 76.4145 391.825 76.9771 391.307 77.6371C390.789 78.2972 390.439 79.0403 390.281 79.8195C389.518 83.1438 391.982 86.7537 394.542 89.1298C397.101 91.506 403.649 94.0192 405.922 94.8417C405.31 96.4524 404.684 98.0518 403.989 99.5825C403.499 100.622 403.104 101.65 402.533 102.667L400.967 105.614C399.756 105.786 398.353 106.014 396.788 106.311C396.38 102.004 394.46 96.7494 390.553 95.1958C389.683 94.8822 388.745 94.7242 387.799 94.732C386.852 94.7398 385.918 94.9131 385.056 95.241C384.194 95.5689 383.422 96.0441 382.791 96.6363C382.161 97.2284 381.684 97.9245 381.391 98.6801C380.03 101.867 381.841 105.751 383.937 108.413C384.244 108.817 384.59 109.199 384.972 109.555C378.281 111.845 372.266 115.33 367.343 119.768C353.226 133.02 354.288 153.148 354.288 153.148C354.288 153.148 374.313 152.006 388.538 141.725C392.908 139.988 398.558 137.681 405.024 134.768C407.447 133.694 410.006 132.483 412.62 131.238C413.314 131.957 418.936 137.806 422.68 139.394C426.083 140.845 430.848 141.885 434.496 140.4C435.351 140.069 436.114 139.593 436.739 139.002C437.363 138.412 437.835 137.719 438.124 136.967C438.413 136.216 438.513 135.422 438.418 134.637C438.324 133.851 438.036 133.09 437.573 132.403C434.564 128.336 424.286 127.902 419.345 128.976C419.059 129.044 415.982 130.004 414.049 130.632C415.111 130.118 416.159 129.627 417.248 129.079C419.413 128.016 421.537 126.908 423.824 125.72L427.104 123.881C428.207 123.287 429.296 122.544 430.399 121.87C432.931 120.271 435.408 118.535 437.859 116.752C438.975 118.34 443.018 123.927 446.122 125.789C449.226 127.651 453.773 129.296 457.625 128.29C458.534 128.072 459.379 127.698 460.107 127.19C460.834 126.683 461.427 126.054 461.848 125.343C462.27 124.633 462.51 123.857 462.554 123.064C462.598 122.271 462.445 121.48 462.104 120.739C459.871 116.341 449.784 114.593 444.72 115.027C444.393 115.027 440.799 115.679 438.825 116.056C440.282 114.97 441.752 113.885 443.195 112.754C447.279 109.464 451.363 106.037 455.447 102.633C456.699 101.582 457.965 100.554 459.218 99.5254C459.599 100.085 464.241 106.825 467.726 108.916C470.816 110.778 475.377 112.411 479.215 111.406C480.124 111.189 480.969 110.816 481.697 110.31C482.424 109.804 483.018 109.176 483.441 108.467C483.863 107.757 484.105 106.982 484.151 106.19C484.197 105.398 484.046 104.607 483.708 103.866C481.462 99.4569 471.456 97.7205 466.31 98.1546C465.929 98.1546 460.756 99.0913 459.504 99.3769C462.226 97.0922 465.058 94.8074 467.903 92.7397C471.739 89.8554 475.795 87.1842 480.046 84.7431C480.223 85.0059 485.028 92.0543 488.595 94.1905C491.685 96.0526 496.245 97.6976 500.084 96.6809C500.993 96.4639 501.838 96.0905 502.566 95.5844C503.293 95.0784 503.887 94.4507 504.31 93.7415C504.732 93.0323 504.974 92.257 505.02 91.465C505.066 90.673 504.915 89.8816 504.577 89.1413C502.331 84.7317 492.257 82.9953 487.179 83.4294C486.784 83.4294 481.217 84.4461 480.209 84.686C480.468 84.5375 480.699 84.3775 480.944 84.2405C485.286 81.8909 489.869 79.8722 494.639 78.2087C497.253 77.2606 499.812 76.4723 502.331 75.7641C503.066 77.1463 506.496 83.4637 509.464 85.6913C512.432 87.9189 516.611 89.8724 520.559 89.2326C521.492 89.1003 522.381 88.8061 523.171 88.369C523.961 87.9318 524.634 87.3613 525.146 86.6937C525.659 86.0261 526 85.2763 526.147 84.492C526.295 83.7076 526.246 82.9061 526.004 82.1385C524.343 77.569 514.555 74.8959 509.464 74.8273C509.178 74.8273 506.36 75.0329 504.304 75.2271C505.448 74.9187 506.619 74.576 507.721 74.3018C511.805 73.2508 515.712 72.5083 519.143 71.8686C521.089 71.5144 522.859 71.2288 524.588 70.9889C526.154 72.0285 532.538 76.1867 536.309 77.0092C540.08 77.8318 544.953 77.9574 548.112 75.8669C548.919 75.39 549.592 74.7716 550.086 74.0545C550.58 73.3374 550.882 72.5387 550.971 71.7139C551.061 70.8891 550.935 70.0578 550.603 69.2777C550.272 68.4977 549.742 67.7874 549.051 67.1963ZM403.526 132.186C400.559 133.454 397.754 134.608 395.168 135.613C399.548 130.282 402.557 124.244 404.003 117.883C404.779 118.043 405.568 118.18 406.358 118.306C406.589 121.905 410.006 128.302 410.442 129.124C408.073 130.221 405.745 131.295 403.526 132.186Z" fill="#68C5B2"/>
<path d="M508.851 71.1032C512.608 68.213 517.849 60.8218 515.467 56.4351C515.042 55.7273 514.446 55.1014 513.717 54.5973C512.988 54.0932 512.143 53.7219 511.234 53.507C510.324 53.2921 509.372 53.2384 508.437 53.3491C507.502 53.4599 506.604 53.7327 505.801 54.1504C502.33 55.8639 500.71 59.7937 500.274 62.9695C499.757 66.6936 502.888 74.6788 502.888 74.6788C502.888 74.6788 508.538 71.3545 508.851 71.1032Z" fill="#68C5B2"/>
<path d="M343.995 35.5525C343.995 35.5525 314.931 60.2963 314.781 90.9576C314.631 121.619 343.368 146.557 343.368 146.557C343.368 146.557 372.46 121.813 372.582 91.1632C372.705 60.5134 343.995 35.5525 343.995 35.5525Z" fill="#68C5B2"/>
<path d="M280.108 105.671C280.108 105.671 279.932 125.823 294.62 138.629C309.309 151.435 333.295 152.052 333.295 152.052C333.295 152.052 333.486 131.9 318.797 119.094C304.108 106.288 280.108 105.671 280.108 105.671Z" fill="#68C5B2"/>
<g opacity="0.5">
<path opacity="0.5" d="M436.102 27.6587C436.184 27.6587 438.621 22.2667 438.73 21.9469C439.968 17.8 439.437 9.17512 434.646 6.65048C433.827 6.26172 432.922 6.0195 431.986 5.93912C431.051 5.85873 430.105 5.94191 429.21 6.18342C428.315 6.42492 427.489 6.81951 426.784 7.34228C426.079 7.86506 425.512 8.50469 425.116 9.22082C423.333 12.2595 424.586 16.2921 426.301 19.148C428.234 22.4381 436.102 27.6473 436.102 27.6587Z" fill="white"/>
<path opacity="0.5" d="M549.051 67.1963C545.062 63.7691 534.92 65.1857 530.36 67.0935C529.965 67.2534 524.152 70.4178 524.234 70.5206L524.316 70.5891C522.723 70.8062 520.994 71.0461 519.129 71.3431C515.685 71.9257 511.792 72.5997 507.626 73.6278C503.112 74.6312 498.675 75.8634 494.34 77.3177C489.469 78.9152 484.776 80.8726 480.318 83.1666L480.168 83.258C481.257 82.1956 484.171 79.1226 484.375 78.8713C487.097 75.25 489.82 66.9221 486.131 63.2551C485.493 62.6698 484.717 62.2023 483.852 61.8825C482.987 61.5627 482.053 61.3976 481.108 61.3976C480.163 61.3976 479.228 61.5627 478.363 61.8825C477.498 62.2023 476.722 62.6698 476.084 63.2551C473.267 65.6769 472.953 69.8237 473.525 72.9881C474.179 76.5409 479.256 83.0867 479.665 83.6122C475.198 86.0321 470.931 88.7038 466.896 91.6088C464.527 93.2995 462.213 95.0359 459.912 96.8408C460.81 95.8927 461.614 95.0473 461.709 94.9102C464.432 91.2889 467.154 82.961 463.479 79.294C462.841 78.7087 462.065 78.2413 461.2 77.9215C460.335 77.6017 459.4 77.4365 458.455 77.4365C457.51 77.4365 456.576 77.6017 455.711 77.9215C454.846 78.2413 454.07 78.7087 453.432 79.294C450.614 81.7158 450.301 85.8741 450.873 89.027C451.445 92.18 455.651 97.8804 456.781 99.3084L454.167 101.376C449.988 104.712 445.836 108.059 441.643 111.235C440.173 112.377 438.662 113.417 437.164 114.479C437.968 113.634 438.635 112.925 438.73 112.811C441.453 109.19 444.175 100.862 440.486 97.1836C439.853 96.5946 439.081 96.1227 438.219 95.798C437.356 95.4733 436.423 95.3028 435.478 95.2974C434.533 95.2921 433.597 95.4519 432.729 95.7668C431.862 96.0817 431.082 96.5447 430.44 97.1264C427.635 99.5483 427.309 103.707 427.88 106.859C428.452 110.012 432.264 115.165 433.598 116.935C432.032 117.986 430.453 119.037 428.874 119.997C427.771 120.625 426.764 121.299 425.621 121.882L422.299 123.664C420.134 124.726 417.916 125.834 415.778 126.84C414.294 127.536 412.865 128.176 411.436 128.839C412.919 127.696 415.765 125.526 415.982 125.32C418.799 122.388 420.674 118.9 421.428 115.187C421.76 114.875 422.052 114.535 422.299 114.171C422.797 113.497 423.122 112.744 423.254 111.959C423.386 111.174 423.322 110.375 423.066 109.612C422.809 108.849 422.367 108.14 421.766 107.528C421.166 106.916 420.42 106.416 419.576 106.06C415.642 104.54 409.598 106.7 405.405 109.201C405.582 106.768 405.5 105.272 405.5 105.272L404.398 105.363L405.201 103.752C405.745 102.747 406.154 101.627 406.63 100.554C407.692 98.0403 408.618 95.4472 409.489 92.8311C411.463 93.6308 418.501 96.4296 422.326 96.5438C426.151 96.6581 431.011 95.9269 433.557 93.2995C434.173 92.6975 434.633 91.9944 434.908 91.235C435.182 90.4755 435.265 89.6763 435.151 88.8885C435.037 88.1007 434.729 87.3414 434.246 86.6591C433.763 85.9769 433.116 85.3866 432.345 84.9259C427.581 82.2984 418.024 85.5085 414.049 88.1816C413.804 88.353 411.204 90.5464 409.816 91.7687C410.319 90.1922 410.837 88.6158 411.286 86.9936C412.579 82.3441 413.723 77.5919 414.893 72.8624C415.247 71.4116 415.629 69.9722 415.996 68.5214C416.69 68.8184 424.981 72.2912 429.255 72.4169C433.067 72.5311 437.94 71.8 440.486 69.1726C441.1 68.5709 441.558 67.8685 441.832 67.1102C442.105 66.3519 442.187 65.5542 442.073 64.7677C441.959 63.9813 441.652 63.2234 441.17 62.5421C440.688 61.8608 440.043 61.2711 439.274 60.8104C434.51 58.1715 424.953 61.3816 420.978 64.0662C420.679 64.2604 416.895 67.4133 416.064 68.2587C416.867 65.0829 417.725 61.9185 418.705 58.8227C420.005 54.6472 421.633 50.5485 423.579 46.5536C423.905 46.6907 432.536 50.3463 436.919 50.4719C440.718 50.5976 445.605 49.855 448.15 47.2276C448.764 46.6251 449.221 45.9222 449.493 45.1634C449.765 44.4046 449.846 43.6067 449.731 42.8202C449.616 42.0337 449.307 41.276 448.824 40.5951C448.341 39.9143 447.694 39.3252 446.925 38.8654C442.16 36.2265 432.618 39.4366 428.643 42.1212C428.33 42.3268 424.327 45.7196 423.647 46.3822C423.769 46.1537 423.851 45.9024 423.973 45.674C426.041 41.686 428.534 37.8626 431.42 34.2502C432.985 32.2511 434.605 30.4004 436.239 28.6412C437.763 29.4637 444.774 33.1421 448.708 33.6333C452.643 34.1246 457.421 33.8047 460.293 31.44C460.983 30.8977 461.531 30.2408 461.901 29.5112C462.272 28.7815 462.457 27.9951 462.446 27.202C462.434 26.4088 462.226 25.6265 461.834 24.9046C461.443 24.1827 460.876 23.5373 460.171 23.0093C455.787 19.9477 445.877 22.2667 441.575 24.5629C441.344 24.6771 439.125 26.1736 437.491 27.2703C438.24 26.4935 438.989 25.671 439.724 24.9284C442.446 22.1411 445.169 19.7306 447.647 17.6173C449.008 16.4749 450.369 15.3325 451.554 14.3843C453.555 14.5329 461.6 15.0469 465.289 13.9845C468.978 12.9221 473.13 10.7744 474.369 7.55295C474.684 6.80564 474.81 6.0115 474.74 5.22106C474.669 4.43061 474.403 3.66116 473.959 2.96166C473.514 2.26216 472.901 1.64792 472.159 1.15803C471.416 0.668126 470.56 0.313288 469.645 0.116095C464.064 -0.900617 456.536 4.99403 453.977 8.6839C453.759 9.00376 450.995 14.3386 451.091 14.3958H451.213C450.015 15.3097 448.749 16.315 447.388 17.4231C444.883 19.5022 442.092 21.8669 439.22 24.62C436.123 27.553 433.232 30.635 430.562 33.8504C427.554 37.4559 424.935 41.2789 422.735 45.2741L422.653 45.4226C422.871 44.0289 423.293 40.122 423.279 39.8136C423.17 35.5411 419.957 27.3389 414.485 25.968C413.572 25.7684 412.62 25.7302 411.688 25.8558C410.757 25.9815 409.867 26.2682 409.074 26.6979C408.282 27.1276 407.605 27.6908 407.086 28.3517C406.566 29.0127 406.217 29.7571 406.058 30.5375C405.31 33.8504 407.774 37.4603 410.333 39.8364C413.205 42.5096 421.754 45.5483 422.435 45.8567C420.303 49.9376 418.507 54.1361 417.058 58.4228C416.187 60.9246 415.411 63.4607 414.662 66.0196C414.798 64.8087 414.907 63.7349 414.893 63.5749C414.784 59.3025 411.572 51.1002 406.099 49.7294C405.187 49.5316 404.236 49.4948 403.307 49.6213C402.377 49.7478 401.488 50.0349 400.698 50.4644C399.907 50.8939 399.231 51.4565 398.713 52.1165C398.194 52.7765 397.845 53.5197 397.686 54.2989C396.924 57.6117 399.402 61.2216 401.947 63.5978C404.493 65.9739 411.762 68.7613 413.682 69.481C413.41 70.4634 413.124 71.4345 412.851 72.4169C411.558 77.1349 410.306 81.8529 408.89 86.4338C408.4 88.056 407.842 89.6325 407.297 91.2089C407.406 90.1465 407.488 89.2326 407.488 89.0956C407.379 84.8231 404.166 76.6208 398.694 75.25C397.782 75.0522 396.831 75.0154 395.901 75.1419C394.971 75.2684 394.083 75.5555 393.292 75.985C392.501 76.4145 391.825 76.9771 391.307 77.6371C390.789 78.2972 390.439 79.0403 390.281 79.8195C389.518 83.1438 391.982 86.7537 394.542 89.1298C397.101 91.506 403.649 94.0192 405.922 94.8417C405.31 96.4524 404.684 98.0518 403.989 99.5825C403.499 100.622 403.104 101.65 402.533 102.667L400.967 105.614C399.756 105.786 398.353 106.014 396.788 106.311C396.38 102.004 394.46 96.7494 390.553 95.1958C389.683 94.8822 388.745 94.7242 387.799 94.732C386.852 94.7398 385.918 94.9131 385.056 95.241C384.194 95.5689 383.422 96.0441 382.791 96.6363C382.161 97.2284 381.684 97.9245 381.391 98.6801C380.03 101.867 381.841 105.751 383.937 108.413C384.244 108.817 384.59 109.199 384.972 109.555C378.281 111.845 372.266 115.33 367.343 119.768C353.226 133.02 354.288 153.148 354.288 153.148C354.288 153.148 374.313 152.006 388.538 141.725C392.908 139.988 398.558 137.681 405.024 134.768C407.447 133.694 410.006 132.483 412.62 131.238C413.314 131.957 418.936 137.806 422.68 139.394C426.083 140.845 430.848 141.885 434.496 140.4C435.351 140.069 436.114 139.593 436.739 139.002C437.363 138.412 437.835 137.719 438.124 136.967C438.413 136.216 438.513 135.422 438.418 134.637C438.324 133.851 438.036 133.09 437.573 132.403C434.564 128.336 424.286 127.902 419.345 128.976C419.059 129.044 415.982 130.004 414.049 130.632C415.111 130.118 416.159 129.627 417.248 129.079C419.413 128.016 421.537 126.908 423.824 125.72L427.104 123.881C428.207 123.287 429.296 122.544 430.399 121.87C432.931 120.271 435.408 118.535 437.859 116.752C438.975 118.34 443.018 123.927 446.122 125.789C449.226 127.651 453.773 129.296 457.625 128.29C458.534 128.072 459.379 127.698 460.107 127.19C460.834 126.683 461.427 126.054 461.848 125.343C462.27 124.633 462.51 123.857 462.554 123.064C462.598 122.271 462.445 121.48 462.104 120.739C459.871 116.341 449.784 114.593 444.72 115.027C444.393 115.027 440.799 115.679 438.825 116.056C440.282 114.97 441.752 113.885 443.195 112.754C447.279 109.464 451.363 106.037 455.447 102.633C456.699 101.582 457.965 100.554 459.218 99.5254C459.599 100.085 464.241 106.825 467.726 108.916C470.816 110.778 475.377 112.411 479.215 111.406C480.124 111.189 480.969 110.816 481.697 110.31C482.424 109.804 483.018 109.176 483.441 108.467C483.863 107.757 484.105 106.982 484.151 106.19C484.197 105.398 484.046 104.607 483.708 103.866C481.462 99.4569 471.456 97.7205 466.31 98.1546C465.929 98.1546 460.756 99.0913 459.504 99.3769C462.226 97.0922 465.058 94.8074 467.903 92.7397C471.739 89.8554 475.795 87.1842 480.046 84.7431C480.223 85.0059 485.028 92.0543 488.595 94.1905C491.685 96.0526 496.245 97.6976 500.084 96.6809C500.993 96.4639 501.838 96.0905 502.566 95.5844C503.293 95.0784 503.887 94.4507 504.31 93.7415C504.732 93.0323 504.974 92.257 505.02 91.465C505.066 90.673 504.915 89.8816 504.577 89.1413C502.331 84.7317 492.257 82.9953 487.179 83.4294C486.784 83.4294 481.217 84.4461 480.209 84.686C480.468 84.5375 480.699 84.3775 480.944 84.2405C485.286 81.8909 489.869 79.8722 494.639 78.2087C497.253 77.2606 499.812 76.4723 502.331 75.7641C503.066 77.1463 506.496 83.4637 509.464 85.6913C512.432 87.9189 516.611 89.8724 520.559 89.2326C521.492 89.1003 522.381 88.8061 523.171 88.369C523.961 87.9318 524.634 87.3613 525.146 86.6937C525.659 86.0261 526 85.2763 526.147 84.492C526.295 83.7076 526.246 82.9061 526.004 82.1385C524.343 77.569 514.555 74.8959 509.464 74.8273C509.178 74.8273 506.36 75.0329 504.304 75.2271C505.448 74.9187 506.619 74.576 507.721 74.3018C511.805 73.2508 515.712 72.5083 519.143 71.8686C521.089 71.5144 522.859 71.2288 524.588 70.9889C526.154 72.0285 532.538 76.1867 536.309 77.0092C540.08 77.8318 544.953 77.9574 548.112 75.8669C548.919 75.39 549.592 74.7716 550.086 74.0545C550.58 73.3374 550.882 72.5387 550.971 71.7139C551.061 70.8891 550.935 70.0578 550.603 69.2777C550.272 68.4977 549.742 67.7874 549.051 67.1963ZM403.526 132.186C400.559 133.454 397.754 134.608 395.168 135.613C399.548 130.282 402.557 124.244 404.003 117.883C404.779 118.043 405.568 118.18 406.358 118.306C406.589 121.905 410.006 128.302 410.442 129.124C408.073 130.221 405.745 131.295 403.526 132.186Z" fill="white"/>
<path opacity="0.5" d="M508.851 71.1032C512.608 68.213 517.849 60.8218 515.467 56.4351C515.042 55.7273 514.446 55.1014 513.717 54.5973C512.988 54.0932 512.143 53.7219 511.234 53.507C510.324 53.2921 509.372 53.2384 508.437 53.3491C507.502 53.4599 506.604 53.7327 505.801 54.1504C502.33 55.8639 500.71 59.7937 500.274 62.9695C499.757 66.6936 502.888 74.6788 502.888 74.6788C502.888 74.6788 508.538 71.3545 508.851 71.1032Z" fill="white"/>
<path opacity="0.5" d="M343.996 35.5525C343.996 35.5525 314.932 60.2963 314.782 90.9576C314.632 121.619 343.369 146.557 343.369 146.557C343.369 146.557 372.461 121.813 372.583 91.1632C372.706 60.5134 343.996 35.5525 343.996 35.5525Z" fill="white"/>
<path opacity="0.5" d="M280.109 105.671C280.109 105.671 279.933 125.823 294.621 138.629C309.31 151.435 333.296 152.052 333.296 152.052C333.296 152.052 333.487 131.9 318.798 119.094C304.109 106.288 280.109 105.671 280.109 105.671Z" fill="white"/>
</g>
<path d="M362.265 118.74L361.339 117.735L344.241 128.999L344.377 104.221L368.132 86.5823L367.124 85.6342L344.377 102.518L344.527 75.3071L360.522 63.6777L359.542 62.7182L344.527 73.6164L344.731 35.5525H343.22L342.92 91.6316L324.107 68.5443L322.854 69.2525L342.798 93.7108L342.92 93.6422L342.798 116.947L320.227 99.9138L319.22 100.862L342.784 118.649V118.637L342.648 146.557L344.159 146.568L344.241 130.609L362.265 118.74Z" fill="white"/>
<path d="M406.045 105.557L404.929 104.712L379.772 128.313L382.059 113.063L380.561 112.914L378.002 129.958H378.016L367.901 139.451L365.995 125.366L364.498 125.503L366.553 140.719L353.784 152.691L354.914 153.537L362.17 146.74L375.279 147.402L375.361 146.134L363.45 145.529L374.326 135.327L392.582 135.339V134.071L375.674 134.048L387.64 122.83L399.769 122.955L399.797 121.687L388.988 121.573L406.045 105.557Z" fill="white"/>
<path d="M328.068 134.117L326.571 133.945L324.964 143.872L313.652 134.002L315.04 118.729L313.529 118.637L312.25 132.78L299.794 121.927L300.855 111.783L299.344 111.68L298.405 120.716L280.654 105.237L279.564 106.117L305.729 128.93L287.787 125.869L287.487 127.114L307.553 130.529V130.507L318.076 139.691L301.196 140.228L301.25 141.496L319.478 140.914L332.751 152.486L333.84 151.606L326.312 145.038L328.068 134.117Z" fill="white"/>
<path d="M339.109 437.074L512.936 382.343L514.188 370.679L341.641 425.399L339.109 437.074Z" fill="#68C5B2" stroke="#2E353A" stroke-width="1.13593" stroke-linecap="round" stroke-linejoin="round"/>
<path d="M309.841 243.602C306.787 243.582 303.834 242.678 301.482 241.043C298.527 238.997 296.586 236.102 296.037 232.92C295.968 232.352 296.162 231.783 296.579 231.332C296.996 230.88 297.603 230.58 298.276 230.494C298.949 230.407 299.635 230.541 300.194 230.867C300.753 231.193 301.141 231.687 301.278 232.246C301.633 234.333 302.9 236.234 304.831 237.581C305.671 238.189 306.659 238.637 307.725 238.893C308.792 239.15 309.912 239.209 311.008 239.067C312.104 238.924 313.151 238.584 314.075 238.069C314.999 237.554 315.779 236.877 316.361 236.085C316.762 235.618 317.363 235.3 318.037 235.197C318.711 235.093 319.407 235.213 319.979 235.53C320.55 235.848 320.954 236.338 321.104 236.899C321.254 237.46 321.14 238.049 320.786 238.541C319.792 239.849 318.478 240.964 316.932 241.813C315.385 242.662 313.641 243.225 311.815 243.464C311.162 243.556 310.502 243.602 309.841 243.602Z" fill="#2E353A"/>
<path d="M284.751 250.102C278.04 250.102 272.036 245.624 270.906 239.432C270.852 239.144 270.866 238.85 270.948 238.566C271.029 238.282 271.177 238.015 271.382 237.78C271.587 237.544 271.845 237.345 272.142 237.193C272.439 237.041 272.768 236.94 273.112 236.896C273.806 236.819 274.509 236.97 275.074 237.316C275.64 237.663 276.024 238.179 276.147 238.758C276.937 243.11 281.307 246.172 285.867 245.612C286.962 245.462 288.006 245.119 288.931 244.605C289.856 244.091 290.64 243.418 291.231 242.631C291.632 242.164 292.232 241.846 292.907 241.743C293.581 241.639 294.277 241.759 294.848 242.076C295.42 242.393 295.823 242.884 295.973 243.445C296.124 244.006 296.01 244.594 295.655 245.087C294.661 246.394 293.348 247.51 291.801 248.359C290.254 249.208 288.51 249.771 286.684 250.01C286.044 250.085 285.397 250.116 284.751 250.102Z" fill="#2E353A"/>
<path d="M261.801 257.493C258.748 257.475 255.796 256.576 253.442 254.945C250.49 252.898 248.55 250.003 247.997 246.823C247.928 246.255 248.122 245.686 248.539 245.234C248.956 244.783 249.563 244.483 250.236 244.396C250.909 244.31 251.595 244.443 252.154 244.77C252.713 245.096 253.101 245.59 253.238 246.149C253.593 248.236 254.859 250.137 256.791 251.484C257.64 252.081 258.629 252.521 259.693 252.777C260.758 253.033 261.875 253.098 262.971 252.969C264.064 252.819 265.107 252.476 266.029 251.962C266.951 251.448 267.733 250.775 268.321 249.987C268.766 249.626 269.345 249.402 269.962 249.354C270.579 249.305 271.197 249.435 271.715 249.721C272.232 250.007 272.618 250.433 272.807 250.928C272.997 251.423 272.98 251.958 272.759 252.444C271.762 253.751 270.445 254.865 268.896 255.714C267.347 256.563 265.602 257.126 263.775 257.367C263.122 257.455 262.462 257.497 261.801 257.493Z" fill="#2E353A"/>
<path d="M236.712 263.525C230.001 263.525 223.998 259.035 222.868 252.855C222.798 252.56 222.799 252.257 222.873 251.962C222.946 251.668 223.089 251.39 223.294 251.143C223.499 250.897 223.762 250.688 224.066 250.529C224.369 250.37 224.708 250.264 225.062 250.217C225.416 250.171 225.777 250.185 226.124 250.259C226.472 250.333 226.797 250.466 227.082 250.648C227.366 250.83 227.604 251.059 227.781 251.321C227.957 251.582 228.069 251.871 228.109 252.169C228.912 256.522 233.268 259.583 237.829 259.024C238.922 258.874 239.965 258.532 240.889 258.02C241.813 257.508 242.598 256.838 243.192 256.053C243.371 255.788 243.614 255.556 243.904 255.373C244.194 255.189 244.526 255.057 244.88 254.986C245.233 254.914 245.6 254.905 245.959 254.957C246.317 255.009 246.658 255.123 246.962 255.291C247.265 255.459 247.525 255.677 247.724 255.932C247.923 256.188 248.057 256.475 248.118 256.775C248.18 257.076 248.167 257.384 248.081 257.68C247.994 257.977 247.836 258.255 247.616 258.498C246.621 259.805 245.307 260.921 243.761 261.772C242.214 262.622 240.471 263.189 238.645 263.433C238.005 263.503 237.359 263.533 236.712 263.525Z" fill="#2E353A"/>
<path d="M211.024 272.092C204.327 272.092 198.323 267.614 197.18 261.423C197.221 260.904 197.472 260.412 197.891 260.03C198.31 259.647 198.872 259.395 199.485 259.317C200.097 259.238 200.723 259.337 201.26 259.598C201.796 259.858 202.21 260.264 202.434 260.749C203.224 265.101 207.594 268.151 212.154 267.603C213.248 267.451 214.291 267.107 215.216 266.593C216.14 266.079 216.924 265.407 217.518 264.621C217.919 264.155 218.519 263.837 219.193 263.733C219.868 263.63 220.563 263.749 221.135 264.067C221.707 264.384 222.11 264.875 222.26 265.436C222.411 265.997 222.297 266.585 221.942 267.077C220.946 268.384 219.632 269.498 218.086 270.347C216.539 271.195 214.796 271.759 212.971 272.001C212.325 272.07 211.675 272.101 211.024 272.092Z" fill="#2E353A"/>
<path d="M186.152 279.735C183.1 279.719 180.147 278.819 177.794 277.187C174.842 275.14 172.901 272.245 172.349 269.065C172.28 268.497 172.474 267.928 172.89 267.476C173.307 267.025 173.915 266.725 174.587 266.638C175.26 266.552 175.947 266.685 176.506 267.012C177.064 267.338 177.452 267.832 177.59 268.391C177.945 270.478 179.211 272.379 181.143 273.726C181.983 274.334 182.97 274.782 184.037 275.038C185.103 275.295 186.223 275.354 187.319 275.211C188.416 275.069 189.462 274.729 190.387 274.214C191.311 273.699 192.091 273.022 192.673 272.229C193.118 271.868 193.697 271.644 194.314 271.596C194.931 271.547 195.549 271.677 196.066 271.963C196.584 272.249 196.969 272.675 197.159 273.17C197.349 273.665 197.332 274.2 197.111 274.686C196.113 275.993 194.796 277.107 193.248 277.956C191.699 278.805 189.953 279.368 188.126 279.609C187.474 279.697 186.813 279.739 186.152 279.735Z" fill="#2E353A"/>
<path d="M343.875 429.957L487.725 385.484" stroke="#2E353A" stroke-width="0.567964" stroke-linecap="round" stroke-linejoin="round"/>
<path d="M340.09 433.67L432.196 405.076" stroke="#2E353A" stroke-width="0.567964" stroke-linecap="round" stroke-linejoin="round"/>
<path d="M165.91 274.606V288.394L339.11 437.074L341.642 425.399L165.91 274.606Z" fill="#68C5B2" stroke="#2E353A" stroke-width="1.13593" stroke-linecap="round" stroke-linejoin="round"/>
<path d="M168.483 285.424L271.331 371.719" stroke="#2E353A" stroke-width="0.567964" stroke-linecap="round" stroke-linejoin="round"/>
<path d="M217.068 322.482L324.313 414.603" stroke="#2E353A" stroke-width="0.567964" stroke-linecap="round" stroke-linejoin="round"/>
<path d="M165.91 274.606L341.642 425.399L514.189 370.679L335.353 226.854L165.91 274.606Z" fill="white" stroke="#2E353A" stroke-width="1.13593" stroke-linecap="round" stroke-linejoin="round"/>
<path d="M163.759 272.229L1 144.752L167.72 101.125L334.073 224.581L163.759 272.229Z" fill="#68C5B2" stroke="#2E353A" stroke-width="1.13593" stroke-linecap="round" stroke-linejoin="round"/>
<path d="M25.9121 145.597L73.5581 133.145" stroke="#2E353A" stroke-width="1.21052" stroke-linecap="round" stroke-linejoin="round"/>
<path d="M32.9502 150.19L80.5962 137.738" stroke="#2E353A" stroke-width="1.21052" stroke-linecap="round" stroke-linejoin="round"/>
<path d="M194.879 275.679C194.361 275.682 193.854 275.555 193.423 275.314C192.848 274.98 192.449 274.474 192.307 273.9C192.165 273.325 192.291 272.727 192.66 272.229C194.02 270.457 194.545 268.323 194.13 266.243C193.899 264.667 193.115 263.185 191.876 261.984C190.637 260.784 189 259.92 187.174 259.503C186.515 259.352 185.951 258.993 185.599 258.501C185.247 258.009 185.135 257.423 185.286 256.863C185.437 256.304 185.839 255.815 186.409 255.498C186.979 255.181 187.672 255.061 188.345 255.162C191.21 255.779 193.791 257.098 195.758 258.952C197.725 260.806 198.987 263.11 199.385 265.569C200.007 268.748 199.192 272.008 197.098 274.708C196.848 275.007 196.516 275.252 196.129 275.42C195.743 275.589 195.315 275.678 194.879 275.679Z" fill="#2E353A"/>
<path d="M219.722 268.037C219.204 268.04 218.696 267.912 218.265 267.671C217.973 267.511 217.723 267.304 217.527 267.061C217.331 266.819 217.195 266.547 217.125 266.26C217.055 265.973 217.054 265.678 217.121 265.391C217.188 265.103 217.323 264.83 217.516 264.587C218.87 262.812 219.394 260.68 218.987 258.601C218.756 257.025 217.971 255.542 216.732 254.342C215.493 253.141 213.856 252.278 212.03 251.861C211.674 251.811 211.334 251.701 211.03 251.538C210.726 251.374 210.465 251.16 210.263 250.909C210.061 250.657 209.923 250.374 209.856 250.077C209.789 249.779 209.795 249.473 209.874 249.177C209.952 248.881 210.102 248.602 210.314 248.357C210.526 248.111 210.795 247.905 211.105 247.75C211.416 247.594 211.76 247.494 212.118 247.455C212.476 247.415 212.84 247.437 213.187 247.52C216.053 248.136 218.634 249.455 220.6 251.309C222.567 253.163 223.83 255.467 224.228 257.927C224.85 261.106 224.034 264.365 221.941 267.066C221.69 267.365 221.358 267.609 220.972 267.778C220.586 267.947 220.157 268.036 219.722 268.037Z" fill="#2E353A"/>
<path d="M318.567 239.546C318.101 239.526 317.649 239.407 317.254 239.198C316.859 238.989 316.535 238.699 316.312 238.355C316.089 238.011 315.976 237.625 315.982 237.233C315.988 236.841 316.115 236.458 316.349 236.119C317.71 234.351 318.235 232.22 317.819 230.144C317.59 228.566 316.806 227.081 315.567 225.878C314.328 224.676 312.69 223.811 310.862 223.393C310.523 223.331 310.201 223.213 309.916 223.046C309.631 222.878 309.388 222.665 309.202 222.419C309.016 222.172 308.89 221.897 308.831 221.609C308.773 221.322 308.783 221.027 308.861 220.743C309.03 220.173 309.453 219.679 310.044 219.365C310.635 219.05 311.347 218.938 312.033 219.052C314.898 219.668 317.479 220.988 319.446 222.841C321.413 224.695 322.676 226.999 323.073 229.459C323.697 232.64 322.876 235.901 320.773 238.598C320.527 238.896 320.196 239.139 319.812 239.304C319.427 239.469 319 239.553 318.567 239.546Z" fill="#2E353A"/>
<path d="M293.437 246.023C292.918 246.026 292.411 245.899 291.98 245.658C291.688 245.497 291.437 245.29 291.242 245.048C291.046 244.806 290.909 244.533 290.84 244.247C290.77 243.96 290.769 243.664 290.836 243.377C290.903 243.09 291.038 242.817 291.231 242.573C292.586 240.799 293.11 238.667 292.702 236.587C292.471 235.011 291.686 233.529 290.447 232.328C289.208 231.128 287.571 230.264 285.745 229.847C285.389 229.798 285.048 229.688 284.745 229.524C284.441 229.36 284.18 229.146 283.978 228.895C283.776 228.644 283.637 228.361 283.571 228.063C283.504 227.765 283.51 227.459 283.588 227.163C283.667 226.868 283.817 226.589 284.029 226.343C284.241 226.098 284.51 225.891 284.82 225.736C285.13 225.581 285.475 225.481 285.833 225.441C286.191 225.402 286.555 225.424 286.902 225.506C289.769 226.12 292.352 227.438 294.319 229.293C296.287 231.147 297.548 233.453 297.943 235.913C298.565 239.092 297.749 242.352 295.656 245.052C295.405 245.351 295.073 245.596 294.687 245.764C294.301 245.933 293.872 246.022 293.437 246.023Z" fill="#2E353A"/>
<path d="M270.485 253.449C269.966 253.447 269.459 253.316 269.029 253.072C268.454 252.738 268.055 252.232 267.913 251.657C267.771 251.083 267.898 250.485 268.266 249.987C269.634 248.217 270.163 246.082 269.75 244.001C269.519 242.425 268.734 240.943 267.496 239.742C266.257 238.542 264.62 237.678 262.794 237.261C262.438 237.212 262.097 237.102 261.793 236.938C261.49 236.774 261.229 236.56 261.027 236.309C260.825 236.058 260.686 235.775 260.619 235.477C260.552 235.179 260.558 234.873 260.637 234.577C260.716 234.282 260.866 234.003 261.078 233.757C261.29 233.512 261.559 233.305 261.869 233.15C262.179 232.995 262.524 232.895 262.882 232.855C263.24 232.816 263.604 232.838 263.951 232.92C266.816 233.536 269.397 234.856 271.364 236.71C273.331 238.564 274.594 240.868 274.991 243.327C275.613 246.506 274.798 249.766 272.704 252.466C272.456 252.767 272.124 253.014 271.738 253.185C271.352 253.356 270.922 253.446 270.485 253.449Z" fill="#2E353A"/>
<path d="M245.398 259.469C244.881 259.466 244.375 259.339 243.941 259.104C243.649 258.943 243.398 258.736 243.203 258.494C243.007 258.251 242.87 257.979 242.801 257.692C242.731 257.406 242.73 257.11 242.797 256.823C242.864 256.536 242.999 256.263 243.192 256.019C244.546 254.245 245.07 252.112 244.662 250.033C244.431 248.457 243.647 246.974 242.408 245.774C241.169 244.574 239.532 243.71 237.706 243.293C237.298 243.293 236.895 243.216 236.528 243.068C236.16 242.92 235.836 242.705 235.581 242.438C235.326 242.171 235.145 241.859 235.053 241.525C234.961 241.192 234.959 240.845 235.048 240.511C235.137 240.177 235.314 239.864 235.566 239.595C235.819 239.326 236.14 239.108 236.506 238.957C236.873 238.806 237.275 238.727 237.683 238.724C238.091 238.721 238.494 238.795 238.863 238.941C241.731 239.553 244.315 240.871 246.283 242.725C248.25 244.58 249.511 246.886 249.904 249.348C250.527 252.527 249.711 255.787 247.617 258.487C247.368 258.788 247.036 259.034 246.65 259.205C246.264 259.376 245.834 259.467 245.398 259.469Z" fill="#2E353A"/>
<path d="M480.973 367.195L487.67 365.127" stroke="#2E353A" stroke-width="0.567964" stroke-linecap="round" stroke-linejoin="round"/>
<path d="M348.748 408.183L474.887 369.091" stroke="#2E353A" stroke-width="0.567964" stroke-linecap="round" stroke-linejoin="round"/>
<path d="M352.287 390.511L472.668 353.201" stroke="#2E353A" stroke-width="0.567964" stroke-linecap="round" stroke-linejoin="round"/>
<path d="M333.746 396.257L344.283 392.99" stroke="#2E353A" stroke-width="0.567964" stroke-linecap="round" stroke-linejoin="round"/>
<path d="M318.744 384.331L457.68 341.274" stroke="#2E353A" stroke-width="0.567964" stroke-linecap="round" stroke-linejoin="round"/>
<path d="M303.757 372.416L442.679 329.359" stroke="#2E353A" stroke-width="0.567964" stroke-linecap="round" stroke-linejoin="round"/>
<path d="M421.851 319.238L427.677 317.433" stroke="#2E353A" stroke-width="0.567964" stroke-linecap="round" stroke-linejoin="round"/>
<path d="M288.754 360.489L413.518 321.82" stroke="#2E353A" stroke-width="0.567964" stroke-linecap="round" stroke-linejoin="round"/>
<path d="M273.753 348.563L412.689 305.507" stroke="#2E353A" stroke-width="0.567964" stroke-linecap="round" stroke-linejoin="round"/>
<path d="M258.752 336.648L397.688 293.592" stroke="#2E353A" stroke-width="0.567964" stroke-linecap="round" stroke-linejoin="round"/>
<path d="M243.764 324.721L382.686 281.665" stroke="#2E353A" stroke-width="0.567964" stroke-linecap="round" stroke-linejoin="round"/>
<path d="M228.761 312.795L367.683 269.739" stroke="#2E353A" stroke-width="0.567964" stroke-linecap="round" stroke-linejoin="round"/>
<path d="M347.768 259.343L352.696 257.813" stroke="#2E353A" stroke-width="0.567964" stroke-linecap="round" stroke-linejoin="round"/>
<path d="M213.76 300.869L343.493 260.669" stroke="#2E353A" stroke-width="0.567964" stroke-linecap="round" stroke-linejoin="round"/>
<path d="M240.237 276.091L337.694 245.898" stroke="#2E353A" stroke-width="0.567964" stroke-linecap="round" stroke-linejoin="round"/>
<path d="M198.772 288.954L225.604 280.637" stroke="#2E353A" stroke-width="0.567964" stroke-linecap="round" stroke-linejoin="round"/>
<g style="mix-blend-mode:multiply">
<path d="M246.962 319.786C261.024 321.329 259.785 301.131 256.219 294.357C253.617 296.86 251.678 299.798 250.53 302.976C249.383 306.155 249.053 309.501 249.562 312.795C249.71 314.333 250.35 315.809 251.413 317.068C251.952 317.69 252.699 318.166 253.558 318.434C254.418 318.702 255.353 318.752 256.246 318.576C257.526 318.12 258.609 317.347 259.35 316.359C261.936 313.481 263.652 309.916 266.374 307.277C270.145 309.414 283.54 313.069 281.607 305.21C280.546 300.869 283.118 301.36 285.882 303.485C287.025 304.353 288.822 303.885 290.238 303.359L303.851 298.333C305.584 297.591 307.46 297.115 309.392 296.928C315.926 296.653 320.201 301.748 326.612 298.15C329.335 296.642 329.961 292.552 333.419 290.999C335.883 289.856 338.783 289.788 341.587 289.468C351.225 288.394 356.153 284.122 365.056 280.26" stroke="#68C5B2" stroke-width="1.13593" stroke-linecap="round" stroke-linejoin="round"/>
</g>
<g style="mix-blend-mode:multiply">
<path d="M257.88 332.41C263.148 333.164 267.654 329.131 272.31 327.84C278.259 326.172 280.845 324.139 286.563 322.071C294.118 319.352 302.994 318.096 301.415 308.511C300.339 311.938 300.217 315.708 299.386 319.295C305.512 321.843 307.159 317.467 307.786 313.583C309.842 313.54 311.874 313.196 313.789 312.567C313.789 313.286 314.061 314.097 314.048 314.783C316.988 315.777 318.132 315.103 318.744 312.921C321.998 312.407 323.155 309.848 325.905 309.219C326.599 315.628 328.546 321.237 328.096 327.794C322.883 328.937 322.066 321.386 323.386 318.256C324.748 314.943 328.668 313.172 330.111 309.711C330.411 310.133 330.179 310.625 330.343 311.082C336.904 307.791 345.317 308.683 351.824 304.833C353.866 303.622 355.323 301.2 357.487 300.355C362.197 298.527 363.6 300.674 367.112 296.368" stroke="#68C5B2" stroke-width="1.13593" stroke-linecap="round" stroke-linejoin="round"/>
</g>
<g style="mix-blend-mode:multiply">
<path d="M305.309 370.051C314.77 367.766 318.922 348.037 316.199 340.795C313.014 332.033 308.63 341.64 307.609 346.347C306.792 350.116 305.486 360.055 309.678 362.922C318.976 369.251 324.653 356.24 325.796 350.356C326.205 354.035 323.564 358.57 324.639 362.534C332.167 363.277 335.897 358.022 335.421 352.595C336.356 353.346 336.989 354.323 337.233 355.389C337.477 356.455 337.319 357.559 336.782 358.547C343.97 358.124 342.786 347.946 343.589 343.845C343.18 346.712 343.493 350.071 345.794 352.39C347.714 354.309 351.375 355.154 353.785 353.669C356.195 352.184 355.718 348.277 352.791 347.763V372.496C352.884 373.211 352.713 373.932 352.301 374.563C351.335 375.706 348.966 375.466 347.863 374.369C346.892 373.173 346.436 371.734 346.57 370.291C346.434 362.191 349.415 351.099 356.889 345.57C357.272 346.358 357.399 347.217 357.256 348.06C357.972 347.826 358.618 347.465 359.152 347.002C359.685 346.538 360.093 345.984 360.347 345.376C360.837 347.192 362.116 349.477 364.308 349.157C365.035 348.997 365.701 348.682 366.241 348.243C369.835 345.753 373.728 344.108 376.138 340.566C376.478 341.457 376.832 342.348 377.186 343.251C377.758 341.526 379.718 340.395 381.637 339.618C384.566 338.463 387.732 337.792 390.962 337.642C393.685 337.527 396.653 337.767 399.13 336.785C400.228 336.293 401.279 335.732 402.275 335.106C405.096 333.546 408.362 332.647 411.736 332.501" stroke="#68C5B2" stroke-width="1.13593" stroke-linecap="round" stroke-linejoin="round"/>
</g>
<path d="M193.152 153.103C193.152 153.103 214.865 130.141 222.216 121.927C229.567 113.714 234.89 107.396 234.89 107.396C234.89 107.396 238.811 109.99 237.613 112.937C236.415 115.884 210.591 145.483 204.846 153C199.101 160.517 199.904 170.033 200.326 173.311C200.748 176.59 189.354 165.875 193.152 153.103Z" fill="white" stroke="#2E353A" stroke-width="1.27267" stroke-linecap="round" stroke-linejoin="round"/>
<path d="M234.889 107.396C234.889 107.396 248.407 91.6202 258.44 78.4829C268.473 65.3456 283.121 45.6168 286.606 42.9894C290.091 40.3619 290.935 47.2162 289.805 51.8085C288.675 56.4009 276.682 69.2183 268.582 79.7281C260.482 90.238 255.472 97.8005 248.502 104.7C241.532 111.6 241.941 111.932 237.612 112.937C233.283 113.942 234.127 110.344 234.889 107.396Z" fill="#2E353A" stroke="#2E353A" stroke-width="1.27267" stroke-linecap="round" stroke-linejoin="round"/>
<path d="M188.483 155.41C189.98 146.9 193.37 131.181 201.116 126.234C208.862 121.288 232.304 125.092 234.25 125.389C236.197 125.686 267.044 131.421 276.451 136.276C285.858 141.131 292.174 155.159 294.584 163.281C296.993 171.404 302.166 185.158 302.942 186.129C302.942 186.129 310.77 189.019 315.058 188.676C319.346 188.334 325.05 171.609 337.057 161.728C349.063 151.846 355.298 150.498 368.557 151.446C381.817 152.395 432.185 163.853 437.29 168.068C442.395 172.283 445.581 181.776 444.478 188.631C443.375 195.485 444.982 203.024 444.982 204.327C444.982 205.629 449.705 209.867 448.562 213.466C447.418 217.064 446.71 224.89 443.212 225.929C439.713 226.969 413.971 226.42 394.858 224.238C375.745 222.056 349.159 212.381 331.557 205.618C313.955 198.855 305.365 195.942 292.501 196.022C279.636 196.102 254.697 196.559 231.664 192.103C208.63 187.648 192.975 179.537 188.646 175.985C184.317 172.432 186.999 163.932 188.483 155.41ZM326.411 195.531C332.714 203.356 358.116 211.067 371.784 214.254C385.451 217.441 418.232 223.153 426.781 219.189C435.33 215.225 439.822 191.635 439.033 183.456C438.243 175.276 434.254 170.73 434.254 170.73C417.415 161.99 364.719 152.794 353.828 156.461C342.938 160.128 332.523 171.952 328.698 181.456C324.873 190.961 326.411 195.531 326.411 195.531ZM216.376 182.085C233.202 190.493 259.734 192.96 270.257 193.234C280.78 193.509 290.881 188.87 291.194 178.726C291.507 168.582 285.136 151.606 282.754 146.74C280.372 141.873 272.558 138.949 272.558 138.949C262.007 134.756 218.268 125.514 210.863 126.543C203.457 127.571 196.977 137.007 195.466 150.795C193.955 164.584 199.55 173.677 216.376 182.085Z" fill="#2E353A" stroke="#2E353A" stroke-width="1.27267" stroke-linecap="round" stroke-linejoin="round"/>
<path d="M443.81 204.041C443.81 204.041 448.139 209.582 451.229 205.641C454.319 201.699 494.178 164.184 494.178 164.184C494.178 164.184 495.73 163.841 495.363 166.469C494.995 169.096 453.271 216.105 451.719 218.401C450.167 220.697 443.551 221.394 441.999 220.423C440.447 219.452 443.81 204.041 443.81 204.041Z" fill="white" stroke="#2E353A" stroke-width="1.27267" stroke-linecap="round" stroke-linejoin="round"/>
<path d="M491.456 165.498C493.733 162.095 495.788 158.59 497.609 154.999C501.829 147.128 504.416 131.74 505.096 115.701C505.777 99.6626 506.458 90.1809 509.984 93.1053C513.509 96.0298 510.487 111.76 509.834 124.178C509.18 136.595 504.579 149.07 503.463 155.627C502.619 160.574 498.099 168.411 494.982 168.422C491.864 168.433 492.259 167.782 491.456 165.498Z" fill="#2E353A" stroke="#2E353A" stroke-width="1.27267" stroke-linecap="round" stroke-linejoin="round"/>
<path d="M234.248 370.554L251.387 386.832L225.903 382.012L44.5762 288.92L52.9346 277.462L234.248 370.554Z" fill="white" stroke="#2E353A" stroke-width="1.4364" stroke-linecap="round" stroke-linejoin="round"/>
<g style="mix-blend-mode:multiply" opacity="0.5">
<path d="M234.248 370.554L251.387 386.832L225.903 382.012L44.5762 288.92L52.9346 277.462L234.248 370.554Z" fill="#68C5B2"/>
<path d="M234.248 370.554L251.387 386.832L225.903 382.012L44.5762 288.92L52.9346 277.462L234.248 370.554Z" stroke="#2E353A" stroke-width="1.4364" stroke-linecap="round" stroke-linejoin="round"/>
</g>
<path d="M51.0346 280.07L46.4805 286.316L227.803 379.414L232.357 373.168L51.0346 280.07Z" stroke="#2E353A" stroke-width="0.718198" stroke-linecap="round" stroke-linejoin="round"/>
<path d="M234.287 370.588L225.942 382.023L251.385 386.832L234.287 370.588Z" fill="white" stroke="#2E353A" stroke-width="1.4364" stroke-linecap="round" stroke-linejoin="round"/>
<path d="M238.657 384.422L251.386 386.832L242.836 378.71L238.657 384.422Z" fill="#68C5B2" stroke="#2E353A" stroke-width="1.4364" stroke-linecap="round" stroke-linejoin="round"/>
<path d="M28.457 272.766C27.9071 273.518 27.5392 274.353 27.3744 275.224C27.2095 276.094 27.2509 276.984 27.4962 277.841C27.7415 278.699 28.1859 279.507 28.8039 280.22C29.422 280.933 30.2015 281.537 31.0979 281.997L44.5749 288.92L52.9334 277.496L39.4564 270.573C37.6505 269.642 35.4783 269.35 33.4164 269.762C31.3544 270.173 29.5709 271.253 28.457 272.766Z" fill="white" stroke="#2E353A" stroke-width="1.4364" stroke-linecap="round" stroke-linejoin="round"/>
<path d="M28.457 272.766C27.9071 273.518 27.5392 274.353 27.3744 275.224C27.2095 276.094 27.2509 276.984 27.4962 277.841C27.7415 278.699 28.1859 279.507 28.8039 280.22C29.422 280.933 30.2015 281.537 31.0979 281.997L37.5506 285.31L45.909 273.886L39.4564 270.573C37.6505 269.642 35.4783 269.35 33.4164 269.762C31.3544 270.173 29.5709 271.253 28.457 272.766Z" fill="#2E353A" stroke="#2E353A" stroke-width="1.4364" stroke-linecap="round" stroke-linejoin="round"/>
<path d="M394.365 218.218L389.586 215.396C388.847 214.961 388.001 214.672 387.11 214.549C386.219 214.426 385.307 214.474 384.441 214.688C379.39 215.922 369.861 219.063 367.138 221.542C363.599 224.604 362.483 230.144 364.184 232.749C365.886 235.354 372.869 238.678 372.869 238.678L402.124 223.736L394.365 218.218Z" fill="white" stroke="#2E353A" stroke-width="0.9473" stroke-miterlimit="10"/>
<g style="mix-blend-mode:multiply" opacity="0.5">
<path d="M394.365 218.218L389.586 215.396C388.847 214.961 388.001 214.672 387.11 214.549C386.219 214.426 385.307 214.474 384.441 214.688C379.39 215.922 369.861 219.063 367.138 221.542C363.599 224.604 362.483 230.144 364.184 232.749C365.886 235.354 372.869 238.678 372.869 238.678L402.124 223.736L394.365 218.218Z" fill="#68C5B2"/>
<path d="M394.365 218.218L389.586 215.396C388.847 214.961 388.001 214.672 387.11 214.549C386.219 214.426 385.307 214.474 384.441 214.688C379.39 215.922 369.861 219.063 367.138 221.542C363.599 224.604 362.483 230.144 364.184 232.749C365.886 235.354 372.869 238.678 372.869 238.678L402.124 223.736L394.365 218.218Z" stroke="#2E353A" stroke-width="0.9473" stroke-miterlimit="10"/>
</g>
<path d="M397.346 217.064L374.204 225.941C374.204 225.941 366.376 229.653 368.854 241.02L504.373 324.756C504.373 324.756 509.083 327.635 517.591 325.201C526.099 322.768 534.812 314.349 536.649 307.232C538.487 300.115 532.565 297.876 531.463 297.088C530.36 296.299 401.92 217.91 401.92 217.91C400.563 217.183 398.942 216.883 397.346 217.064Z" fill="white" stroke="#2E353A" stroke-width="0.9473" stroke-miterlimit="10"/>
<g style="mix-blend-mode:multiply" opacity="0.5">
<path d="M397.346 217.064L374.204 225.941C374.204 225.941 366.376 229.653 368.854 241.02L504.373 324.756C504.373 324.756 509.083 327.635 517.591 325.201C526.099 322.768 534.812 314.349 536.649 307.232C538.487 300.115 532.565 297.876 531.463 297.088C530.36 296.299 401.92 217.91 401.92 217.91C400.563 217.183 398.942 216.883 397.346 217.064Z" fill="#68C5B2"/>
<path d="M397.346 217.064L374.204 225.941C374.204 225.941 366.376 229.653 368.854 241.02L504.373 324.756C504.373 324.756 509.083 327.635 517.591 325.201C526.099 322.768 534.812 314.349 536.649 307.232C538.487 300.115 532.565 297.876 531.463 297.088C530.36 296.299 401.92 217.91 401.92 217.91C400.563 217.183 398.942 216.883 397.346 217.064Z" stroke="#2E353A" stroke-width="0.9473" stroke-miterlimit="10"/>
</g>
<path d="M527.528 319.295C518.992 325.978 508.66 328.331 504.385 324.539C500.111 320.746 503.637 312.235 512.172 305.541C520.707 298.847 531.04 296.505 535.314 300.298C539.589 304.09 536.049 312.601 527.528 319.295Z" fill="white" stroke="#2E353A" stroke-width="0.9473" stroke-miterlimit="10"/>
<g style="mix-blend-mode:multiply">
<path d="M527.528 319.295C518.992 325.978 508.66 328.331 504.385 324.539C500.111 320.746 503.637 312.235 512.172 305.541C520.707 298.847 531.04 296.505 535.314 300.298C539.589 304.09 536.049 312.601 527.528 319.295Z" fill="#68C5B2"/>
<path d="M527.528 319.295C518.992 325.978 508.66 328.331 504.385 324.539C500.111 320.746 503.637 312.235 512.172 305.541C520.707 298.847 531.04 296.505 535.314 300.298C539.589 304.09 536.049 312.601 527.528 319.295Z" stroke="#2E353A" stroke-width="0.9473" stroke-miterlimit="10"/>
</g>
<path d="M401.907 217.91C400.553 217.185 398.937 216.886 397.346 217.064L374.204 225.941C374.204 225.941 366.376 229.653 368.854 241.02L462.567 298.927C461.9 296.254 462.022 292.347 465.602 287.709C468.924 283.379 483.844 276.399 491.903 272.858C453.759 249.565 401.907 217.91 401.907 217.91Z" fill="#2E353A" stroke="#2E353A" stroke-width="1.27267" stroke-linecap="round" stroke-linejoin="round"/>
<path d="M509.438 305.335L459.94 275.234C459.2 274.784 458.606 274.185 458.214 273.492C457.822 272.799 457.644 272.034 457.697 271.268C457.75 270.502 458.031 269.759 458.516 269.109C459.001 268.458 459.673 267.921 460.471 267.546L468.135 264.039C469.035 263.63 470.053 263.442 471.074 263.497C472.095 263.551 473.077 263.846 473.907 264.347L526.236 296.151" fill="white"/>
<path d="M509.438 305.335L459.94 275.234C459.2 274.784 458.606 274.185 458.214 273.492C457.822 272.799 457.644 272.034 457.697 271.268C457.75 270.502 458.031 269.759 458.516 269.109C459.001 268.458 459.673 267.921 460.471 267.546L468.135 264.039C469.035 263.63 470.053 263.442 471.074 263.497C472.095 263.551 473.077 263.846 473.907 264.347L526.236 296.151" stroke="#2E353A" stroke-width="0.9473" stroke-miterlimit="10"/>
<g style="mix-blend-mode:multiply" opacity="0.5">
<path d="M509.438 305.335L459.94 275.234C459.2 274.784 458.606 274.185 458.214 273.492C457.822 272.799 457.644 272.034 457.697 271.268C457.75 270.502 458.031 269.759 458.516 269.109C459.001 268.458 459.673 267.921 460.471 267.546L468.135 264.039C469.035 263.63 470.053 263.442 471.074 263.497C472.095 263.551 473.077 263.846 473.907 264.347L526.236 296.151" fill="#68C5B2"/>
<path d="M509.438 305.335L459.94 275.234C459.2 274.784 458.606 274.185 458.214 273.492C457.822 272.799 457.644 272.034 457.697 271.268C457.75 270.502 458.031 269.759 458.516 269.109C459.001 268.458 459.673 267.921 460.471 267.546L468.135 264.039C469.035 263.63 470.053 263.442 471.074 263.497C472.095 263.551 473.077 263.846 473.907 264.347L526.236 296.151" stroke="#2E353A" stroke-width="0.9473" stroke-miterlimit="10"/>
</g>
</svg>
