<svg width="551" height="451" viewBox="0 0 551 451" fill="none" xmlns="http://www.w3.org/2000/svg">
<path d="M547.841 429.393H21.084V451H547.841V429.393Z" fill="#68C5B2"/>
<path opacity="0.5" d="M547.841 429.393H21.084V451H547.841V429.393Z" fill="white"/>
<path d="M145.303 196.992C142.727 197.833 140.198 198.811 137.726 199.923C139.077 198.937 140.428 197.91 141.778 196.871C147.792 192.035 153.515 186.849 158.918 181.34C152.578 187.499 145.807 193.198 138.658 198.397C139.644 196.685 140.51 194.907 141.251 193.076C142.602 189.713 142.845 186.323 139.644 184.527C135.687 182.313 130.905 185.621 132.161 191.28C132.928 194.439 134.422 197.375 136.524 199.855C131.859 203.084 126.986 206.003 121.937 208.593L121.464 208.836C122.532 206.987 123.475 205.07 124.287 203.096C125.557 199.747 125.881 196.344 122.666 194.561C118.709 192.333 113.928 195.655 115.197 201.314C115.951 204.43 117.411 207.332 119.465 209.794C113.401 212.779 107.134 215.318 100.894 218.073L99.9888 218.478C101.207 217.17 102.339 215.785 103.379 214.332C105.405 211.361 106.499 208.147 103.798 205.649C100.475 202.57 95.0318 204.676 94.9508 210.51C94.9544 213.73 95.7033 216.906 97.1389 219.788C91.2996 222.516 85.7516 225.828 80.5798 229.673L80.4177 229.808C81.1173 228.7 81.7575 227.555 82.3357 226.378C83.8619 223.124 84.4292 219.774 81.3497 217.735C80.7239 217.305 80.0087 217.022 79.2579 216.908C78.5071 216.794 77.7402 216.851 77.0148 217.076C76.2894 217.301 75.6244 217.687 75.0699 218.206C74.5153 218.725 74.0856 219.363 73.813 220.071C73.407 219.438 72.8561 218.91 72.2057 218.532C69.1127 216.749 66.0737 218.68 63.4669 221.408C62.7916 222.124 62.1163 222.894 61.5355 223.65C63.5464 218.07 66.0741 212.69 69.0857 207.58C71.9536 208.832 75.0461 209.489 78.1756 209.511C84.3346 209.511 86.9279 204.379 83.9024 201.192C81.4442 198.613 77.9865 199.598 74.7179 201.489C73.6416 202.117 72.6001 202.802 71.5979 203.542C74.729 198.827 78.2823 194.406 82.2141 190.334C84.7905 192.418 87.7844 193.924 90.9934 194.75C96.9768 196.222 100.732 191.887 98.5706 188.066C96.8147 184.96 93.1679 185.081 89.5887 186.121C87.8755 186.633 86.1972 187.256 84.5642 187.985C86.1985 186.391 87.8869 184.865 89.6022 183.352C91.8443 181.435 94.1674 179.585 96.5311 177.775C99.0724 179.803 102.014 181.271 105.162 182.083C111.145 183.555 114.9 179.22 112.739 175.398C110.983 172.292 107.336 172.414 103.744 173.454C102.906 173.697 102.055 173.994 101.231 174.304C104.351 172.076 107.512 169.902 110.686 167.741L113.617 165.729C116.258 167.941 119.358 169.537 122.693 170.402C128.677 171.874 132.445 167.539 130.284 163.717C128.515 160.611 124.881 160.732 121.289 161.772C119.875 162.204 118.484 162.704 117.115 163.271L118.925 161.921C120.033 161.124 121.14 160.314 122.221 159.463C123.571 158.45 124.854 157.329 126.165 156.249C126.921 155.655 127.637 155.02 128.353 154.372C131.004 156.607 134.125 158.218 137.483 159.085C143.467 160.557 147.221 156.222 145.06 152.4C143.304 149.294 139.658 149.415 136.078 150.455C134.071 151.075 132.104 151.82 130.19 152.684C132.634 150.415 134.998 148.051 137.24 145.594C137.389 145.418 137.524 145.243 137.686 145.08C138.645 144.014 139.59 142.933 140.509 141.812C141.427 140.691 142.616 139.219 143.615 137.869C147.719 132.482 151.098 126.58 153.664 120.313C150.975 126.505 147.483 132.317 143.277 137.599C139.118 142.903 134.474 147.808 129.406 152.251L128.852 152.724C130.004 150.764 131.023 148.729 131.905 146.634C133.188 143.284 133.499 139.881 130.284 138.099C126.34 135.87 121.545 139.192 122.815 144.851C123.63 148.201 125.259 151.3 127.556 153.872L126.367 154.898L125.016 156.06C124.233 156.694 123.423 157.302 122.612 157.91C122.18 158.234 121.761 158.572 121.262 158.896C120.114 159.746 118.952 160.57 117.777 161.381L116.089 162.528L114.171 163.879C115.292 161.966 116.276 159.976 117.115 157.923C118.398 154.561 118.709 151.171 115.508 149.388C111.55 147.16 106.756 150.482 108.025 156.141C108.808 159.391 110.36 162.406 112.55 164.932L111.199 165.851L105.945 169.294L104.905 169.969L101.974 171.928L100.705 172.778C99.354 173.71 98.0033 174.656 96.6526 175.628C97.7379 173.684 98.6857 171.667 99.489 169.591C100.84 166.242 101.083 162.839 97.8817 161.056C93.9243 158.828 89.143 162.15 90.4126 167.809C91.206 171.102 92.7916 174.153 95.0318 176.695C92.7357 178.383 90.4666 180.111 88.2785 181.921C86.6713 183.271 85.091 184.622 83.5377 186.08C84.2144 184.829 84.8187 183.539 85.3476 182.218C86.6172 178.855 86.9414 175.466 83.7268 173.683C79.7694 171.455 74.9881 174.777 76.2577 180.435C77.0115 183.552 78.4718 186.454 80.5258 188.916C76.1513 193.263 72.2112 198.025 68.7615 203.137C69.1532 201.663 69.4509 200.165 69.653 198.653C70.0852 195.088 69.5719 191.739 66.0197 190.766C61.6436 189.565 57.8077 193.94 60.4144 199.153C61.914 202.023 64.0593 204.505 66.6815 206.405C63.2792 211.961 60.4378 217.842 58.1994 223.961C58.1409 222.681 58.0147 221.405 57.8212 220.139C57.2134 216.587 55.7817 213.522 52.0944 213.589C47.5562 213.684 45.1115 218.991 49.0959 223.232C51.2209 225.447 53.8144 227.158 56.6866 228.242C55.1505 232.965 53.9012 237.777 52.9453 242.651C52.7832 243.421 52.6617 244.191 52.5131 244.96C52.351 245.109 52.1889 245.258 52.0404 245.42C51.8783 244.758 51.6892 244.069 51.4731 243.434C50.3385 240.031 48.4476 237.209 44.8143 237.857C40.3571 238.64 38.7499 244.231 43.3421 247.837C45.676 249.618 48.3663 250.876 51.23 251.524C51.23 251.659 51.338 251.78 51.4056 251.915C50.9058 255.575 50.5276 259.262 50.298 262.962C50.1224 265.663 50.0279 268.485 49.9738 271.254C46.111 271.254 43.3826 275.494 46.0434 280.086C47.1662 281.99 48.605 283.689 50.298 285.11C50.6222 290.309 51.1354 295.508 51.8243 300.667C51.278 300.162 50.6096 299.808 49.8849 299.64C49.1601 299.471 48.4041 299.495 47.6912 299.708C45.26 300.37 44.166 302.328 43.7743 304.732C42.9092 305.627 42.425 306.823 42.4237 308.067C40.6138 305.366 38.8984 302.666 37.2371 299.816C39.7732 297.872 41.8755 295.421 43.4096 292.618C46.3136 287.216 43.0315 282.476 38.8039 283.624C35.3462 284.569 34.5898 288.081 34.7519 291.848C34.8059 293.277 34.9412 294.702 35.1571 296.116L33.3742 292.983C31.8885 290.282 30.6729 287.581 29.2142 284.88C28.863 284.218 28.5524 283.53 28.2687 282.854C31.1143 281.421 33.6304 279.411 35.6569 276.953C39.5332 272.172 37.1966 266.919 32.8205 267.257C29.2547 267.54 27.8365 270.849 27.2423 274.576C27.0106 276.201 26.8664 277.838 26.81 279.478L25.5404 276.548C22.8363 269.9 20.6111 263.067 18.8817 256.102C22.1025 254.961 25.028 253.115 27.4449 250.7C31.7805 246.311 29.9841 240.869 25.5944 240.761C22.0287 240.679 20.2864 243.826 19.3139 247.513C18.8372 249.47 18.4809 251.454 18.2469 253.455C17.3014 249.457 16.491 245.406 15.8157 241.301C15.3564 238.789 15.0593 236.236 14.7486 233.698C18.2106 233.012 21.4713 231.548 24.2843 229.417C29.1467 225.635 28.0797 219.963 23.7305 219.329C20.2053 218.775 18.0713 221.679 16.6396 225.176C15.8013 227.382 15.0977 229.637 14.5325 231.928C14.2624 228.984 13.9518 226.027 13.8167 223.069C13.4115 216.963 13.4115 210.837 13.8167 204.73C13.2001 210.832 12.9881 216.967 13.1819 223.096C13.1819 225.919 13.425 228.728 13.6006 231.55C12.829 229.632 11.9264 227.768 10.8993 225.973C9.06237 222.88 6.60417 220.571 3.2005 221.922C-1.00005 223.65 -1.36472 229.457 3.90285 231.996C6.99236 233.415 10.3814 234.059 13.7762 233.873C14.0193 236.399 14.2354 238.91 14.6136 241.409C15.1403 245.46 15.8157 249.349 16.6126 253.279C15.7482 251.774 14.7872 250.326 13.7356 248.944C11.5071 246.122 8.77873 244.123 5.63169 245.946C1.70127 248.202 2.07946 254.049 7.63067 255.845C10.7719 256.821 14.0989 257.043 17.3419 256.493C18.8829 263.535 20.9092 270.461 23.4064 277.223L24.2033 279.249C23.4887 278.302 22.7174 277.4 21.8936 276.548C19.3949 273.955 16.491 272.24 13.479 274.387C9.79173 277.088 10.7777 282.76 16.4505 284.029C19.5812 284.663 22.8156 284.571 25.9051 283.759C26.1887 284.448 26.4724 285.11 26.81 285.812C28.1607 288.594 29.3628 291.443 30.781 294.171L31.956 296.534C31.2537 295.927 30.5243 295.346 29.768 294.806C26.8235 292.74 23.636 291.605 21.0967 294.266C17.9632 297.547 19.9892 303.003 25.8241 303.179C28.8617 303.25 31.8777 302.65 34.6574 301.423C36.3322 304.448 38.0475 307.433 39.9114 310.363C40.6003 311.484 41.2621 312.591 42.0455 313.699C40.9859 312.73 39.8672 311.828 38.6958 310.998C35.7514 308.932 32.5638 307.797 30.0111 310.458C26.8911 313.739 28.9171 319.195 34.7519 319.371C38.0868 319.411 41.3833 318.656 44.3686 317.169C45.3411 318.52 46.3406 319.87 47.3671 321.221C45.1925 323.746 45.9084 327.973 50.325 329.904C52.4701 330.798 54.7564 331.306 57.0783 331.403C57.3484 331.619 57.6186 331.835 57.9157 332.038L58.0508 332.146C60.8422 342.572 64.1513 352.844 67.9781 362.964C69.5989 367.271 71.3413 371.539 73.1377 375.779H56.9297V439.683H106.458V375.725H80.0936C77.838 370.796 75.6634 365.813 73.6374 360.776C70.3283 352.511 67.3298 344.111 64.7231 335.59C65.1666 335.72 65.6177 335.824 66.0737 335.9C66.6736 336.022 67.2888 336.049 67.8971 335.981L67.1948 331.538H66.722C66.4403 331.499 66.1608 331.445 65.8846 331.376C65.2607 331.197 64.6511 330.972 64.0612 330.701L63.3589 330.377C65.9656 329.469 68.3863 328.096 70.5039 326.326C75.1907 322.274 73.867 316.737 69.4909 316.265C65.9522 315.873 63.9532 318.871 62.7376 322.423C62.3729 323.436 62.0758 324.489 61.8191 325.515C61.5625 324.57 61.3059 323.625 61.0628 322.679C60.3469 319.884 59.7121 317.061 59.0638 314.239C61.8927 313.357 64.5218 311.93 66.8031 310.039C71.4899 305.988 70.1527 300.464 65.7901 299.992C62.2378 299.6 60.2524 302.598 59.0368 306.15C58.6721 307.176 58.3614 308.243 58.0913 309.296C57.6861 307.244 57.2944 305.177 56.9297 303.111C56.6731 301.585 56.43 300.046 56.2004 298.506C56.1193 296.318 56.0788 294.131 56.1058 291.929C56.1058 290.727 56.1058 289.526 56.2139 288.324C58.862 289.16 61.6393 289.513 64.4124 289.364C70.5714 288.958 72.8405 283.692 69.6259 280.707C67.0057 278.263 63.6155 279.478 60.4685 281.558C59.0572 282.517 57.7042 283.558 56.4165 284.677C56.7958 279.538 57.577 274.435 58.7531 269.417C59.4424 266.462 60.3038 263.549 61.3329 260.693C64.157 261.667 67.1429 262.084 70.1257 261.922C76.2847 261.531 78.5538 256.264 75.3392 253.266C72.7325 250.835 69.3288 252.037 66.1818 254.13C65.0832 254.885 64.028 255.701 63.0212 256.574C64.2089 253.781 65.5899 251.073 67.1542 248.472C70.2566 243.223 74.1468 238.481 78.6889 234.413C81.0427 236.584 83.8267 238.236 86.8604 239.261C92.7222 241.179 96.7877 237.128 94.9643 233.157C93.4381 229.93 89.8453 229.781 86.1445 230.551C84.7184 230.856 83.3113 231.243 81.9305 231.712L82.025 231.631C87.065 227.699 92.4962 224.296 98.2329 221.476C100.257 224.125 102.827 226.309 105.77 227.877C111.253 230.7 115.913 227.35 114.697 223.137C113.711 219.707 110.186 218.991 106.418 219.086C104.938 219.166 103.463 219.328 102.001 219.572C108.093 216.695 114.306 213.981 120.303 210.807H120.438C123.123 213.125 126.308 214.789 129.744 215.669C135.727 217.154 139.482 212.806 137.321 208.917C135.565 205.811 131.918 205.946 128.339 206.972C127.326 207.269 126.313 207.634 125.327 208.012C129.332 205.684 133.214 203.151 136.956 200.422L137.267 200.76V200.584C139.979 202.922 143.19 204.609 146.654 205.514C152.624 206.986 156.392 202.651 154.231 198.761C152.529 195.831 148.937 195.952 145.303 196.992ZM50.8653 319.357C49.6362 317.926 48.4746 316.427 47.3401 314.914C47.6102 314.671 47.9073 314.401 48.2045 314.104C49.8923 314.63 51.6391 314.943 53.4045 315.036V315.319L54.2284 315.144C54.6606 317.277 55.1064 319.398 55.5791 321.518C55.0302 320.8 54.3134 320.227 53.4915 319.85C52.6696 319.473 51.7679 319.304 50.8653 319.357ZM55.2684 268.512C54.8497 270.106 54.4986 271.699 54.1609 273.307L53.9583 273.023C53.9583 269.728 54.0078 266.442 54.1069 263.165C54.2014 260.869 54.3635 258.587 54.5661 256.291C55.6774 257.423 56.899 258.441 58.2129 259.329C57.0697 262.335 56.0913 265.4 55.2819 268.512H55.2684ZM60.8061 253.387C60.8872 252.793 60.9547 252.185 60.9817 251.591V250.686C61.468 250.538 61.9677 250.362 62.4539 250.16C61.9137 251.227 61.3464 252.307 60.8196 253.387H60.8061ZM67.8431 241.976C67.6097 241.442 67.2703 240.96 66.8455 240.561C66.4206 240.162 65.9191 239.853 65.3714 239.653C62.0352 238.303 59.3339 240.733 57.1864 243.84L57.0783 243.988H56.8622C56.6357 243.937 56.4053 243.905 56.1734 243.894C56.1574 243.704 56.1899 243.513 56.2679 243.34C57.1231 238.461 58.2778 233.64 59.7256 228.903C62.8262 229.297 65.9745 229.053 68.9776 228.188C70.8331 227.701 72.4468 226.553 73.5158 224.96C74.1103 227.683 75.2447 230.259 76.852 232.536C73.5292 235.362 70.514 238.531 67.8566 241.989L67.8431 241.976Z" fill="#68C5B2"/>
<path opacity="0.3" d="M145.303 196.992C142.727 197.833 140.198 198.811 137.726 199.923C139.077 198.937 140.428 197.91 141.778 196.871C147.792 192.035 153.515 186.849 158.918 181.34C152.578 187.499 145.807 193.198 138.658 198.397C139.644 196.685 140.51 194.907 141.251 193.076C142.602 189.713 142.845 186.323 139.644 184.527C135.687 182.313 130.905 185.621 132.161 191.28C132.928 194.439 134.422 197.375 136.524 199.855C131.859 203.084 126.986 206.003 121.937 208.593L121.464 208.836C122.532 206.987 123.475 205.07 124.287 203.096C125.557 199.747 125.881 196.344 122.666 194.561C118.709 192.333 113.928 195.655 115.197 201.314C115.951 204.43 117.411 207.332 119.465 209.794C113.401 212.779 107.134 215.318 100.894 218.073L99.9888 218.478C101.207 217.17 102.339 215.785 103.379 214.332C105.405 211.361 106.499 208.147 103.798 205.649C100.475 202.57 95.0318 204.676 94.9508 210.51C94.9544 213.73 95.7033 216.906 97.1389 219.788C91.2996 222.516 85.7516 225.828 80.5798 229.673L80.4177 229.808C81.1173 228.7 81.7575 227.555 82.3357 226.378C83.8619 223.124 84.4292 219.774 81.3497 217.735C80.7239 217.305 80.0087 217.022 79.2579 216.908C78.5071 216.794 77.7402 216.851 77.0148 217.076C76.2894 217.301 75.6244 217.687 75.0699 218.206C74.5153 218.725 74.0856 219.363 73.813 220.071C73.407 219.438 72.8561 218.91 72.2057 218.532C69.1127 216.749 66.0737 218.68 63.4669 221.408C62.7916 222.124 62.1163 222.894 61.5355 223.65C63.5464 218.07 66.0741 212.69 69.0857 207.58C71.9536 208.832 75.0461 209.489 78.1756 209.511C84.3346 209.511 86.9279 204.379 83.9024 201.192C81.4442 198.613 77.9865 199.598 74.7179 201.489C73.6416 202.117 72.6001 202.802 71.5979 203.542C74.729 198.827 78.2823 194.406 82.2141 190.334C84.7905 192.418 87.7844 193.924 90.9934 194.75C96.9768 196.222 100.732 191.887 98.5706 188.066C96.8147 184.96 93.1679 185.081 89.5887 186.121C87.8755 186.633 86.1972 187.256 84.5642 187.985C86.1985 186.391 87.8869 184.865 89.6022 183.352C91.8443 181.435 94.1674 179.585 96.5311 177.775C99.0724 179.803 102.014 181.271 105.162 182.083C111.145 183.555 114.9 179.22 112.739 175.398C110.983 172.292 107.336 172.414 103.744 173.454C102.906 173.697 102.055 173.994 101.231 174.304C104.351 172.076 107.512 169.902 110.686 167.741L113.617 165.729C116.258 167.941 119.358 169.537 122.693 170.402C128.677 171.874 132.445 167.539 130.284 163.717C128.515 160.611 124.881 160.732 121.289 161.772C119.875 162.204 118.484 162.704 117.115 163.271L118.925 161.921C120.033 161.124 121.14 160.314 122.221 159.463C123.571 158.45 124.854 157.329 126.165 156.249C126.921 155.655 127.637 155.02 128.353 154.372C131.004 156.607 134.125 158.218 137.483 159.085C143.467 160.557 147.221 156.222 145.06 152.4C143.304 149.294 139.658 149.415 136.078 150.455C134.071 151.075 132.104 151.82 130.19 152.684C132.634 150.415 134.998 148.051 137.24 145.594C137.389 145.418 137.524 145.243 137.686 145.08C138.645 144.014 139.59 142.933 140.509 141.812C141.427 140.691 142.616 139.219 143.615 137.869C147.719 132.482 151.098 126.58 153.664 120.313C150.975 126.505 147.483 132.317 143.277 137.599C139.118 142.903 134.474 147.808 129.406 152.251L128.852 152.724C130.004 150.764 131.023 148.729 131.905 146.634C133.188 143.284 133.499 139.881 130.284 138.099C126.34 135.87 121.545 139.192 122.815 144.851C123.63 148.201 125.259 151.3 127.556 153.872L126.367 154.898L125.016 156.06C124.233 156.694 123.423 157.302 122.612 157.91C122.18 158.234 121.761 158.572 121.262 158.896C120.114 159.746 118.952 160.57 117.777 161.381L116.089 162.528L114.171 163.879C115.292 161.966 116.276 159.976 117.115 157.923C118.398 154.561 118.709 151.171 115.508 149.388C111.55 147.16 106.756 150.482 108.025 156.141C108.808 159.391 110.36 162.406 112.55 164.932L111.199 165.851L105.945 169.294L104.905 169.969L101.974 171.928L100.705 172.778C99.354 173.71 98.0033 174.656 96.6526 175.628C97.7379 173.684 98.6857 171.667 99.489 169.591C100.84 166.242 101.083 162.839 97.8817 161.056C93.9243 158.828 89.143 162.15 90.4126 167.809C91.206 171.102 92.7916 174.153 95.0318 176.695C92.7357 178.383 90.4666 180.111 88.2785 181.921C86.6713 183.271 85.091 184.622 83.5377 186.08C84.2144 184.829 84.8187 183.539 85.3476 182.218C86.6172 178.855 86.9414 175.466 83.7268 173.683C79.7694 171.455 74.9881 174.777 76.2577 180.435C77.0115 183.552 78.4718 186.454 80.5258 188.916C76.1513 193.263 72.2112 198.025 68.7615 203.137C69.1532 201.663 69.4509 200.165 69.653 198.653C70.0852 195.088 69.5719 191.739 66.0197 190.766C61.6436 189.565 57.8077 193.94 60.4144 199.153C61.914 202.023 64.0593 204.505 66.6815 206.405C63.2792 211.961 60.4378 217.842 58.1994 223.961C58.1409 222.681 58.0147 221.405 57.8212 220.139C57.2134 216.587 55.7817 213.522 52.0944 213.589C47.5562 213.684 45.1115 218.991 49.0959 223.232C51.2209 225.447 53.8144 227.158 56.6866 228.242C55.1505 232.965 53.9012 237.777 52.9453 242.651C52.7832 243.421 52.6617 244.191 52.5131 244.96C52.351 245.109 52.1889 245.258 52.0404 245.42C51.8783 244.758 51.6892 244.069 51.4731 243.434C50.3385 240.031 48.4476 237.209 44.8143 237.857C40.3571 238.64 38.7499 244.231 43.3421 247.837C45.676 249.618 48.3663 250.876 51.23 251.524C51.23 251.659 51.338 251.78 51.4056 251.915C50.9058 255.575 50.5276 259.262 50.298 262.962C50.1224 265.663 50.0279 268.485 49.9738 271.254C46.111 271.254 43.3826 275.494 46.0434 280.086C47.1662 281.99 48.605 283.689 50.298 285.11C50.6222 290.309 51.1354 295.508 51.8243 300.667C51.278 300.162 50.6096 299.808 49.8849 299.64C49.1601 299.471 48.4041 299.495 47.6912 299.708C45.26 300.37 44.166 302.328 43.7743 304.732C42.9092 305.627 42.425 306.823 42.4237 308.067C40.6138 305.366 38.8984 302.666 37.2371 299.816C39.7732 297.872 41.8755 295.421 43.4096 292.618C46.3136 287.216 43.0315 282.476 38.8039 283.624C35.3462 284.569 34.5898 288.081 34.7519 291.848C34.8059 293.277 34.9412 294.702 35.1571 296.116L33.3742 292.983C31.8885 290.282 30.6729 287.581 29.2142 284.88C28.863 284.218 28.5524 283.53 28.2687 282.854C31.1143 281.421 33.6304 279.411 35.6569 276.953C39.5332 272.172 37.1966 266.919 32.8205 267.257C29.2547 267.54 27.8365 270.849 27.2423 274.576C27.0106 276.201 26.8664 277.838 26.81 279.478L25.5404 276.548C22.8363 269.9 20.6111 263.067 18.8817 256.102C22.1025 254.961 25.028 253.115 27.4449 250.7C31.7805 246.311 29.9841 240.869 25.5944 240.761C22.0287 240.679 20.2864 243.826 19.3139 247.513C18.8372 249.47 18.4809 251.454 18.2469 253.455C17.3014 249.457 16.491 245.406 15.8157 241.301C15.3564 238.789 15.0593 236.236 14.7486 233.698C18.2106 233.012 21.4713 231.548 24.2843 229.417C29.1467 225.635 28.0797 219.963 23.7305 219.329C20.2053 218.775 18.0713 221.679 16.6396 225.176C15.8013 227.382 15.0977 229.637 14.5325 231.928C14.2624 228.984 13.9518 226.027 13.8167 223.069C13.4115 216.963 13.4115 210.837 13.8167 204.73C13.2001 210.832 12.9881 216.967 13.1819 223.096C13.1819 225.919 13.425 228.728 13.6006 231.55C12.829 229.632 11.9264 227.768 10.8993 225.973C9.06237 222.88 6.60417 220.571 3.2005 221.922C-1.00005 223.65 -1.36472 229.457 3.90285 231.996C6.99236 233.415 10.3814 234.059 13.7762 233.873C14.0193 236.399 14.2354 238.91 14.6136 241.409C15.1403 245.46 15.8157 249.349 16.6126 253.279C15.7482 251.774 14.7872 250.326 13.7356 248.944C11.5071 246.122 8.77873 244.123 5.63169 245.946C1.70127 248.202 2.07946 254.049 7.63067 255.845C10.7719 256.821 14.0989 257.043 17.3419 256.493C18.8829 263.535 20.9092 270.461 23.4064 277.223L24.2033 279.249C23.4887 278.302 22.7174 277.4 21.8936 276.548C19.3949 273.955 16.491 272.24 13.479 274.387C9.79173 277.088 10.7777 282.76 16.4505 284.029C19.5812 284.663 22.8156 284.571 25.9051 283.759C26.1887 284.448 26.4724 285.11 26.81 285.812C28.1607 288.594 29.3628 291.443 30.781 294.171L31.956 296.534C31.2537 295.927 30.5243 295.346 29.768 294.806C26.8235 292.74 23.636 291.605 21.0967 294.266C17.9632 297.547 19.9892 303.003 25.8241 303.179C28.8617 303.25 31.8777 302.65 34.6574 301.423C36.3322 304.448 38.0475 307.433 39.9114 310.363C40.6003 311.484 41.2621 312.591 42.0455 313.699C40.9859 312.73 39.8672 311.828 38.6958 310.998C35.7514 308.932 32.5638 307.797 30.0111 310.458C26.8911 313.739 28.9171 319.195 34.7519 319.371C38.0868 319.411 41.3833 318.656 44.3686 317.169C45.3411 318.52 46.3406 319.87 47.3671 321.221C45.1925 323.746 45.9084 327.973 50.325 329.904C52.4701 330.798 54.7564 331.306 57.0783 331.403C57.3484 331.619 57.6186 331.835 57.9157 332.038L58.0508 332.146C60.8422 342.572 64.1513 352.844 67.9781 362.964C69.5989 367.271 71.3413 371.539 73.1377 375.779H56.9297V439.683H106.458V375.725H80.0936C77.838 370.796 75.6634 365.813 73.6374 360.776C70.3283 352.511 67.3298 344.111 64.7231 335.59C65.1666 335.72 65.6177 335.824 66.0737 335.9C66.6736 336.022 67.2888 336.049 67.8971 335.981L67.1948 331.538H66.722C66.4403 331.499 66.1608 331.445 65.8846 331.376C65.2607 331.197 64.6511 330.972 64.0612 330.701L63.3589 330.377C65.9656 329.469 68.3863 328.096 70.5039 326.326C75.1907 322.274 73.867 316.737 69.4909 316.265C65.9522 315.873 63.9532 318.871 62.7376 322.423C62.3729 323.436 62.0758 324.489 61.8191 325.515C61.5625 324.57 61.3059 323.625 61.0628 322.679C60.3469 319.884 59.7121 317.061 59.0638 314.239C61.8927 313.357 64.5218 311.93 66.8031 310.039C71.4899 305.988 70.1527 300.464 65.7901 299.992C62.2378 299.6 60.2524 302.598 59.0368 306.15C58.6721 307.176 58.3614 308.243 58.0913 309.296C57.6861 307.244 57.2944 305.177 56.9297 303.111C56.6731 301.585 56.43 300.046 56.2004 298.506C56.1193 296.318 56.0788 294.131 56.1058 291.929C56.1058 290.727 56.1058 289.526 56.2139 288.324C58.862 289.16 61.6393 289.513 64.4124 289.364C70.5714 288.958 72.8405 283.692 69.6259 280.707C67.0057 278.263 63.6155 279.478 60.4685 281.558C59.0572 282.517 57.7042 283.558 56.4165 284.677C56.7958 279.538 57.577 274.435 58.7531 269.417C59.4424 266.462 60.3038 263.549 61.3329 260.693C64.157 261.667 67.1429 262.084 70.1257 261.922C76.2847 261.531 78.5538 256.264 75.3392 253.266C72.7325 250.835 69.3288 252.037 66.1818 254.13C65.0832 254.885 64.028 255.701 63.0212 256.574C64.2089 253.781 65.5899 251.073 67.1542 248.472C70.2566 243.223 74.1468 238.481 78.6889 234.413C81.0427 236.584 83.8267 238.236 86.8604 239.261C92.7222 241.179 96.7877 237.128 94.9643 233.157C93.4381 229.93 89.8453 229.781 86.1445 230.551C84.7184 230.856 83.3113 231.243 81.9305 231.712L82.025 231.631C87.065 227.699 92.4962 224.296 98.2329 221.476C100.257 224.125 102.827 226.309 105.77 227.877C111.253 230.7 115.913 227.35 114.697 223.137C113.711 219.707 110.186 218.991 106.418 219.086C104.938 219.166 103.463 219.328 102.001 219.572C108.093 216.695 114.306 213.981 120.303 210.807H120.438C123.123 213.125 126.308 214.789 129.744 215.669C135.727 217.154 139.482 212.806 137.321 208.917C135.565 205.811 131.918 205.946 128.339 206.972C127.326 207.269 126.313 207.634 125.327 208.012C129.332 205.684 133.214 203.151 136.956 200.422L137.267 200.76V200.584C139.979 202.922 143.19 204.609 146.654 205.514C152.624 206.986 156.392 202.651 154.231 198.761C152.529 195.831 148.937 195.952 145.303 196.992ZM50.8653 319.357C49.6362 317.926 48.4746 316.427 47.3401 314.914C47.6102 314.671 47.9073 314.401 48.2045 314.104C49.8923 314.63 51.6391 314.943 53.4045 315.036V315.319L54.2284 315.144C54.6606 317.277 55.1064 319.398 55.5791 321.518C55.0302 320.8 54.3134 320.227 53.4915 319.85C52.6696 319.473 51.7679 319.304 50.8653 319.357ZM55.2684 268.512C54.8497 270.106 54.4986 271.699 54.1609 273.307L53.9583 273.023C53.9583 269.728 54.0078 266.442 54.1069 263.165C54.2014 260.869 54.3635 258.587 54.5661 256.291C55.6774 257.423 56.899 258.441 58.2129 259.329C57.0697 262.335 56.0913 265.4 55.2819 268.512H55.2684ZM60.8061 253.387C60.8872 252.793 60.9547 252.185 60.9817 251.591V250.686C61.468 250.538 61.9677 250.362 62.4539 250.16C61.9137 251.227 61.3464 252.307 60.8196 253.387H60.8061ZM67.8431 241.976C67.6097 241.442 67.2703 240.96 66.8455 240.561C66.4206 240.162 65.9191 239.853 65.3714 239.653C62.0352 238.303 59.3339 240.733 57.1864 243.84L57.0783 243.988H56.8622C56.6357 243.937 56.4053 243.905 56.1734 243.894C56.1574 243.704 56.1899 243.513 56.2679 243.34C57.1231 238.461 58.2778 233.64 59.7256 228.903C62.8262 229.297 65.9745 229.053 68.9776 228.188C70.8331 227.701 72.4468 226.553 73.5158 224.96C74.1103 227.683 75.2447 230.259 76.852 232.536C73.5292 235.362 70.514 238.531 67.8566 241.989L67.8431 241.976Z" fill="white"/>
<path d="M478.336 380.762C478.336 380.762 471.799 366.164 470.232 364.665C468.665 363.166 456.144 358.628 452.673 347.109C449.202 335.59 442.611 304.84 459.224 306.852C475.837 308.864 471.799 341.072 477.836 340.06C483.874 339.047 472.812 287.743 483.374 280.639C493.936 273.536 511.049 280.14 509.036 307.311C507.024 334.482 502.999 350.066 506.524 348.567C510.049 347.068 520.112 341.518 520.112 353.091C520.112 364.665 510.549 372.714 505.011 373.213C499.474 373.713 496.907 374.226 496.907 374.226V381.762L478.336 380.762Z" fill="#2E353A" stroke="#2E353A" stroke-linecap="round" stroke-linejoin="round"/>
<path d="M473.013 352.471C469.218 348.878 465.733 345.394 464.126 342.194C460.938 335.806 458.534 317.885 458.534 317.885" stroke="white" stroke-width="0.5" stroke-linecap="round" stroke-linejoin="round"/>
<path d="M452.875 326.636C455.388 337.102 455.739 344.989 463.329 354.172C467.381 359.142 478.106 363.355 479.308 367.744C480.383 373.025 481.19 378.357 481.725 383.72L487.722 384.125C487.722 384.125 488.938 373.727 485.507 366.313" stroke="white" stroke-width="0.5" stroke-linecap="round" stroke-linejoin="round"/>
<path d="M454.551 309.85C454.551 309.85 450.066 313.294 451.66 321.775" stroke="white" stroke-width="0.5" stroke-linecap="round" stroke-linejoin="round"/>
<path d="M483.278 340.735L480.901 344.584" stroke="white" stroke-width="0.5" stroke-linecap="round" stroke-linejoin="round"/>
<path d="M484.103 339.398L483.28 340.735" stroke="white" stroke-width="0.5" stroke-linecap="round" stroke-linejoin="round"/>
<path d="M492.086 281.895C492.086 281.895 482.901 281.504 482.901 290.282C482.901 297.696 485.17 323.003 484.684 334.577" stroke="white" stroke-width="0.5" stroke-linecap="round" stroke-linejoin="round"/>
<path d="M499.283 353.807C499.067 356.819 498.932 358.953 498.932 359.763C498.932 364.152 510.102 347.379 515.302 346.987C515.302 346.987 520.489 346.582 518.49 356.171C517.763 359.73 516.078 363.023 513.617 365.696C511.156 368.368 508.012 370.318 504.524 371.336C500.121 372.538 496.528 370.539 495.731 372.538C495.095 374.888 494.692 377.294 494.529 379.723" stroke="white" stroke-width="0.5" stroke-linecap="round" stroke-linejoin="round"/>
<path d="M501.89 290.228C502.585 293.124 502.911 296.096 502.863 299.073C502.863 308.418 501.08 330.458 499.891 345.34" stroke="white" stroke-width="0.5" stroke-linecap="round" stroke-linejoin="round"/>
<path d="M497.272 282.706C498.472 283.393 499.444 284.416 500.068 285.65" stroke="white" stroke-width="0.5" stroke-linecap="round" stroke-linejoin="round"/>
<path d="M490.775 351.376L490.491 356.967" stroke="white" stroke-width="0.5" stroke-linecap="round" stroke-linejoin="round"/>
<path d="M492.883 287.486C492.883 287.486 490.492 288.283 491.289 296.669C491.951 303.597 491.289 335.05 490.979 345.786" stroke="white" stroke-width="0.5" stroke-linecap="round" stroke-linejoin="round"/>
<path d="M518.045 349.378C514.62 355.787 509.133 360.854 502.472 363.76C491.667 368.149 491.288 366.151 491.288 370.513C491.288 374.875 490.883 382.896 490.883 382.896" stroke="white" stroke-width="0.5" stroke-linecap="round" stroke-linejoin="round"/>
<path d="M503.065 439.643H468.164L460.695 389.095H510.535L503.065 439.643Z" fill="#68C5B2" stroke="#2E353A" stroke-linecap="round" stroke-linejoin="round"/>
<path d="M514.818 381.127H456.415V394.659H514.818V381.127Z" fill="#68C5B2" stroke="#2E353A" stroke-linecap="round" stroke-linejoin="round"/>
<path d="M311.436 405.611V378.17H230.613V405.611C230.6 414.55 227.573 423.223 222.022 430.23L218.484 434.686H323.565L320.026 430.23C314.476 423.223 311.449 414.55 311.436 405.611Z" fill="white" stroke="#2E353A" stroke-linecap="round" stroke-linejoin="round"/>
<path d="M225.642 424.828H316.406C313.147 418.947 311.437 412.334 311.436 405.611V378.17H230.612V405.611C230.61 412.334 228.9 418.947 225.642 424.828Z" fill="#68C5B2"/>
<path d="M421.987 143.217H120.047C113.721 143.217 108.593 148.344 108.593 154.669V375.374C108.593 381.699 113.721 386.826 120.047 386.826H421.987C428.312 386.826 433.44 381.699 433.44 375.374V154.669C433.44 148.344 428.312 143.217 421.987 143.217Z" fill="#2E353A" stroke="#2E353A" stroke-linecap="round" stroke-linejoin="round"/>
<path d="M108.593 348.959H433.454V375.361C433.454 378.398 432.247 381.311 430.099 383.458C427.951 385.606 425.038 386.813 422 386.813H120.06C117.023 386.813 114.109 385.606 111.961 383.458C109.813 381.311 108.607 378.398 108.607 375.361V348.959H108.593Z" fill="white" stroke="#2E353A" stroke-linecap="round" stroke-linejoin="round"/>
<path d="M417.111 158.382H124.936V330.485H417.111V158.382Z" fill="white" stroke="#2E353A" stroke-linecap="round" stroke-linejoin="round"/>
<path d="M277.021 367.893C277.021 366.707 276.669 365.547 276.01 364.561C275.351 363.575 274.415 362.807 273.319 362.353C272.223 361.899 271.017 361.78 269.854 362.012C268.691 362.243 267.622 362.814 266.784 363.653C265.945 364.491 265.374 365.56 265.142 366.723C264.911 367.886 265.03 369.091 265.484 370.187C265.937 371.283 266.706 372.219 267.692 372.878C268.679 373.537 269.838 373.889 271.024 373.889C272.615 373.889 274.14 373.257 275.265 372.132C276.389 371.008 277.021 369.483 277.021 367.893Z" fill="#2E353A" stroke="#2E353A" stroke-linecap="round" stroke-linejoin="round"/>
<path d="M323.579 434.74H218.484V439.643H323.579V434.74Z" fill="white" stroke="#2E353A" stroke-linecap="round" stroke-linejoin="round"/>
<path d="M414.369 170.51H127.232V185.594H414.369V170.51Z" fill="white" stroke="#2E353A" stroke-linecap="round" stroke-linejoin="round"/>
<path d="M174.614 185.594L171.169 176.276H127.232V185.594V197.951V323.152H414.369V185.594H174.614Z" fill="#68C5B2" stroke="#2E353A" stroke-linecap="round" stroke-linejoin="round"/>
<path d="M204.516 253.806H339.15" stroke="#2E353A" stroke-width="2" stroke-linecap="round" stroke-linejoin="round"/>
<path d="M204.516 267.04H339.15" stroke="#2E353A" stroke-width="2" stroke-linecap="round" stroke-linejoin="round"/>
<path d="M204.516 280.275H339.15" stroke="#2E353A" stroke-width="2" stroke-linecap="round" stroke-linejoin="round"/>
<path d="M204.516 293.523H339.15" stroke="#2E353A" stroke-width="2" stroke-linecap="round" stroke-linejoin="round"/>
<path d="M332.032 218.518H210.027C208.771 218.52 207.527 218.275 206.367 217.796C205.206 217.317 204.151 216.614 203.261 215.728C202.372 214.841 201.666 213.788 201.184 212.629C200.702 211.469 200.453 210.226 200.451 208.971C200.449 207.715 200.695 206.471 201.174 205.311C201.653 204.15 202.355 203.095 203.242 202.206C204.129 201.317 205.182 200.611 206.342 200.129C207.501 199.647 208.744 199.398 210 199.396H332.032C333.29 199.394 334.536 199.641 335.699 200.121C336.862 200.602 337.918 201.307 338.808 202.196C339.697 203.086 340.402 204.142 340.883 205.304C341.364 206.467 341.61 207.713 341.608 208.971C341.607 210.226 341.357 211.469 340.875 212.629C340.393 213.788 339.687 214.841 338.798 215.728C337.909 216.614 336.854 217.317 335.693 217.796C334.532 218.275 333.288 218.52 332.032 218.518Z" fill="white" stroke="#2E353A" stroke-linecap="round" stroke-linejoin="round"/>
<path d="M332.032 218.518H315.365V199.369H332.032C333.29 199.367 334.536 199.614 335.699 200.094C336.861 200.575 337.918 201.28 338.807 202.169C339.697 203.059 340.402 204.115 340.883 205.277C341.364 206.44 341.61 207.686 341.608 208.944C341.61 210.202 341.364 211.447 340.883 212.61C340.402 213.772 339.697 214.829 338.807 215.718C337.918 216.607 336.861 217.313 335.699 217.793C334.536 218.274 333.29 218.52 332.032 218.518Z" fill="#2E353A" stroke="#2E353A" stroke-linecap="round" stroke-linejoin="round"/>
<path d="M328.318 201.8C327.524 201.056 326.528 200.565 325.455 200.388C324.382 200.211 323.281 200.355 322.29 200.804C321.3 201.253 320.465 201.986 319.891 202.909C319.316 203.832 319.029 204.905 319.065 205.992C319.101 207.079 319.459 208.13 320.092 209.014C320.726 209.898 321.608 210.573 322.626 210.956C323.644 211.338 324.752 211.41 325.811 211.163C326.87 210.915 327.832 210.359 328.574 209.565C329.069 209.041 329.456 208.424 329.711 207.75C329.967 207.076 330.087 206.359 330.065 205.638C330.042 204.918 329.877 204.209 329.58 203.553C329.282 202.896 328.858 202.305 328.331 201.813L328.318 201.8ZM327.778 208.822C327.181 209.455 326.41 209.897 325.563 210.093C324.715 210.288 323.829 210.229 323.015 209.921C322.201 209.613 321.497 209.072 320.991 208.364C320.485 207.657 320.2 206.815 320.172 205.946C320.144 205.077 320.373 204.219 320.833 203.48C321.292 202.741 321.959 202.155 322.751 201.795C323.543 201.435 324.424 201.318 325.282 201.458C326.141 201.598 326.939 201.99 327.575 202.583C328.429 203.384 328.93 204.491 328.968 205.66C329.006 206.83 328.578 207.968 327.778 208.822Z" fill="white"/>
<path d="M332.451 211.564C332.33 211.446 332.178 211.365 332.013 211.332C331.847 211.298 331.676 211.313 331.519 211.374L329.533 209.511C329.432 209.412 329.296 209.356 329.155 209.356C329.014 209.356 328.878 209.412 328.777 209.511L328.601 209.7C328.504 209.805 328.451 209.942 328.451 210.085C328.451 210.227 328.504 210.365 328.601 210.47L330.56 212.306C330.502 212.473 330.493 212.654 330.533 212.826C330.574 212.998 330.663 213.155 330.789 213.279L334.166 216.587C334.389 216.808 334.69 216.932 335.003 216.932C335.317 216.932 335.618 216.808 335.841 216.587C336.062 216.365 336.186 216.064 336.186 215.75C336.186 215.436 336.062 215.135 335.841 214.913L332.451 211.564Z" fill="white"/>
<path d="M367.322 276.278C367.717 277.256 368.304 278.145 369.049 278.892C369.793 279.639 370.681 280.229 371.658 280.626C373.184 281.247 375.224 281.112 377.574 282.436C382.882 285.42 396.132 282.76 405.735 283.786C415.338 284.812 428.277 274.184 428.277 274.184L466.38 276.278V238.465C466.38 238.465 426.616 240.126 417.999 236.804C409.382 233.481 399.779 226.54 395.47 226.864C391.161 227.188 355.707 231.172 355.707 231.172L367.309 276.278H367.322Z" fill="white" stroke="#2E353A" stroke-linecap="round" stroke-linejoin="round"/>
<path d="M357.463 123.811C349.596 124.681 342.163 127.865 336.106 132.959C330.048 138.053 325.638 144.829 323.432 152.429C321.226 160.03 321.323 168.114 323.712 175.659C326.101 183.204 330.674 189.871 336.853 194.817C343.031 199.764 350.538 202.767 358.424 203.448C366.31 204.128 374.221 202.455 381.156 198.641C388.091 194.826 393.739 189.041 397.386 182.017C401.032 174.993 402.514 167.045 401.643 159.179C401.068 153.955 399.469 148.895 396.937 144.29C394.405 139.684 390.989 135.622 386.886 132.338C382.783 129.053 378.072 126.609 373.023 125.146C367.975 123.683 362.687 123.229 357.463 123.811ZM365.405 195.493C359.094 196.194 352.717 195.008 347.08 192.085C341.443 189.163 336.799 184.634 333.737 179.073C330.674 173.512 329.329 167.167 329.872 160.841C330.416 154.516 332.823 148.494 336.79 143.536C340.757 138.578 346.104 134.908 352.157 132.989C358.21 131.071 364.696 130.99 370.795 132.757C376.894 134.524 382.332 138.059 386.421 142.916C390.51 147.773 393.067 153.733 393.769 160.043C394.234 164.233 393.87 168.474 392.697 172.523C391.523 176.572 389.564 180.35 386.93 183.642C384.296 186.934 381.039 189.675 377.346 191.708C373.653 193.741 369.595 195.028 365.405 195.493Z" fill="white" stroke="#2E353A" stroke-linecap="round" stroke-linejoin="round"/>
<path d="M357.247 121.529C349.38 122.399 341.947 125.583 335.89 130.677C329.832 135.771 325.422 142.547 323.216 150.147C321.01 157.748 321.107 165.832 323.496 173.377C325.885 180.922 330.458 187.589 336.637 192.535C342.815 197.482 350.322 200.485 358.208 201.166C366.094 201.846 374.005 200.173 380.94 196.359C387.875 192.544 393.523 186.759 397.17 179.735C400.816 172.711 402.298 164.763 401.427 156.897C400.256 146.351 394.944 136.701 386.659 130.069C378.375 123.436 367.796 120.365 357.247 121.529ZM365.189 193.211C358.878 193.912 352.501 192.726 346.864 189.803C341.227 186.881 336.583 182.352 333.521 176.791C330.458 171.229 329.113 164.885 329.656 158.559C330.2 152.234 332.607 146.211 336.574 141.254C340.54 136.296 345.888 132.626 351.941 130.707C357.994 128.789 364.48 128.708 370.579 130.475C376.678 132.241 382.116 135.777 386.205 140.634C390.294 145.491 392.851 151.451 393.553 157.761C394.018 161.951 393.654 166.192 392.48 170.241C391.307 174.29 389.348 178.068 386.714 181.36C384.08 184.652 380.823 187.392 377.13 189.426C373.437 191.459 369.379 192.745 365.189 193.211Z" fill="white" stroke="#2E353A" stroke-linecap="round" stroke-linejoin="round"/>
<path d="M367.372 201.814L365.479 202.023C363.344 202.26 361.805 204.182 362.041 206.317L365.113 234.048C365.349 236.183 367.272 237.722 369.407 237.486L371.3 237.276C373.435 237.039 374.975 235.117 374.738 232.982L371.666 205.251C371.43 203.116 369.507 201.577 367.372 201.814Z" fill="#68C5B2" stroke="#2E353A" stroke-linecap="round" stroke-linejoin="round"/>
<path d="M366.756 224.96L370.808 224.528C372.55 224.342 374.296 224.849 375.666 225.942C377.037 227.034 377.921 228.622 378.128 230.362L384.193 285.204C384.439 287.446 383.785 289.694 382.374 291.454C380.964 293.214 378.912 294.342 376.67 294.59H376.399C375.289 294.714 374.165 294.617 373.091 294.306C372.018 293.995 371.017 293.475 370.145 292.776C369.273 292.077 368.547 291.213 368.01 290.234C367.472 289.254 367.133 288.178 367.012 287.068L360.948 232.239C360.85 231.371 360.925 230.492 361.167 229.652C361.41 228.813 361.816 228.03 362.362 227.347C362.907 226.665 363.582 226.097 364.348 225.676C365.113 225.254 365.955 224.988 366.823 224.893L366.756 224.96Z" fill="#2E353A" stroke="#2E353A" stroke-linecap="round" stroke-linejoin="round"/>
<path d="M372.644 270.66C372.644 270.66 363.041 271.011 361.69 272.672C360.339 274.333 360.582 280.113 363.189 280.775C369.834 282.517 383.962 281.504 384.516 280.315C385.07 279.127 386.204 272.213 383.287 271.47C379.765 270.93 376.207 270.659 372.644 270.66Z" fill="white" stroke="#2E353A" stroke-linecap="round" stroke-linejoin="round"/>
<path d="M369.875 257.263C369.875 257.263 358.705 256.844 356.963 258.857C355.221 260.869 354.883 268.391 357.828 269.525C365.337 272.402 382.234 271.281 383.004 269.795C383.774 268.31 385.449 260.599 382.139 259.356C378.83 258.114 369.875 257.263 369.875 257.263Z" fill="white" stroke="#2E353A" stroke-linecap="round" stroke-linejoin="round"/>
<path d="M368.269 242.138C368.269 242.138 356.329 241.679 354.465 243.84C352.602 246 352.237 254.022 355.384 255.237C363.488 258.317 381.046 258.316 381.87 256.723C382.694 255.129 384.909 245.703 381.371 244.366C377.832 243.029 368.269 242.138 368.269 242.138Z" fill="white" stroke="#2E353A" stroke-linecap="round" stroke-linejoin="round"/>
<path d="M361.38 227.985C361.38 227.985 349.44 227.539 347.576 229.687C345.712 231.834 345.267 240.112 348.495 241.085C351.723 242.057 374.157 244.164 374.981 242.584C375.805 241.004 378.02 231.55 374.481 230.213C370.943 228.876 361.38 227.985 361.38 227.985Z" fill="white" stroke="#2E353A" stroke-linecap="round" stroke-linejoin="round"/>
<path d="M400.482 267.702C398.339 267.113 396.308 266.173 394.471 264.92C384.868 258.29 385.192 243.056 385.192 243.056L382.883 242.395C380.975 241.669 379.186 240.663 377.575 239.41C378.348 242.557 378.801 245.774 378.925 249.012C378.891 250.791 378.195 252.494 376.975 253.79C375.754 255.085 374.095 255.88 372.321 256.021C369.336 256.358 368.012 256.682 367.012 252.712C366.013 248.742 361.056 232.833 360.718 230.511C360.421 228.404 363.96 224.65 369.592 223.758C378.25 224.461 386.786 226.878 395.511 226.878C398.547 227.163 401.457 228.233 403.953 229.984" fill="white"/>
<path d="M400.482 267.702C398.339 267.113 396.308 266.173 394.471 264.92C384.868 258.29 385.192 243.056 385.192 243.056L382.883 242.395C380.975 241.669 379.186 240.663 377.575 239.41C378.348 242.557 378.801 245.774 378.925 249.012C378.891 250.791 378.195 252.494 376.975 253.79C375.754 255.085 374.095 255.88 372.321 256.021C369.336 256.358 368.012 256.682 367.012 252.712C366.013 248.742 361.056 232.833 360.718 230.511C360.421 228.404 363.96 224.65 369.592 223.758C378.25 224.461 386.786 226.878 395.511 226.878C398.547 227.163 401.457 228.233 403.953 229.984" stroke="#2E353A" stroke-linecap="round" stroke-linejoin="round"/>
<path d="M409.612 268.539C408.559 268.593 407.504 268.593 406.452 268.539H409.612Z" fill="white"/>
<path d="M409.612 268.539C408.559 268.593 407.504 268.593 406.452 268.539" stroke="#2E353A" stroke-linecap="round" stroke-linejoin="round"/>
<path d="M416.676 267.229C414.382 267.955 412.011 268.408 409.612 268.58L416.676 267.229Z" fill="white"/>
<path d="M416.676 267.229C414.382 267.955 412.011 268.408 409.612 268.58" stroke="#2E353A" stroke-linecap="round" stroke-linejoin="round"/>
<path d="M428.603 262.935H440.529" stroke="#2E353A" stroke-linecap="round" stroke-linejoin="round"/>
<path d="M429.603 266.244H434.573" stroke="#2E353A" stroke-linecap="round" stroke-linejoin="round"/>
<path d="M385.192 243.056C385.192 243.056 391.783 243.056 396.105 239.126" stroke="#2E353A" stroke-linecap="round" stroke-linejoin="round"/>
<path d="M377.426 238.978C377.236 237.179 376.86 235.405 376.305 233.684" stroke="#2E353A" stroke-linecap="round" stroke-linejoin="round"/>
<path d="M366.918 250.97C366.918 250.97 365.662 247.486 367.188 246.23C368.714 244.974 372.766 243.164 373.469 244.555C374.171 245.946 375.697 252.361 375.279 253.617L374.86 254.873" stroke="#2E353A" stroke-width="0.5" stroke-linecap="round" stroke-linejoin="round"/>
<path d="M550 293.226H435.801V237.101H550" fill="#68C5B2"/>
<path d="M550 293.226H435.801V237.101H550" stroke="#2E353A" stroke-linecap="round" stroke-linejoin="round"/>
<path d="M444.176 289.472C445.593 289.472 446.742 288.323 446.742 286.906C446.742 285.489 445.593 284.34 444.176 284.34C442.759 284.34 441.61 285.489 441.61 286.906C441.61 288.323 442.759 289.472 444.176 289.472Z" fill="white" stroke="#2E353A" stroke-linecap="round" stroke-linejoin="round"/>
<path d="M262.687 183.65C263.665 183.255 264.554 182.668 265.301 181.923C266.049 181.179 266.638 180.292 267.036 179.315C267.657 177.789 267.509 175.763 268.846 173.4C271.817 168.106 269.17 154.858 270.196 145.243C271.223 135.627 260.58 122.717 260.58 122.717L262.646 84.6204H224.828C224.828 84.6204 226.476 124.378 223.167 132.98C219.857 141.583 212.902 151.212 213.226 155.52C213.55 159.827 217.561 195.25 217.561 195.25L262.619 183.65H262.687Z" fill="white" stroke="#2E353A" stroke-linecap="round" stroke-linejoin="round"/>
<path d="M110.293 193.481C111.158 201.348 114.337 208.782 119.427 214.842C124.518 220.903 131.292 225.318 138.892 227.529C146.492 229.74 154.577 229.648 162.125 227.265C169.673 224.881 176.345 220.313 181.297 214.138C186.248 207.964 189.257 200.46 189.943 192.575C190.629 184.691 188.96 176.78 185.15 169.843C181.339 162.906 175.556 157.256 168.533 153.605C161.51 149.954 153.562 148.468 145.694 149.334H145.599C135.067 150.519 125.435 155.832 118.816 164.108C112.197 172.384 109.132 182.948 110.293 193.481ZM181.878 185.527C182.581 191.839 181.397 198.218 178.474 203.857C175.552 209.497 171.023 214.143 165.459 217.208C159.896 220.274 153.548 221.621 147.219 221.08C140.89 220.539 134.863 218.133 129.902 214.167C124.94 210.201 121.266 204.854 119.343 198.8C117.421 192.746 117.338 186.259 119.103 180.157C120.869 174.056 124.404 168.616 129.262 164.523C134.12 160.431 140.083 157.871 146.396 157.167C154.862 156.226 163.355 158.685 170.008 164.003C176.662 169.321 180.931 177.063 181.878 185.527Z" fill="white" stroke="#2E353A" stroke-linecap="round" stroke-linejoin="round"/>
<path d="M107.957 193.724C108.83 201.586 112.014 209.013 117.108 215.065C122.202 221.117 128.977 225.524 136.575 227.727C144.173 229.931 152.254 229.832 159.796 227.444C167.339 225.056 174.004 220.486 178.948 214.311C183.893 208.136 186.896 200.634 187.577 192.753C188.258 184.872 186.587 176.966 182.774 170.035C178.962 163.104 173.18 157.458 166.159 153.812C159.138 150.166 151.194 148.683 143.33 149.55C138.106 150.127 133.047 151.727 128.441 154.259C123.836 156.792 119.774 160.206 116.489 164.309C113.204 168.411 110.76 173.12 109.296 178.168C107.832 183.215 107.376 188.501 107.957 193.724ZM179.65 185.797C180.351 192.107 179.165 198.483 176.241 204.119C173.318 209.755 168.789 214.398 163.227 217.46C157.665 220.523 151.319 221.867 144.993 221.324C138.666 220.78 132.643 218.373 127.685 214.407C122.726 210.441 119.056 205.094 117.137 199.042C115.218 192.99 115.137 186.505 116.904 180.407C118.671 174.309 122.207 168.872 127.065 164.784C131.923 160.695 137.884 158.138 144.195 157.437C148.385 156.972 152.626 157.336 156.676 158.509C160.725 159.682 164.504 161.642 167.797 164.275C171.089 166.908 173.83 170.164 175.864 173.857C177.898 177.55 179.184 181.607 179.65 185.797Z" fill="white" stroke="#2E353A" stroke-linecap="round" stroke-linejoin="round"/>
<path d="M219.434 176.257L191.699 179.328C189.564 179.565 188.024 181.487 188.261 183.622L188.471 185.515C188.707 187.65 190.63 189.189 192.765 188.952L220.5 185.881C222.635 185.644 224.175 183.722 223.938 181.587L223.729 179.694C223.492 177.559 221.569 176.02 219.434 176.257Z" fill="#68C5B2" stroke="#2E353A" stroke-linecap="round" stroke-linejoin="round"/>
<path d="M211.403 184.23L210.958 180.179C210.764 178.424 211.276 176.664 212.381 175.286C213.485 173.909 215.091 173.026 216.847 172.832L271.683 166.769C272.799 166.639 273.928 166.731 275.008 167.039C276.088 167.348 277.096 167.866 277.974 168.565C278.853 169.264 279.584 170.13 280.127 171.112C280.67 172.095 281.014 173.175 281.138 174.291V174.561C281.268 175.676 281.176 176.806 280.867 177.885C280.559 178.965 280.04 179.972 279.341 180.851C278.642 181.729 277.776 182.461 276.794 183.004C275.811 183.547 274.731 183.89 273.615 184.014L218.778 190.078C217.025 190.275 215.266 189.771 213.884 188.676C212.502 187.58 211.61 185.982 211.403 184.23Z" fill="#2E353A" stroke="#2E353A" stroke-linecap="round" stroke-linejoin="round"/>
<path d="M257.094 178.342C257.094 178.342 257.459 187.931 259.107 189.281C260.755 190.632 266.562 190.388 267.211 187.782C268.967 181.151 267.94 167.012 266.751 166.472C265.563 165.932 258.647 164.77 257.918 167.701C257.374 171.222 257.098 174.779 257.094 178.342Z" fill="white" stroke="#2E353A" stroke-linecap="round" stroke-linejoin="round"/>
<path d="M243.711 181.097C243.711 181.097 243.278 192.265 245.291 194.008C247.303 195.75 254.826 196.101 255.961 193.143C258.851 185.635 257.717 168.74 256.231 167.984C254.745 167.228 247.033 165.54 245.791 168.849C244.548 172.157 243.711 181.097 243.711 181.097Z" fill="white" stroke="#2E353A" stroke-linecap="round" stroke-linejoin="round"/>
<path d="M228.582 182.731C228.582 182.731 228.123 194.669 230.271 196.533C232.418 198.397 240.468 198.761 241.684 195.601C244.763 187.579 244.763 169.942 243.17 169.132C241.576 168.322 232.135 166.094 230.811 169.632C229.487 173.17 228.582 182.731 228.582 182.731Z" fill="white" stroke="#2E353A" stroke-linecap="round" stroke-linejoin="round"/>
<path d="M214.428 189.605C214.428 189.605 213.969 201.543 216.13 203.407C218.291 205.27 226.557 205.716 227.529 202.475C228.502 199.234 230.609 176.816 229.015 175.993C227.421 175.169 217.994 172.967 216.656 176.506C215.319 180.044 214.428 189.605 214.428 189.605Z" fill="white" stroke="#2E353A" stroke-linecap="round" stroke-linejoin="round"/>
<path d="M254.976 141.34C255.527 146.659 254.25 152.008 251.356 156.505C244.738 166.121 229.489 165.783 229.489 165.783L228.827 168.106C228.107 170.012 227.1 171.797 225.842 173.4C228.994 172.626 232.216 172.174 235.459 172.049C237.233 172.101 238.925 172.806 240.209 174.031C241.493 175.255 242.279 176.911 242.415 178.68C242.753 181.664 243.077 182.988 239.106 183.974C235.135 184.959 219.224 189.943 216.901 190.28C214.794 190.577 211.039 187.039 210.148 181.408C210.863 172.751 213.281 164.203 213.281 155.492C213.564 152.452 214.635 149.539 216.388 147.039" fill="white"/>
<path d="M254.976 141.34C255.527 146.659 254.25 152.008 251.356 156.505C244.738 166.121 229.489 165.783 229.489 165.783L228.827 168.106C228.107 170.012 227.1 171.797 225.842 173.4C228.994 172.626 232.216 172.174 235.459 172.049C237.233 172.101 238.925 172.806 240.209 174.031C241.493 175.255 242.279 176.911 242.415 178.68C242.753 181.664 243.077 182.988 239.106 183.974C235.135 184.959 219.224 189.943 216.901 190.28C214.794 190.577 211.039 187.039 210.148 181.408C210.863 172.751 213.281 164.203 213.281 155.492C213.564 152.452 214.635 149.539 216.388 147.039" stroke="#2E353A" stroke-linecap="round" stroke-linejoin="round"/>
<path d="M253.679 134.317C254.079 135.581 254.386 136.871 254.598 138.18L253.679 134.317Z" fill="white"/>
<path d="M253.679 134.317C254.079 135.581 254.386 136.871 254.598 138.18" stroke="#2E353A" stroke-linecap="round" stroke-linejoin="round"/>
<path d="M249.37 122.379V110.455" stroke="#2E353A" stroke-linecap="round" stroke-linejoin="round"/>
<path d="M252.679 121.393V116.424" stroke="#2E353A" stroke-linecap="round" stroke-linejoin="round"/>
<path d="M229.488 165.783C229.488 165.783 229.488 159.193 225.557 154.871" stroke="#2E353A" stroke-linecap="round" stroke-linejoin="round"/>
<path d="M225.422 173.562C223.624 173.747 221.85 174.118 220.128 174.669" stroke="#2E353A" stroke-linecap="round" stroke-linejoin="round"/>
<path d="M237.415 184.014C237.415 184.014 233.93 185.27 232.674 183.731C231.418 182.191 229.608 178.153 230.999 177.464C232.391 176.776 238.806 175.236 240.062 175.655L241.318 176.06" stroke="#2E353A" stroke-width="0.5" stroke-linecap="round" stroke-linejoin="round"/>
<path d="M279.679 1V115.181H223.532V1" fill="#68C5B2"/>
<path d="M279.679 1V115.181H223.532V1" stroke="#2E353A" stroke-linecap="round" stroke-linejoin="round"/>
<path d="M273.344 109.374C274.761 109.374 275.91 108.226 275.91 106.808C275.91 105.391 274.761 104.243 273.344 104.243C271.927 104.243 270.778 105.391 270.778 106.808C270.778 108.226 271.927 109.374 273.344 109.374Z" fill="white" stroke="#2E353A" stroke-linecap="round" stroke-linejoin="round"/>
<path d="M206.188 387.015C205.796 387.995 205.209 388.885 204.464 389.632C203.719 390.379 202.831 390.968 201.852 391.364C200.326 391.998 198.3 391.85 195.937 393.173C190.642 396.158 177.392 393.511 167.775 394.524C158.159 395.537 145.246 384.922 145.246 384.922L107.104 387.015V349.202C107.104 349.202 146.867 350.863 155.484 347.555C164.101 344.246 173.705 337.278 178.013 337.615C182.322 337.953 217.777 341.923 217.777 341.923L206.188 387.015Z" fill="white" stroke="#2E353A" stroke-linecap="round" stroke-linejoin="round"/>
<path d="M215.98 234.63C223.847 235.5 231.279 238.684 237.337 243.778C243.395 248.872 247.805 255.648 250.011 263.248C252.217 270.849 252.12 278.933 249.731 286.478C247.342 294.023 242.769 300.69 236.59 305.636C230.411 310.583 222.904 313.586 215.019 314.267C207.133 314.947 199.222 313.274 192.287 309.46C185.352 305.645 179.704 299.86 176.057 292.836C172.411 285.812 170.929 277.864 171.8 269.998C172.968 259.454 178.277 249.805 186.56 243.175C194.843 236.544 205.421 233.475 215.967 234.643L215.98 234.63ZM208.038 306.312C214.351 307.015 220.731 305.831 226.372 302.909C232.012 299.987 236.659 295.458 239.725 289.896C242.791 284.333 244.138 277.987 243.597 271.658C243.055 265.33 240.649 259.304 236.683 254.343C232.717 249.382 227.368 245.709 221.313 243.787C215.259 241.865 208.77 241.782 202.668 243.547C196.566 245.312 191.125 248.847 187.032 253.704C182.939 258.561 180.379 264.523 179.674 270.835C178.734 279.3 181.193 287.792 186.511 294.444C191.83 301.097 199.573 305.365 208.038 306.312Z" fill="white" stroke="#2E353A" stroke-linecap="round" stroke-linejoin="round"/>
<path d="M216.225 232.347C224.088 233.22 231.516 236.405 237.57 241.499C243.623 246.593 248.03 253.367 250.233 260.965C252.436 268.563 252.336 276.644 249.946 284.185C247.557 291.726 242.984 298.39 236.807 303.333C230.63 308.276 223.126 311.277 215.243 311.956C207.36 312.635 199.453 310.962 192.521 307.149C185.59 303.335 179.944 297.552 176.3 290.53C172.655 283.509 171.174 275.565 172.045 267.702C172.623 262.48 174.224 257.423 176.758 252.819C179.291 248.216 182.707 244.157 186.809 240.874C190.912 237.59 195.622 235.148 200.669 233.685C205.716 232.222 211.002 231.767 216.225 232.347ZM208.283 304.029C214.596 304.733 220.976 303.549 226.616 300.627C232.256 297.705 236.903 293.176 239.969 287.613C243.035 282.051 244.383 275.704 243.841 269.376C243.3 263.048 240.894 257.022 236.928 252.061C232.961 247.1 227.613 243.426 221.558 241.505C215.503 239.583 209.015 239.499 202.913 241.264C196.811 243.03 191.369 246.564 187.276 251.422C183.184 256.279 180.623 262.241 179.919 268.553C178.982 277.014 181.444 285.501 186.762 292.148C192.081 298.795 199.821 303.059 208.283 304.002V304.029Z" fill="white" stroke="#2E353A" stroke-linecap="round" stroke-linejoin="round"/>
<path d="M201.796 316.071L198.725 343.802C198.488 345.937 200.027 347.859 202.163 348.096L204.056 348.305C206.191 348.542 208.114 347.003 208.35 344.868L211.422 317.137C211.658 315.002 210.119 313.08 207.984 312.843L206.091 312.633C203.956 312.397 202.033 313.936 201.796 316.071Z" fill="#68C5B2" stroke="#2E353A" stroke-linecap="round" stroke-linejoin="round"/>
<path d="M197.1 405.462H196.83C195.713 405.34 194.632 404.998 193.648 404.455C192.664 403.913 191.798 403.182 191.099 402.303C190.399 401.424 189.881 400.415 189.573 399.335C189.266 398.255 189.175 397.125 189.306 396.009L195.371 341.181C195.465 340.311 195.73 339.468 196.15 338.701C196.571 337.934 197.139 337.258 197.822 336.711C198.504 336.164 199.288 335.757 200.129 335.514C200.969 335.27 201.849 335.195 202.718 335.293L206.77 335.738C208.526 335.932 210.132 336.815 211.236 338.192C212.341 339.57 212.853 341.33 212.659 343.085L206.595 397.981C206.469 399.096 206.124 400.175 205.581 401.157C205.037 402.139 204.306 403.004 203.428 403.702C202.549 404.401 201.542 404.92 200.463 405.229C199.384 405.538 198.255 405.631 197.14 405.503L197.1 405.462Z" fill="#2E353A" stroke="#2E353A" stroke-linecap="round" stroke-linejoin="round"/>
<path d="M200.787 381.465C200.787 381.465 210.376 381.829 211.727 383.477C213.078 385.125 212.835 390.918 210.228 391.58C203.596 393.335 189.455 392.309 188.914 391.121C188.374 389.932 187.213 383.018 190.144 382.275C193.666 381.735 197.224 381.465 200.787 381.465Z" fill="white" stroke="#2E353A" stroke-linecap="round" stroke-linejoin="round"/>
<path d="M203.596 368.109C203.596 368.109 214.766 367.677 216.508 369.689C218.251 371.701 218.602 379.223 215.644 380.357C208.134 383.234 191.237 382.113 190.481 380.627C189.725 379.142 188.036 371.431 191.345 370.188C194.655 368.946 203.596 368.109 203.596 368.109Z" fill="white" stroke="#2E353A" stroke-linecap="round" stroke-linejoin="round"/>
<path d="M205.23 352.943C205.23 352.943 217.17 352.497 219.034 354.645C220.898 356.792 221.263 364.841 218.116 366.043C210.012 369.135 192.453 369.122 191.629 367.542C190.805 365.962 188.59 356.508 192.129 355.171C195.668 353.834 205.23 352.943 205.23 352.943Z" fill="white" stroke="#2E353A" stroke-linecap="round" stroke-linejoin="round"/>
<path d="M212.105 338.804C212.105 338.804 224.045 338.345 225.909 340.492C227.772 342.639 228.218 350.931 224.977 351.903C221.735 352.876 199.314 354.969 198.49 353.389C197.666 351.809 195.465 342.356 199.003 341.032C202.542 339.709 212.105 338.804 212.105 338.804Z" fill="white" stroke="#2E353A" stroke-linecap="round" stroke-linejoin="round"/>
<path d="M165.67 379.412C170.38 379.597 175.031 378.309 178.974 375.725C188.59 369.095 188.253 353.861 188.253 353.861L190.576 353.2C192.482 352.479 194.267 351.473 195.87 350.215C195.097 353.362 194.644 356.579 194.52 359.817C194.571 361.592 195.276 363.285 196.5 364.571C197.725 365.858 199.381 366.646 201.151 366.785C204.136 367.109 205.46 367.447 206.459 363.463C207.459 359.479 212.416 343.584 212.754 341.275C213.091 338.966 209.512 335.401 203.88 334.523C195.222 335.239 186.672 337.656 177.961 337.656C174.922 337.939 172.009 339.005 169.505 340.748" fill="white"/>
<path d="M165.67 379.412C170.38 379.597 175.031 378.309 178.974 375.725C188.59 369.095 188.253 353.861 188.253 353.861L190.576 353.2C192.482 352.479 194.267 351.473 195.87 350.215C195.097 353.362 194.644 356.579 194.52 359.817C194.571 361.592 195.276 363.285 196.5 364.571C197.725 365.858 199.381 366.646 201.151 366.785C204.136 367.109 205.46 367.447 206.459 363.463C207.459 359.479 212.416 343.584 212.754 341.275C213.091 338.966 209.512 335.401 203.88 334.523C195.222 335.239 186.672 337.656 177.961 337.656C174.922 337.939 172.009 339.005 169.505 340.748" stroke="#2E353A" stroke-linecap="round" stroke-linejoin="round"/>
<path d="M156.81 378.048C158.699 378.628 160.639 379.022 162.605 379.223L156.81 378.048Z" fill="white"/>
<path d="M156.81 378.048C158.699 378.628 160.639 379.022 162.605 379.223" stroke="#2E353A" stroke-linecap="round" stroke-linejoin="round"/>
<path d="M144.869 373.74H132.942" stroke="#2E353A" stroke-linecap="round" stroke-linejoin="round"/>
<path d="M143.884 377.049H138.913" stroke="#2E353A" stroke-linecap="round" stroke-linejoin="round"/>
<path d="M188.278 353.861C188.278 353.861 181.687 353.861 177.365 349.932" stroke="#2E353A" stroke-linecap="round" stroke-linejoin="round"/>
<path d="M196.059 349.783C196.244 347.985 196.615 346.211 197.166 344.489" stroke="#2E353A" stroke-linecap="round" stroke-linejoin="round"/>
<path d="M206.513 361.775C206.513 361.775 207.769 358.291 206.229 357.035C204.69 355.779 200.651 353.969 199.962 355.36C199.274 356.751 197.734 363.18 198.153 364.422L198.571 365.678" stroke="#2E353A" stroke-width="0.5" stroke-linecap="round" stroke-linejoin="round"/>
<path d="M23.472 404.044H137.67V347.906H23.472" fill="#68C5B2"/>
<path d="M23.472 404.044H137.67V347.906H23.472" stroke="#2E353A" stroke-linecap="round" stroke-linejoin="round"/>
<path d="M126.73 397.711C126.73 398.218 126.88 398.714 127.162 399.136C127.444 399.558 127.845 399.887 128.314 400.081C128.783 400.276 129.299 400.326 129.797 400.227C130.295 400.128 130.752 399.884 131.111 399.525C131.47 399.166 131.714 398.709 131.813 398.211C131.912 397.714 131.861 397.198 131.667 396.729C131.473 396.26 131.144 395.859 130.722 395.577C130.3 395.296 129.804 395.145 129.296 395.145C128.616 395.145 127.963 395.415 127.482 395.897C127 396.378 126.73 397.03 126.73 397.711Z" fill="white" stroke="#2E353A" stroke-linecap="round" stroke-linejoin="round"/>
</svg>
