<svg width="550" height="450" viewBox="0 0 550 450" fill="none" xmlns="http://www.w3.org/2000/svg">
<path d="M279.651 450C414.904 450 524.548 426.454 524.548 397.41C524.548 368.365 414.904 344.82 279.651 344.82C144.398 344.82 34.7543 368.365 34.7543 397.41C34.7543 426.454 144.398 450 279.651 450Z" fill="#68C5B2"/>
<path opacity="0.3" d="M279.651 450C414.904 450 524.548 426.454 524.548 397.41C524.548 368.365 414.904 344.82 279.651 344.82C144.398 344.82 34.7543 368.365 34.7543 397.41C34.7543 426.454 144.398 450 279.651 450Z" fill="white"/>
<path d="M0.288604 45.0452C-0.00974532 43.9496 -0.0777243 42.8025 0.0890789 41.6784C0.255882 40.5544 0.653736 39.4786 1.25679 38.5209C1.85984 37.5632 2.6546 36.7451 3.58942 36.1197C4.52423 35.4942 5.57818 35.0755 6.68278 34.8908C13.3711 33.9688 21.5812 43.0844 24.19 48.6031C24.4074 49.0835 27.0802 56.9525 26.9523 56.9525C26.8244 56.9525 15.0975 57.2252 10.3275 55.0697C6.14567 53.2388 1.40119 49.7458 0.288604 45.0452ZM172.062 24.0871C171.077 28.8137 166.422 32.4366 162.355 34.3843C158.289 36.3321 148.633 36.6697 146.268 36.7087C144.989 38.2539 143.62 39.929 142.15 41.7989C139.592 45.1231 136.753 48.9017 133.94 53.2128C133.185 54.3685 132.418 55.6281 131.651 56.8487C133.364 55.0697 135.73 52.6674 135.986 52.4597C140.705 48.655 152.01 44.0972 157.624 47.8889C158.54 48.5432 159.31 49.386 159.884 50.3625C160.458 51.339 160.824 52.4272 160.957 53.5565C161.089 54.6858 160.986 55.8308 160.654 56.917C160.323 58.0033 159.769 59.0064 159.03 59.8612C156 63.6009 150.232 64.6397 145.731 64.4579C141.229 64.2762 132.239 59.9261 130.321 58.9522C128.671 61.6661 127.034 64.4969 125.499 67.5484C122.642 73.0492 120.275 78.7986 118.427 84.7278L118.773 84.8966C120.141 83.0657 123.121 79.287 123.402 79.0143C127.673 74.6903 138.428 68.9118 144.426 72.0413C145.396 72.5933 146.242 73.3449 146.91 74.2478C147.578 75.1508 148.053 76.1853 148.304 77.2853C148.556 78.3852 148.579 79.5263 148.371 80.6357C148.163 81.7451 147.73 82.7983 147.099 83.7279C144.541 87.7923 138.876 89.4673 134.387 89.779C129.272 90.1556 118.517 86.0523 118.108 85.8834C116.448 91.8231 115.167 97.865 114.271 103.972C113.581 108.491 113.056 113.061 112.57 117.723C113.504 116.425 117.417 111.451 117.686 111.127C121.957 106.816 132.712 101.024 138.697 104.167C139.679 104.715 140.536 105.468 141.212 106.375C141.889 107.283 142.369 108.325 142.623 109.434C142.876 110.542 142.897 111.693 142.683 112.81C142.469 113.927 142.026 114.986 141.383 115.918C138.825 119.969 133.16 121.645 128.671 121.956C123.619 122.32 113.325 118.437 112.481 118.061C112.263 120.164 112.046 122.255 111.841 124.371C111.176 131.241 110.563 138.149 109.719 144.94C109.424 147.29 109.066 149.602 108.708 151.913C110.166 149.991 112.877 146.55 113.146 146.277C117.417 141.966 128.172 136.175 134.17 139.317C135.141 139.868 135.989 140.619 136.658 141.522C137.327 142.424 137.802 143.459 138.054 144.56C138.306 145.66 138.328 146.802 138.119 147.912C137.911 149.022 137.476 150.075 136.843 151.004C134.285 155.055 128.62 156.73 124.131 157.055C119.642 157.38 110.921 154.302 108.478 153.393C107.851 157.289 107.199 161.042 106.278 164.742C105.869 166.339 105.562 167.989 105.076 169.495L103.798 174.027C102.774 177.091 101.841 179.935 100.818 182.766C100.306 184.194 99.8076 185.531 99.296 186.921C100.485 184.739 102.429 181.337 102.634 181.039C106.215 176.117 115.972 168.755 122.366 170.936C123.419 171.326 124.379 171.936 125.184 172.728C125.989 173.52 126.62 174.475 127.036 175.531C127.453 176.588 127.645 177.721 127.6 178.858C127.556 179.995 127.276 181.11 126.778 182.129C124.809 186.544 119.502 189.063 115.102 190.063C110.268 191.18 99.8843 189.037 98.6182 188.765C97.3394 192.154 96.0606 195.426 94.8585 198.478C91.022 208.126 87.3773 216.021 84.7812 221.513L84.3592 222.396H103.273L96.7384 351.728C96.5594 356.51 94.5596 361.034 91.1601 364.348C87.7607 367.661 83.2273 369.506 78.515 369.492C73.8483 369.495 69.3588 367.677 65.9744 364.415C62.59 361.152 60.5693 356.694 60.3299 351.962L53.7951 222.63H74.103C74.0007 221.734 73.8984 220.786 73.7833 219.721C73.1055 213.748 72.0057 205.204 70.2409 195.05C69.7421 192.115 69.1667 189.011 68.5273 185.83C67.2484 185.999 56.7364 187.349 51.9919 185.83C47.695 184.532 42.5797 181.571 40.9428 177.026C40.5232 175.972 40.327 174.84 40.3667 173.703C40.4064 172.567 40.6813 171.452 41.1735 170.43C41.6656 169.409 42.364 168.504 43.2232 167.774C44.0824 167.045 45.0832 166.507 46.1604 166.197C52.6953 164.496 61.8901 172.598 65.1 177.766C65.3046 178.104 67.2868 182.298 68.2587 184.467C67.875 182.545 67.5042 180.636 67.0694 178.636C66.4555 175.767 65.7906 172.754 65.036 169.819C64.6268 168.313 64.2048 166.794 63.7572 165.262C63.3096 163.729 62.7981 162.275 62.3249 160.743C61.5832 158.535 60.7008 156.289 59.7672 154.042C56.9282 154.848 48.5391 157.042 44.2294 156.406C39.9197 155.77 34.28 153.653 31.9909 149.42C31.4172 148.442 31.0528 147.352 30.9216 146.221C30.7904 145.091 30.8954 143.945 31.2296 142.858C31.5638 141.771 32.1198 140.768 32.8614 139.914C33.6029 139.06 34.5133 138.375 35.5333 137.902C41.7357 135.214 52.0303 141.798 55.9947 146.433C56.1226 146.576 56.8643 147.641 57.7211 148.913C56.8003 146.758 55.8924 144.589 54.8949 142.421C52.0559 136.292 48.9739 130.124 45.943 123.943C45.3036 122.644 44.6642 121.346 44.0503 120.047C41.6589 120.736 32.5408 123.203 28.0777 122.541C23.6146 121.878 18.1284 119.788 15.8392 115.542C15.275 114.564 14.9191 113.477 14.7943 112.351C14.6696 111.225 14.7789 110.084 15.1152 109.004C15.4514 107.923 16.0071 106.926 16.7464 106.078C17.4857 105.229 18.3922 104.547 19.4072 104.076C25.6095 101.401 35.9042 107.971 39.8686 112.62C40.0092 112.776 40.8916 114.048 41.8508 115.49C40.2394 112.1 38.6665 108.711 37.2086 105.283C34.6909 99.433 32.5549 93.4208 30.8144 87.2858C29.9832 87.5326 19.4072 90.649 14.3814 89.8829C9.93102 89.2336 4.44482 87.13 2.1557 82.8969C1.58152 81.9196 1.21651 80.8305 1.08445 79.7004C0.95238 78.5704 1.05622 77.4248 1.3892 76.3382C1.72218 75.2516 2.27683 74.2484 3.01703 73.394C3.75724 72.5395 4.66639 71.853 5.68529 71.379C11.9004 68.7041 22.1951 75.2746 26.1467 79.9103C26.428 80.2479 29.5484 84.8706 30.6098 86.5717C30.6041 86.4982 30.6041 86.4244 30.6098 86.3509C29.0457 80.2794 28.0185 74.0781 27.5406 67.8211C27.0704 62.2381 26.9167 56.6322 27.0802 51.0313C27.2081 45.8372 27.6301 41.0847 28.0393 36.8905C28.2823 34.6181 28.5381 32.5405 28.8066 30.6057L28.6915 30.6836C28.5764 30.7615 26.3257 22.7626 26.2362 22.2432C25.2387 16.2051 26.8244 3.96014 32.8094 0.804754C33.8194 0.310485 34.9206 0.0375261 36.0413 0.00360383C37.162 -0.0303184 38.2772 0.175553 39.3145 0.607854C40.3517 1.04016 41.2877 1.68921 42.0618 2.51284C42.8359 3.33647 43.4306 4.31624 43.8074 5.38851C45.5466 9.89436 43.6283 15.5169 41.2497 19.4255C38.8711 23.334 31.019 29.0085 29.1008 30.3719C28.8706 32.3846 28.6404 34.5402 28.4358 36.8645C28.1161 41.0587 27.7964 45.7983 27.7836 50.9794C27.7836 52.3688 27.7836 53.8491 27.8475 55.2904C28.3079 52.8492 28.9857 49.525 29.1263 49.2004C30.9806 43.3831 37.9375 33.2546 44.6898 33.2676C45.8098 33.3007 46.9104 33.5729 47.9199 34.0666C48.9295 34.5602 49.8253 35.2642 50.5491 36.1326C51.273 37.0011 51.8086 38.0147 52.121 39.1073C52.4335 40.1999 52.5159 41.347 52.3628 42.4741C51.8768 47.2916 47.6183 51.3819 43.769 53.7582C39.9197 56.1345 30.0087 57.6018 27.8859 57.8485C27.9882 61.0429 28.1544 64.3411 28.5381 67.7172C29.1447 73.9027 30.2916 80.0211 31.9654 86.0003H32.349C32.5025 83.7019 32.9373 78.8845 33.014 78.4819C34.2928 72.4958 40.0476 61.6012 46.7615 60.913C47.8783 60.8214 49.0015 60.9697 50.0582 61.3481C51.1148 61.7265 52.0811 62.3266 52.8942 63.1093C53.7073 63.892 54.3489 64.8398 54.7773 65.891C55.2058 66.9422 55.4114 68.0733 55.3808 69.2105C55.3808 74.041 51.6338 78.5988 48.0659 81.3776C43.948 84.5849 32.7966 87.156 32.3746 87.2469C34.1962 93.1435 36.3963 98.9126 38.9606 104.517C40.8405 108.672 42.8994 112.815 45.0095 116.944C45.0862 115.321 45.6489 108.997 45.7384 108.543C47.0172 102.556 52.772 91.6618 59.4859 90.9606C60.6022 90.8711 61.7246 91.0208 62.7804 91.4C63.8361 91.7791 64.8016 92.3793 65.6142 93.1616C66.4269 93.9439 67.0686 94.8909 67.4977 95.9411C67.9268 96.9914 68.1338 98.1215 68.1052 99.2581C68.1052 104.102 64.3455 108.646 60.7775 111.425C56.762 114.555 46.0965 117.074 45.1885 117.282C46.1476 119.151 47.1068 121.034 48.0787 122.904C51.263 129.02 54.4729 135.123 57.4909 141.252C58.5268 143.382 59.4731 145.511 60.4322 147.641C60.5985 145.213 61.0077 140.824 61.0716 140.447C62.3505 134.461 68.118 123.566 74.8191 122.865C75.9359 122.774 77.0592 122.922 78.1158 123.3C79.1724 123.679 80.1387 124.279 80.9518 125.061C81.7649 125.844 82.4065 126.792 82.835 127.843C83.2634 128.894 83.469 130.025 83.4385 131.163C83.4385 136.006 79.6915 140.551 76.1235 143.33C72.5556 146.109 63.6037 148.433 61.0844 149.056C62.6574 152.64 64.1664 156.146 65.4453 159.73C65.9696 161.288 66.5962 162.833 67.0182 164.353L68.3738 168.885C69.1795 172.014 69.9468 174.91 70.6373 177.844C70.9954 179.325 71.2895 180.727 71.622 182.155C71.4302 179.688 71.2 175.754 71.2128 175.39C71.5325 169.287 75.6631 157.665 82.1852 155.912C83.2759 155.65 84.4087 155.624 85.51 155.836C86.6112 156.048 87.6561 156.493 88.5766 157.142C89.4972 157.792 90.2727 158.63 90.8527 159.604C91.4326 160.578 91.804 161.665 91.9427 162.794C92.0328 163.387 92.0713 163.987 92.0578 164.586C94.6839 169.256 96.0883 174.531 96.1373 179.909C96.1373 180.298 95.5107 184.908 95.1398 187.258C95.8688 185.441 96.5849 183.636 97.301 181.74C98.3625 179 99.3855 176.078 100.409 173.248L101.841 168.742C102.352 167.222 102.659 165.716 103.12 164.171C103.708 161.911 104.194 159.535 104.68 157.185C101.879 156.25 93.6819 153.393 90.4337 150.446C87.1855 147.498 83.6431 142.577 84.0395 137.759C84.0944 136.623 84.3838 135.512 84.889 134.496C85.3943 133.481 86.104 132.585 86.9721 131.867C87.8403 131.148 88.8476 130.623 89.9286 130.325C91.0096 130.027 92.1402 129.963 93.2471 130.137C99.8843 131.435 104.897 142.642 105.665 148.706C105.665 148.9 105.729 150.199 105.754 151.744C106.163 149.433 106.585 147.108 106.918 144.745C107.89 138.045 108.657 131.176 109.476 124.306C109.642 122.865 109.834 121.437 110 120.008C107.634 119.242 98.7333 116.23 95.3316 113.139C91.9299 110.049 88.541 105.27 88.9375 100.453C88.9884 99.3153 89.2752 98.2016 89.7792 97.1845C90.2832 96.1674 90.9929 95.2697 91.862 94.5502C92.7312 93.8308 93.7401 93.3057 94.8228 93.0093C95.9055 92.713 97.0376 92.6521 98.1451 92.8305C104.782 94.129 109.782 105.335 110.563 111.399C110.563 111.607 110.563 113.165 110.652 114.905C111.138 111.166 111.675 107.465 112.327 103.79C113.388 97.4709 114.871 91.2323 116.765 85.1173C115.921 84.8576 105.422 81.5334 101.636 78.1054C98.273 75.0538 94.8329 70.2364 95.2421 65.4189C95.2931 64.2814 95.5799 63.1677 96.0839 62.1506C96.5878 61.1334 97.2976 60.2358 98.1667 59.5163C99.0358 58.7968 100.045 58.2717 101.127 57.9754C102.21 57.6791 103.342 57.6181 104.45 57.7966C111.074 59.0951 116.087 70.3013 116.867 76.3653C116.867 76.7938 117.008 82.4034 116.97 84.4161C116.97 84.3382 116.97 84.2603 117.033 84.1954C119.032 78.2552 121.544 72.5064 124.54 67.016C127.201 62.0875 130.139 57.3184 133.339 52.7324C136.267 48.4602 139.196 44.7465 141.83 41.4742C143.262 39.7083 144.605 38.1241 145.871 36.6567H145.731C145.603 36.6567 148.071 28.7098 148.288 28.2294C150.744 22.6458 158.711 13.3095 165.412 14.0366C166.528 14.1911 167.599 14.5837 168.555 15.1886C169.511 15.7936 170.33 16.5972 170.958 17.5465C171.586 18.4959 172.009 19.5695 172.2 20.6968C172.39 21.8241 172.343 22.9796 172.062 24.0871ZM94.705 188.479C93.5541 187.921 84.7173 183.48 81.2645 179.675C78.2759 181.328 75.1927 182.798 72.0313 184.077C72.8114 187.609 73.5531 191.05 74.1797 194.283C76.1747 204.516 77.4663 213.112 78.2848 219.15C78.451 220.449 78.6045 221.578 78.7324 222.63H79.18L80.6634 219.708C83.3362 214.346 87.0576 206.606 91.1243 197.127C92.3008 194.4 93.5029 191.492 94.705 188.479ZM130.052 57.7187C130.154 57.7187 132.2 49.7328 132.277 49.2004C133.108 43.1493 131.203 30.9433 125.129 27.9567C124.105 27.4909 122.996 27.249 121.875 27.2467C120.753 27.2445 119.644 27.4819 118.619 27.9437C117.593 28.4054 116.675 29.0811 115.924 29.9267C115.173 30.7724 114.605 31.7691 114.258 32.8521C112.634 37.3969 114.706 42.9675 117.149 46.7981C120.013 51.3559 130.039 57.7187 130.052 57.7187Z" fill="#68C5B2"/>
<path opacity="0.3" d="M0.288604 45.0452C-0.00974532 43.9496 -0.0777243 42.8025 0.0890789 41.6784C0.255882 40.5544 0.653736 39.4786 1.25679 38.5209C1.85984 37.5632 2.6546 36.7451 3.58942 36.1197C4.52423 35.4942 5.57818 35.0755 6.68278 34.8908C13.3711 33.9688 21.5812 43.0844 24.19 48.6031C24.4074 49.0835 27.0802 56.9525 26.9523 56.9525C26.8244 56.9525 15.0975 57.2252 10.3275 55.0697C6.14567 53.2388 1.40119 49.7458 0.288604 45.0452ZM172.062 24.0871C171.077 28.8137 166.422 32.4366 162.355 34.3843C158.289 36.3321 148.633 36.6697 146.268 36.7087C144.989 38.2539 143.62 39.929 142.15 41.7989C139.592 45.1231 136.753 48.9017 133.94 53.2128C133.185 54.3685 132.418 55.6281 131.651 56.8487C133.364 55.0697 135.73 52.6674 135.986 52.4597C140.705 48.655 152.01 44.0972 157.624 47.8889C158.54 48.5432 159.31 49.386 159.884 50.3625C160.458 51.339 160.824 52.4272 160.957 53.5565C161.089 54.6858 160.986 55.8308 160.654 56.917C160.323 58.0033 159.769 59.0064 159.03 59.8612C156 63.6009 150.232 64.6397 145.731 64.4579C141.229 64.2762 132.239 59.9261 130.321 58.9522C128.671 61.6661 127.034 64.4969 125.499 67.5484C122.642 73.0492 120.275 78.7986 118.427 84.7278L118.773 84.8966C120.141 83.0657 123.121 79.287 123.402 79.0143C127.673 74.6903 138.428 68.9118 144.426 72.0413C145.396 72.5933 146.242 73.3449 146.91 74.2478C147.578 75.1508 148.053 76.1853 148.304 77.2853C148.556 78.3852 148.579 79.5263 148.371 80.6357C148.163 81.7451 147.73 82.7983 147.099 83.7279C144.541 87.7923 138.876 89.4673 134.387 89.779C129.272 90.1556 118.517 86.0523 118.108 85.8834C116.448 91.8231 115.167 97.865 114.271 103.972C113.581 108.491 113.056 113.061 112.57 117.723C113.504 116.425 117.417 111.451 117.686 111.127C121.957 106.816 132.712 101.024 138.697 104.167C139.679 104.715 140.536 105.468 141.212 106.375C141.889 107.283 142.369 108.325 142.623 109.434C142.876 110.542 142.897 111.693 142.683 112.81C142.469 113.927 142.026 114.986 141.383 115.918C138.825 119.969 133.16 121.645 128.671 121.956C123.619 122.32 113.325 118.437 112.481 118.061C112.263 120.164 112.046 122.255 111.841 124.371C111.176 131.241 110.563 138.149 109.719 144.94C109.424 147.29 109.066 149.602 108.708 151.913C110.166 149.991 112.877 146.55 113.146 146.277C117.417 141.966 128.172 136.175 134.17 139.317C135.141 139.868 135.989 140.619 136.658 141.522C137.327 142.424 137.802 143.459 138.054 144.56C138.306 145.66 138.328 146.802 138.119 147.912C137.911 149.022 137.476 150.075 136.843 151.004C134.285 155.055 128.62 156.73 124.131 157.055C119.642 157.38 110.921 154.302 108.478 153.393C107.851 157.289 107.199 161.042 106.278 164.742C105.869 166.339 105.562 167.989 105.076 169.495L103.798 174.027C102.774 177.091 101.841 179.935 100.818 182.766C100.306 184.194 99.8076 185.531 99.296 186.921C100.485 184.739 102.429 181.337 102.634 181.039C106.215 176.117 115.972 168.755 122.366 170.936C123.419 171.326 124.379 171.936 125.184 172.728C125.989 173.52 126.62 174.475 127.036 175.531C127.453 176.588 127.645 177.721 127.6 178.858C127.556 179.995 127.276 181.11 126.778 182.129C124.809 186.544 119.502 189.063 115.102 190.063C110.268 191.18 99.8843 189.037 98.6182 188.765C97.3394 192.154 96.0606 195.426 94.8585 198.478C91.022 208.126 87.3773 216.021 84.7812 221.513L84.3592 222.396H103.273L96.7384 351.728C96.5594 356.51 94.5596 361.034 91.1601 364.348C87.7607 367.661 83.2273 369.506 78.515 369.492C73.8483 369.495 69.3588 367.677 65.9744 364.415C62.59 361.152 60.5693 356.694 60.3299 351.962L53.7951 222.63H74.103C74.0007 221.734 73.8984 220.786 73.7833 219.721C73.1055 213.748 72.0057 205.204 70.2409 195.05C69.7421 192.115 69.1667 189.011 68.5273 185.83C67.2484 185.999 56.7364 187.349 51.9919 185.83C47.695 184.532 42.5797 181.571 40.9428 177.026C40.5232 175.972 40.327 174.84 40.3667 173.703C40.4064 172.567 40.6813 171.452 41.1735 170.43C41.6656 169.409 42.364 168.504 43.2232 167.774C44.0824 167.045 45.0832 166.507 46.1604 166.197C52.6953 164.496 61.8901 172.598 65.1 177.766C65.3046 178.104 67.2868 182.298 68.2587 184.467C67.875 182.545 67.5042 180.636 67.0694 178.636C66.4555 175.767 65.7906 172.754 65.036 169.819C64.6268 168.313 64.2048 166.794 63.7572 165.262C63.3096 163.729 62.7981 162.275 62.3249 160.743C61.5832 158.535 60.7008 156.289 59.7672 154.042C56.9282 154.848 48.5391 157.042 44.2294 156.406C39.9197 155.77 34.28 153.653 31.9909 149.42C31.4172 148.442 31.0528 147.352 30.9216 146.221C30.7904 145.091 30.8954 143.945 31.2296 142.858C31.5638 141.771 32.1198 140.768 32.8614 139.914C33.6029 139.06 34.5133 138.375 35.5333 137.902C41.7357 135.214 52.0303 141.798 55.9947 146.433C56.1226 146.576 56.8643 147.641 57.7211 148.913C56.8003 146.758 55.8924 144.589 54.8949 142.421C52.0559 136.292 48.9739 130.124 45.943 123.943C45.3036 122.644 44.6642 121.346 44.0503 120.047C41.6589 120.736 32.5408 123.203 28.0777 122.541C23.6146 121.878 18.1284 119.788 15.8392 115.542C15.275 114.564 14.9191 113.477 14.7943 112.351C14.6696 111.225 14.7789 110.084 15.1152 109.004C15.4514 107.923 16.0071 106.926 16.7464 106.078C17.4857 105.229 18.3922 104.547 19.4072 104.076C25.6095 101.401 35.9042 107.971 39.8686 112.62C40.0092 112.776 40.8916 114.048 41.8508 115.49C40.2394 112.1 38.6665 108.711 37.2086 105.283C34.6909 99.433 32.5549 93.4208 30.8144 87.2858C29.9832 87.5326 19.4072 90.649 14.3814 89.8829C9.93102 89.2336 4.44482 87.13 2.1557 82.8969C1.58152 81.9196 1.21651 80.8305 1.08445 79.7004C0.95238 78.5704 1.05622 77.4248 1.3892 76.3382C1.72218 75.2516 2.27683 74.2484 3.01703 73.394C3.75724 72.5395 4.66639 71.853 5.68529 71.379C11.9004 68.7041 22.1951 75.2746 26.1467 79.9103C26.428 80.2479 29.5484 84.8706 30.6098 86.5717C30.6041 86.4982 30.6041 86.4244 30.6098 86.3509C29.0457 80.2794 28.0185 74.0781 27.5406 67.8211C27.0704 62.2381 26.9167 56.6322 27.0802 51.0313C27.2081 45.8372 27.6301 41.0847 28.0393 36.8905C28.2823 34.6181 28.5381 32.5405 28.8066 30.6057L28.6915 30.6836C28.5764 30.7615 26.3257 22.7626 26.2362 22.2432C25.2387 16.2051 26.8244 3.96014 32.8094 0.804754C33.8194 0.310485 34.9206 0.0375261 36.0413 0.00360383C37.162 -0.0303184 38.2772 0.175553 39.3145 0.607854C40.3517 1.04016 41.2877 1.68921 42.0618 2.51284C42.8359 3.33647 43.4306 4.31624 43.8074 5.38851C45.5466 9.89436 43.6283 15.5169 41.2497 19.4255C38.8711 23.334 31.019 29.0085 29.1008 30.3719C28.8706 32.3846 28.6404 34.5402 28.4358 36.8645C28.1161 41.0587 27.7964 45.7983 27.7836 50.9794C27.7836 52.3688 27.7836 53.8491 27.8475 55.2904C28.3079 52.8492 28.9857 49.525 29.1263 49.2004C30.9806 43.3831 37.9375 33.2546 44.6898 33.2676C45.8098 33.3007 46.9104 33.5729 47.9199 34.0666C48.9295 34.5602 49.8253 35.2642 50.5491 36.1326C51.273 37.0011 51.8086 38.0147 52.121 39.1073C52.4335 40.1999 52.5159 41.347 52.3628 42.4741C51.8768 47.2916 47.6183 51.3819 43.769 53.7582C39.9197 56.1345 30.0087 57.6018 27.8859 57.8485C27.9882 61.0429 28.1544 64.3411 28.5381 67.7172C29.1447 73.9027 30.2916 80.0211 31.9654 86.0003H32.349C32.5025 83.7019 32.9373 78.8845 33.014 78.4819C34.2928 72.4958 40.0476 61.6012 46.7615 60.913C47.8783 60.8214 49.0015 60.9697 50.0582 61.3481C51.1148 61.7265 52.0811 62.3266 52.8942 63.1093C53.7073 63.892 54.3489 64.8398 54.7773 65.891C55.2058 66.9422 55.4114 68.0733 55.3808 69.2105C55.3808 74.041 51.6338 78.5988 48.0659 81.3776C43.948 84.5849 32.7966 87.156 32.3746 87.2469C34.1962 93.1435 36.3963 98.9126 38.9606 104.517C40.8405 108.672 42.8994 112.815 45.0095 116.944C45.0862 115.321 45.6489 108.997 45.7384 108.543C47.0172 102.556 52.772 91.6618 59.4859 90.9606C60.6022 90.8711 61.7246 91.0208 62.7804 91.4C63.8361 91.7791 64.8016 92.3793 65.6142 93.1616C66.4269 93.9439 67.0686 94.8909 67.4977 95.9411C67.9268 96.9914 68.1338 98.1215 68.1052 99.2581C68.1052 104.102 64.3455 108.646 60.7775 111.425C56.762 114.555 46.0965 117.074 45.1885 117.282C46.1476 119.151 47.1068 121.034 48.0787 122.904C51.263 129.02 54.4729 135.123 57.4909 141.252C58.5268 143.382 59.4731 145.511 60.4322 147.641C60.5985 145.213 61.0077 140.824 61.0716 140.447C62.3505 134.461 68.118 123.566 74.8191 122.865C75.9359 122.774 77.0592 122.922 78.1158 123.3C79.1724 123.679 80.1387 124.279 80.9518 125.061C81.7649 125.844 82.4065 126.792 82.835 127.843C83.2634 128.894 83.469 130.025 83.4385 131.163C83.4385 136.006 79.6915 140.551 76.1235 143.33C72.5556 146.109 63.6037 148.433 61.0844 149.056C62.6574 152.64 64.1664 156.146 65.4453 159.73C65.9696 161.288 66.5962 162.833 67.0182 164.353L68.3738 168.885C69.1795 172.014 69.9468 174.91 70.6373 177.844C70.9954 179.325 71.2895 180.727 71.622 182.155C71.4302 179.688 71.2 175.754 71.2128 175.39C71.5325 169.287 75.6631 157.665 82.1852 155.912C83.2759 155.65 84.4087 155.624 85.51 155.836C86.6112 156.048 87.6561 156.493 88.5766 157.142C89.4972 157.792 90.2727 158.63 90.8527 159.604C91.4326 160.578 91.804 161.665 91.9427 162.794C92.0328 163.387 92.0713 163.987 92.0578 164.586C94.6839 169.256 96.0883 174.531 96.1373 179.909C96.1373 180.298 95.5107 184.908 95.1398 187.258C95.8688 185.441 96.5849 183.636 97.301 181.74C98.3625 179 99.3855 176.078 100.409 173.248L101.841 168.742C102.352 167.222 102.659 165.716 103.12 164.171C103.708 161.911 104.194 159.535 104.68 157.185C101.879 156.25 93.6819 153.393 90.4337 150.446C87.1855 147.498 83.6431 142.577 84.0395 137.759C84.0944 136.623 84.3838 135.512 84.889 134.496C85.3943 133.481 86.104 132.585 86.9721 131.867C87.8403 131.148 88.8476 130.623 89.9286 130.325C91.0096 130.027 92.1402 129.963 93.2471 130.137C99.8843 131.435 104.897 142.642 105.665 148.706C105.665 148.9 105.729 150.199 105.754 151.744C106.163 149.433 106.585 147.108 106.918 144.745C107.89 138.045 108.657 131.176 109.476 124.306C109.642 122.865 109.834 121.437 110 120.008C107.634 119.242 98.7333 116.23 95.3316 113.139C91.9299 110.049 88.541 105.27 88.9375 100.453C88.9884 99.3153 89.2752 98.2016 89.7792 97.1845C90.2832 96.1674 90.9929 95.2697 91.862 94.5502C92.7312 93.8308 93.7401 93.3057 94.8228 93.0093C95.9055 92.713 97.0376 92.6521 98.1451 92.8305C104.782 94.129 109.782 105.335 110.563 111.399C110.563 111.607 110.563 113.165 110.652 114.905C111.138 111.166 111.675 107.465 112.327 103.79C113.388 97.4709 114.871 91.2323 116.765 85.1173C115.921 84.8576 105.422 81.5334 101.636 78.1054C98.273 75.0538 94.8329 70.2364 95.2421 65.4189C95.2931 64.2814 95.5799 63.1677 96.0839 62.1506C96.5878 61.1334 97.2976 60.2358 98.1667 59.5163C99.0358 58.7968 100.045 58.2717 101.127 57.9754C102.21 57.6791 103.342 57.6181 104.45 57.7966C111.074 59.0951 116.087 70.3013 116.867 76.3653C116.867 76.7938 117.008 82.4034 116.97 84.4161C116.97 84.3382 116.97 84.2603 117.033 84.1954C119.032 78.2552 121.544 72.5064 124.54 67.016C127.201 62.0875 130.139 57.3184 133.339 52.7324C136.267 48.4602 139.196 44.7465 141.83 41.4742C143.262 39.7083 144.605 38.1241 145.871 36.6567H145.731C145.603 36.6567 148.071 28.7098 148.288 28.2294C150.744 22.6458 158.711 13.3095 165.412 14.0366C166.528 14.1911 167.599 14.5837 168.555 15.1886C169.511 15.7936 170.33 16.5972 170.958 17.5465C171.586 18.4959 172.009 19.5695 172.2 20.6968C172.39 21.8241 172.343 22.9796 172.062 24.0871ZM94.705 188.479C93.5541 187.921 84.7173 183.48 81.2645 179.675C78.2759 181.328 75.1927 182.798 72.0313 184.077C72.8114 187.609 73.5531 191.05 74.1797 194.283C76.1747 204.516 77.4663 213.112 78.2848 219.15C78.451 220.449 78.6045 221.578 78.7324 222.63H79.18L80.6634 219.708C83.3362 214.346 87.0576 206.606 91.1243 197.127C92.3008 194.4 93.5029 191.492 94.705 188.479ZM130.052 57.7187C130.154 57.7187 132.2 49.7328 132.277 49.2004C133.108 43.1493 131.203 30.9433 125.129 27.9567C124.105 27.4909 122.996 27.249 121.875 27.2467C120.753 27.2445 119.644 27.4819 118.619 27.9437C117.593 28.4054 116.675 29.0811 115.924 29.9267C115.173 30.7724 114.605 31.7691 114.258 32.8521C112.634 37.3969 114.706 42.9675 117.149 46.7981C120.013 51.3559 130.039 57.7187 130.052 57.7187Z" fill="white"/>
<path d="M492.078 103.634C492.078 103.634 479.571 113.347 477.845 120.826C476.118 128.306 478.343 136.266 479.814 141.005C481.285 145.745 481.528 168.664 467.793 178.87C454.058 189.076 447.92 199.296 449.39 212.008C450.861 224.72 469.507 238.667 484.968 241.874C500.429 245.081 522.259 237.887 530.839 219.202C539.42 200.516 527.898 179.909 521.517 168.222C515.135 156.535 515.634 145.55 522.796 145.057C529.957 144.563 533.589 146.355 533.845 136.084C534.1 125.813 531.632 109.932 518.627 101.959C505.621 93.986 492.078 103.634 492.078 103.634Z" fill="#2E353A" stroke="#2E353A" stroke-linecap="round" stroke-linejoin="round"/>
<path d="M461.283 228.941C462.562 229.811 474.072 234.576 482.589 221.15C491.106 207.723 479.507 195.348 481.745 183.493" stroke="white" stroke-width="0.5" stroke-miterlimit="10"/>
<path d="M506.068 119.086C506.068 119.086 502.078 105.997 510.723 110.243C519.995 114.788 527.348 136.214 524.151 141.083" stroke="white" stroke-width="0.5" stroke-miterlimit="10"/>
<path d="M503.688 117.386C503.688 117.386 498.893 107.971 502.09 103.751C505.287 99.531 512.64 104.4 516.477 107.322" stroke="white" stroke-width="0.5" stroke-miterlimit="10"/>
<path d="M514.559 143.031C514.559 143.031 515.838 148.874 512.001 160.561C508.165 172.248 501.131 185.557 508.165 197.893C515.198 210.229 520.633 218.67 512.641 231.005" stroke="white" stroke-width="0.5" stroke-miterlimit="10"/>
<path d="M514.558 149.848C514.836 157.459 514.3 165.079 512.959 172.572C510.721 185.558 517.755 193.998 525.108 202.114C532.462 210.229 530.543 217.047 527.986 224.513" stroke="white" stroke-width="0.5" stroke-miterlimit="10"/>
<path d="M503.37 119.333C503.37 119.333 488.344 120.632 483.868 118.684C479.392 116.736 480.351 115.113 480.351 115.113" stroke="white" stroke-width="0.5" stroke-miterlimit="10"/>
<path d="M505.365 171.196C505.365 171.196 507.321 191.375 509.828 203.048C512.334 214.722 516.324 229.46 515.327 233.525C514.329 237.589 492.308 272.116 492.308 272.116L485.811 267.546L499.316 226.409L487.947 187.843C487.947 187.843 498.357 172.351 505.365 171.196Z" fill="white" stroke="#2E353A" stroke-linecap="round" stroke-linejoin="round"/>
<path d="M503.612 167.91C500.415 164.171 493.548 154.458 493.548 154.458L482.755 141.473L467.792 120.554C465.823 117.814 459.198 118.801 440.067 119.06C420.936 119.32 362.864 108.101 362.864 108.101L360.907 121.086C360.907 121.086 414.056 132.773 427.547 134.071C441.039 135.37 453.559 137.058 453.559 137.058C451.716 140.785 450.076 144.613 448.648 148.524C447.177 153.003 430.003 176.922 430.003 176.922C430.003 176.922 429.581 177.182 428.852 177.675C428.66 182.012 429.069 191.219 435.45 196.075C440.387 199.828 447.612 201.412 452.83 202.074C452.919 201.776 452.996 201.516 453.06 201.334C453.802 199.334 459.198 196.348 462.14 196.14C465.081 195.932 474.161 196.387 479.57 195.893C484.98 195.4 487.908 187.921 487.908 187.921C487.908 187.921 499.827 176.104 505.313 171.274C504.973 170.048 504.395 168.905 503.612 167.91Z" fill="white" stroke="#2E353A" stroke-linecap="round" stroke-linejoin="round"/>
<path d="M460.349 140.071L453.558 137.019L458.495 144.992" stroke="#2E353A" stroke-width="0.75" stroke-linecap="round" stroke-linejoin="round"/>
<path d="M443.225 185.44C448.336 188.66 454.383 189.994 460.349 189.219" stroke="#2E353A" stroke-width="0.75" stroke-linecap="round" stroke-linejoin="round"/>
<path d="M437.586 176.364C437.586 176.364 438.698 180.909 445.783 183.934" stroke="#2E353A" stroke-width="0.75" stroke-linecap="round" stroke-linejoin="round"/>
<path d="M499.278 226.409C499.278 226.409 503.92 224.383 507.641 229.681" stroke="#2E353A" stroke-width="0.75" stroke-linecap="round" stroke-linejoin="round"/>
<path d="M500.569 191.115L487.909 187.843L499.073 196.79" stroke="#2E353A" stroke-width="0.75" stroke-linecap="round" stroke-linejoin="round"/>
<path d="M465.937 125.371C465.937 125.371 459.607 136.707 452.164 136.331C442.048 135.811 413.428 127.241 413.428 124.228C413.428 121.216 421.255 120.073 421.255 120.073" stroke="#2E353A" stroke-width="0.75" stroke-linecap="round" stroke-linejoin="round"/>
<path d="M487.909 134.773C487.909 134.773 482.793 133.474 479.072 135.773C475.351 138.071 465.58 159.691 465.58 159.691C465.58 159.691 466.309 160.691 469.263 160.691C472.217 160.691 472.946 164.677 472.946 168.404C472.946 172.131 472.691 173.884 473.918 173.598C475.146 173.313 482.512 170.612 483.983 171.612C485.453 172.611 482.013 177.585 482.704 178.104C483.394 178.624 489.571 172.365 491.541 165.638C493.51 158.912 495.467 148.952 494.968 144.966C494.469 140.98 491.298 135.76 487.909 134.773Z" fill="#68C5B2" stroke="#2E353A" stroke-linecap="round" stroke-linejoin="round"/>
<path d="M492.077 155.458C489.375 158.519 486.511 161.427 483.496 164.171C477.844 169.365 473.189 173.144 473.432 170.663C473.675 168.183 479.314 154.718 480.785 147.29C482.256 139.863 484.967 134.824 487.908 134.824C490.85 134.824 497.231 150.043 492.077 155.458Z" fill="white" stroke="#2E353A" stroke-linecap="round" stroke-linejoin="round"/>
<path d="M489.136 123.319C489.332 123.926 489.653 124.483 490.076 124.956C490.499 125.428 491.015 125.804 491.592 126.059C493.305 126.553 506.068 119.086 506.068 119.086C506.068 119.086 515.148 138.759 513.664 141.745C512.181 144.732 507.782 148.485 502.871 151.965C497.96 155.445 488.893 158.197 485.453 156.198C482.013 154.198 484.469 133.785 484.469 133.785C484.469 133.785 481.77 130.539 484.712 125.306C487.653 120.073 489.136 123.319 489.136 123.319Z" fill="white" stroke="#2E353A" stroke-linecap="round" stroke-linejoin="round"/>
<path d="M509.687 143.641C509.687 143.641 509.905 142.096 507.066 142.096C504.226 142.096 499.239 147.394 499.239 147.394" stroke="#2E353A" stroke-width="0.75" stroke-linecap="round" stroke-linejoin="round"/>
<path d="M497.282 147.836L495.76 146.29" stroke="#2E353A" stroke-width="0.75" stroke-linecap="round" stroke-linejoin="round"/>
<path d="M495.133 150.718C495.133 150.718 491.22 150.056 490.568 144.966" stroke="#2E353A" stroke-width="0.75" stroke-linecap="round" stroke-linejoin="round"/>
<path d="M504.188 135.616C504.188 135.616 503.216 130.773 499.072 129.838" stroke="#2E353A" stroke-width="0.75" stroke-linecap="round" stroke-linejoin="round"/>
<path d="M499.264 138.214C498.266 139.006 497.166 139.265 496.795 138.785C496.425 138.304 496.923 137.279 497.908 136.486C498.893 135.694 500.005 135.435 500.376 135.915C500.747 136.396 500.248 137.421 499.264 138.214Z" fill="#2E353A"/>
<path d="M505.429 146.394C504.61 147.043 503.702 147.264 503.396 146.861C503.089 146.459 503.498 145.563 504.316 144.953C505.135 144.342 506.043 144.096 506.35 144.485C506.657 144.875 506.247 145.732 505.429 146.394Z" fill="#2E353A"/>
<path d="M481.553 358.416L494.098 376.114C494.098 376.114 494.098 379.361 489.622 379.361C485.146 379.361 482.589 379.361 480.031 376.114C477.473 372.868 477.473 370.92 474.916 369.622C472.358 368.323 469.8 368.323 471.079 361.181C472.358 354.04 481.553 358.416 481.553 358.416Z" fill="white" stroke="#2E353A" stroke-linecap="round" stroke-linejoin="round"/>
<path d="M494.047 376.517C492.06 377.486 489.831 377.821 487.653 377.478C483.126 376.647 480.376 372.05 478.701 370.076C477.026 368.103 474.98 368.116 473.048 366.467C472.13 365.669 471.329 364.742 470.67 363.714C470.401 368.336 472.614 368.492 474.813 369.622C477.371 370.92 477.371 372.868 479.929 376.114C482.486 379.361 485.044 379.361 489.52 379.361C493.113 379.361 493.855 377.387 494.047 376.517Z" fill="white" stroke="#2E353A" stroke-linecap="round" stroke-linejoin="round"/>
<path d="M480.836 356.169C478.279 348.378 474.634 301.736 472.741 286.971C468.905 256.95 451.845 217.981 451.845 217.981L452.83 202.036C447.612 201.373 440.387 199.789 435.451 196.036C429.056 191.18 428.66 181.974 428.852 177.636C425.616 179.753 416.063 186.129 407.917 192.829C397.866 201.049 390.986 230.2 389.029 239.407C387.072 248.613 384.86 275.765 384.86 275.765C384.86 275.765 367.186 282.738 360.076 292.646C352.966 302.554 331.366 325.031 331.366 325.031L333.336 332.51C333.336 332.51 339.96 327.784 345.6 323.291C351.239 318.798 395.167 293.893 398.109 292.127C401.05 290.361 404.503 286.932 408.416 276.934C409.848 273.285 411.869 267.312 413.864 261.196L420.68 239.641L427.24 233.966C433.711 251.73 448.75 285.972 450.886 290.867C453.444 296.736 455.388 322.836 462.46 339.159C469.532 355.481 471.411 363.311 471.411 363.311C471.411 363.311 483.407 363.999 480.836 356.169Z" fill="#2E353A" stroke="#2E353A" stroke-linecap="round" stroke-linejoin="round"/>
<path d="M452.407 205.113L454.85 219.591" stroke="white" stroke-width="0.5" stroke-miterlimit="10"/>
<path d="M106.598 93.2848L69.6652 411.81C69.6151 412.269 69.6928 412.733 69.8893 413.149C70.0859 413.565 70.3934 413.917 70.7771 414.165C71.1607 414.412 71.605 414.545 72.0595 414.549C72.514 414.553 72.9605 414.428 73.3482 414.187L97.0834 399.358C98.4922 398.471 100.185 398.175 101.805 398.531C103.425 398.887 104.845 399.868 105.767 401.267L135.589 446.286L148.032 256.911L106.598 93.2848Z" fill="#68C5B2" stroke="#2E353A" stroke-linecap="round" stroke-linejoin="round"/>
<path d="M106.368 101.297L72.9903 403.851C72.9181 404.504 73.0353 405.164 73.3273 405.751C73.6194 406.337 74.0736 406.824 74.6344 407.152C75.1951 407.48 75.838 407.635 76.4841 407.598C77.1302 407.56 77.7515 407.332 78.2718 406.941L95.6256 393.956C96.5281 393.278 97.5574 392.795 98.6504 392.535C99.7434 392.275 100.877 392.245 101.982 392.445C103.087 392.646 104.14 393.073 105.077 393.702C106.013 394.33 106.814 395.145 107.429 396.099L127.737 427.575C127.957 427.924 128.286 428.189 128.672 428.327C129.057 428.464 129.477 428.467 129.864 428.334C130.252 428.201 130.584 427.94 130.808 427.593C131.032 427.246 131.135 426.833 131.101 426.419L107.391 101.31C107.366 101.192 107.303 101.085 107.211 101.009C107.119 100.932 107.004 100.889 106.884 100.888C106.765 100.886 106.649 100.926 106.555 101C106.462 101.075 106.395 101.179 106.368 101.297Z" fill="#68C5B2" stroke="#2E353A" stroke-linecap="round" stroke-linejoin="round"/>
<path opacity="0.6" d="M106.828 96.9077L72.9639 403.825C72.8918 404.478 73.009 405.138 73.301 405.724C73.5931 406.311 74.0473 406.798 74.6081 407.126C75.1688 407.454 75.8117 407.609 76.4578 407.572C77.1039 407.534 77.7252 407.306 78.2455 406.915L95.5993 393.93C96.5018 393.252 97.5311 392.769 98.6241 392.509C99.7171 392.249 100.851 392.218 101.956 392.419C103.061 392.62 104.114 393.047 105.051 393.675C105.987 394.303 106.788 395.119 107.403 396.072L127.711 427.548C127.931 427.898 128.26 428.163 128.646 428.301C129.031 428.438 129.451 428.441 129.838 428.308C130.225 428.175 130.557 427.914 130.781 427.567C131.005 427.22 131.109 426.806 131.074 426.393L107.07 96.9077C107.062 96.8817 107.046 96.8591 107.024 96.843C107.002 96.827 106.976 96.8184 106.949 96.8184C106.922 96.8184 106.896 96.827 106.874 96.843C106.852 96.8591 106.836 96.8817 106.828 96.9077Z" fill="black"/>
<path d="M100.651 392.268C101.995 392.292 103.312 392.648 104.489 393.307C105.666 393.965 106.666 394.906 107.403 396.047L127.711 427.522C127.931 427.872 128.26 428.137 128.646 428.275C129.032 428.412 129.452 428.415 129.839 428.282C130.226 428.149 130.558 427.888 130.782 427.541C131.006 427.194 131.109 426.78 131.075 426.367L128.172 386.58L100.216 392.138C100.365 392.167 100.511 392.211 100.651 392.268Z" fill="#68C5B2" stroke="#2E353A" stroke-linecap="round" stroke-linejoin="round"/>
<path opacity="0.3" d="M100.651 392.268C101.995 392.292 103.312 392.648 104.489 393.307C105.666 393.965 106.666 394.906 107.403 396.047L127.711 427.522C127.931 427.872 128.26 428.137 128.646 428.275C129.032 428.412 129.452 428.415 129.839 428.282C130.226 428.149 130.558 427.888 130.782 427.541C131.006 427.194 131.109 426.78 131.075 426.367L128.172 386.58L100.216 392.138C100.365 392.167 100.511 392.211 100.651 392.268Z" fill="black"/>
<path d="M107.353 93.0903L135.577 446.286L464.685 382.607L387.341 107.153L107.353 93.0903Z" fill="#2E353A" stroke="#2E353A" stroke-linecap="round" stroke-linejoin="round"/>
<path d="M122.61 100.712L141.997 427.614L451.475 370.479L386.242 116.502L122.61 100.712Z" fill="#68C5B2" stroke="#2E353A" stroke-linecap="round" stroke-linejoin="round"/>
<path d="M141.523 261.585L156.242 416.537L437.433 364.623L411.306 248.159L141.523 261.585Z" fill="white" stroke="#2E353A" stroke-linecap="round" stroke-linejoin="round"/>
<path d="M195.798 408.824L191.13 359.052" stroke="#2E353A" stroke-linecap="round" stroke-linejoin="round"/>
<path d="M238.83 401.124L234.329 359.636" stroke="#2E353A" stroke-linecap="round" stroke-linejoin="round"/>
<path d="M281.017 392.826L275.761 359.636" stroke="#2E353A" stroke-linecap="round" stroke-linejoin="round"/>
<path d="M324.485 385.256L318.232 345.69" stroke="#2E353A" stroke-linecap="round" stroke-linejoin="round"/>
<path d="M362.775 378.244L357.442 339.626" stroke="#2E353A" stroke-linecap="round" stroke-linejoin="round"/>
<path d="M399.489 371.349L391.547 324.914" stroke="#2E353A" stroke-linecap="round" stroke-linejoin="round"/>
<path d="M485.772 267.545C485.772 267.545 481.859 271.545 481.603 273.622C481.347 275.7 483.394 281.959 483.394 281.959L489.558 282.998L492.269 272.116L485.772 267.545Z" fill="white" stroke="#2E353A" stroke-linecap="round" stroke-linejoin="round"/>
<g style="mix-blend-mode:multiply" opacity="0.49">
<path d="M124.169 191.024C124.169 191.024 130.665 285.959 136.637 320.577C142.609 355.195 153.684 407.006 153.684 407.006C153.684 407.006 345.509 376.855 440.143 336.159L432.47 298.944L124.169 191.024Z" fill="#68C5B2"/>
</g>
<path d="M115.498 97.1545L384.91 111.893C384.91 111.893 411.139 191.686 437.24 236.745C463.341 281.803 506.386 278.869 506.386 278.869C506.386 278.869 407.66 333.679 330.764 362.857C250.735 393.203 181.332 398.657 181.332 398.657C181.332 398.657 118.119 310.981 115.498 97.1545Z" fill="#68C5B2" stroke="#2E353A" stroke-linecap="round" stroke-linejoin="round"/>
<path d="M146.345 82.9487C141.344 82.9487 137.725 87.4546 136.587 94.5185L141.702 94.8042C142.495 90.7268 144.068 88.1428 146.332 88.1428C148.966 88.1428 151.895 92.4409 151.895 98.6218C151.895 104.803 148.966 109.114 146.332 109.114C145.653 109.114 145.003 109.387 144.523 109.874C144.044 110.361 143.774 111.022 143.774 111.711C143.774 112.4 144.044 113.06 144.523 113.547C145.003 114.034 145.653 114.308 146.332 114.308C152.317 114.308 157.01 107.413 157.01 98.6218C157.01 89.8308 152.33 82.9487 146.345 82.9487Z" fill="white" stroke="#2E353A" stroke-miterlimit="10"/>
<path d="M153.685 102.829C153.44 103.745 153.124 104.639 152.739 105.504" stroke="#2E353A" stroke-width="0.75" stroke-linecap="round" stroke-linejoin="round"/>
<path d="M139.118 92.1811C139.118 92.1811 141.036 85.1431 146.702 85.5327C151.152 85.8443 154.822 92.5576 154.208 99.7384" stroke="#2E353A" stroke-width="0.75" stroke-linecap="round" stroke-linejoin="round"/>
<path d="M190.77 85.2212C185.77 85.2212 182.151 89.727 181.013 96.791L186.128 97.0766C186.921 92.9993 188.494 90.4153 190.757 90.4153C193.392 90.4153 196.32 94.7133 196.32 100.894C196.32 107.075 193.392 111.386 190.757 111.386C190.079 111.386 189.429 111.66 188.949 112.147C188.469 112.634 188.2 113.295 188.2 113.983C188.2 114.672 188.469 115.333 188.949 115.82C189.429 116.307 190.079 116.58 190.757 116.58C196.742 116.58 201.436 109.685 201.436 100.894C201.436 92.1033 196.768 85.2212 190.77 85.2212Z" fill="white" stroke="#2E353A" stroke-miterlimit="10"/>
<path d="M198.123 105.101C197.878 106.017 197.562 106.912 197.177 107.776" stroke="#2E353A" stroke-width="0.75" stroke-linecap="round" stroke-linejoin="round"/>
<path d="M183.558 94.4533C183.558 94.4533 185.476 87.4153 191.141 87.8049C195.592 88.1165 199.262 94.8298 198.648 102.011" stroke="#2E353A" stroke-width="0.75" stroke-linecap="round" stroke-linejoin="round"/>
<path d="M235.224 87.4934C230.224 87.4934 226.604 91.9993 225.466 99.0632L230.582 99.3489C231.374 95.2715 232.947 92.6875 235.211 92.6875C237.845 92.6875 240.774 96.9855 240.774 103.166C240.774 109.347 237.845 113.658 235.211 113.658C234.533 113.658 233.882 113.932 233.402 114.419C232.923 114.906 232.653 115.567 232.653 116.256C232.653 116.944 232.923 117.605 233.402 118.092C233.882 118.579 234.533 118.853 235.211 118.853C241.196 118.853 245.889 111.957 245.889 103.166C245.889 94.3755 241.209 87.4934 235.224 87.4934Z" fill="white" stroke="#2E353A" stroke-miterlimit="10"/>
<path d="M242.563 107.374C242.318 108.29 242.001 109.184 241.616 110.049" stroke="#2E353A" stroke-width="0.75" stroke-linecap="round" stroke-linejoin="round"/>
<path d="M227.997 96.726C227.997 96.726 229.916 89.6881 235.581 90.0776C240.031 90.3893 243.701 97.1026 243.088 104.283" stroke="#2E353A" stroke-width="0.75" stroke-linecap="round" stroke-linejoin="round"/>
<path d="M279.663 89.7659C274.663 89.7659 271.044 94.2717 269.906 101.336L275.021 101.621C275.814 97.544 277.387 94.9599 279.651 94.9599C282.285 94.9599 285.214 99.258 285.214 105.439C285.214 111.62 282.285 115.931 279.651 115.931C278.972 115.931 278.322 116.205 277.842 116.692C277.362 117.179 277.093 117.839 277.093 118.528C277.093 119.217 277.362 119.877 277.842 120.364C278.322 120.851 278.972 121.125 279.651 121.125C285.636 121.125 290.329 114.23 290.329 105.439C290.329 96.648 285.648 89.7659 279.663 89.7659Z" fill="white" stroke="#2E353A" stroke-miterlimit="10"/>
<path d="M287.004 109.646C286.759 110.562 286.443 111.456 286.058 112.321" stroke="#2E353A" stroke-width="0.75" stroke-linecap="round" stroke-linejoin="round"/>
<path d="M272.437 98.9985C272.437 98.9985 274.355 91.9605 280.02 92.3501C284.471 92.6617 288.141 99.375 287.527 106.556" stroke="#2E353A" stroke-width="0.75" stroke-linecap="round" stroke-linejoin="round"/>
<path d="M324.908 91.7786C319.908 91.7786 316.289 96.2844 315.163 103.361L320.279 103.647C321.084 99.5697 322.657 96.9726 324.908 96.9726C327.543 96.9726 330.484 101.284 330.484 107.465C330.484 113.646 327.543 117.944 324.908 117.944C324.23 117.944 323.579 118.217 323.1 118.704C322.62 119.191 322.351 119.852 322.351 120.541C322.351 121.229 322.62 121.89 323.1 122.377C323.579 122.864 324.23 123.138 324.908 123.138C330.906 123.138 335.599 116.256 335.599 107.465C335.599 98.6737 330.906 91.7786 324.908 91.7786Z" fill="white" stroke="#2E353A" stroke-miterlimit="10"/>
<path d="M332.248 111.672C332.005 112.584 331.688 113.474 331.301 114.334" stroke="#2E353A" stroke-width="0.75" stroke-linecap="round" stroke-linejoin="round"/>
<path d="M317.682 101.024C317.682 101.024 319.613 93.9732 325.266 94.3627C329.729 94.6744 333.386 101.401 332.785 108.581" stroke="#2E353A" stroke-width="0.75" stroke-linecap="round" stroke-linejoin="round"/>
<path d="M368.375 94.2065C363.375 94.2065 359.756 98.7124 358.631 105.776L363.746 106.075C364.552 101.998 366.125 99.4006 368.375 99.4006C371.01 99.4006 373.951 103.712 373.951 109.88C373.951 116.048 371.01 120.372 368.375 120.372C367.697 120.372 367.046 120.645 366.567 121.132C366.087 121.619 365.818 122.28 365.818 122.969C365.818 123.657 366.087 124.318 366.567 124.805C367.046 125.292 367.697 125.566 368.375 125.566C374.373 125.566 379.066 118.671 379.066 109.88C379.066 101.089 374.373 94.2065 368.375 94.2065Z" fill="white" stroke="#2E353A" stroke-miterlimit="10"/>
<path d="M375.715 114.022C375.474 114.939 375.157 115.834 374.768 116.697" stroke="#2E353A" stroke-width="0.75" stroke-linecap="round" stroke-linejoin="round"/>
<path d="M361.149 103.387C361.149 103.387 363.08 96.3365 368.733 96.726C373.196 97.0377 376.854 103.751 376.252 110.932" stroke="#2E353A" stroke-width="0.75" stroke-linecap="round" stroke-linejoin="round"/>
<path d="M492.268 272.104C492.268 272.104 494.826 275.662 494.826 277.181C494.826 278.7 491.322 281.245 491.322 284.79C491.322 288.335 486.82 287.387 486.322 284.79C485.823 282.193 487.319 278.7 487.319 278.7C487.319 278.7 485.235 277.402 484.761 272.831C484.288 268.26 488.342 269.559 488.342 269.559L492.268 272.104Z" fill="white" stroke="#2E353A" stroke-linecap="round" stroke-linejoin="round"/>
<path d="M428.327 236.953C409.797 204.957 390.333 154.432 383.415 135.837L142.648 125.93C142.495 306.618 196.359 381.27 196.359 381.27C196.359 381.27 257.68 376.452 328.399 349.625C396.356 323.849 477.409 280.583 477.409 280.583C477.409 280.583 451.385 276.778 428.327 236.953Z" fill="white" stroke="#2E353A" stroke-linecap="round" stroke-linejoin="round"/>
<path d="M383.414 135.837L142.648 125.93C142.648 143.706 143.147 160.431 144.067 176.182L398.325 173.767C391.739 157.834 386.432 143.875 383.414 135.837Z" fill="#2E353A" stroke="#2E353A" stroke-linecap="round" stroke-linejoin="round"/>
<path d="M387.673 189.7L399.055 189.297" stroke="#2E353A" stroke-width="3" stroke-linecap="round" stroke-linejoin="round"/>
<path d="M354.22 190.855L379.144 189.985" stroke="#2E353A" stroke-width="3" stroke-linecap="round" stroke-linejoin="round"/>
<path d="M313.717 192.245L345.752 191.141" stroke="#2E353A" stroke-width="3" stroke-linecap="round" stroke-linejoin="round"/>
<path d="M272.514 193.66L306.646 192.491" stroke="#2E353A" stroke-width="3" stroke-linecap="round" stroke-linejoin="round"/>
<path d="M232.679 195.037L263.972 193.959" stroke="#2E353A" stroke-width="3" stroke-linecap="round" stroke-linejoin="round"/>
<path d="M190.707 196.491L222.026 195.4" stroke="#2E353A" stroke-width="3" stroke-linecap="round" stroke-linejoin="round"/>
<path d="M153.761 197.763L182.905 196.75" stroke="#2E353A" stroke-width="3" stroke-linecap="round" stroke-linejoin="round"/>
<path d="M149.016 225.617L413.901 209.229" stroke="#2E353A" stroke-linecap="round" stroke-linejoin="round"/>
<path d="M190.874 223.305C190.874 223.305 195.222 294.827 241.656 374.219" stroke="#2E353A" stroke-linecap="round" stroke-linejoin="round"/>
<path d="M233.611 220.435C233.611 220.435 238.509 302.242 289.419 362.142" stroke="#2E353A" stroke-linecap="round" stroke-linejoin="round"/>
<path d="M272.309 218.02C272.309 218.02 274.867 293.334 332.094 347.456" stroke="#2E353A" stroke-linecap="round" stroke-linejoin="round"/>
<path d="M312.427 216.267C312.427 216.267 318.744 299.996 374.131 329.485" stroke="#2E353A" stroke-linecap="round" stroke-linejoin="round"/>
<path d="M354.462 212.904C354.462 212.904 358.912 276.233 415.565 310.916" stroke="#2E353A" stroke-linecap="round" stroke-linejoin="round"/>
<path d="M387.557 210.853C387.557 210.853 402.801 275.778 445.45 296.801" stroke="#2E353A" stroke-linecap="round" stroke-linejoin="round"/>
<path d="M154.822 262.507L425.373 232.291" stroke="#2E353A" stroke-linecap="round" stroke-linejoin="round"/>
<path d="M161.882 294.827C161.882 294.827 219.647 292.529 437.957 251.678" stroke="#2E353A" stroke-linecap="round" stroke-linejoin="round"/>
<path d="M172.073 329.043C172.073 329.043 228.342 335.536 448.788 264.26" stroke="#2E353A" stroke-linecap="round" stroke-linejoin="round"/>
<path d="M184.249 358.896C184.249 358.896 231.157 374.673 461.578 274.492" stroke="#2E353A" stroke-linecap="round" stroke-linejoin="round"/>
<path d="M246.642 161.275L159.912 160.094C159.209 160.083 158.534 159.814 158.012 159.336C157.49 158.859 157.156 158.205 157.073 157.497L156.331 150.381C156.287 149.971 156.33 149.557 156.456 149.166C156.582 148.774 156.788 148.414 157.062 148.11C157.335 147.805 157.669 147.563 158.041 147.4C158.413 147.236 158.816 147.154 159.221 147.16L244.903 148.667C245.536 148.678 246.148 148.9 246.645 149.299C247.142 149.698 247.496 150.251 247.653 150.874L249.392 157.639C249.501 158.067 249.512 158.515 249.425 158.948C249.338 159.381 249.155 159.788 248.89 160.138C248.625 160.489 248.285 160.773 247.896 160.97C247.506 161.167 247.077 161.272 246.642 161.275Z" fill="white"/>
</svg>
