<svg width="250" height="200" viewBox="0 0 250 200" fill="none" xmlns="http://www.w3.org/2000/svg">
<path d="M250 175.757H0V175.891H250V175.757Z" fill="#E0E0E0"/>
<path d="M190.535 179.837H181.61V179.971H190.535V179.837Z" fill="#E0E0E0"/>
<path d="M217.73 179.772H195.945V179.907H217.73V179.772Z" fill="#E0E0E0"/>
<path d="M154.835 182.124H122.35V182.258H154.835V182.124Z" fill="#E0E0E0"/>
<path d="M119.47 182.124H113.86V182.258H119.47V182.124Z" fill="#E0E0E0"/>
<path d="M68.39 179.638H47.39V179.772H68.39V179.638Z" fill="#E0E0E0"/>
<path d="M86.075 179.638H71.165V179.772H86.075V179.638Z" fill="#E0E0E0"/>
<path d="M51.25 182.059H33.445V182.194H51.25V182.059Z" fill="#E0E0E0"/>
<path d="M118.5 151.814H21.955C21.1987 151.813 20.4738 151.49 19.9394 150.915C19.4051 150.34 19.105 149.561 19.105 148.749V3.03844C19.1116 2.23106 19.4146 1.45908 19.9482 0.890175C20.4818 0.321268 21.203 0.00138307 21.955 0H118.5C119.257 0 119.983 0.322948 120.519 0.897799C121.054 1.47265 121.355 2.25232 121.355 3.06528V148.749C121.355 149.562 121.054 150.342 120.519 150.917C119.983 151.492 119.257 151.814 118.5 151.814V151.814ZM21.955 0.107366C21.2318 0.108788 20.5387 0.418223 20.0278 0.967751C19.5169 1.51728 19.23 2.262 19.23 3.03844V148.749C19.23 149.526 19.5169 150.27 20.0278 150.82C20.5387 151.369 21.2318 151.679 21.955 151.68H118.5C119.224 151.679 119.917 151.37 120.429 150.82C120.941 150.271 121.229 149.526 121.23 148.749V3.03844C121.229 2.2615 120.941 1.5168 120.429 0.967424C119.917 0.418048 119.224 0.108785 118.5 0.107366H21.955Z" fill="#E0E0E0"/>
<path d="M226.655 151.814H130.105C129.348 151.813 128.623 151.49 128.088 150.915C127.553 150.341 127.251 149.562 127.25 148.749V3.03844C127.258 2.23057 127.562 1.4586 128.096 0.88984C128.631 0.32108 129.353 0.00136799 130.105 0H226.655C227.406 0.00279391 228.126 0.323303 228.659 0.892059C229.191 1.46082 229.493 2.23199 229.5 3.03844V148.749C229.5 149.56 229.201 150.338 228.667 150.913C228.134 151.487 227.41 151.812 226.655 151.814V151.814ZM130.105 0.107366C129.381 0.108785 128.688 0.418048 128.176 0.967424C127.664 1.5168 127.376 2.2615 127.375 3.03844V148.749C127.376 149.526 127.664 150.271 128.176 150.82C128.688 151.37 129.381 151.679 130.105 151.68H226.655C227.379 151.679 228.072 151.37 228.584 150.82C229.096 150.271 229.384 149.526 229.385 148.749V3.03844C229.384 2.2615 229.096 1.5168 228.584 0.967424C228.072 0.418048 227.379 0.108785 226.655 0.107366H130.105Z" fill="#E0E0E0"/>
<path d="M142.715 20.0773C140.215 14.2527 142.215 10.1084 148.335 10.1084C152.18 10.1084 156.95 11.7189 161.595 14.403C162.12 12.8892 163.595 11.9819 165.975 11.9819C170.16 11.9819 175.93 14.7842 180.475 18.7406C181.57 17.8602 183.155 17.318 185.19 17.2321C189.19 17.0549 194.045 18.6654 198.265 21.2851C198.512 21.0332 198.803 20.8366 199.122 20.7067C199.44 20.5767 199.779 20.5161 200.12 20.5282C202.43 20.4262 205.55 22.0528 207.12 24.1625C207.215 24.2913 207.3 24.4202 207.385 24.549H139.6C137.46 22.4769 139.825 20.1793 142.715 20.0773Z" fill="#F5F5F5"/>
<path d="M35.375 45.3887C35.6241 45.3607 35.8745 45.3464 36.125 45.3458C35.89 42.5543 37.24 40.772 40.125 40.772C42.2 40.772 44.75 41.7007 47.345 43.279C46.6 37.857 49 34.3569 54.365 34.3569C58.715 34.3569 64.215 36.6492 69.655 40.3855C70.13 38.2382 71.73 36.982 74.42 36.982C79.15 36.982 85.865 40.9223 91.255 46.4785C92.42 45.2384 94.165 44.4707 96.465 44.3312C100.965 44.0789 106.555 46.3389 111.51 50.0269C111.743 49.6823 112.052 49.4042 112.408 49.2171C112.765 49.0299 113.158 48.9393 113.555 48.9532C116.02 48.8137 119.41 50.8482 121.38 53.5699H31.415C29.3 49.4632 31 45.8558 35.375 45.3887Z" fill="#F5F5F5"/>
<path d="M161.68 136.51H208.43V109.137H161.68V136.51Z" fill="#E6E6E6"/>
<path d="M161.685 109.131H145.56V136.504H161.685V109.131Z" fill="#E0E0E0"/>
<path d="M161.055 175.757H162.315V86.268H161.055V175.757Z" fill="#F5F5F5"/>
<path d="M144.93 175.757H146.19V86.268H144.93V175.757Z" fill="#F5F5F5"/>
<path d="M207.8 175.757H209.06V86.268H207.8V175.757Z" fill="#F5F5F5"/>
<path d="M209.065 86.2626H161.055L176.985 74.7208L209.065 86.2626Z" fill="#E6E6E6"/>
<path d="M144.93 86.2626H161.055L176.985 74.7208L144.93 86.2626Z" fill="#E0E0E0"/>
<path d="M37.435 175.757H46C50.5 167.361 52.965 144.873 46.675 120.432C45.5993 116.254 44.2971 112.148 42.775 108.133C40.41 142.458 30.15 165.573 37.435 175.757Z" fill="#F0F0F0"/>
<path d="M53.285 175.757H44.7C40.7 169.551 39.545 152.931 47.265 134.867C48.6101 131.726 50.1537 128.688 51.885 125.773C52.26 151.149 61.17 168.231 53.285 175.757Z" fill="#F0F0F0"/>
<path d="M57.65 149.302C64.315 138.206 63.56 170.909 75.815 156.378C90.865 138.523 112.465 132.542 103.025 146.205C93.585 159.867 99.205 164.607 123.025 149.302C140.31 138.206 108.44 171.473 117.17 170.212C125.9 168.95 139.09 166.357 127.8 175.757H54.585C54.585 175.757 51 160.404 57.65 149.302Z" fill="#EBEBEB"/>
<path d="M205.105 175.757C205.105 175.757 206.485 162.637 196.555 155.894C199.39 165.407 196.49 175.757 196.49 175.757H205.105Z" fill="#EBEBEB"/>
<path d="M199.585 175.757C199.585 175.757 202.39 165.02 212.525 159.523C209.382 164.353 207.358 169.919 206.62 175.757H199.585Z" fill="#EBEBEB"/>
<path d="M130.12 175.757C130.12 175.757 130.62 169.369 136.055 166.094C134.704 169.098 134.104 172.428 134.315 175.757H130.12Z" fill="#F5F5F5"/>
<path d="M127 175.757C127 175.757 127.365 165.02 134 161.139C131.04 166.642 131.21 175.757 131.21 175.757H127Z" fill="#F5F5F5"/>
<path d="M26.93 175.757C26.93 175.757 27.195 173.105 30.065 171.741C29.3584 172.936 29.0353 174.346 29.145 175.757H26.93Z" fill="#F5F5F5"/>
<path d="M222.035 175.757C221.829 173.89 222.07 171.998 222.735 170.26C223.4 168.521 224.467 166.993 225.835 165.82C224.305 168.472 223.835 174.2 224.545 175.757H222.035Z" fill="#EBEBEB"/>
<path d="M54.625 175.757C55.625 169.675 54.32 155.223 43.215 145.926C47.8 153.892 49.215 171.087 47.095 175.757H54.625Z" fill="#FAFAFA"/>
<path d="M28.58 175.757C28.58 175.757 28.385 171.307 24.89 169.691C26.455 171.978 26.365 175.757 26.365 175.757H28.58Z" fill="#F5F5F5"/>
<path d="M125 200C178.541 200 221.945 197.279 221.945 193.923C221.945 190.567 178.541 187.846 125 187.846C71.4587 187.846 28.055 190.567 28.055 193.923C28.055 197.279 71.4587 200 125 200Z" fill="#F5F5F5"/>
<path d="M143.09 55.4113C143.09 55.4113 104.885 102.26 123.725 190.81H142.25C142.591 190.81 142.927 190.723 143.23 190.555C143.533 190.388 143.794 190.145 143.992 189.847C144.191 189.55 144.32 189.205 144.369 188.843C144.418 188.481 144.386 188.112 144.275 187.766C139.39 172.52 119.7 103.441 147.775 59.008C145.06 57.1023 143.09 55.4113 143.09 55.4113Z" fill="#92E3A9"/>
<path opacity="0.3" d="M143.09 55.4113C143.09 55.4113 104.885 102.26 123.725 190.81H142.25C142.591 190.81 142.927 190.723 143.23 190.555C143.533 190.388 143.794 190.145 143.992 189.847C144.191 189.55 144.32 189.205 144.369 188.843C144.418 188.481 144.386 188.112 144.275 187.766C139.39 172.52 119.7 103.441 147.775 59.008C145.06 57.1023 143.09 55.4113 143.09 55.4113Z" fill="#F5F5F5"/>
<g style="mix-blend-mode:multiply">
<g style="mix-blend-mode:multiply">
<path d="M140.45 73.7277C140.225 74.2968 140.01 74.8658 139.81 75.4402C137.067 75.132 134.298 75.2604 131.59 75.8214C131.885 75.145 132.175 74.4847 132.47 73.8458C135.113 73.4281 137.797 73.3884 140.45 73.7277V73.7277Z" fill="#92E3A9"/>
</g>
<g style="mix-blend-mode:multiply">
<path d="M137.305 83.3852C137.15 83.9542 137 84.5179 136.86 85.0923C134.31 83.7609 131.42 83.4818 128.54 83.4818C128.755 82.8859 128.97 82.3008 129.195 81.721C132.025 81.7962 134.785 82.1344 137.305 83.3852Z" fill="#92E3A9"/>
</g>
<g style="mix-blend-mode:multiply">
<path d="M135 94.0036C134.895 94.5888 134.8 95.1739 134.71 95.7591C131.505 94.6103 128.18 93.8963 124.955 94.6049C125.13 93.9661 125.315 93.3326 125.505 92.7045C128.645 92.2482 131.86 92.9085 135 94.0036Z" fill="#92E3A9"/>
</g>
<g style="mix-blend-mode:multiply">
<path d="M133.445 106.694C133.4 107.29 133.36 107.891 133.325 108.493C129.62 107.299 125.727 106.933 121.885 107.419C122 106.802 122.125 106.2 122.255 105.599C126.016 105.211 129.811 105.582 133.445 106.694V106.694Z" fill="#92E3A9"/>
</g>
<g style="mix-blend-mode:multiply">
<path d="M133 120.652C128.591 119.804 124.063 119.987 119.725 121.189C119.8 120.544 119.875 119.906 119.96 119.277C124.23 118.185 128.662 118.03 132.99 118.821C133 119.428 133 120.045 133 120.652Z" fill="#92E3A9"/>
</g>
<g style="mix-blend-mode:multiply">
<path d="M134.025 138.249C128.742 138.383 123.511 139.408 118.525 141.287C118.525 140.654 118.525 140.031 118.55 139.408C123.489 137.622 128.65 136.638 133.86 136.488C133.91 137.079 133.965 137.664 134.025 138.249Z" fill="#92E3A9"/>
</g>
<g style="mix-blend-mode:multiply">
<path d="M136.84 157.859C130.912 157.325 124.945 157.594 119.08 158.659C119.035 158.063 118.99 157.457 118.95 156.866C124.748 155.838 130.641 155.566 136.5 156.055C136.625 156.667 136.73 157.29 136.84 157.859Z" fill="#92E3A9"/>
</g>
</g>
<g opacity="0.1">
<path opacity="0.1" d="M140.45 73.7277C140.225 74.2968 140.01 74.8658 139.81 75.4402C137.067 75.132 134.298 75.2604 131.59 75.8214C131.885 75.145 132.175 74.4847 132.47 73.8458C135.113 73.4281 137.797 73.3884 140.45 73.7277V73.7277Z" fill="black"/>
<path opacity="0.1" d="M137.305 83.3852C137.15 83.9542 137 84.5179 136.86 85.0923C134.31 83.7609 131.42 83.4818 128.54 83.4818C128.755 82.8859 128.97 82.3008 129.195 81.721C132.025 81.7962 134.785 82.1344 137.305 83.3852Z" fill="black"/>
<path opacity="0.1" d="M135 94.0036C134.895 94.5888 134.8 95.1739 134.71 95.7591C131.505 94.6103 128.18 93.8963 124.955 94.6049C125.13 93.9661 125.315 93.3326 125.505 92.7045C128.645 92.2482 131.86 92.9085 135 94.0036Z" fill="black"/>
<path opacity="0.1" d="M133.445 106.694C133.4 107.29 133.36 107.891 133.325 108.493C129.62 107.299 125.727 106.933 121.885 107.419C122 106.802 122.125 106.2 122.255 105.599C126.016 105.211 129.811 105.582 133.445 106.694V106.694Z" fill="black"/>
<path opacity="0.1" d="M133 120.652C128.591 119.804 124.063 119.987 119.725 121.189C119.8 120.544 119.875 119.906 119.96 119.277C124.23 118.185 128.662 118.03 132.99 118.821C133 119.428 133 120.045 133 120.652Z" fill="black"/>
<path opacity="0.1" d="M134.025 138.249C128.742 138.383 123.511 139.408 118.525 141.287C118.525 140.654 118.525 140.031 118.55 139.408C123.489 137.622 128.65 136.638 133.86 136.488C133.91 137.079 133.965 137.664 134.025 138.249Z" fill="black"/>
<path opacity="0.1" d="M136.84 157.859C130.912 157.325 124.945 157.594 119.08 158.659C119.035 158.063 118.99 157.457 118.95 156.866C124.748 155.838 130.641 155.566 136.5 156.055C136.625 156.667 136.73 157.29 136.84 157.859Z" fill="black"/>
</g>
<path d="M110.535 174.78C110.58 169.334 110.32 163.889 109.755 158.477C109.7 157.881 109.635 157.279 109.555 156.673C108.883 150.845 107.796 145.08 106.305 139.43C106.155 138.85 105.995 138.265 105.805 137.68C104.762 133.981 103.518 130.352 102.08 126.809C101.85 126.272 101.625 125.736 101.385 125.172C100.092 122.156 98.6358 119.224 97.025 116.389C96.735 115.89 96.445 115.385 96.145 114.886C94.4605 112.051 92.6084 109.334 90.6 106.753C90.25 106.308 89.9 105.868 89.54 105.422C87.755 103.218 85.8553 101.125 83.85 99.1519C83.41 98.7224 82.96 98.2929 82.505 97.8688C78.3546 94.023 73.8282 90.6715 69.005 87.8731C70.8859 86.486 72.8483 85.2308 74.88 84.1154C75.98 84.4375 82.85 87.5403 91.515 94.8519C92.115 95.3565 92.72 95.8772 93.335 96.4248C94.885 97.8044 96.485 99.3022 98.105 100.945C98.56 101.412 99.025 101.879 99.48 102.367C101.964 104.976 104.322 107.719 106.545 110.586C107 111.177 107.455 111.783 107.92 112.401C109.61 114.698 111.295 117.157 112.92 119.793C113.25 120.33 113.57 120.866 113.92 121.403C116.321 125.403 118.492 129.557 120.42 133.842C120.69 134.432 120.955 135.028 121.21 135.629C123.728 141.474 125.83 147.514 127.5 153.699C127.67 154.295 127.83 154.891 128 155.492C129.299 160.493 130.351 165.564 131.15 170.684C131.235 171.269 131.33 171.86 131.415 172.455C132.3 178.537 132.876 184.666 133.14 190.815H111.905C111.603 190.816 111.304 190.748 111.028 190.615C110.752 190.482 110.505 190.288 110.304 190.046C110.103 189.803 109.953 189.518 109.862 189.208C109.772 188.898 109.744 188.571 109.78 188.249C110.045 185.822 110.4 181.807 110.505 176.659C110.5 176.047 110.53 175.424 110.535 174.78Z" fill="#92E3A9"/>
<path opacity="0.3" d="M110.535 174.78C110.58 169.334 110.32 163.889 109.755 158.477C109.7 157.881 109.635 157.279 109.555 156.673C108.883 150.845 107.796 145.08 106.305 139.43C106.155 138.85 105.995 138.265 105.805 137.68C104.762 133.981 103.518 130.352 102.08 126.809C101.85 126.272 101.625 125.736 101.385 125.172C100.092 122.156 98.6358 119.224 97.025 116.389C96.735 115.89 96.445 115.385 96.145 114.886C94.4605 112.051 92.6084 109.334 90.6 106.753C90.25 106.308 89.9 105.868 89.54 105.422C87.755 103.218 85.8553 101.125 83.85 99.1519C83.41 98.7224 82.96 98.2929 82.505 97.8688C78.3546 94.023 73.8282 90.6715 69.005 87.8731C70.8859 86.486 72.8483 85.2308 74.88 84.1154C75.98 84.4375 82.85 87.5403 91.515 94.8519C92.115 95.3565 92.72 95.8772 93.335 96.4248C94.885 97.8044 96.485 99.3022 98.105 100.945C98.56 101.412 99.025 101.879 99.48 102.367C101.964 104.976 104.322 107.719 106.545 110.586C107 111.177 107.455 111.783 107.92 112.401C109.61 114.698 111.295 117.157 112.92 119.793C113.25 120.33 113.57 120.866 113.92 121.403C116.321 125.403 118.492 129.557 120.42 133.842C120.69 134.432 120.955 135.028 121.21 135.629C123.728 141.474 125.83 147.514 127.5 153.699C127.67 154.295 127.83 154.891 128 155.492C129.299 160.493 130.351 165.564 131.15 170.684C131.235 171.269 131.33 171.86 131.415 172.455C132.3 178.537 132.876 184.666 133.14 190.815H111.905C111.603 190.816 111.304 190.748 111.028 190.615C110.752 190.482 110.505 190.288 110.304 190.046C110.103 189.803 109.953 189.518 109.862 189.208C109.772 188.898 109.744 188.571 109.78 188.249C110.045 185.822 110.4 181.807 110.505 176.659C110.5 176.047 110.53 175.424 110.535 174.78Z" fill="#F5F5F5"/>
<g style="mix-blend-mode:multiply">
<g style="mix-blend-mode:multiply">
<path d="M93.35 96.4087C90.0589 96.7232 86.8441 97.6515 83.85 99.1518C83.41 98.7224 82.96 98.2929 82.505 97.8688C85.3475 96.3582 88.3927 95.3348 91.53 94.8358C92.13 95.3404 92.735 95.8611 93.35 96.4087Z" fill="#92E3A9"/>
</g>
<g style="mix-blend-mode:multiply">
<path d="M99.5 102.351C96.325 103.35 93.09 104.445 90.63 106.753C90.28 106.308 89.93 105.868 89.57 105.422C91.98 103.189 94.995 101.954 98.125 100.929C98.575 101.396 99.04 101.863 99.5 102.351Z" fill="#92E3A9"/>
</g>
<g style="mix-blend-mode:multiply">
<path d="M107.92 112.401C103.92 112.073 100.32 113.952 97.05 116.389C96.76 115.89 96.47 115.385 96.17 114.886C99.345 112.551 102.775 110.736 106.545 110.592C107 111.177 107.455 111.783 107.92 112.401Z" fill="#92E3A9"/>
</g>
<g style="mix-blend-mode:multiply">
<path d="M113.91 121.392C109.641 122.204 105.602 124.057 102.105 126.809C101.875 126.272 101.65 125.735 101.41 125.172C104.854 122.543 108.771 120.715 112.91 119.803C113.26 120.319 113.58 120.85 113.91 121.392Z" fill="#92E3A9"/>
</g>
<g style="mix-blend-mode:multiply">
<path d="M121.195 135.618C116.014 135.546 110.898 136.856 106.305 139.43C106.155 138.85 105.995 138.265 105.805 137.68C110.319 135.199 115.309 133.881 120.38 133.831C120.675 134.421 120.94 135.017 121.195 135.618Z" fill="#92E3A9"/>
</g>
<g style="mix-blend-mode:multiply">
<path d="M128 155.492C121.798 155.275 115.611 156.287 109.75 158.477C109.695 157.881 109.63 157.279 109.55 156.673C115.327 154.569 121.401 153.562 127.5 153.699C127.69 154.295 127.85 154.891 128 155.492Z" fill="#92E3A9"/>
</g>
<g style="mix-blend-mode:multiply">
<path d="M131.42 172.456C124.29 172.724 117.238 174.141 110.5 176.659C110.5 176.047 110.525 175.424 110.53 174.78C117.186 172.361 124.133 170.991 131.155 170.711C131.24 171.248 131.335 171.86 131.42 172.456Z" fill="#92E3A9"/>
</g>
</g>
<g opacity="0.1">
<path opacity="0.1" d="M93.35 96.4087C90.0589 96.7232 86.8441 97.6515 83.85 99.1518C83.41 98.7224 82.96 98.2929 82.505 97.8688C85.3475 96.3582 88.3927 95.3348 91.53 94.8358C92.13 95.3404 92.735 95.8611 93.35 96.4087Z" fill="black"/>
<path opacity="0.1" d="M99.5 102.351C96.325 103.35 93.09 104.445 90.63 106.753C90.28 106.308 89.93 105.868 89.57 105.422C91.98 103.189 94.995 101.954 98.125 100.929C98.575 101.396 99.04 101.863 99.5 102.351Z" fill="black"/>
<path opacity="0.1" d="M107.92 112.401C103.92 112.073 100.32 113.952 97.05 116.389C96.76 115.89 96.47 115.385 96.17 114.886C99.345 112.551 102.775 110.736 106.545 110.592C107 111.177 107.455 111.783 107.92 112.401Z" fill="black"/>
<path opacity="0.1" d="M113.91 121.392C109.641 122.204 105.602 124.057 102.105 126.809C101.875 126.272 101.65 125.735 101.41 125.172C104.854 122.543 108.771 120.715 112.91 119.803C113.26 120.319 113.58 120.85 113.91 121.392Z" fill="black"/>
<path opacity="0.1" d="M121.195 135.618C116.014 135.546 110.898 136.856 106.305 139.43C106.155 138.85 105.995 138.265 105.805 137.68C110.319 135.199 115.309 133.881 120.38 133.831C120.675 134.421 120.94 135.017 121.195 135.618Z" fill="black"/>
<path opacity="0.1" d="M128 155.492C121.798 155.275 115.611 156.287 109.75 158.477C109.695 157.881 109.63 157.279 109.55 156.673C115.327 154.569 121.401 153.562 127.5 153.699C127.69 154.295 127.85 154.891 128 155.492Z" fill="black"/>
<path opacity="0.1" d="M131.42 172.456C124.29 172.724 117.238 174.141 110.5 176.659C110.5 176.047 110.525 175.424 110.53 174.78C117.186 172.361 124.133 170.991 131.155 170.711C131.24 171.248 131.335 171.86 131.42 172.456Z" fill="black"/>
</g>
<path d="M171.63 53.1136C183.63 46.7683 194.235 44.4814 201.13 42.9139C188.18 31.5493 170.98 36.37 162.865 39.6929C168.09 31.0124 173.5 24.7799 177.255 20.3672C161.015 19.2398 149.805 33.1007 144.785 40.992C138.585 36.2519 121.37 25.1879 105.135 33.9059C111.53 37.0464 121.41 41.7812 131.81 50.7999C124.36 51.6158 104.405 55.5078 97.575 73.7116C105.985 70.9684 120.005 66.2229 138.575 67.5113L139.52 67.5864C156.74 69.3526 166.315 77.7217 171.915 82.1559C171.69 76.487 169.15 72.0367 166.105 68.6923C182.105 72.2407 193.36 79.2678 200.37 83.5463C197.405 64.1668 178.725 55.6689 171.63 53.1136Z" fill="#92E3A9"/>
<path opacity="0.3" d="M171.63 53.1136C183.63 46.7683 194.235 44.4814 201.13 42.9139C188.18 31.5493 170.98 36.37 162.865 39.6929C168.09 31.0124 173.5 24.7799 177.255 20.3672C161.015 19.2398 149.805 33.1007 144.785 40.992C138.585 36.2519 121.37 25.1879 105.135 33.9059C111.53 37.0464 121.41 41.7812 131.81 50.7999C124.36 51.6158 104.405 55.5078 97.575 73.7116C105.985 70.9684 120.005 66.2229 138.575 67.5113L139.52 67.5864C156.74 69.3526 166.315 77.7217 171.915 82.1559C171.69 76.487 169.15 72.0367 166.105 68.6923C182.105 72.2407 193.36 79.2678 200.37 83.5463C197.405 64.1668 178.725 55.6689 171.63 53.1136Z" fill="black"/>
<path d="M102.795 86.3915C96.36 77.8559 85.085 79.2892 80.97 80.1696C85.16 73.5076 89.725 69.2345 92.665 66.4215C82.64 64.6178 75.125 73.5774 72.53 77.201C68.635 73.8673 60.53 68.4239 52 71.8918C55.7598 74.1459 59.3255 76.7544 62.655 79.6865C57.805 79.3537 47.865 79.8046 42.655 88.1684C46.57 87.7872 52.595 87.143 59.99 88.426C56.585 91.0404 47.885 98.8834 49.28 109.77C52.375 106.249 57.335 100.499 65.345 95.7806C64.0461 98.2853 63.6713 101.223 64.295 104.01C66.615 100.65 70.465 94.4761 79.43 90.4928L79.9 90.2942C89.65 86.3378 97.875 86.429 102.795 86.3915Z" fill="#92E3A9"/>
<path opacity="0.3" d="M102.795 86.3915C96.36 77.8559 85.085 79.2892 80.97 80.1696C85.16 73.5076 89.725 69.2345 92.665 66.4215C82.64 64.6178 75.125 73.5774 72.53 77.201C68.635 73.8673 60.53 68.4239 52 71.8918C55.7598 74.1459 59.3255 76.7544 62.655 79.6865C57.805 79.3537 47.865 79.8046 42.655 88.1684C46.57 87.7872 52.595 87.143 59.99 88.426C56.585 91.0404 47.885 98.8834 49.28 109.77C52.375 106.249 57.335 100.499 65.345 95.7806C64.0461 98.2853 63.6713 101.223 64.295 104.01C66.615 100.65 70.465 94.4761 79.43 90.4928L79.9 90.2942C89.65 86.3378 97.875 86.429 102.795 86.3915Z" fill="black"/>
<path d="M194.85 184.781H203.185L199.015 189.258L194.85 184.781Z" fill="#92E3A9"/>
<path d="M196.515 194.192H201.52L199.015 193.617L196.515 194.192Z" fill="#92E3A9"/>
<path d="M199.285 188.517H198.745V193.907H199.285V188.517Z" fill="#92E3A9"/>
<g opacity="0.6">
<path opacity="0.6" d="M194.85 184.781H203.185L199.015 189.258L194.85 184.781Z" fill="#F5F5F5"/>
<path opacity="0.6" d="M196.515 194.192H201.52L199.015 193.617L196.515 194.192Z" fill="#F5F5F5"/>
<path opacity="0.6" d="M199.285 188.517H198.745V193.907H199.285V188.517Z" fill="#F5F5F5"/>
</g>
<g style="mix-blend-mode:multiply">
<path d="M199.015 188.437L200.63 186.708H197.4L199.015 188.437Z" fill="#92E3A9"/>
</g>
<path opacity="0.3" d="M199.015 188.437L200.63 186.708H197.4L199.015 188.437Z" fill="#F5F5F5"/>
<path d="M199.735 187.352C199.714 187.357 199.691 187.357 199.67 187.352C199.654 187.343 199.641 187.33 199.63 187.315C199.619 187.3 199.611 187.283 199.606 187.264C199.602 187.246 199.601 187.227 199.603 187.208C199.605 187.189 199.611 187.17 199.62 187.154L201.295 183.863C201.312 183.829 201.341 183.804 201.376 183.792C201.411 183.781 201.448 183.786 201.48 183.804C201.512 183.823 201.535 183.854 201.546 183.891C201.556 183.928 201.552 183.969 201.535 184.003L199.855 187.293C199.841 187.313 199.823 187.329 199.802 187.34C199.781 187.35 199.758 187.354 199.735 187.352Z" fill="#92E3A9"/>
<path opacity="0.3" d="M199.735 187.352C199.714 187.357 199.691 187.357 199.67 187.352C199.654 187.343 199.641 187.33 199.63 187.315C199.619 187.3 199.611 187.283 199.606 187.264C199.602 187.246 199.601 187.227 199.603 187.208C199.605 187.189 199.611 187.17 199.62 187.154L201.295 183.863C201.312 183.829 201.341 183.804 201.376 183.792C201.411 183.781 201.448 183.786 201.48 183.804C201.512 183.823 201.535 183.854 201.546 183.891C201.556 183.928 201.552 183.969 201.535 184.003L199.855 187.293C199.841 187.313 199.823 187.329 199.802 187.34C199.781 187.35 199.758 187.354 199.735 187.352Z" fill="#F5F5F5"/>
<path d="M56.65 190.536C56.4804 190.531 56.3141 190.483 56.1647 190.397C56.0152 190.311 55.8867 190.188 55.7894 190.039C55.6922 189.889 55.6289 189.718 55.6047 189.537C55.5805 189.357 55.596 189.173 55.65 189L58.055 181.485C58.355 180.374 63.555 162.202 76.61 154.831C82.88 151.294 89.915 150.875 97.52 153.581C122.02 162.299 146.8 166.652 162.085 139.741C162.243 139.499 162.481 139.331 162.751 139.271C163.02 139.211 163.301 139.262 163.536 139.416C163.772 139.569 163.944 139.813 164.018 140.098C164.092 140.383 164.062 140.687 163.935 140.949C156.725 153.64 147.095 160.586 134.49 162.191C124.49 163.469 112.875 161.488 96.84 155.787C89.84 153.285 83.34 153.64 77.615 156.887C65.215 163.866 60.17 181.979 60.115 182.161V182.215L57.705 189.73C57.6352 189.97 57.4943 190.178 57.3038 190.324C57.1133 190.469 56.8836 190.544 56.65 190.536Z" fill="#92E3A9"/>
<path opacity="0.3" d="M56.65 190.536C56.4804 190.531 56.3141 190.483 56.1647 190.397C56.0152 190.311 55.8867 190.188 55.7894 190.039C55.6922 189.889 55.6289 189.718 55.6047 189.537C55.5805 189.357 55.596 189.173 55.65 189L58.055 181.485C58.355 180.374 63.555 162.202 76.61 154.831C82.88 151.294 89.915 150.875 97.52 153.581C122.02 162.299 146.8 166.652 162.085 139.741C162.243 139.499 162.481 139.331 162.751 139.271C163.02 139.211 163.301 139.262 163.536 139.416C163.772 139.569 163.944 139.813 164.018 140.098C164.092 140.383 164.062 140.687 163.935 140.949C156.725 153.64 147.095 160.586 134.49 162.191C124.49 163.469 112.875 161.488 96.84 155.787C89.84 153.285 83.34 153.64 77.615 156.887C65.215 163.866 60.17 181.979 60.115 182.161V182.215L57.705 189.73C57.6352 189.97 57.4943 190.178 57.3038 190.324C57.1133 190.469 56.8836 190.544 56.65 190.536Z" fill="black"/>
<path d="M164.905 140.949C164.358 140.779 163.775 140.802 163.24 141.013C162.706 141.225 162.249 141.614 161.935 142.125C146.75 166.856 123.055 163.904 97.155 154.686C74.5 146.634 63.57 169.374 60.22 178.361C60.0666 178.769 60.0028 179.209 60.0334 179.648C60.0641 180.087 60.1884 180.512 60.3968 180.891C60.6051 181.27 60.892 181.592 61.235 181.833C61.5781 182.074 61.9681 182.226 62.375 182.279L92.5 186.23C92.5 186.23 104.46 157.628 129.665 170.528C154.87 183.428 183 177.936 198.14 151.299L164.905 140.949Z" fill="#92E3A9"/>
<path opacity="0.3" d="M164.905 140.949C164.358 140.779 163.775 140.802 163.24 141.013C162.706 141.225 162.249 141.614 161.935 142.125C146.75 166.856 123.055 163.904 97.155 154.686C74.5 146.634 63.57 169.374 60.22 178.361C60.0666 178.769 60.0028 179.209 60.0334 179.648C60.0641 180.087 60.1884 180.512 60.3968 180.891C60.6051 181.27 60.892 181.592 61.235 181.833C61.5781 182.074 61.9681 182.226 62.375 182.279L92.5 186.23C92.5 186.23 104.46 157.628 129.665 170.528C154.87 183.428 183 177.936 198.14 151.299L164.905 140.949Z" fill="#F5F5F5"/>
<path d="M90.065 195.061C89.8954 195.056 89.7291 195.009 89.5797 194.923C89.4302 194.836 89.3017 194.714 89.2044 194.564C89.1072 194.415 89.0439 194.243 89.0197 194.063C88.9955 193.883 89.011 193.699 89.065 193.526L90.275 189.736C92.0236 184.159 94.9165 179.076 98.74 174.86C104.88 168.209 115.315 161.875 130.165 169.492C156.305 182.875 183.26 175.322 197.245 150.703C197.319 150.573 197.416 150.46 197.531 150.37C197.645 150.28 197.775 150.216 197.913 150.18C198.051 150.144 198.194 150.137 198.334 150.161C198.474 150.184 198.609 150.237 198.73 150.317C198.851 150.396 198.957 150.5 199.04 150.623C199.124 150.746 199.184 150.886 199.218 151.034C199.251 151.182 199.257 151.336 199.235 151.486C199.213 151.637 199.164 151.781 199.09 151.911C184.5 177.593 156.4 185.5 129.21 171.58C115.5 164.559 105.895 170.378 100.255 176.492C96.658 180.458 93.9376 185.241 92.295 190.487L91.085 194.277C91.0135 194.507 90.8763 194.706 90.6932 194.847C90.5101 194.987 90.2902 195.062 90.065 195.061Z" fill="#92E3A9"/>
<path opacity="0.3" d="M90.065 195.061C89.8954 195.056 89.7291 195.009 89.5797 194.923C89.4302 194.836 89.3017 194.714 89.2044 194.564C89.1072 194.415 89.0439 194.243 89.0197 194.063C88.9955 193.883 89.011 193.699 89.065 193.526L90.275 189.736C92.0236 184.159 94.9165 179.076 98.74 174.86C104.88 168.209 115.315 161.875 130.165 169.492C156.305 182.875 183.26 175.322 197.245 150.703C197.319 150.573 197.416 150.46 197.531 150.37C197.645 150.28 197.775 150.216 197.913 150.18C198.051 150.144 198.194 150.137 198.334 150.161C198.474 150.184 198.609 150.237 198.73 150.317C198.851 150.396 198.957 150.5 199.04 150.623C199.124 150.746 199.184 150.886 199.218 151.034C199.251 151.182 199.257 151.336 199.235 151.486C199.213 151.637 199.164 151.781 199.09 151.911C184.5 177.593 156.4 185.5 129.21 171.58C115.5 164.559 105.895 170.378 100.255 176.492C96.658 180.458 93.9376 185.241 92.295 190.487L91.085 194.277C91.0135 194.507 90.8763 194.706 90.6932 194.847C90.5101 194.987 90.2902 195.062 90.065 195.061Z" fill="black"/>
<path d="M190.08 195.061C189.907 195.061 189.737 195.016 189.583 194.931C189.429 194.846 189.296 194.723 189.195 194.573L175.22 173.341C175.058 173.09 174.995 172.78 175.044 172.479C175.094 172.178 175.253 171.91 175.485 171.733C175.718 171.557 176.006 171.487 176.287 171.538C176.568 171.588 176.819 171.756 176.985 172.004L190.985 193.231C191.098 193.405 191.165 193.609 191.177 193.821C191.19 194.033 191.149 194.244 191.058 194.433C190.966 194.621 190.829 194.78 190.66 194.89C190.492 195.001 190.298 195.06 190.1 195.061H190.08Z" fill="#92E3A9"/>
<path opacity="0.3" d="M190.08 195.061C189.907 195.061 189.737 195.016 189.583 194.931C189.429 194.846 189.296 194.723 189.195 194.573L175.22 173.341C175.058 173.09 174.995 172.78 175.044 172.479C175.094 172.178 175.253 171.91 175.485 171.733C175.718 171.557 176.006 171.487 176.287 171.538C176.568 171.588 176.819 171.756 176.985 172.004L190.985 193.231C191.098 193.405 191.165 193.609 191.177 193.821C191.19 194.033 191.149 194.244 191.058 194.433C190.966 194.621 190.829 194.78 190.66 194.89C190.492 195.001 190.298 195.06 190.1 195.061H190.08Z" fill="black"/>
<path d="M195.82 155.213C195.486 153.395 194.954 151.625 194.235 149.941C193.547 148.322 192.771 146.748 191.91 145.228C191.054 143.721 190.12 142.267 189.11 140.874L187.395 142.146C188.145 143.58 188.895 145.093 189.535 146.602C190.205 148.093 190.791 149.626 191.29 151.192C191.792 152.677 192.144 154.216 192.34 155.782C192.479 156.81 192.426 157.857 192.185 158.863C191.149 159.192 190.093 159.443 189.025 159.615C187.692 159.825 186.347 159.945 185 159.974C183.639 159.989 182.278 159.916 180.925 159.754C180.245 159.679 179.57 159.577 178.9 159.454C178.565 159.395 178.235 159.325 177.9 159.255C177.565 159.185 177.22 159.099 176.98 159.035L175.82 163.378C176.28 163.517 176.625 163.603 177.02 163.7C177.415 163.796 177.785 163.866 178.17 163.936C178.935 164.081 179.7 164.194 180.47 164.285C182.009 164.445 183.555 164.495 185.1 164.435C185.875 164.403 186.65 164.344 187.425 164.253C188.2 164.162 188.965 164.027 189.73 163.861C191.264 163.53 192.769 163.062 194.23 162.46L194.955 162.159L195.27 161.477C195.725 160.471 195.982 159.374 196.025 158.256C196.071 157.237 196.002 156.215 195.82 155.213V155.213Z" fill="#E4897B"/>
<path d="M188.605 144.057L184.18 141.319L188.465 138.206C188.465 138.206 190.08 140.616 189.865 142.817L188.605 144.057Z" fill="#E4897B"/>
<path d="M182.12 138.453L185.705 136.783L188.465 138.206L184.18 141.32L182.12 138.453Z" fill="#E4897B"/>
<path d="M157.545 146.253C157.38 146.006 157.285 145.856 157.17 145.662L156.85 145.126C156.645 144.761 156.45 144.39 156.27 144.02C155.903 143.275 155.57 142.515 155.27 141.738C154.684 140.179 154.247 138.56 153.965 136.907C153.824 136.072 153.725 135.23 153.67 134.384C153.627 133.533 153.627 132.68 153.67 131.828C153.721 130.976 153.819 130.128 153.965 129.289C154.03 128.865 154.135 128.452 154.22 128.033L154.38 127.421L154.46 127.11V127.035L154.5 126.916L154.575 126.68C154.813 126.009 155.203 125.411 155.71 124.941C156.188 124.506 156.752 124.193 157.36 124.028C158.289 123.789 159.252 123.75 160.195 123.916C161.745 124.192 163.257 124.675 164.695 125.354C167.405 126.601 169.995 128.127 172.43 129.912L171.37 131.839C170.115 131.211 168.82 130.588 167.525 130.03C166.23 129.472 164.935 128.93 163.635 128.505C162.407 128.067 161.138 127.776 159.85 127.636C159.373 127.582 158.891 127.628 158.43 127.77C158.361 127.782 158.297 127.816 158.248 127.869C158.198 127.923 158.166 127.991 158.155 128.065L157.97 128.93C157.92 129.268 157.85 129.601 157.815 129.939C157.731 130.612 157.684 131.289 157.675 131.968C157.674 133.335 157.802 134.698 158.055 136.037C158.323 137.393 158.708 138.72 159.205 139.999C159.45 140.638 159.705 141.271 160.025 141.883C160.17 142.194 160.33 142.49 160.49 142.785L160.73 143.22L160.945 143.585L157.545 146.253Z" fill="#E4897B"/>
<path d="M170.55 131.238L174.315 134.545L175.315 129.091C175.315 129.091 172.485 128.017 170.685 129.091L170.55 131.238Z" fill="#E4897B"/>
<path d="M178.665 134.405L178.695 130.213L175.3 129.091L174.315 134.545L178.665 134.405Z" fill="#E4897B"/>
<path d="M180.265 126.992C177.94 127.185 172.175 127.416 169.95 134.835C167.725 142.254 157.95 141.169 160.905 147.112C165.715 156.732 172.72 158.611 179.63 156.415C186.54 154.219 195.155 145.904 189.48 135.318C183.805 124.732 180.265 126.992 180.265 126.992Z" fill="#263238"/>
<path d="M162.64 150.161C164.18 143.95 160.02 138.195 160.02 138.195L151.02 142.871C151.02 142.871 154.02 149.581 156.385 151.009C158.875 152.501 161.85 153.35 162.64 150.161Z" fill="#92E3A9"/>
<path opacity="0.6" d="M162.64 150.161C164.18 143.95 160.02 138.195 160.02 138.195L151.02 142.871C151.02 142.871 154.02 149.581 156.385 151.009C158.875 152.501 161.85 153.35 162.64 150.161Z" fill="#F5F5F5"/>
<path d="M128.455 160.006C127.88 159.706 127.18 159.362 126.53 159.046L124.53 158.085C123.19 157.446 121.835 156.828 120.475 156.238C117.76 155.041 115.015 153.935 112.255 152.947C109.529 151.959 106.757 151.126 103.95 150.451C102.565 150.113 101.185 149.85 99.815 149.646L99.315 149.571C99.19 149.571 99.245 149.571 99.25 149.571C99.1644 149.55 99.0756 149.55 98.99 149.571C98.5369 149.687 98.0975 149.858 97.68 150.081C96.5179 150.692 95.4071 151.411 94.36 152.228C93.225 153.081 92.1 154.037 90.98 155.019C88.725 156.995 86.545 159.158 84.37 161.354C80.055 165.772 75.825 170.48 71.69 175.14L68.125 172.096C71.6321 166.614 75.43 161.353 79.5 156.34C81.54 153.811 83.69 151.369 86 148.991C87.155 147.804 88.365 146.65 89.655 145.528C91.0134 144.329 92.4673 143.26 94 142.334C94.928 141.784 95.9109 141.348 96.93 141.035C97.5823 140.836 98.253 140.716 98.93 140.675C99.1282 140.664 99.3268 140.664 99.525 140.675H100.025L100.645 140.724C102.305 140.853 103.945 141.056 105.55 141.336C108.725 141.906 111.864 142.686 114.95 143.671C118.01 144.626 120.995 145.754 123.95 146.994C125.415 147.622 126.875 148.271 128.315 148.964C129.035 149.313 129.75 149.667 130.47 150.038C131.19 150.408 131.875 150.773 132.66 151.208L128.455 160.006Z" fill="#E4897B"/>
<path d="M68.245 170.378L73.6 172.965C73.6923 173.013 73.7687 173.09 73.8187 173.186C73.8688 173.282 73.8902 173.393 73.88 173.502L73.135 178.618C73.1179 178.739 73.0747 178.854 73.0089 178.954C72.9431 179.054 72.8564 179.135 72.7558 179.193C72.6552 179.25 72.5435 179.282 72.4296 179.284C72.3158 179.287 72.2029 179.261 72.1 179.209C70.205 178.318 69.315 177.872 66.96 176.734L59.76 173.25C57.805 172.305 58.26 169.986 59.175 170.185C63.175 171.076 65.76 170.899 67.355 170.308C67.6489 170.207 67.9679 170.232 68.245 170.378V170.378Z" fill="#263238"/>
<path d="M141.1 164.865C134.358 160.829 127.219 157.61 119.815 155.266C120.225 150.972 120.73 147.16 120.12 144.53C125.563 145.487 130.823 147.397 135.69 150.182L141.1 164.865Z" fill="#263238"/>
<path d="M119.265 143.456C119.265 143.456 119.95 149.023 118.8 157.295C119.803 157.778 120.843 158.162 121.91 158.444C121.965 158.444 124.41 152.62 122.86 144.487C121.703 143.996 120.496 143.65 119.265 143.456Z" fill="#92E3A9"/>
<path opacity="0.4" d="M119.265 143.456C119.265 143.456 119.95 149.023 118.8 157.295C119.803 157.778 120.843 158.162 121.91 158.444C121.965 158.444 124.41 152.62 122.86 144.487C121.703 143.996 120.496 143.65 119.265 143.456Z" fill="#F5F5F5"/>
<path d="M67.045 170.668H66.935C66.19 170.501 65.17 170.276 64.975 169.744C64.9424 169.64 64.9359 169.528 64.956 169.419C64.9762 169.311 65.0224 169.21 65.09 169.127C65.128 169.063 65.1804 169.01 65.2425 168.973C65.3045 168.937 65.3742 168.918 65.445 168.918C66.09 168.918 67.04 170.367 67.145 170.528C67.1568 170.544 67.1641 170.562 67.166 170.582C67.168 170.602 67.1645 170.622 67.156 170.64C67.1475 170.657 67.1343 170.672 67.1182 170.682C67.102 170.692 67.0835 170.696 67.065 170.695L67.045 170.668ZM65.425 169.1C65.385 169.1 65.3455 169.11 65.3104 169.131C65.2753 169.151 65.2459 169.182 65.225 169.218C65.178 169.274 65.145 169.342 65.1292 169.415C65.1134 169.488 65.1155 169.565 65.135 169.637C65.28 170.04 66.165 170.26 66.82 170.405C66.47 169.911 65.82 169.106 65.425 169.1Z" fill="#FAFAFA"/>
<path d="M67.045 170.668C67.0186 170.667 66.9935 170.656 66.975 170.636C66.5 170.099 65.715 168.445 66.005 167.951C66.065 167.849 66.195 167.742 66.475 167.839C67.575 168.209 67.16 170.485 67.14 170.582C67.1377 170.601 67.1303 170.618 67.1188 170.633C67.1072 170.647 67.092 170.657 67.075 170.662L67.045 170.668ZM66.28 168.027C66.2 168.027 66.175 168.064 66.17 168.08C65.985 168.397 66.5 169.691 66.985 170.34C67.055 169.803 67.17 168.306 66.415 168.053C66.3717 168.036 66.3261 168.027 66.28 168.027V168.027Z" fill="#FAFAFA"/>
<path d="M132.755 166.583L131.805 166.137L130.805 165.681C130.125 165.375 129.44 165.074 128.75 164.784C127.375 164.194 125.99 163.625 124.59 163.093C121.805 162.02 118.985 161.048 116.16 160.227C113.373 159.407 110.538 158.785 107.675 158.364C106.27 158.171 104.88 158.036 103.515 157.993H103.015H102.805C102.82 157.998 102.835 157.998 102.85 157.993C102.85 157.993 102.805 157.993 102.65 158.031C102.22 158.193 101.811 158.412 101.43 158.681C100.328 159.442 99.2927 160.308 98.335 161.268C97.29 162.283 96.27 163.415 95.255 164.543C93.215 166.84 91.255 169.32 89.34 171.833C85.505 176.874 81.795 182.172 78.175 187.454L74.29 184.91C77.1875 178.912 80.401 173.095 83.915 167.49C85.675 164.672 87.56 161.923 89.59 159.212C90.62 157.859 91.7 156.528 92.875 155.234C94.0985 153.84 95.4374 152.568 96.875 151.433C97.7606 150.745 98.721 150.176 99.735 149.737C100.391 149.457 101.076 149.26 101.775 149.152L102.4 149.082H102.77L103.415 149.05C105.119 148.988 106.825 149.025 108.525 149.163C111.821 149.46 115.091 150.02 118.31 150.838C121.467 151.628 124.583 152.597 127.645 153.742C129.145 154.316 130.675 154.917 132.145 155.567C132.89 155.894 133.645 156.227 134.38 156.576L135.495 157.113L136.655 157.698L132.755 166.583Z" fill="#E4897B"/>
<path d="M75.175 182.827L80.535 184.437C80.6281 184.464 80.7089 184.526 80.7623 184.612C80.8157 184.698 80.838 184.802 80.825 184.904L80.26 189.634C80.2416 189.752 80.2002 189.865 80.1386 189.966C80.077 190.066 79.9964 190.151 79.9022 190.216C79.8079 190.281 79.7021 190.323 79.5915 190.342C79.4809 190.36 79.368 190.353 79.26 190.321C77.4 189.731 76.53 189.344 74.17 188.641C72.72 188.206 67.67 186.912 65.67 186.316C63.67 185.72 64.11 183.562 64.995 183.632C68.955 183.879 72.735 183.691 74.285 182.929C74.5612 182.783 74.8764 182.747 75.175 182.827Z" fill="#263238"/>
<path d="M179.3 160.801C173 167.968 161.53 166.953 150.045 168.719C147.696 169.062 145.371 169.573 143.085 170.249C141.66 166.368 138.62 158.138 135.69 150.166C137.925 151.031 140.65 150.897 143.44 150.231C151.14 148.406 159.375 142.586 159.375 142.586C161.885 144.082 164.323 145.712 166.68 147.472C169.122 149.437 171.428 151.59 173.58 153.913C175.641 156.056 177.553 158.358 179.3 160.801Z" fill="#92E3A9"/>
<path opacity="0.6" d="M179.3 160.801C173 167.968 161.53 166.953 150.045 168.719C147.696 169.062 145.371 169.573 143.085 170.249C141.66 166.368 138.62 158.138 135.69 150.166C137.925 151.031 140.65 150.897 143.44 150.231C151.14 148.406 159.375 142.586 159.375 142.586C161.885 144.082 164.323 145.712 166.68 147.472C169.122 149.437 171.428 151.59 173.58 153.913C175.641 156.056 177.553 158.358 179.3 160.801Z" fill="#F5F5F5"/>
<path d="M150.045 168.719C147.696 169.062 145.371 169.573 143.085 170.249C141.66 166.368 138.62 158.138 135.69 150.166C137.925 151.031 140.65 150.896 143.44 150.231C147.335 154.917 151.615 165.106 150.045 168.719Z" fill="#E4897B"/>
<path d="M179.63 144.905C177.27 146.886 173.315 150.854 173.585 153.887C173.585 153.887 167.46 154.15 162.21 152.464C161.42 146.935 166.68 147.472 166.68 147.472C169.68 149.141 171.18 147.106 172.26 144.852L179.63 144.905Z" fill="#E4897B"/>
<path d="M176.625 144.884L172.26 144.852C172.02 145.382 171.737 145.889 171.415 146.366C172.48 147.096 174.64 147.514 175.595 146.543C176.027 146.06 176.376 145.498 176.625 144.884V144.884Z" fill="#CE6F64"/>
<path d="M184.565 139.94C181.475 144.041 180.25 145.845 176.77 146.511C171.54 147.498 167.525 142.527 169.41 137.519C171.11 133.009 175.88 127.056 180.91 128.339C182.024 128.614 183.054 129.191 183.902 130.015C184.75 130.839 185.387 131.881 185.754 133.044C186.12 134.207 186.203 135.451 185.995 136.658C185.787 137.865 185.295 138.995 184.565 139.94V139.94Z" fill="#E4897B"/>
<path d="M182.945 142.538C182.895 142.538 182.846 142.517 182.81 142.479L178.78 138.254C178.748 138.214 178.731 138.163 178.733 138.11C178.735 138.057 178.755 138.007 178.79 137.97C178.825 137.932 178.871 137.91 178.921 137.908C178.97 137.906 179.018 137.925 179.055 137.959L183.08 142.178C183.099 142.198 183.113 142.22 183.124 142.246C183.134 142.271 183.139 142.298 183.139 142.326C183.139 142.354 183.134 142.381 183.124 142.406C183.113 142.432 183.099 142.455 183.08 142.474C183.045 142.513 182.996 142.536 182.945 142.538V142.538Z" fill="#263238"/>
<path d="M178.79 128.892C178.955 130.052 181.29 134.883 183.635 136.15C182.8 137.079 177.665 140.901 181.7 143.488C185.735 146.076 190.65 140.718 189.12 136.998C192.185 133.16 189.245 129.558 186.52 127.62C183.795 125.682 178.18 124.651 178.79 128.892Z" fill="#263238"/>
<path d="M174.74 129.579C174.74 129.579 179.15 128.951 180.39 130.379C180.66 129.262 180.39 127.523 178.97 127.668C177.55 127.813 174.74 129.579 174.74 129.579Z" fill="#263238"/>
<path d="M189.74 136.595C189.699 136.596 189.659 136.583 189.625 136.558C189.581 136.524 189.551 136.473 189.541 136.416C189.532 136.359 189.544 136.3 189.575 136.252C190.635 134.641 190.91 133.031 190.37 131.533C189.745 129.821 188.045 128.457 185.935 127.979C185.883 127.966 185.838 127.932 185.809 127.884C185.78 127.836 185.77 127.778 185.78 127.722C185.792 127.666 185.824 127.616 185.868 127.584C185.913 127.553 185.967 127.54 186.02 127.55C188.26 128.06 190.07 129.525 190.745 131.377C191.16 132.51 191.35 134.319 189.905 136.504C189.887 136.533 189.862 136.556 189.833 136.572C189.804 136.588 189.772 136.596 189.74 136.595V136.595Z" fill="#263238"/>
<path d="M183.065 144.09C182.379 144.797 181.46 145.183 180.51 145.163C179.25 145.126 179.01 143.821 179.655 142.753C180.25 141.797 181.625 140.659 182.74 141.218C182.979 141.346 183.184 141.535 183.338 141.769C183.492 142.004 183.59 142.275 183.622 142.56C183.654 142.844 183.62 143.133 183.523 143.4C183.426 143.667 183.268 143.904 183.065 144.09Z" fill="#E4897B"/>
<path d="M137.25 154.574C137.25 154.574 131.36 152.426 123.015 150.279L122.1 163.786C130.155 168.166 137.26 174.163 143.1 170.228L137.25 154.574Z" fill="#92E3A9"/>
<path opacity="0.7" d="M137.25 154.574C137.25 154.574 131.36 152.426 123.015 150.279L122.1 163.786C130.155 168.166 137.26 174.163 143.1 170.228L137.25 154.574Z" fill="black"/>
<path d="M121.9 149.399C122.281 154.376 121.978 159.386 121 164.269C121.971 164.817 122.987 165.27 124.035 165.622C125.224 160.589 125.73 155.397 125.535 150.209C124.356 149.792 123.136 149.52 121.9 149.399Z" fill="#92E3A9"/>
<path opacity="0.6" d="M121.9 149.399C122.281 154.376 121.978 159.386 121 164.269C121.971 164.817 122.987 165.27 124.035 165.622C125.224 160.589 125.73 155.397 125.535 150.209C124.356 149.792 123.136 149.52 121.9 149.399Z" fill="#F5F5F5"/>
<path d="M144.295 170.083L142.795 171.264C142.757 171.278 142.716 171.284 142.675 171.281C142.635 171.278 142.595 171.265 142.559 171.245C142.523 171.224 142.492 171.195 142.467 171.161C142.442 171.126 142.425 171.086 142.415 171.044L134.54 149.694C134.47 149.511 134.51 149.291 134.715 149.297L136.715 149.673C136.807 149.683 136.894 149.724 136.964 149.791C137.033 149.857 137.08 149.945 137.1 150.043L144.34 169.696C144.364 169.759 144.373 169.828 144.365 169.896C144.357 169.963 144.333 170.028 144.295 170.083V170.083Z" fill="#92E3A9"/>
<path opacity="0.3" d="M144.295 170.083L142.795 171.264C142.757 171.278 142.716 171.284 142.675 171.281C142.635 171.278 142.595 171.265 142.559 171.245C142.523 171.224 142.492 171.195 142.467 171.161C142.442 171.126 142.425 171.086 142.415 171.044L134.54 149.694C134.47 149.511 134.51 149.291 134.715 149.297L136.715 149.673C136.807 149.683 136.894 149.724 136.964 149.791C137.033 149.857 137.08 149.945 137.1 150.043L144.34 169.696C144.364 169.759 144.373 169.828 144.365 169.896C144.357 169.963 144.333 170.028 144.295 170.083V170.083Z" fill="black"/>
<path d="M141.17 168.247L141.37 168.784C141.41 168.891 141.495 168.95 141.555 168.918L143.635 167.737C143.695 167.705 143.715 167.586 143.675 167.479L143.47 166.942C143.43 166.83 143.35 166.77 143.29 166.808L141.21 167.984C141.177 168.016 141.155 168.06 141.147 168.108C141.14 168.155 141.148 168.204 141.17 168.247V168.247Z" fill="#263238"/>
<path d="M135 151.68L135.185 152.217C135.225 152.319 135.315 152.394 135.385 152.378L137.83 151.841C137.9 151.841 137.93 151.729 137.89 151.627L137.705 151.09C137.665 150.982 137.575 150.913 137.505 150.929L135.06 151.466C135 151.476 134.965 151.573 135 151.68Z" fill="#263238"/>
<path d="M138.105 159.974L138.305 160.511C138.345 160.618 138.43 160.688 138.495 160.661L140.715 159.813C140.78 159.786 140.805 159.679 140.765 159.572L140.565 159.035C140.525 158.927 140.44 158.858 140.375 158.884L138.155 159.733C138.09 159.749 138.07 159.856 138.105 159.974Z" fill="#263238"/>
<path d="M179.38 137.964C179.08 138.402 178.668 138.737 178.194 138.927C177.72 139.118 177.204 139.156 176.71 139.038C176.424 138.956 176.157 138.812 175.925 138.614C175.679 138.384 175.478 138.104 175.333 137.789C175.189 137.475 175.104 137.133 175.084 136.783C175.064 136.434 175.109 136.083 175.217 135.752C175.324 135.421 175.492 135.117 175.71 134.856L179.38 137.964Z" fill="#263238"/>
<path d="M175.645 135.468C175.599 135.469 175.555 135.451 175.52 135.42L174.925 134.883C174.905 134.866 174.888 134.844 174.876 134.82C174.863 134.796 174.856 134.769 174.853 134.741C174.851 134.713 174.854 134.686 174.862 134.659C174.87 134.633 174.883 134.608 174.9 134.588C174.916 134.566 174.937 134.549 174.959 134.536C174.982 134.523 175.007 134.515 175.032 134.513C175.058 134.51 175.084 134.513 175.108 134.522C175.133 134.53 175.155 134.543 175.175 134.561L175.77 135.098C175.806 135.137 175.827 135.19 175.827 135.245C175.827 135.301 175.806 135.354 175.77 135.393C175.738 135.433 175.694 135.46 175.645 135.468Z" fill="#263238"/>
<path d="M177.71 136.51C177.48 136.859 177.12 137.009 176.91 136.848C176.7 136.687 176.71 136.268 176.94 135.919C177.17 135.57 177.535 135.42 177.745 135.581C177.955 135.742 177.945 136.161 177.71 136.51Z" fill="#263238"/>
<path d="M175.43 134.625C175.131 135.065 174.719 135.4 174.245 135.591C173.77 135.782 173.254 135.819 172.76 135.699C172.483 135.616 172.225 135.473 172 135.28C170.97 134.416 170.875 132.763 171.785 131.522L175.43 134.625Z" fill="#263238"/>
<path d="M174.035 133.697C173.805 134.045 173.445 134.196 173.23 134.035C173.015 133.874 173.035 133.455 173.265 133.106C173.495 132.757 173.855 132.607 174.07 132.768C174.285 132.929 174.265 133.348 174.035 133.697Z" fill="#263238"/>
<path d="M174.15 132.859L173.53 132.022C173.53 132.022 173.5 132.983 174.15 132.859Z" fill="#263238"/>
<path d="M175.05 135.055C174.111 135.484 173.122 135.773 172.11 135.914C172.137 136.18 172.218 136.437 172.346 136.667C172.475 136.897 172.648 137.094 172.855 137.245L175.05 135.055Z" fill="#DE5753"/>
<path d="M175.255 140.455C174.523 140.453 173.81 140.201 173.22 139.736C173.209 139.728 173.2 139.719 173.193 139.707C173.186 139.696 173.181 139.683 173.179 139.669C173.176 139.656 173.177 139.642 173.179 139.628C173.182 139.615 173.188 139.602 173.195 139.591C173.214 139.572 173.239 139.562 173.265 139.562C173.291 139.562 173.316 139.572 173.335 139.591C173.735 139.914 174.2 140.132 174.692 140.225C175.185 140.318 175.692 140.285 176.17 140.128C176.182 140.123 176.194 140.12 176.207 140.12C176.22 140.12 176.233 140.123 176.244 140.129C176.256 140.134 176.266 140.142 176.275 140.152C176.284 140.162 176.291 140.174 176.295 140.187C176.305 140.213 176.305 140.243 176.294 140.269C176.284 140.295 176.265 140.316 176.24 140.326C175.921 140.428 175.588 140.471 175.255 140.455V140.455Z" fill="#263238"/>
<path d="M180.785 135.092C180.737 135.094 180.69 135.076 180.654 135.042C180.618 135.008 180.595 134.961 180.59 134.91C180.563 134.588 180.464 134.277 180.304 134.004C180.143 133.731 179.924 133.502 179.665 133.337C179.642 133.325 179.622 133.307 179.605 133.287C179.588 133.266 179.575 133.242 179.567 133.215C179.559 133.189 179.556 133.162 179.557 133.134C179.559 133.107 179.566 133.08 179.578 133.055C179.589 133.03 179.605 133.008 179.624 132.99C179.644 132.972 179.666 132.958 179.691 132.95C179.715 132.941 179.741 132.938 179.766 132.939C179.792 132.941 179.817 132.949 179.84 132.961C180.157 133.157 180.426 133.432 180.624 133.762C180.821 134.093 180.942 134.47 180.975 134.862C180.978 134.889 180.977 134.916 180.97 134.943C180.963 134.969 180.952 134.994 180.936 135.016C180.92 135.037 180.9 135.055 180.878 135.068C180.855 135.082 180.83 135.09 180.805 135.092H180.785Z" fill="#263238"/>
<path d="M175.29 131.447C175.26 131.447 175.231 131.44 175.204 131.426C175.177 131.412 175.153 131.392 175.135 131.367C174.934 131.126 174.681 130.941 174.399 130.827C174.117 130.713 173.814 130.674 173.515 130.712C173.49 130.716 173.464 130.714 173.439 130.706C173.414 130.698 173.391 130.685 173.371 130.668C173.352 130.65 173.336 130.628 173.324 130.603C173.313 130.579 173.306 130.552 173.305 130.524C173.302 130.497 173.305 130.469 173.312 130.443C173.319 130.417 173.332 130.392 173.348 130.371C173.364 130.35 173.384 130.333 173.407 130.32C173.43 130.308 173.455 130.3 173.48 130.298C173.844 130.255 174.212 130.307 174.554 130.448C174.896 130.589 175.201 130.815 175.445 131.109C175.476 131.154 175.489 131.209 175.483 131.264C175.476 131.319 175.45 131.37 175.41 131.404C175.375 131.431 175.333 131.446 175.29 131.447Z" fill="#263238"/>
<path d="M171.645 155.481C173.7 153.967 182.2 156.592 182.2 156.592L180.915 167.678C180.915 167.678 171.99 165.498 168.785 165.74C166.065 165.938 169.03 157.414 171.645 155.481Z" fill="#92E3A9"/>
<path opacity="0.6" d="M171.645 155.481C173.7 153.967 182.2 156.592 182.2 156.592L180.915 167.678C180.915 167.678 171.99 165.498 168.785 165.74C166.065 165.938 169.03 157.414 171.645 155.481Z" fill="#F5F5F5"/>
<path d="M74.62 183.407C73.965 183.407 72.815 183.246 72.485 182.682C72.4307 182.579 72.4021 182.462 72.4021 182.344C72.4021 182.225 72.4307 182.109 72.485 182.006C72.5076 181.937 72.5469 181.877 72.5988 181.83C72.6508 181.784 72.7133 181.754 72.78 181.743C73.395 181.651 74.58 183.068 74.71 183.23C74.7197 183.247 74.7248 183.268 74.7248 183.289C74.7248 183.309 74.7197 183.33 74.71 183.348C74.7012 183.365 74.6882 183.38 74.6724 183.39C74.6566 183.401 74.6385 183.406 74.62 183.407V183.407ZM72.84 181.946H72.795C72.7608 181.952 72.7287 181.967 72.7022 181.991C72.6757 182.014 72.6559 182.046 72.645 182.081C72.6065 182.155 72.5863 182.24 72.5863 182.325C72.5863 182.41 72.6065 182.494 72.645 182.569C72.835 182.886 73.475 183.106 74.385 183.176C74 182.714 73.23 181.946 72.84 181.946V181.946Z" fill="#FAFAFA"/>
<path d="M74.62 183.407C74.6076 183.407 74.5952 183.404 74.584 183.399C74.5727 183.393 74.5628 183.385 74.555 183.375C74.175 182.967 73.595 181.614 73.85 181.077C73.8897 180.991 73.9557 180.923 74.0368 180.884C74.1179 180.845 74.2091 180.837 74.295 180.862C74.3813 180.876 74.4638 180.91 74.5371 180.961C74.6104 181.012 74.6727 181.079 74.72 181.157C75.105 181.796 74.72 183.267 74.72 183.305C74.7154 183.323 74.7065 183.339 74.6943 183.352C74.682 183.365 74.6667 183.375 74.65 183.38L74.62 183.407ZM74.2 181.066C74.1634 181.062 74.1265 181.07 74.0943 181.09C74.0621 181.109 74.0362 181.138 74.02 181.174C73.85 181.539 74.23 182.58 74.575 183.074C74.66 182.661 74.82 181.705 74.575 181.27C74.5437 181.216 74.5014 181.17 74.4512 181.135C74.401 181.101 74.3442 181.079 74.285 181.072L74.2 181.066Z" fill="#FAFAFA"/>
<path d="M177.83 135.672L177.205 134.835C177.205 134.835 177.175 135.817 177.83 135.672Z" fill="#263238"/>
</svg>
