<svg width="252" height="202" viewBox="0 0 252 202" fill="none" xmlns="http://www.w3.org/2000/svg">
<path d="M108.53 142.413C132.695 135.901 148.199 130.969 165.845 130.797C165.845 130.797 190.981 133.469 201.381 130.797C231.793 122.969 234.442 94.4619 218.023 73.416C201.021 51.6206 170.422 57.8405 170.422 57.8405C133.797 63.391 109.362 57.2683 96.5831 52.1699C86.3418 48.0958 73.9649 49.6122 66.0742 56.3528C64.2968 57.8074 62.9059 59.5515 61.9901 61.4741C50.7504 86.8744 63.6959 111.697 68.3138 126.855C70.0195 132.474 84.3587 148.925 108.53 142.413Z" stroke="#263238" stroke-linecap="round" stroke-linejoin="round" stroke-dasharray="2 2"/>
<path d="M119.721 37.3383C118.744 46.8484 117.718 56.4901 117.974 65.9945C118.577 89.0201 121.379 111.971 123.154 134.946C124.215 148.639 127.494 163.11 124.152 176.717C121.025 189.471 108.717 200 92.5962 200.944C74.8524 201.985 62.0318 188.315 63.9663 174.565C65.4155 164.266 72.9179 154.75 73.3617 144.37C73.9511 130.397 54.1618 132.199 41.2995 123.198C26.1629 112.624 11.2205 98.5646 6.82444 82.1765C5.55554 77.4673 5.22965 72.449 7.34448 67.9228C16.9201 47.4835 57.5664 42.3508 73.3617 59.7231C89.6354 77.6332 83.2216 103.68 109.855 106.123C136.487 108.567 162.628 99.2054 188.276 93.9125C213.925 88.6196 242.527 101.649 238.089 129.321C233.652 156.993 192.222 156.215 172.987 137.057C153.753 117.899 162.628 78.852 166.573 63.3623C168.744 54.8707 174.319 47.2489 179.207 39.6729C183.055 33.699 187.909 27.462 186.661 20.4067C182.979 -0.393116 140.897 -6.27542 128.104 11.6748C128.091 11.6976 121.594 19.0734 119.721 37.3383Z" stroke="#263238" stroke-linecap="round" stroke-linejoin="round" stroke-dasharray="2 2"/>
<path d="M125.248 121.018C118.763 121.018 112.545 118.892 107.96 115.109C103.375 111.325 100.799 106.193 100.799 100.842V100.842C100.799 95.4909 103.375 90.3591 107.96 86.5753C112.545 82.7916 118.763 80.6659 125.248 80.6659V80.6659C131.732 80.6659 137.95 82.7916 142.536 86.5753C147.121 90.3591 149.696 95.4909 149.696 100.842C149.696 106.193 147.121 111.325 142.536 115.109C137.95 118.892 131.732 121.018 125.248 121.018V121.018Z" fill="#263238" stroke="#263238" stroke-miterlimit="10"/>
<path d="M121.372 113.036H127.328V100.739H131.488L131.925 96.6191H127.328V94.2616C127.328 93.2946 127.564 92.9112 128.715 92.9112H131.932V88.6368H127.813C123.382 88.6368 121.386 90.2447 121.386 93.3232V96.6076H118.293V100.779H121.386L121.372 113.036Z" fill="#92E3A9"/>
<path d="M134.83 84.3052C137.123 85.2083 139.21 86.4296 141.001 87.9158" stroke="white" stroke-width="0.75" stroke-linecap="round" stroke-linejoin="round"/>
<path d="M111.484 86.4567C111.99 86.1248 112.524 85.8101 113.079 85.5068C116.036 83.9064 119.414 82.9124 122.931 82.6079C126.448 82.3033 130.002 82.6969 133.298 83.7558" stroke="white" stroke-width="0.75" stroke-linecap="round" stroke-linejoin="round"/>
<path d="M122.543 119.032C119.34 118.708 116.261 117.811 113.521 116.404C110.781 114.996 108.446 113.113 106.679 110.884V110.884C104.181 107.742 102.916 104.043 103.053 100.287C103.191 96.5312 104.725 92.9013 107.448 89.8899" stroke="white" stroke-width="0.75" stroke-linecap="round" stroke-linejoin="round"/>
<path d="M130.753 118.603C129.308 118.918 127.828 119.11 126.336 119.176" stroke="white" stroke-width="0.75" stroke-linecap="round" stroke-linejoin="round"/>
<path d="M141.001 87.9158C142.055 88.7913 143.002 89.7495 143.83 90.7768V90.7768C145.432 92.7898 146.536 95.0437 147.08 97.4094C147.624 99.7751 147.598 102.206 147.002 104.563C146.406 106.921 145.253 109.158 143.608 111.147C141.963 113.136 139.859 114.837 137.417 116.154C135.813 117.019 134.081 117.712 132.265 118.214" stroke="white" stroke-width="0.75" stroke-linecap="round" stroke-linejoin="round"/>
<path d="M226.551 121.018C220.067 121.018 213.848 118.892 209.263 115.109C204.678 111.325 202.102 106.193 202.102 100.842V100.842C202.102 95.4909 204.678 90.3591 209.263 86.5753C213.848 82.7916 220.067 80.6659 226.551 80.6659V80.6659C233.035 80.6659 239.254 82.7916 243.839 86.5753C248.424 90.3591 251 95.4909 251 100.842V100.842C251 106.193 248.424 111.325 243.839 115.109C239.254 118.892 233.035 121.018 226.551 121.018V121.018Z" fill="#263238" stroke="#263238" stroke-miterlimit="10"/>
<path d="M214.923 116.446C212.759 115.348 210.84 113.951 209.251 112.315" stroke="white" stroke-width="0.75" stroke-linecap="round" stroke-linejoin="round"/>
<path d="M238.415 116.349C237.86 116.635 237.292 116.921 236.702 117.156C233.557 118.487 230.072 119.179 226.537 119.174C223.002 119.169 219.519 118.467 216.379 117.127" stroke="white" stroke-width="0.75" stroke-linecap="round" stroke-linejoin="round"/>
<path d="M231.62 82.9948C234.763 83.5965 237.71 84.7579 240.252 86.3977C242.795 88.0374 244.873 90.1159 246.34 92.4877V92.4877C248.419 95.8303 249.201 99.6196 248.581 103.341C247.96 107.063 245.968 110.538 242.874 113.293" stroke="white" stroke-width="0.75" stroke-linecap="round" stroke-linejoin="round"/>
<path d="M223.382 82.6973C224.861 82.5205 226.357 82.4687 227.848 82.5428" stroke="white" stroke-width="0.75" stroke-linecap="round" stroke-linejoin="round"/>
<path d="M209.251 112.315C208.314 111.347 207.496 110.304 206.811 109.202C205.478 107.06 204.67 104.723 204.434 102.324C204.197 99.9243 204.536 97.5099 205.431 95.2187C206.326 92.9275 207.76 90.8044 209.651 88.971C211.541 87.1376 213.851 85.6299 216.449 84.5341V84.5341C218.154 83.8132 219.965 83.2767 221.836 82.9376" stroke="white" stroke-width="0.75" stroke-linecap="round" stroke-linejoin="round"/>
<path d="M226.551 91.7725C230.136 91.7725 230.559 91.7725 231.974 91.8354C232.824 91.8441 233.666 91.9738 234.463 92.2188C235.04 92.4046 235.564 92.6872 236.002 93.0486C236.44 93.4101 236.782 93.8426 237.007 94.3188C237.302 94.9768 237.457 95.6717 237.465 96.373C237.528 97.5174 237.541 97.8894 237.541 100.842C237.541 103.795 237.541 104.144 237.465 105.311C237.457 106.012 237.302 106.707 237.007 107.365C236.785 107.843 236.444 108.277 236.006 108.638C235.567 109 235.042 109.282 234.463 109.465C233.666 109.71 232.824 109.84 231.974 109.849C230.587 109.9 230.136 109.911 226.551 109.911C222.966 109.911 222.55 109.911 221.136 109.849C220.286 109.84 219.443 109.71 218.647 109.465C218.067 109.287 217.541 109.006 217.107 108.641C216.677 108.28 216.35 107.844 216.15 107.365C215.856 106.707 215.701 106.012 215.693 105.311C215.623 104.167 215.61 103.795 215.61 100.842C215.61 97.8894 215.61 97.5403 215.693 96.373C215.701 95.6717 215.856 94.9768 216.15 94.3188C216.364 93.8379 216.708 93.4035 217.156 93.0485C217.588 92.6807 218.114 92.3972 218.695 92.2188C219.492 91.9738 220.334 91.8441 221.184 91.8354C222.571 91.7839 223.022 91.7725 226.6 91.7725H226.551ZM226.6 89.7812C222.96 89.7812 222.509 89.7812 221.053 89.8441C219.941 89.8637 218.842 90.0378 217.801 90.3591C216.908 90.6387 216.099 91.074 215.429 91.6351C214.746 92.1881 214.218 92.8581 213.883 93.5978C213.49 94.4563 213.279 95.364 213.259 96.2815C213.19 97.4602 213.176 97.8379 213.176 100.859C213.176 103.88 213.176 104.241 213.259 105.437C213.279 106.356 213.491 107.266 213.883 108.126C214.228 108.86 214.755 109.526 215.43 110.083C216.104 110.64 216.912 111.074 217.801 111.359C218.842 111.68 219.941 111.855 221.053 111.874C222.488 111.926 222.939 111.937 226.6 111.937C230.261 111.937 230.698 111.937 232.147 111.874C233.258 111.854 234.357 111.68 235.399 111.359C236.288 111.074 237.096 110.64 237.77 110.083C238.444 109.526 238.971 108.86 239.316 108.126C239.709 107.266 239.92 106.356 239.94 105.437C240.01 104.258 240.024 103.88 240.024 100.859C240.024 97.8379 240.024 97.4774 239.94 96.2815C239.92 95.364 239.709 94.4563 239.316 93.5978C238.981 92.8581 238.453 92.1881 237.77 91.6351C237.1 91.074 236.291 90.6387 235.399 90.3591C234.357 90.0385 233.258 89.8644 232.147 89.8441C230.712 89.7926 230.254 89.7812 226.6 89.7812" fill="#92E3A9"/>
<path d="M226.551 95.16C225.192 95.1679 223.865 95.5078 222.739 96.137C221.613 96.7661 220.738 97.6563 220.225 98.6952C219.711 99.7341 219.582 100.875 219.853 101.975C220.124 103.074 220.783 104.083 221.748 104.874C222.713 105.664 223.94 106.202 225.274 106.418C226.609 106.634 227.99 106.519 229.246 106.088C230.501 105.656 231.574 104.928 232.328 103.995C233.082 103.061 233.485 101.964 233.485 100.842C233.485 99.335 232.76 97.8898 231.468 96.8242C230.177 95.7586 228.426 95.16 226.6 95.16H226.551ZM226.551 104.561C225.667 104.561 224.802 104.345 224.067 103.939C223.331 103.534 222.758 102.957 222.419 102.283C222.081 101.609 221.992 100.867 222.165 100.151C222.337 99.4346 222.763 98.777 223.389 98.2609C224.014 97.7447 224.811 97.3932 225.679 97.2508C226.546 97.1084 227.446 97.1815 228.263 97.4608C229.08 97.7401 229.778 98.2132 230.27 98.8201C230.761 99.4271 231.024 100.141 231.024 100.871C231.025 101.355 230.909 101.836 230.685 102.284C230.461 102.732 230.131 103.139 229.716 103.482C229.3 103.825 228.807 104.097 228.264 104.282C227.721 104.467 227.139 104.562 226.551 104.561Z" fill="#92E3A9"/>
<path d="M235.336 94.9368C235.336 95.1993 235.242 95.456 235.065 95.6743C234.889 95.8926 234.637 96.0628 234.343 96.1632C234.049 96.2637 233.726 96.29 233.414 96.2388C233.102 96.1876 232.815 96.0611 232.59 95.8755C232.365 95.6898 232.212 95.4533 232.15 95.1958C232.088 94.9383 232.12 94.6713 232.242 94.4288C232.363 94.1862 232.569 93.9789 232.834 93.833C233.099 93.6871 233.41 93.6093 233.728 93.6093C234.154 93.6093 234.564 93.7491 234.865 93.9981C235.167 94.247 235.336 94.5847 235.336 94.9368Z" fill="#92E3A9"/>
<path d="M125.248 194.736C118.763 194.736 112.545 192.61 107.96 188.826C103.375 185.042 100.799 179.91 100.799 174.559V174.559C100.799 169.208 103.375 164.075 107.959 160.291C112.544 156.506 118.763 154.379 125.248 154.378V154.378C131.732 154.379 137.951 156.506 142.536 160.291C147.121 164.075 149.696 169.208 149.696 174.559V174.559C149.696 179.91 147.121 185.042 142.536 188.826C137.95 192.61 131.732 194.736 125.248 194.736V194.736Z" fill="#263238" stroke="#263238" stroke-miterlimit="10"/>
<path d="M113.731 158.881C115.899 157.789 118.28 157.015 120.768 156.592" stroke="white" stroke-width="0.75" stroke-linecap="round" stroke-linejoin="round"/>
<path d="M103.129 176.179C103.073 175.647 103.045 175.103 103.045 174.56C103.043 171.642 103.885 168.765 105.503 166.17C107.12 163.576 109.466 161.337 112.344 159.642" stroke="white" stroke-width="0.75" stroke-linecap="round" stroke-linejoin="round"/>
<path d="M142.194 186.387C140.113 188.423 137.518 190.058 134.591 191.179C131.664 192.3 128.475 192.879 125.248 192.876C120.698 192.876 116.257 191.724 112.526 189.575C108.794 187.427 105.952 184.384 104.384 180.859" stroke="white" stroke-width="0.75" stroke-linecap="round" stroke-linejoin="round"/>
<path d="M146.271 180.488C145.787 181.652 145.162 182.774 144.406 183.835" stroke="white" stroke-width="0.75" stroke-linecap="round" stroke-linejoin="round"/>
<path d="M120.768 156.632C122.242 156.383 123.743 156.259 125.248 156.26V156.26C131.132 156.26 136.776 158.19 140.937 161.623C145.098 165.057 147.436 169.715 147.436 174.571C147.437 176.153 147.19 177.728 146.701 179.257" stroke="white" stroke-width="0.75" stroke-linecap="round" stroke-linejoin="round"/>
<path d="M25.4696 121.018C22.2572 121.02 19.0757 120.5 16.107 119.487C13.1384 118.474 10.4407 116.988 8.16823 115.115C5.89575 113.241 4.093 111.016 2.86304 108.567C1.63307 106.118 0.999999 103.493 1 100.842C0.999999 98.191 1.63307 95.5659 2.86304 93.1169C4.093 90.668 5.89575 88.443 8.16823 86.5693C10.4407 84.6955 13.1384 83.2097 16.107 82.1968C19.0757 81.1838 22.2572 80.6636 25.4696 80.6659V80.6659C31.9538 80.6659 38.1724 82.7916 42.7574 86.5753C47.3425 90.3591 49.9183 95.4909 49.9183 100.842C49.9183 106.193 47.3425 111.325 42.7574 115.109C38.1724 118.892 31.9538 121.018 25.4696 121.018V121.018Z" fill="#263238" stroke="#263238" stroke-miterlimit="10"/>
<path d="M13.9316 85.1691C16.0997 84.0762 18.4809 83.3018 20.9695 82.8802" stroke="white" stroke-width="0.75" stroke-linecap="round" stroke-linejoin="round"/>
<path d="M3.32283 102.467C3.26736 101.929 3.23963 101.391 3.23963 100.842C3.23702 97.9239 4.07952 95.0476 5.69693 92.4528C7.31435 89.8579 9.65982 87.6196 12.5379 85.9244" stroke="white" stroke-width="0.75" stroke-linecap="round" stroke-linejoin="round"/>
<path d="M42.3951 112.687C40.3136 114.717 37.7212 116.348 34.7983 117.468C31.8754 118.587 28.692 119.168 25.4696 119.17C20.9183 119.174 16.4754 118.024 12.7432 115.875C9.01102 113.725 6.17009 110.68 4.60561 107.153" stroke="white" stroke-width="0.75" stroke-linecap="round" stroke-linejoin="round"/>
<path d="M46.4653 106.77C45.9858 107.938 45.3607 109.062 44.6001 110.123" stroke="white" stroke-width="0.75" stroke-linecap="round" stroke-linejoin="round"/>
<path d="M20.9695 82.886C22.4434 82.637 23.9443 82.5124 25.4488 82.5141V82.5141C31.3335 82.5141 36.9772 84.4432 41.1383 87.8771C45.2994 91.311 47.6371 95.9684 47.6371 100.825C47.6384 102.406 47.3914 103.982 46.9021 105.511" stroke="white" stroke-width="0.75" stroke-linecap="round" stroke-linejoin="round"/>
<path d="M12.42 107.594C14.8637 108.893 17.7094 109.582 20.6159 109.58C30.5382 109.58 36.1407 102.662 35.8079 96.4588C36.8517 95.8311 37.7531 95.0563 38.4705 94.17C37.4957 94.5237 36.463 94.757 35.4058 94.8624C36.5211 94.3129 37.3546 93.446 37.7494 92.4247C36.7 92.936 35.5538 93.2977 34.3587 93.4948C33.5551 92.787 32.4912 92.3174 31.3316 92.1589C30.172 92.0003 28.9814 92.1615 27.9441 92.6175C26.9067 93.0736 26.0804 93.7991 25.5929 94.6817C25.1055 95.5643 24.9842 96.5549 25.2477 97.5002C23.1228 97.4126 21.0441 96.9566 19.147 96.162C17.2499 95.3673 15.5768 94.2519 14.2367 92.8882C13.5534 93.8599 13.3437 95.0097 13.6502 96.1043C13.9566 97.1989 14.7564 98.1562 15.887 98.782C15.0364 98.754 14.2065 98.5578 13.4671 98.2098C13.4504 99.238 13.8695 100.239 14.6519 101.039C15.4343 101.839 16.5309 102.389 17.7522 102.593C16.9649 102.767 16.14 102.793 15.3392 102.667C15.6804 103.544 16.3452 104.31 17.2404 104.859C18.1356 105.408 19.2164 105.712 20.3316 105.729C19.2267 106.454 17.959 106.993 16.6013 107.313C15.2436 107.633 13.8227 107.728 12.42 107.594V107.594Z" fill="#92E3A9"/>
<path d="M125.248 42.6198C118.763 42.6198 112.545 40.4941 107.96 36.7104C103.375 32.9266 100.799 27.7948 100.799 22.4438V22.4438C100.799 17.0927 103.375 11.9609 107.96 8.17713C112.545 4.39338 118.763 2.2677 125.248 2.2677V2.2677C131.732 2.2677 137.95 4.39338 142.536 8.17713C147.121 11.9609 149.696 17.0927 149.696 22.4438C149.696 27.7948 147.121 32.9266 142.536 36.7104C137.95 40.4941 131.732 42.6198 125.248 42.6198Z" fill="#263238" stroke="#263238" stroke-miterlimit="10"/>
<path fill-rule="evenodd" clip-rule="evenodd" d="M139.337 21.9517C139.369 19.0682 138.01 16.2927 135.562 14.2355C133.113 12.1784 129.775 11.0082 126.281 10.9824C122.787 10.9566 119.423 12.0773 116.931 14.098C114.438 16.1186 113.02 18.8737 112.989 21.7571C112.989 21.9116 112.989 22.0718 112.989 22.2263C112.988 24.1915 113.64 26.1192 114.875 27.7996L112.524 33.6075L119.818 31.6906C121.817 32.5982 124.067 33.0621 126.348 33.0367C128.629 33.0114 130.862 32.4977 132.83 31.5461C134.799 30.5944 136.434 29.2373 137.575 27.6077C138.717 25.978 139.327 24.1316 139.344 22.2492C139.344 22.1634 139.344 22.0432 139.337 21.9517ZM126.163 31.2958C123.998 31.3002 121.88 30.7767 120.075 29.7909L115.818 30.9353L117.204 27.565C115.843 26.0209 115.115 24.1587 115.124 22.2492C115.124 21.9574 115.124 21.677 115.18 21.3737C115.509 19.1384 116.825 17.0815 118.876 15.5963C120.927 14.1111 123.569 13.3017 126.298 13.323C129.026 13.3442 131.649 14.1946 133.666 15.7114C135.683 17.2283 136.951 19.3053 137.229 21.5454C137.257 21.7819 137.271 22.0165 137.271 22.2492C137.256 24.6657 136.079 26.9786 133.999 28.6793C131.919 30.38 129.105 31.3294 126.177 31.3187L126.163 31.2958Z" fill="#92E3A9"/>
<path fill-rule="evenodd" clip-rule="evenodd" d="M132.209 24.4064C131.883 24.2748 130.302 23.6339 130.004 23.5481C129.706 23.4623 129.491 23.4165 129.311 23.6797C129.131 23.9429 128.472 24.538 128.292 24.7097C128.111 24.8813 127.91 24.9099 127.598 24.7783C126.647 24.4692 125.769 24.0237 125.005 23.4623C124.297 22.9327 123.692 22.3172 123.209 21.6369C123.029 21.3737 123.209 21.2306 123.355 21.099C123.5 20.9674 123.674 20.79 123.84 20.6356L123.958 20.5097C124.027 20.4124 124.083 20.3208 124.159 20.1949C124.206 20.1238 124.23 20.0441 124.23 19.9632C124.23 19.8823 124.206 19.8026 124.159 19.7315C124.076 19.5999 123.466 18.2952 123.161 17.7688C122.855 17.2424 122.62 17.3282 122.467 17.3282C122.315 17.3282 122.065 17.3282 121.85 17.3282C121.686 17.3309 121.524 17.3618 121.374 17.4189C121.225 17.476 121.092 17.5582 120.983 17.6601C120.621 17.9428 120.334 18.2847 120.141 18.664C119.947 19.0433 119.852 19.4516 119.86 19.8631C119.863 20.1694 119.919 20.4739 120.026 20.7672C120.277 21.4284 120.667 22.0481 121.177 22.5982C121.337 22.7699 123.41 25.5279 126.725 26.6037C130.039 27.6794 130.004 27.3018 130.601 27.256C131.05 27.1859 131.477 27.038 131.852 26.822C132.227 26.606 132.543 26.3268 132.778 26.0029C132.991 25.6081 133.056 25.1696 132.965 24.744C132.75 24.6067 132.535 24.538 132.209 24.4064Z" fill="#92E3A9"/>
<path d="M113.731 6.76527C115.899 5.67315 118.28 4.89879 120.768 4.47644" stroke="white" stroke-width="0.75" stroke-linecap="round" stroke-linejoin="round"/>
<path d="M103.129 24.0631C103.073 23.5309 103.045 22.9873 103.045 22.4437C103.043 19.5257 103.885 16.6494 105.503 14.0546C107.12 11.4597 109.466 9.22143 112.344 7.52625" stroke="white" stroke-width="0.75" stroke-linecap="round" stroke-linejoin="round"/>
<path d="M142.194 34.2884C140.112 36.3225 137.517 37.9566 134.59 39.0765C131.662 40.1963 128.474 40.7748 125.248 40.7716V40.7716C120.698 40.7722 116.257 39.6202 112.526 37.4712C108.794 35.3222 105.952 32.2799 104.384 28.7552" stroke="white" stroke-width="0.75" stroke-linecap="round" stroke-linejoin="round"/>
<path d="M146.271 28.3718C145.786 29.5379 145.161 30.6612 144.406 31.7249" stroke="white" stroke-width="0.75" stroke-linecap="round" stroke-linejoin="round"/>
<path d="M120.768 4.48786C122.242 4.23888 123.743 4.11426 125.248 4.11592V4.11592C131.132 4.11592 136.776 6.04507 140.937 9.47899C145.098 12.9129 147.436 17.5703 147.436 22.4266C147.437 24.0083 147.19 25.5835 146.701 27.113" stroke="white" stroke-width="0.75" stroke-linecap="round" stroke-linejoin="round"/>
<path d="M176.066 160.043C192.123 160.043 205.139 149.301 205.139 136.05C205.139 122.799 192.123 112.057 176.066 112.057C160.009 112.057 146.992 122.799 146.992 136.05C146.992 149.301 160.009 160.043 176.066 160.043Z" fill="#92E3A9" stroke="#263238" stroke-miterlimit="10"/>
<path opacity="0.3" d="M176.066 160.043C192.123 160.043 205.139 149.301 205.139 136.05C205.139 122.799 192.123 112.057 176.066 112.057C160.009 112.057 146.992 122.799 146.992 136.05C146.992 149.301 160.009 160.043 176.066 160.043Z" fill="white" stroke="#263238" stroke-miterlimit="10"/>
<path d="M176.066 112.057C176.066 112.057 161.359 110.741 159.016 116.744C156.672 122.746 166.56 121.682 164.999 124.468C163.439 127.255 156.935 130.883 159.536 134.98C162.136 139.077 166.816 143.563 161.616 142.064C156.415 140.565 155.119 140.13 156.159 144.85C157.199 149.571 162.656 150.859 171.496 150.212C180.337 149.565 179.554 153.004 184.49 153.434C189.427 153.863 194.371 151.5 194.371 145.491C194.371 139.483 188.394 140.776 193.851 137.772C199.308 134.768 198.275 127.043 196.715 124.686C195.155 122.328 192.035 123.398 192.035 120.394C192.035 117.39 184.532 111.657 176.066 112.057Z" fill="#263238" stroke="#263238" stroke-miterlimit="10"/>
<path d="M167.974 114.861C167.974 114.861 162.531 114.26 162.711 117.104C162.892 119.948 172.335 125.493 181.232 125.647C190.128 125.802 191.029 122.048 189.76 121.298" stroke="white" stroke-width="0.75" stroke-linecap="round" stroke-linejoin="round"/>
<path d="M173.604 117.241C173.604 117.241 169.25 117.688 169.791 120.102C170.332 122.517 173.057 123.696 177.238 125.046" stroke="white" stroke-width="0.75" stroke-linecap="round" stroke-linejoin="round"/>
<path d="M195.384 131.918C195.384 131.918 195.023 135.666 189.4 138.064C183.776 140.462 178.708 144.044 183.561 145.852C188.415 147.66 191.189 149.743 189.372 150.195" stroke="white" stroke-width="0.75" stroke-linecap="round" stroke-linejoin="round"/>
<path d="M167.614 143.002C167.614 143.002 165.436 147.196 162.17 146.435C158.905 145.674 157.809 143.574 159.993 143.574C162.177 143.574 162.351 144.473 162.351 144.473" stroke="white" stroke-width="0.75" stroke-linecap="round" stroke-linejoin="round"/>
<path d="M184.948 125.836C184.948 125.836 189.407 125.779 188.679 129.372C187.95 132.966 183.776 133.269 182.688 135.964" stroke="white" stroke-width="0.75" stroke-linecap="round" stroke-linejoin="round"/>
<path d="M176.066 160.065C182.591 160.072 188.928 158.257 194.045 154.916C192.007 153.674 188.373 151.482 186.259 150.338C183.201 148.656 179.124 143.42 173.681 144.353C169.312 145.108 157.622 149.262 153.17 150.876C155.89 153.742 159.365 156.059 163.333 157.652C167.3 159.244 171.654 160.069 176.066 160.065V160.065Z" fill="white" stroke="#263238" stroke-miterlimit="10"/>
<path d="M172.793 143.563C172.793 143.563 164.736 145.491 163.696 151.07C162.656 156.649 170.325 152.627 170.325 152.627C170.325 152.627 174.353 157.508 177.993 156.008C181.634 154.509 182.154 149.354 180.074 145.92C177.993 142.487 172.793 143.563 172.793 143.563Z" fill="white" stroke="#263238" stroke-miterlimit="10"/>
<path d="M172.578 139.466C172.621 141.294 172.319 143.116 171.684 144.868C170.664 147.46 167.343 151.03 170.297 152.633C173.251 154.235 177.037 149.136 178.021 144.856C179.006 140.576 179.72 135.461 179.72 135.461L172.578 139.466Z" fill="white"/>
<g style="mix-blend-mode:multiply" opacity="0.5">
<path d="M171.892 144.295C172.844 144.58 173.833 144.772 174.839 144.868C175.74 144.953 176.101 144.793 176.225 144.604C176.114 145.674 175.691 148.61 174.215 150.773C173.764 151.436 173.396 151.997 173.105 152.489C175.296 151.271 177.342 147.872 178.035 144.873C179.02 140.599 179.706 135.495 179.706 135.495L172.564 139.5C172.599 141.116 172.372 142.729 171.892 144.295V144.295Z" fill="#92E3A9"/>
</g>
<path d="M172.578 139.466C172.621 141.294 172.319 143.116 171.684 144.868C170.664 147.46 167.343 151.03 170.297 152.633C173.251 154.235 177.037 149.136 178.021 144.856C179.006 140.576 179.72 135.461 179.72 135.461L172.578 139.466Z" stroke="#263238" stroke-miterlimit="10"/>
<path d="M168.217 122.872C168.217 122.872 165.721 131.455 165.721 134.654C165.721 137.852 169.285 141.766 173.805 142.092C179.574 142.476 181.696 136.078 182.944 132.433C184.026 129.269 184.761 126.534 184.941 125.859C176.17 128.594 168.217 122.872 168.217 122.872Z" fill="white"/>
<g style="mix-blend-mode:multiply" opacity="0.5">
<path d="M184.948 125.836C184.076 126.111 183.172 126.312 182.251 126.437C181.842 128.617 180.587 133.978 177.709 137.274C175.268 140.072 172.654 141.085 171.171 141.452C171.997 141.791 172.893 142.001 173.812 142.069C179.581 142.453 181.703 136.056 182.951 132.411" fill="#92E3A9"/>
</g>
<path d="M168.217 122.872C168.217 122.872 165.721 131.455 165.721 134.654C165.721 137.852 169.285 141.766 173.805 142.092C179.574 142.476 181.696 136.078 182.944 132.433C184.026 129.269 184.761 126.534 184.941 125.859C176.17 128.594 168.217 122.872 168.217 122.872Z" stroke="#263238" stroke-miterlimit="10"/>
<path d="M172.973 128.949C172.656 129.883 172.157 130.768 171.496 131.57C170.595 132.502 168.667 131.661 169.236 132.222C169.55 132.55 169.944 132.822 170.391 133.019C170.839 133.216 171.331 133.334 171.836 133.366" stroke="#263238" stroke-linecap="round" stroke-linejoin="round"/>
<path d="M168.612 135.14C168.612 135.14 170.311 137.2 173.819 136.17" stroke="#263238" stroke-linecap="round" stroke-linejoin="round"/>
<path d="M171.323 128.285C171.219 128.794 170.859 129.172 170.519 129.12C170.179 129.069 169.985 128.623 170.089 128.113C170.193 127.604 170.553 127.232 170.893 127.278C171.233 127.324 171.427 127.776 171.323 128.285Z" fill="#263238"/>
<path d="M177.037 129.63C176.884 130.133 176.496 130.488 176.163 130.419C175.83 130.351 175.678 129.893 175.823 129.389C175.969 128.886 176.357 128.537 176.697 128.6C177.037 128.663 177.182 129.132 177.037 129.63Z" fill="#263238"/>
<path d="M169 125.767C169 125.767 169.909 123.993 172.627 125.023" stroke="#263238" stroke-linecap="round" stroke-linejoin="round"/>
<path d="M175.789 126.528C175.789 126.528 178.285 125.876 178.964 127.93" stroke="#263238" stroke-linecap="round" stroke-linejoin="round"/>
<path d="M74.8594 160.043C90.9163 160.043 103.933 149.301 103.933 136.05C103.933 122.799 90.9163 112.057 74.8594 112.057C58.8024 112.057 45.7857 122.799 45.7857 136.05C45.7857 149.301 58.8024 160.043 74.8594 160.043Z" fill="#92E3A9" stroke="#263238" stroke-miterlimit="10"/>
<path opacity="0.3" d="M74.8594 160.043C90.9163 160.043 103.933 149.301 103.933 136.05C103.933 122.799 90.9163 112.057 74.8594 112.057C58.8024 112.057 45.7857 122.799 45.7857 136.05C45.7857 149.301 58.8024 160.043 74.8594 160.043Z" fill="white" stroke="#263238" stroke-miterlimit="10"/>
<path d="M56.6719 154.744C62.3734 158.534 69.5992 160.408 76.9031 159.99C84.207 159.572 91.0502 156.893 96.0631 152.489C92.7903 149.01 86.0853 143.048 78.6245 143.048C70.3454 143.048 60.5132 151.202 56.6719 154.744Z" fill="white" stroke="#263238" stroke-miterlimit="10"/>
<path d="M71.6421 141.274C71.6421 141.274 66.7121 141.738 66.2891 144.879C65.8662 148.02 68.82 153.25 69.1043 153.828C69.3886 154.406 75.7261 149.182 78.1183 149.182C80.5105 149.182 86.7093 151.969 86.7093 151.969C86.7093 151.969 84.7401 145.457 81.2177 143.014C77.6953 140.57 72.6198 140.341 71.6421 141.274Z" fill="white" stroke="#263238" stroke-miterlimit="10"/>
<path opacity="0.5" d="M65.1589 129.738C65.1589 129.738 63.0441 127.993 61.9208 129.389C60.7975 130.786 61.7752 132.411 63.3076 133.458C64.84 134.505 67.2529 134.602 67.2529 133.807C67.2529 133.011 65.1589 129.738 65.1589 129.738Z" fill="#92E3A9" stroke="#263238" stroke-miterlimit="10"/>
<path d="M65.1589 129.738C65.1589 129.738 63.0441 127.993 61.9208 129.389C60.7975 130.786 61.7752 132.411 63.3076 133.458C64.84 134.505 67.2529 134.602 67.2529 133.807C67.2529 133.011 65.1589 129.738 65.1589 129.738Z" stroke="#263238" stroke-miterlimit="10"/>
<path d="M83.3395 125.693C83.3395 125.693 84.3241 123.599 85.7317 125.807C87.1392 128.016 84.4628 129.99 84.4628 129.99L83.3395 125.693Z" fill="white" stroke="#263238" stroke-miterlimit="10"/>
<path d="M67.2737 133.83C67.2737 133.83 70.0889 142.201 70.7961 145.108C71.5034 148.015 74.7415 152.203 77.1337 150.83C79.5259 149.457 79.3941 146.876 77.9796 144.667C77.0485 143.141 76.294 141.545 75.7261 139.901L67.2737 133.83Z" fill="white"/>
<g style="mix-blend-mode:multiply" opacity="0.5">
<path d="M77.9796 144.645C77.0485 143.118 76.294 141.522 75.7261 139.878L67.2737 133.83C67.2737 133.83 69.5827 140.696 70.5396 144.13C71.7616 144.917 73.1515 145.509 74.6375 145.875C75.9221 146.165 77.2925 146.035 78.465 145.514C78.3255 145.216 78.1634 144.926 77.9796 144.645V144.645Z" fill="#92E3A9"/>
</g>
<path d="M67.2737 133.83C67.2737 133.83 70.0889 142.201 70.7961 145.108C71.5034 148.015 74.7415 152.203 77.1337 150.83C79.5259 149.457 79.3941 146.876 77.9796 144.667C77.0485 143.141 76.294 141.545 75.7261 139.901L67.2737 133.83Z" stroke="#263238" stroke-miterlimit="10"/>
<path d="M62.219 125.109C62.219 125.109 68.8408 138.27 71.6629 141.274C74.485 144.278 82.0637 144.53 85.3295 140.13C88.5953 135.729 84.9065 129.784 84.3449 127.106C83.7833 124.428 82.2647 120.017 83.2147 119.204C84.1646 118.392 88.1446 117.808 86.5984 115.714C85.0521 113.619 82.7917 114.666 82.5144 113.156C82.237 111.645 83.6376 107.92 78.4234 107.342C73.2091 106.764 64.0495 111.874 60.3954 115.828C56.7412 119.782 55.5763 123.364 62.219 125.109Z" fill="#263238" stroke="#263238" stroke-miterlimit="10"/>
<path d="M64.2991 121.155C64.2991 121.155 59.9585 120.886 62.1358 117.442C64.313 113.997 78.8394 109.356 79.0197 111.903C79.2 114.449 75.9341 115.199 75.9341 115.199" stroke="white" stroke-width="0.75" stroke-linecap="round" stroke-linejoin="round"/>
<path d="M70.1374 117.894C70.1374 117.894 66.8716 117.293 67.9602 115.347C69.0488 113.402 77.0366 112.486 75.5874 113.699C74.7283 114.41 73.7498 115.015 72.6822 115.496" stroke="white" stroke-width="0.75" stroke-linecap="round" stroke-linejoin="round"/>
<path d="M80.6561 133.017C80.6561 133.017 78.2639 136.153 74.4572 134.642" stroke="white" stroke-width="0.75" stroke-linecap="round" stroke-linejoin="round"/>
<path d="M84.3241 127.083C83.7971 124.583 82.4034 120.549 83.0344 119.376C82.6114 118.535 81.1553 116.572 76.8563 116.389C71.3578 116.154 65.4432 118.712 64.313 121.155C63.1828 123.599 65.8662 122.3 66.8508 124.062C67.8354 125.825 65.2976 127.902 65.8662 129.178C66.4347 130.454 69.1043 135.472 69.1043 135.472C69.5272 134.076 75.8717 131.747 75.8717 131.747C76.7893 131.947 77.7394 132.026 78.6869 131.982C79.9558 131.867 79.2485 130.934 79.2485 130.934L85.7455 131.255C85.1908 129.567 84.5321 128.096 84.3241 127.083Z" fill="white"/>
<g style="mix-blend-mode:multiply" opacity="0.5">
<path d="M69.3192 122.088C69.0558 119.799 67.2391 119.347 66.0326 119.307C65.2835 119.799 64.6889 120.433 64.2991 121.155C63.1758 123.599 65.8523 122.3 66.8369 124.062C67.8215 125.824 65.2837 127.902 65.8523 129.178C66.4209 130.454 69.0904 135.472 69.0904 135.472C69.2291 135.026 69.9641 134.482 70.9071 133.956C69.5203 132.325 67.8285 130.339 66.8716 129.189C65.0688 126.986 69.7283 125.636 69.3192 122.088Z" fill="#92E3A9"/>
</g>
<path d="M84.3241 127.083C83.7971 124.583 82.4034 120.549 83.0344 119.376C82.6114 118.535 81.1553 116.572 76.8563 116.389C71.3578 116.154 65.4432 118.712 64.313 121.155C63.1828 123.599 65.8662 122.3 66.8508 124.062C67.8354 125.825 65.2976 127.902 65.8662 129.178C66.4347 130.454 69.1043 135.472 69.1043 135.472C69.5272 134.076 75.8717 131.747 75.8717 131.747C76.7893 131.947 77.7394 132.026 78.6869 131.982C79.9558 131.867 79.2485 130.934 79.2485 130.934L85.7455 131.255C85.1908 129.567 84.5321 128.096 84.3241 127.083Z" stroke="#263238" stroke-miterlimit="10"/>
<path d="M72.384 126.523C72.5643 127.169 72.384 127.759 72.0304 127.827C71.6767 127.896 71.2052 127.427 71.0319 126.774C70.8585 126.122 71.0319 125.538 71.3855 125.47C71.7391 125.401 72.2106 125.87 72.384 126.523Z" fill="#263238"/>
<path d="M80.7739 125.098C80.9542 125.75 80.7739 126.334 80.4203 126.402C80.0667 126.471 79.5952 126.002 79.4149 125.35C79.2346 124.697 79.4149 124.114 79.7755 124.045C80.136 123.976 80.5937 124.445 80.7739 125.098Z" fill="#263238"/>
<path d="M69.1043 123.479C69.1043 123.479 69.6659 120.921 72.911 121.968" stroke="#263238" stroke-linecap="round" stroke-linejoin="round"/>
<path d="M81.6337 120.806C79.2346 119.525 78.3887 121.378 78.3887 121.378C78.3887 121.378 76.8702 122.752 77.4873 125.287" stroke="#263238" stroke-linecap="round" stroke-linejoin="round"/>
<path d="M69.5273 130.339L73.6113 128.949" stroke="#263238" stroke-width="0.5" stroke-linecap="round" stroke-linejoin="round"/>
<path d="M79.3941 127.902L82.7709 127.667" stroke="#263238" stroke-width="0.5" stroke-linecap="round" stroke-linejoin="round"/>
<path d="M182.865 84.6651C198.476 81.565 208.086 68.6081 204.33 55.7251C200.573 42.842 184.873 34.9114 169.261 38.0114C153.65 41.1115 144.04 54.0684 147.796 66.9515C151.553 79.8345 167.254 87.7652 182.865 84.6651Z" fill="#92E3A9" stroke="#263238" stroke-miterlimit="10"/>
<path opacity="0.3" d="M182.865 84.6651C198.476 81.565 208.086 68.6081 204.33 55.7251C200.573 42.842 184.873 34.9114 169.261 38.0114C153.65 41.1115 144.04 54.0684 147.796 66.9515C151.553 79.8345 167.254 87.7652 182.865 84.6651Z" fill="white" stroke="#263238" stroke-miterlimit="10"/>
<path d="M200.897 56.5621C204.813 47.848 199.076 38.0559 188.082 34.6908C177.088 31.3258 165.001 35.662 161.084 44.3761C157.167 53.0902 162.905 62.8823 173.899 66.2474C184.893 69.6125 196.98 65.2762 200.897 56.5621Z" fill="#263238" stroke="#263238" stroke-miterlimit="10"/>
<path d="M200.743 47.1345C201.705 49.9696 201.642 52.9745 200.563 55.7806" stroke="white" stroke-width="0.75" stroke-linecap="round" stroke-linejoin="round"/>
<path d="M199.273 58.0522C199.273 58.0522 197.984 59.4198 197.249 60.1809" stroke="white" stroke-width="0.75" stroke-linecap="round" stroke-linejoin="round"/>
<path d="M169.125 39.8503C169.125 39.8503 166.185 42.7113 168.023 46.2247" stroke="white" stroke-width="0.75" stroke-linecap="round" stroke-linejoin="round"/>
<path d="M176.066 85.3351C181.423 85.343 186.678 84.1227 191.244 81.8103C187.853 79.2297 179.027 72.8038 174.866 72.5234C170.512 72.2316 157.802 75.5904 153.732 76.7062C156.458 79.4098 159.873 81.5846 163.733 83.0759C167.593 84.5673 171.804 85.3386 176.066 85.3351Z" fill="white" stroke="#263238" stroke-miterlimit="10"/>
<path d="M180.358 75.5504C180.476 75.2643 180.58 74.9782 180.691 74.7436C178.458 73.5191 176.357 72.6264 174.866 72.5234C173.056 72.508 171.251 72.6791 169.493 73.0327C168.723 74.7493 168.522 76.4659 167.898 79.3899C167.052 83.3439 168.321 84.5055 171.843 82.9948C175.366 81.4842 178.95 79.0352 180.358 75.5504Z" fill="white" stroke="#263238" stroke-miterlimit="10"/>
<path d="M171.906 68.2204C171.906 68.2204 172.751 69.5021 171.767 72.5234C170.782 75.5446 168.3 80.5343 169.451 81.4841C170.602 82.434 177.543 78.1081 177.82 74.8523C178.097 71.5964 178.104 65.0847 178.104 65.0847L171.906 68.2204Z" fill="white"/>
<g style="mix-blend-mode:multiply" opacity="0.5">
<path d="M172.231 70.1774L176.683 73.0384L176.343 77.6161C177.132 76.8212 177.643 75.8636 177.82 74.8466C178.104 71.5907 178.104 65.079 178.104 65.079L171.906 68.2147C172.207 68.8371 172.319 69.511 172.231 70.1774V70.1774Z" fill="#92E3A9"/>
</g>
<path d="M171.906 68.2204C171.906 68.2204 172.751 69.5021 171.767 72.5234C170.782 75.5446 168.3 80.5343 169.451 81.4841C170.602 82.434 177.543 78.1081 177.82 74.8523C178.097 71.5964 178.104 65.0847 178.104 65.0847L171.906 68.2204Z" stroke="#263238" stroke-miterlimit="10"/>
<path d="M164.84 53.9209C164.84 53.9209 163.855 51.8266 162.586 53.3487C161.318 54.8708 162.864 56.719 163.571 56.719C164.278 56.719 164.84 53.9209 164.84 53.9209Z" fill="white" stroke="#263238" stroke-miterlimit="10"/>
<path d="M168.099 47.1746C168.099 47.1746 164.015 53.8007 163.03 58.3383C162.046 62.8759 166.13 69.731 170.214 69.731C174.298 69.731 180.614 64.501 180.614 64.501C180.614 64.501 186.529 64.6155 187.375 62.9904C188.221 61.3653 187.236 60.0836 185.683 60.0836H182.584C182.584 60.0836 181.738 60.4326 182.161 57.1768C182.584 53.9209 183.853 52.4103 183.853 52.4103C183.853 52.4103 173.161 53.1026 168.099 47.1746Z" fill="white"/>
<g style="mix-blend-mode:multiply" opacity="0.5">
<path d="M178.93 62.401C178.073 64.1999 176.663 65.7837 174.839 66.9967C173.016 68.2097 170.841 69.01 168.529 69.319H168.487C169.02 69.5759 169.624 69.7158 170.241 69.7253C174.325 69.7253 180.642 64.4953 180.642 64.4953C180.642 64.4953 186.557 64.6097 187.403 62.9847C188.249 61.3596 187.264 60.0778 185.711 60.0778H182.611C182.611 60.0778 181.765 60.4269 182.188 57.171C182.611 53.9152 183.88 52.4045 183.88 52.4045C183.88 52.4045 183.187 52.4446 182.043 52.4045H181.994" fill="#92E3A9"/>
</g>
<path d="M168.099 47.1746C168.099 47.1746 164.015 53.8007 163.03 58.3383C162.046 62.8759 166.13 69.731 170.214 69.731C174.298 69.731 180.614 64.501 180.614 64.501C180.614 64.501 186.529 64.6155 187.375 62.9904C188.221 61.3653 187.236 60.0836 185.683 60.0836H182.584C182.584 60.0836 181.738 60.4326 182.161 57.1768C182.584 53.9209 183.853 52.4103 183.853 52.4103C183.853 52.4103 173.161 53.1026 168.099 47.1746Z" stroke="#263238" stroke-miterlimit="10"/>
<path d="M168.848 54.5904C168.681 55.1969 168.335 55.649 168.078 55.6032C167.822 55.5574 167.752 55.031 167.919 54.413C168.085 53.795 168.432 53.3544 168.688 53.4002C168.945 53.446 169 53.9781 168.848 54.5904Z" fill="#263238"/>
<path d="M175.47 57.028C175.303 57.6345 174.956 58.0923 174.7 58.0408C174.443 57.9893 174.374 57.4686 174.54 56.8563C174.707 56.2441 175.054 55.792 175.31 55.8435C175.567 55.895 175.636 56.4215 175.47 57.028Z" fill="#263238"/>
<path d="M169.929 56.1296C169.929 56.1296 166.83 57.9893 167.253 58.4527C168.41 59.2737 169.831 59.7986 171.344 59.9634C172.613 59.9634 172.329 58.6873 172.329 58.6873" stroke="#263238" stroke-linecap="round" stroke-linejoin="round"/>
<path d="M167.676 61.4798C169.225 62.1768 170.999 62.4607 172.751 62.2924C173.475 62.2338 174.171 62.0348 174.783 61.7116C175.395 61.3883 175.906 60.9501 176.274 60.4327" stroke="#263238" stroke-linecap="round" stroke-linejoin="round"/>
<path d="M167.96 51.8266C167.96 51.8266 168.806 50.316 170.498 52.0612" stroke="#263238" stroke-linecap="round" stroke-linejoin="round"/>
<path d="M175.144 53.9209C175.144 53.9209 177.966 53.2228 177.966 55.546" stroke="#263238" stroke-linecap="round" stroke-linejoin="round"/>
<path d="M79.5791 85.019C95.4231 82.8685 106.155 70.5257 103.549 57.4506C100.943 44.3755 85.9862 35.5193 70.1422 37.6698C54.2981 39.8203 43.5665 52.1631 46.1724 65.2383C48.7784 78.3134 63.735 87.1695 79.5791 85.019Z" fill="#92E3A9" stroke="#263238" stroke-miterlimit="10"/>
<path opacity="0.3" d="M79.5791 85.019C95.4231 82.8685 106.155 70.5257 103.549 57.4506C100.943 44.3755 85.9862 35.5193 70.1422 37.6698C54.2981 39.8203 43.5665 52.1631 46.1724 65.2383C48.7784 78.3134 63.735 87.1695 79.5791 85.019Z" fill="white" stroke="#263238" stroke-miterlimit="10"/>
<path d="M54.8552 73.5132C54.356 75.1555 52.0817 74.9266 52.7751 76.9465C57.4209 81.4345 63.9092 84.3509 70.998 85.1374C78.0869 85.924 85.2782 84.5254 91.1955 81.2094C93.2757 79.1781 94.5238 77.0437 94.5792 75.3271C94.7665 70.0857 88.0545 66.1718 87.6939 63.6484C87.3334 61.1249 90.2317 55.42 90.2317 55.42C90.2317 55.42 95.3073 54.8192 97.124 51.0827C98.9406 47.3461 92.0345 38.9404 85.8634 36.3941C79.6923 33.8477 69.3608 36.0965 64.2852 42.2306C59.2097 48.3647 65.3739 53.7549 62.108 56.5987C58.8422 59.4426 50.3205 59.5914 49.4121 65.2791C48.5038 70.9669 55.3961 71.7165 54.8552 73.5132Z" fill="#263238" stroke="#263238" stroke-miterlimit="10"/>
<path d="M85.8842 42.099C85.8842 42.099 87.7217 45.8126 80.5659 48.0042C73.4102 50.1957 67.8909 49.017 66.0464 52.8966C64.202 56.7761 65.6373 59.4827 65.8454 61.4797C66.0534 63.4767 60.2983 63.162 56.8314 65.6969C53.3644 68.2317 60.2983 71.2644 62.1496 72.9525C64.001 74.6405 63.578 77.1696 60.3052 78.0165" stroke="white" stroke-width="0.75" stroke-linecap="round" stroke-linejoin="round"/>
<path d="M64.209 49.864C64.209 49.864 66.8647 44.4623 70.9556 43.6154C75.0466 42.7686 79.5467 45.3034 82.6114 42.9402C85.6762 40.577 85.066 38.8947 82.8125 37.5443" stroke="white" stroke-width="0.75" stroke-linecap="round" stroke-linejoin="round"/>
<path d="M88.949 44.2906C88.949 44.2906 96.1116 48.1759 93.657 51.2143C91.2025 54.2527 90.3843 50.5391 90.3843 50.5391" stroke="white" stroke-width="0.75" stroke-linecap="round" stroke-linejoin="round"/>
<path d="M59.0918 81.4956C64.523 84.3923 70.9701 85.7108 77.4119 85.2423C83.8536 84.7738 89.9219 82.5451 94.6555 78.9092C92.5148 77.2864 90.2447 75.7838 87.8603 74.4117C83.3256 71.8653 79.6992 70.9784 77.1614 71.1157C77.1614 71.1157 75.1645 71.8653 71.3578 74.858C68.8755 76.8092 62.9123 79.7103 59.0918 81.4956Z" fill="white" stroke="#263238" stroke-miterlimit="10"/>
<path d="M83.8664 75.2299C83.8686 74.2342 83.6957 73.2435 83.3533 72.2887C81.4332 71.4967 79.3076 71.1038 77.1614 71.1443C77.1614 71.1443 75.5736 71.7165 72.5435 74.0054C72.4794 74.4287 72.447 74.8548 72.4464 75.2814C72.4464 79.2125 74.998 82.3939 78.153 82.3939C81.3079 82.3939 83.8664 79.161 83.8664 75.2299Z" fill="white" stroke="#263238" stroke-miterlimit="10"/>
<path d="M75.7053 63.4825C75.7053 63.4825 75.7053 67.6768 75.1645 71.5678C74.6236 75.4588 75.3447 79.6474 78.7909 79.9449C82.237 80.2425 81.6892 73.5133 81.3287 70.8182C81.1147 69.1271 81.1147 67.4223 81.3287 65.7313L75.7053 63.4825Z" fill="white"/>
<g style="mix-blend-mode:multiply" opacity="0.5">
<path d="M75.0605 72.4719L81.183 67.5738C81.183 67.4193 81.183 67.2705 81.183 67.1332L79.935 65.2163L75.6845 63.4996C75.6845 63.4996 75.6845 67.6939 75.1437 71.5849C75.1229 71.8653 75.0882 72.1686 75.0605 72.4719Z" fill="#92E3A9"/>
</g>
<path d="M75.7053 63.4825C75.7053 63.4825 75.7053 67.6768 75.1645 71.5678C74.6236 75.4588 75.3447 79.6474 78.7909 79.9449C82.237 80.2425 81.6892 73.5133 81.3287 70.8182C81.1147 69.1271 81.1147 67.4223 81.3287 65.7313L75.7053 63.4825Z" stroke="#263238" stroke-miterlimit="10"/>
<path d="M88.0406 44.777C88.0406 44.777 88.4012 46.7225 82.237 49.12C76.0728 51.5176 72.9872 53.4574 72.4464 55.7004C71.9056 57.9435 71.7183 58.8476 71.7183 58.8476C71.7183 58.8476 70.4495 56.7476 68.0919 57.7947C65.7344 58.8419 67.9117 62.8874 70.0889 63.0361C72.2661 63.1849 72.807 62.5841 72.807 62.5841C72.807 62.5841 79.8795 68.4206 84.0467 68.4206C88.214 68.4206 89.8504 65.1304 90.7587 59.2653C91.6393 53.6348 88.0406 44.777 88.0406 44.777Z" fill="white"/>
<g style="mix-blend-mode:multiply" opacity="0.5">
<path d="M74.4295 56.7819C74.6494 54.897 75.462 53.0922 76.787 51.5462C74.2007 52.9424 72.7931 54.2585 72.4464 55.7004C71.8986 57.9492 71.7183 58.8476 71.7183 58.8476C71.7183 58.8476 70.4495 56.7476 68.0919 57.7947C65.7344 58.8419 67.9117 62.8874 70.0889 63.0361C72.2661 63.1849 72.807 62.5841 72.807 62.5841C72.807 62.5841 79.8795 68.4206 84.0467 68.4206C82.8096 67.9132 81.6464 67.2912 80.5798 66.5667C78.1114 65.0789 74.2284 60.5013 74.4295 56.7819Z" fill="#92E3A9"/>
</g>
<path d="M88.0406 44.777C88.0406 44.777 88.4012 46.7225 82.237 49.12C76.0728 51.5176 72.9872 53.4574 72.4464 55.7004C71.9056 57.9435 71.7183 58.8476 71.7183 58.8476C71.7183 58.8476 70.4495 56.7476 68.0919 57.7947C65.7344 58.8419 67.9117 62.8874 70.0889 63.0361C72.2661 63.1849 72.807 62.5841 72.807 62.5841C72.807 62.5841 79.8795 68.4206 84.0467 68.4206C88.214 68.4206 89.8504 65.1304 90.7587 59.2653C91.6393 53.6348 88.0406 44.777 88.0406 44.777Z" stroke="#263238" stroke-miterlimit="10"/>
<path d="M86.7856 53.8579C86.5797 54.3218 86.4944 54.8162 86.535 55.3091C86.5756 55.802 86.7413 56.2823 87.0214 56.719C87.9713 58.1895 88.4497 58.6759 88.0961 59.0707C87.9947 59.2065 87.8618 59.3243 87.7051 59.4177C87.5484 59.511 87.371 59.5779 87.1829 59.6146C86.9949 59.6512 86.7999 59.6569 86.6092 59.6314C86.4185 59.6058 86.2357 59.5495 86.0714 59.4656" stroke="#263238" stroke-linecap="round" stroke-linejoin="round"/>
<path d="M86.0714 62.9846C86.0714 62.9846 82.6045 64.0661 81.4327 62.0004" stroke="#263238" stroke-linecap="round" stroke-linejoin="round"/>
<path d="M82.6253 56.0667C82.6253 56.6904 82.4103 57.2111 82.1469 57.2111C81.8834 57.2111 81.6754 56.7075 81.6754 56.0667C81.6754 55.4258 81.8834 54.9222 82.1469 54.9222C82.4103 54.9222 82.6253 55.443 82.6253 56.0667Z" fill="#263238"/>
<path d="M88.4497 55.9179C88.714 55.9179 88.9282 55.4132 88.9282 54.7906C88.9282 54.1681 88.714 53.6634 88.4497 53.6634C88.1855 53.6634 87.9713 54.1681 87.9713 54.7906C87.9713 55.4132 88.1855 55.9179 88.4497 55.9179Z" fill="#263238"/>
<path d="M79.1792 52.7822C79.1792 52.7822 79.8726 51.2086 82.7432 51.5061" stroke="#263238" stroke-linecap="round" stroke-linejoin="round"/>
<path d="M86.9035 51.2086C86.9035 51.2086 87.7355 49.5435 89.5175 50.9168" stroke="#263238" stroke-linecap="round" stroke-linejoin="round"/>
</svg>
