<svg width="22" height="22" viewBox="0 0 22 22" fill="none" xmlns="http://www.w3.org/2000/svg">
<path fill-rule="evenodd" clip-rule="evenodd" d="M6.84324 0.977187C7.91849 0.927687 8.26133 0.916687 11.0003 0.916687C13.7393 0.916687 14.0822 0.928604 15.1565 0.977187C16.2308 1.02577 16.9642 1.19719 17.6058 1.4456C18.2777 1.69952 18.8873 2.09644 19.3915 2.60977C19.9048 3.11302 20.3008 3.72169 20.5538 4.39452C20.8032 5.03619 20.9737 5.76952 21.0232 6.84202C21.0727 7.9191 21.0837 8.26194 21.0837 11C21.0837 13.739 21.0717 14.0819 21.0232 15.1571C20.9746 16.2296 20.8032 16.9629 20.5538 17.6046C20.3008 18.2775 19.9042 18.8872 19.3915 19.3912C18.8873 19.9045 18.2777 20.3005 17.6058 20.5535C16.9642 20.8029 16.2308 20.9734 15.1583 21.0229C14.0822 21.0724 13.7393 21.0834 11.0003 21.0834C8.26133 21.0834 7.91849 21.0714 6.84324 21.0229C5.77074 20.9743 5.03741 20.8029 4.39574 20.5535C3.72284 20.3005 3.11316 19.9038 2.60916 19.3912C2.09617 18.8876 1.6992 18.2782 1.44591 17.6055C1.19749 16.9639 1.02699 16.2305 0.977492 15.158C0.927992 14.0809 0.916992 13.7381 0.916992 11C0.916992 8.26102 0.928909 7.91819 0.977492 6.84385C1.02608 5.76952 1.19749 5.03619 1.44591 4.39452C1.69957 3.72176 2.09685 3.11239 2.61008 2.60885C3.11336 2.09598 3.72243 1.69901 4.39483 1.4456C5.03649 1.19719 5.76983 1.02669 6.84233 0.977187H6.84324ZM15.0749 2.79219C14.0116 2.7436 13.6926 2.73352 11.0003 2.73352C8.30808 2.73352 7.98908 2.7436 6.92574 2.79219C5.94216 2.8371 5.40866 3.00119 5.05299 3.1396C4.58274 3.32294 4.24633 3.54019 3.89341 3.8931C3.55887 4.21857 3.30141 4.61478 3.13991 5.05269C3.00149 5.40835 2.83741 5.94185 2.79249 6.92544C2.74391 7.98877 2.73383 8.30777 2.73383 11C2.73383 13.6923 2.74391 14.0113 2.79249 15.0746C2.83741 16.0582 3.00149 16.5917 3.13991 16.9474C3.30124 17.3846 3.55883 17.7815 3.89341 18.1069C4.21883 18.4415 4.61574 18.6991 5.05299 18.8604C5.40866 18.9989 5.94216 19.1629 6.92574 19.2079C7.98908 19.2564 8.30716 19.2665 11.0003 19.2665C13.6935 19.2665 14.0116 19.2564 15.0749 19.2079C16.0585 19.1629 16.592 18.9989 16.9477 18.8604C17.4179 18.6771 17.7543 18.4599 18.1072 18.1069C18.4418 17.7815 18.6994 17.3846 18.8607 16.9474C18.9992 16.5917 19.1632 16.0582 19.2082 15.0746C19.2567 14.0113 19.2668 13.6923 19.2668 11C19.2668 8.30777 19.2567 7.98877 19.2082 6.92544C19.1632 5.94185 18.9992 5.40835 18.8607 5.05269C18.6774 4.58244 18.4602 4.24602 18.1072 3.8931C17.7818 3.55859 17.3856 3.30113 16.9477 3.1396C16.592 3.00119 16.0585 2.8371 15.0749 2.79219V2.79219ZM9.71241 14.1084C10.4317 14.4078 11.2326 14.4483 11.9783 14.2228C12.7241 13.9973 13.3684 13.5199 13.8013 12.8721C14.2342 12.2243 14.4287 11.4463 14.3517 10.671C14.2747 9.89575 13.9309 9.17125 13.3791 8.62127C13.0273 8.26971 12.6019 8.00052 12.1336 7.83307C11.6653 7.66563 11.1657 7.6041 10.6708 7.65292C10.1758 7.70174 9.69788 7.85968 9.27131 8.11539C8.84474 8.3711 8.48017 8.7182 8.20385 9.13172C7.92753 9.54523 7.74633 10.0149 7.6733 10.5068C7.60027 10.9988 7.63721 11.5008 7.78149 11.9767C7.92576 12.4527 8.17377 12.8907 8.50765 13.2593C8.84154 13.628 9.253 13.9179 9.71241 14.1084ZM7.33549 7.33519C7.81677 6.85391 8.38812 6.47215 9.01693 6.21169C9.64575 5.95122 10.3197 5.81716 11.0003 5.81716C11.6809 5.81716 12.3549 5.95122 12.9837 6.21169C13.6125 6.47215 14.1839 6.85391 14.6652 7.33519C15.1464 7.81646 15.5282 8.38781 15.7887 9.01663C16.0491 9.64544 16.1832 10.3194 16.1832 11C16.1832 11.6806 16.0491 12.3546 15.7887 12.9834C15.5282 13.6122 15.1464 14.1836 14.6652 14.6649C13.6932 15.6368 12.3749 16.1829 11.0003 16.1829C9.62575 16.1829 8.30747 15.6368 7.33549 14.6649C6.36352 13.6929 5.81747 12.3746 5.81747 11C5.81747 9.62544 6.36352 8.30716 7.33549 7.33519V7.33519ZM17.3327 6.58902C17.4519 6.47652 17.5474 6.34123 17.6134 6.19116C17.6795 6.0411 17.7147 5.87931 17.7171 5.71537C17.7195 5.55144 17.689 5.38869 17.6274 5.23676C17.5657 5.08484 17.4742 4.94682 17.3583 4.83089C17.2424 4.71496 17.1043 4.62346 16.9524 4.56183C16.8005 4.50019 16.6377 4.46967 16.4738 4.47206C16.3099 4.47444 16.1481 4.5097 15.998 4.57574C15.848 4.64178 15.7127 4.73726 15.6002 4.85652C15.3814 5.08846 15.2616 5.39655 15.2662 5.71537C15.2709 6.0342 15.3996 6.33866 15.6251 6.56413C15.8505 6.78959 16.155 6.91831 16.4738 6.92296C16.7926 6.92761 17.1007 6.80782 17.3327 6.58902V6.58902Z" fill="black"/>
</svg>
