<svg width="682" height="662" viewBox="0 0 682 662" fill="none" xmlns="http://www.w3.org/2000/svg">
<path d="M294.203 661.845C437.661 661.845 553.958 654.6 553.958 645.663C553.958 636.726 437.661 629.481 294.203 629.481C150.744 629.481 34.4482 636.726 34.4482 645.663C34.4482 654.6 150.744 661.845 294.203 661.845Z" fill="#92E3A9"/>
<path opacity="0.8" d="M294.203 661.845C437.661 661.845 553.958 654.6 553.958 645.663C553.958 636.726 437.661 629.481 294.203 629.481C150.744 629.481 34.4482 636.726 34.4482 645.663C34.4482 654.6 150.744 661.845 294.203 661.845Z" fill="white"/>
<path d="M489.396 30.3208H228.213C210.181 30.3208 195.563 44.9387 195.563 62.9708V614.374C195.563 632.406 210.181 647.024 228.213 647.024H489.396C507.429 647.024 522.046 632.406 522.046 614.374V62.9708C522.046 44.9387 507.429 30.3208 489.396 30.3208Z" fill="#263238"/>
<path d="M507.528 98.0405H210.065V579.304H507.528V98.0405Z" fill="white" stroke="#263238" stroke-width="1.33739" stroke-miterlimit="10"/>
<path d="M404.397 292.918C429.576 267.738 429.576 226.914 404.397 201.735C379.217 176.555 338.393 176.555 313.213 201.735C288.033 226.914 288.033 267.738 313.213 292.918C338.393 318.098 379.217 318.098 404.397 292.918Z" fill="#92E3A9"/>
<path d="M443.455 549.04H274.173C273.792 549.042 273.414 548.969 273.062 548.825C272.709 548.681 272.388 548.468 272.118 548.2C271.848 547.931 271.634 547.612 271.487 547.26C271.341 546.908 271.266 546.531 271.266 546.15C271.263 545.768 271.337 545.389 271.482 545.035C271.628 544.681 271.842 544.36 272.112 544.089C272.383 543.819 272.704 543.605 273.058 543.46C273.411 543.314 273.79 543.241 274.173 543.243H443.455C443.836 543.243 444.213 543.318 444.565 543.465C444.917 543.611 445.236 543.825 445.505 544.095C445.773 544.366 445.986 544.686 446.13 545.039C446.275 545.391 446.348 545.769 446.345 546.15C446.345 546.917 446.041 547.652 445.499 548.194C444.957 548.736 444.222 549.04 443.455 549.04Z" fill="#92E3A9"/>
<path d="M448.966 348.049H268.644C264.922 348.049 261.905 351.066 261.905 354.787V376.044C261.905 379.766 264.922 382.783 268.644 382.783H448.966C452.688 382.783 455.705 379.766 455.705 376.044V354.787C455.705 351.066 452.688 348.049 448.966 348.049Z" fill="#92E3A9"/>
<path d="M448.966 413.013H268.644C264.922 413.013 261.905 416.03 261.905 419.751V441.008C261.905 444.73 264.922 447.746 268.644 447.746H448.966C452.688 447.746 455.705 444.73 455.705 441.008V419.751C455.705 416.03 452.688 413.013 448.966 413.013Z" fill="#92E3A9"/>
<path d="M390.909 279.489L371.937 268.566V259.543C374.684 256.219 376.674 252.337 377.768 248.167C378.421 248.398 379.109 248.518 379.801 248.519C382.154 248.519 383.65 241.227 383.902 236.017C386.641 230.22 382.91 226.826 382.91 226.826C382.91 226.826 384.456 225.28 385.481 219.079C386.506 212.878 381.868 215.466 378.255 209.786C374.643 204.107 372.055 197.923 360.191 197.923C356.922 197.815 353.697 198.694 350.934 200.444C348.17 202.194 345.998 204.735 344.698 207.736C341.745 207.747 338.802 208.091 335.926 208.761C332.297 209.786 331.272 221.667 334.364 226.321C335.748 228.865 336.486 231.71 336.515 234.606C335.691 233.598 334.834 233.329 334.364 235.614C333.339 240.773 337.472 247.998 337.472 247.998L339.606 247.394C340.682 251.851 342.756 256.005 345.673 259.543V268.566L326.701 279.489C324.486 280.768 322.645 282.608 321.365 284.823C320.085 287.038 319.41 289.55 319.408 292.109V298.36C330.691 307.076 344.547 311.805 358.805 311.805C373.063 311.805 386.918 307.076 398.202 298.36V292.109C398.203 289.55 397.529 287.036 396.249 284.82C394.969 282.604 393.127 280.766 390.909 279.489V279.489Z" fill="#263238"/>
<path d="M286.456 439.109C286.021 439.103 285.605 438.928 285.296 438.622C285.131 438.474 284.999 438.293 284.909 438.09C284.819 437.887 284.774 437.667 284.775 437.446C284.78 437.142 284.868 436.846 285.027 436.589L288.052 431.749L282.154 431.934C281.932 431.948 281.709 431.915 281.5 431.836C281.292 431.758 281.102 431.637 280.944 431.48C280.67 431.172 280.519 430.775 280.519 430.363C280.519 429.951 280.67 429.553 280.944 429.245C281.099 429.083 281.287 428.957 281.496 428.875C281.706 428.794 281.93 428.76 282.154 428.775L287.968 428.993L284.977 424.17C284.814 423.908 284.727 423.606 284.725 423.297C284.723 423.075 284.769 422.855 284.859 422.652C284.948 422.45 285.08 422.268 285.246 422.12C285.555 421.814 285.97 421.639 286.405 421.633C286.692 421.635 286.971 421.718 287.212 421.873C287.453 422.027 287.645 422.247 287.766 422.507L290.64 427.699L293.48 422.541C293.614 422.265 293.822 422.032 294.079 421.866C294.337 421.7 294.635 421.608 294.942 421.599C295.154 421.601 295.364 421.646 295.558 421.733C295.751 421.82 295.925 421.946 296.067 422.104C296.376 422.423 296.545 422.852 296.538 423.297C296.537 423.585 296.462 423.869 296.32 424.12L293.278 428.993L299.176 428.775C299.4 428.76 299.624 428.794 299.834 428.875C300.043 428.957 300.231 429.083 300.386 429.245C300.673 429.543 300.83 429.941 300.823 430.354C300.822 430.771 300.666 431.172 300.386 431.48C300.228 431.637 300.038 431.758 299.83 431.836C299.621 431.915 299.398 431.948 299.176 431.934L293.244 431.749L296.202 436.538C296.368 436.806 296.455 437.114 296.454 437.429C296.454 437.874 296.277 438.302 295.962 438.617C295.647 438.932 295.219 439.109 294.774 439.109C294.485 439.105 294.205 439.017 293.966 438.856C293.727 438.695 293.541 438.468 293.429 438.202L290.623 433.161L287.834 438.202C287.71 438.465 287.516 438.69 287.272 438.85C287.029 439.01 286.747 439.1 286.456 439.109V439.109Z" fill="#263238"/>
<path d="M313.712 439.109C313.277 439.103 312.861 438.928 312.552 438.622C312.387 438.474 312.255 438.293 312.165 438.09C312.075 437.887 312.03 437.667 312.031 437.446C312.037 437.142 312.124 436.846 312.283 436.589L315.308 431.749L309.427 431.934C309.202 431.944 308.978 431.909 308.768 431.831C308.557 431.753 308.364 431.634 308.2 431.48C307.977 431.25 307.828 430.958 307.774 430.642C307.719 430.327 307.76 430.002 307.892 429.71C308.025 429.418 308.242 429.173 308.516 429.006C308.789 428.839 309.107 428.759 309.427 428.775L315.224 428.993L312.233 424.17C312.07 423.908 311.983 423.606 311.981 423.297C311.979 423.075 312.025 422.855 312.115 422.652C312.205 422.45 312.337 422.268 312.502 422.12C312.811 421.814 313.226 421.639 313.661 421.633C313.948 421.635 314.228 421.718 314.469 421.873C314.71 422.027 314.902 422.247 315.023 422.507L317.896 427.699L320.736 422.541C320.871 422.265 321.078 422.032 321.336 421.866C321.593 421.7 321.891 421.608 322.198 421.599C322.41 421.599 322.621 421.643 322.815 421.73C323.009 421.817 323.183 421.944 323.324 422.104C323.479 422.261 323.603 422.447 323.686 422.652C323.77 422.856 323.812 423.076 323.811 423.297C323.805 423.587 323.724 423.871 323.576 424.12L320.534 428.993L326.449 428.808C326.67 428.793 326.892 428.828 327.099 428.909C327.305 428.991 327.491 429.117 327.642 429.279C327.929 429.576 328.086 429.975 328.079 430.388C328.078 430.804 327.922 431.206 327.642 431.514C327.487 431.67 327.3 431.791 327.095 431.87C326.889 431.948 326.669 431.981 326.449 431.968L320.501 431.783L323.458 436.572C323.624 436.839 323.711 437.148 323.71 437.462C323.71 437.908 323.533 438.335 323.218 438.651C322.903 438.966 322.475 439.143 322.03 439.143C321.742 439.139 321.461 439.051 321.222 438.89C320.983 438.729 320.797 438.501 320.685 438.235L317.879 433.194L315.09 438.235C314.961 438.493 314.765 438.71 314.522 438.864C314.28 439.018 313.999 439.103 313.712 439.109V439.109Z" fill="#263238"/>
<path d="M340.985 439.109C340.544 439.107 340.122 438.932 339.809 438.622C339.644 438.474 339.512 438.293 339.422 438.09C339.332 437.887 339.286 437.667 339.288 437.446C339.293 437.142 339.38 436.846 339.54 436.589L342.565 431.749L336.683 431.934C336.367 431.947 336.053 431.865 335.783 431.699C335.513 431.532 335.299 431.29 335.167 431.001C335.036 430.713 334.993 430.392 335.045 430.079C335.096 429.767 335.24 429.476 335.457 429.245C335.616 429.083 335.807 428.958 336.019 428.876C336.231 428.795 336.457 428.761 336.683 428.775L342.481 428.993L339.49 424.17C339.327 423.908 339.24 423.606 339.238 423.297C339.243 423.076 339.292 422.859 339.381 422.657C339.47 422.455 339.599 422.273 339.759 422.12C340.072 421.81 340.494 421.635 340.935 421.633C341.218 421.638 341.495 421.723 341.732 421.877C341.97 422.032 342.16 422.25 342.279 422.507L345.153 427.699L347.993 422.541C348.127 422.265 348.335 422.032 348.592 421.866C348.85 421.7 349.148 421.608 349.454 421.599C349.667 421.599 349.878 421.643 350.072 421.73C350.266 421.817 350.439 421.944 350.58 422.104C350.736 422.261 350.859 422.447 350.943 422.652C351.027 422.856 351.069 423.076 351.068 423.297C351.062 423.587 350.981 423.871 350.832 424.12L347.791 428.993L353.706 428.775C353.923 428.753 354.143 428.778 354.35 428.848C354.557 428.919 354.746 429.032 354.906 429.182C355.065 429.332 355.19 429.514 355.273 429.716C355.356 429.918 355.395 430.136 355.386 430.354C355.39 430.769 355.24 431.17 354.966 431.48C354.808 431.637 354.618 431.758 354.41 431.836C354.201 431.915 353.978 431.948 353.756 431.934L347.824 431.749L350.765 436.538C350.931 436.806 351.018 437.114 351.017 437.429C351.012 437.649 350.963 437.867 350.874 438.069C350.784 438.271 350.656 438.453 350.496 438.605C350.35 438.762 350.173 438.888 349.977 438.975C349.78 439.062 349.568 439.107 349.354 439.109C349.068 439.104 348.79 439.016 348.554 438.854C348.318 438.693 348.134 438.466 348.026 438.202L345.203 433.161L342.414 438.202C342.288 438.474 342.086 438.705 341.833 438.866C341.58 439.026 341.285 439.111 340.985 439.109V439.109Z" fill="#263238"/>
<path d="M368.241 439.109C367.8 439.107 367.378 438.932 367.065 438.622C366.748 438.312 366.567 437.889 366.561 437.446C366.555 437.143 366.637 436.846 366.796 436.589L369.821 431.749L363.939 431.934C363.715 431.944 363.491 431.909 363.28 431.831C363.069 431.753 362.876 431.634 362.712 431.48C362.438 431.172 362.287 430.775 362.287 430.363C362.287 429.951 362.438 429.553 362.712 429.245C362.875 429.089 363.067 428.966 363.278 428.885C363.489 428.804 363.714 428.767 363.939 428.775L369.753 428.993L366.779 424.17C366.616 423.908 366.529 423.606 366.527 423.297C366.532 423.076 366.581 422.859 366.67 422.657C366.76 422.455 366.888 422.273 367.048 422.12C367.361 421.81 367.783 421.635 368.224 421.633C368.51 421.635 368.79 421.718 369.031 421.873C369.272 422.027 369.464 422.247 369.585 422.507L372.442 427.699L375.282 422.541C375.417 422.265 375.624 422.032 375.882 421.866C376.139 421.7 376.437 421.608 376.744 421.599C376.956 421.599 377.167 421.643 377.361 421.73C377.555 421.817 377.729 421.944 377.87 422.104C378.025 422.261 378.149 422.447 378.232 422.652C378.316 422.856 378.358 423.076 378.357 423.297C378.351 423.587 378.27 423.871 378.122 424.12L375.08 428.993L380.995 428.775C381.213 428.753 381.432 428.778 381.639 428.848C381.846 428.919 382.036 429.032 382.195 429.182C382.354 429.332 382.479 429.514 382.562 429.716C382.645 429.918 382.684 430.136 382.676 430.354C382.679 430.769 382.529 431.17 382.255 431.48C382.097 431.637 381.908 431.758 381.699 431.836C381.491 431.915 381.268 431.948 381.046 431.934L375.114 431.749L378.054 436.538C378.22 436.806 378.308 437.114 378.307 437.429C378.308 437.651 378.263 437.87 378.173 438.073C378.083 438.276 377.951 438.457 377.786 438.605C377.639 438.762 377.463 438.888 377.266 438.975C377.07 439.062 376.858 439.107 376.643 439.109C376.357 439.104 376.079 439.016 375.843 438.854C375.607 438.693 375.424 438.466 375.315 438.202L372.492 433.161L369.703 438.202C369.575 438.479 369.368 438.713 369.108 438.875C368.848 439.036 368.547 439.118 368.241 439.109Z" fill="#263238"/>
<path d="M395.497 439.109C395.056 439.107 394.634 438.932 394.321 438.622C394.06 438.358 393.894 438.016 393.849 437.648C393.803 437.28 393.88 436.908 394.069 436.589L397.076 431.749L391.195 431.934C390.971 431.944 390.746 431.909 390.536 431.831C390.325 431.753 390.132 431.634 389.968 431.48C389.694 431.172 389.543 430.775 389.543 430.363C389.543 429.951 389.694 429.553 389.968 429.245C390.131 429.089 390.323 428.966 390.534 428.885C390.745 428.804 390.969 428.767 391.195 428.775L397.009 428.993L394.018 424.171C393.855 423.908 393.768 423.606 393.766 423.297C393.772 422.853 393.954 422.431 394.27 422.12C394.583 421.81 395.006 421.635 395.446 421.633C395.733 421.635 396.013 421.718 396.254 421.873C396.495 422.027 396.687 422.247 396.808 422.507L399.664 427.699L402.504 422.541C402.639 422.265 402.846 422.032 403.104 421.866C403.362 421.7 403.66 421.608 403.966 421.6C404.181 421.598 404.394 421.643 404.591 421.73C404.788 421.816 404.964 421.944 405.109 422.104C405.417 422.424 405.586 422.852 405.579 423.297C405.573 423.587 405.492 423.871 405.344 424.12L402.302 428.993L408.217 428.775C408.435 428.753 408.654 428.778 408.861 428.848C409.068 428.919 409.258 429.032 409.417 429.182C409.576 429.332 409.702 429.514 409.785 429.716C409.867 429.918 409.906 430.136 409.898 430.354C409.901 430.769 409.752 431.17 409.478 431.48C409.319 431.637 409.13 431.758 408.921 431.836C408.713 431.915 408.49 431.948 408.268 431.934L402.336 431.749L405.277 436.538C405.442 436.806 405.53 437.114 405.529 437.429C405.53 437.651 405.485 437.87 405.395 438.073C405.305 438.276 405.173 438.457 405.008 438.605C404.862 438.762 404.685 438.888 404.488 438.975C404.292 439.062 404.08 439.107 403.865 439.109C403.579 439.104 403.301 439.016 403.065 438.854C402.83 438.693 402.646 438.466 402.538 438.202L399.715 433.161L396.925 438.202C396.799 438.474 396.598 438.705 396.344 438.866C396.091 439.026 395.797 439.111 395.497 439.109Z" fill="#263238"/>
<path d="M422.752 439.109C422.317 439.103 421.901 438.928 421.592 438.622C421.427 438.474 421.295 438.293 421.205 438.09C421.115 437.887 421.07 437.667 421.071 437.446C421.077 437.142 421.164 436.846 421.324 436.589L424.331 431.749L418.45 431.934C418.234 431.95 418.016 431.921 417.812 431.849C417.607 431.777 417.42 431.663 417.262 431.514C417.104 431.366 416.978 431.186 416.894 430.986C416.809 430.786 416.767 430.571 416.77 430.354C416.769 430.149 416.808 429.945 416.886 429.755C416.964 429.564 417.078 429.391 417.223 429.245C417.378 429.083 417.567 428.957 417.776 428.875C417.985 428.794 418.209 428.76 418.433 428.775L424.247 428.993L421.256 424.171C421.094 423.908 421.006 423.606 421.004 423.297C421.011 422.853 421.192 422.431 421.508 422.12C421.821 421.81 422.244 421.635 422.685 421.633C422.971 421.635 423.251 421.718 423.492 421.873C423.733 422.027 423.925 422.247 424.046 422.507L426.902 427.699L429.759 422.541C429.892 422.268 430.097 422.036 430.352 421.871C430.606 421.705 430.901 421.611 431.204 421.6C431.419 421.598 431.632 421.643 431.829 421.73C432.026 421.816 432.203 421.944 432.347 422.104C432.655 422.424 432.824 422.852 432.817 423.297C432.816 423.585 432.741 423.869 432.599 424.12L429.557 428.993L435.456 428.775C435.679 428.76 435.904 428.794 436.113 428.875C436.322 428.957 436.511 429.083 436.665 429.245C436.952 429.543 437.109 429.941 437.102 430.354C437.101 430.771 436.946 431.172 436.665 431.48C436.507 431.637 436.318 431.758 436.109 431.836C435.901 431.915 435.678 431.948 435.456 431.934L429.524 431.749L432.465 436.538C432.63 436.806 432.718 437.114 432.717 437.429C432.71 437.872 432.529 438.295 432.212 438.605C431.906 438.918 431.49 439.098 431.053 439.109C430.767 439.104 430.489 439.016 430.253 438.854C430.017 438.693 429.834 438.466 429.725 438.202L426.902 433.161L424.113 438.202C423.992 438.464 423.801 438.688 423.561 438.848C423.32 439.008 423.04 439.098 422.752 439.109Z" fill="#263238"/>
<g style="mix-blend-mode:multiply">
<path d="M507.528 98.6791H210.065V117.315H507.528V98.6791Z" fill="#92E3A9"/>
</g>
<path d="M391.144 64.3487H326.449C325.282 64.3487 324.162 63.8848 323.336 63.0592C322.511 62.2335 322.047 61.1137 322.047 59.9461V59.9461C322.047 58.7784 322.511 57.6586 323.336 56.8329C324.162 56.0073 325.282 55.5434 326.449 55.5434H391.144C392.312 55.5434 393.432 56.0073 394.258 56.8329C395.083 57.6586 395.547 58.7784 395.547 59.9461V59.9461C395.547 61.1137 395.083 62.2335 394.258 63.0592C393.432 63.8848 392.312 64.3487 391.144 64.3487V64.3487Z" fill="#92E3A9" stroke="#263238" stroke-width="1.33739" stroke-linecap="round" stroke-linejoin="round"/>
<path d="M376.441 606.493C376.445 603.002 375.412 599.588 373.475 596.684C371.537 593.78 368.782 591.516 365.557 590.178C362.333 588.841 358.784 588.49 355.359 589.17C351.935 589.85 348.79 591.531 346.321 594C343.853 596.468 342.172 599.614 341.492 603.038C340.811 606.462 341.162 610.011 342.5 613.236C343.837 616.461 346.101 619.216 349.005 621.153C351.909 623.091 355.323 624.123 358.814 624.12C363.488 624.116 367.969 622.257 371.274 618.952C374.578 615.647 376.437 611.166 376.441 606.493Z" fill="#92E3A9"/>
<path d="M367.753 597.553H349.874V615.432H367.753V597.553Z" fill="#92E3A9" stroke="#263238" stroke-width="1.33739" stroke-linecap="round" stroke-linejoin="round"/>
<path d="M571.785 403.603C571.785 403.603 548.36 344.083 569.214 337.009C590.925 329.632 589.967 368.936 589.127 388.093C587.362 429.027 582.842 436.639 579.464 426.641L571.785 403.603ZM564.744 450.032C571.18 458.434 572.995 449.729 561.383 410.425C555.939 391.941 544.109 354.552 525.961 368.583C508.535 382.026 550.007 430.758 550.007 430.758L564.744 450.032ZM552.309 484.144C558.443 489.588 558.56 482.715 543.991 454.334C537.152 441.042 522.684 414.139 510.837 427.447C499.461 440.285 538.228 471.49 538.228 471.49L552.309 484.144ZM538.866 524.708C545 530.17 545.117 523.28 530.548 494.915C523.709 481.623 509.241 454.703 497.394 468.029C486.085 480.9 524.734 512.105 524.734 512.105L538.866 524.708ZM577.683 442.134C567.87 445.965 575.667 450.133 616.652 450.015C635.875 450.015 675.129 449.141 666.761 427.783C658.745 407.266 600.369 433.396 600.369 433.396L577.683 442.134ZM566.509 469.423C556.124 471.221 562.946 476.868 603.141 484.9C621.978 488.681 660.611 495.654 656.662 473.137C652.881 451.426 590.471 465.441 590.471 465.441L566.509 469.423ZM554.007 502.746C545.168 504.023 550.814 508.946 584.606 516.676C600.453 520.306 632.968 527.111 630.145 507.904C627.456 489.42 574.356 499.872 574.356 499.872L554.007 502.746ZM544.512 533.614C535.858 535.816 541.992 540.117 576.44 544.218C592.571 546.133 625.625 549.46 620.802 530.657C616.147 512.609 564.459 528.59 564.459 528.59L544.512 533.614ZM595.159 408.644C590.118 419.936 600.587 418.222 636.178 387.168C652.847 372.599 686.287 342.117 659.804 326.943C634.38 312.357 607.04 382.732 607.04 382.732L595.159 408.644ZM545.823 573.826C540.496 576.935 545.722 578.145 570.155 573.272C581.615 571.003 604.922 565.962 597.041 556.014C589.412 546.436 558.157 566.6 558.157 566.6L545.823 573.826Z" fill="#92E3A9"/>
<path opacity="0.3" d="M571.785 403.603C571.785 403.603 548.36 344.083 569.214 337.009C590.925 329.632 589.967 368.936 589.127 388.093C587.362 429.027 582.842 436.639 579.464 426.641L571.785 403.603ZM564.744 450.032C571.18 458.434 572.995 449.729 561.383 410.425C555.939 391.941 544.109 354.552 525.961 368.583C508.535 382.026 550.007 430.758 550.007 430.758L564.744 450.032ZM552.309 484.144C558.443 489.588 558.56 482.715 543.991 454.334C537.152 441.042 522.684 414.139 510.837 427.447C499.461 440.285 538.228 471.49 538.228 471.49L552.309 484.144ZM538.866 524.708C545 530.17 545.117 523.28 530.548 494.915C523.709 481.623 509.241 454.703 497.394 468.029C486.085 480.9 524.734 512.105 524.734 512.105L538.866 524.708ZM577.683 442.134C567.87 445.965 575.667 450.133 616.652 450.015C635.875 450.015 675.129 449.141 666.761 427.783C658.745 407.266 600.369 433.396 600.369 433.396L577.683 442.134ZM566.509 469.423C556.124 471.221 562.946 476.868 603.141 484.9C621.978 488.681 660.611 495.654 656.662 473.137C652.881 451.426 590.471 465.441 590.471 465.441L566.509 469.423ZM554.007 502.746C545.168 504.023 550.814 508.946 584.606 516.676C600.453 520.306 632.968 527.111 630.145 507.904C627.456 489.42 574.356 499.872 574.356 499.872L554.007 502.746ZM544.512 533.614C535.858 535.816 541.992 540.117 576.44 544.218C592.571 546.133 625.625 549.46 620.802 530.657C616.147 512.609 564.459 528.59 564.459 528.59L544.512 533.614ZM595.159 408.644C590.118 419.936 600.587 418.222 636.178 387.168C652.847 372.599 686.287 342.117 659.804 326.943C634.38 312.357 607.04 382.732 607.04 382.732L595.159 408.644ZM545.823 573.826C540.496 576.935 545.722 578.145 570.155 573.272C581.615 571.003 604.922 565.962 597.041 556.014C589.412 546.436 558.157 566.6 558.157 566.6L545.823 573.826Z" fill="white"/>
<path d="M582.119 431.312L578.036 363.374L582.119 431.312ZM569.197 453.729L543.386 395.301L569.197 453.729ZM635.808 436.74L573.953 445.612L635.808 436.74ZM555.821 485.219L522.331 442.252L555.821 485.219ZM561.703 472.045L607.846 474.364L561.703 472.045ZM550.78 504.997L586.068 508.493L550.78 504.997ZM542.26 525.935L524.734 499.57L542.26 525.935ZM540.244 535.244L581.733 535.631L540.244 535.244ZM531.842 613.08C532.12 613.058 532.378 612.928 532.561 612.717C532.743 612.507 532.835 612.232 532.817 611.954C530.178 572.33 545.504 507.434 570.088 454.165C585.799 420.121 647.386 353.208 648.041 352.536C648.239 352.337 648.35 352.068 648.35 351.788C648.35 351.507 648.239 351.238 648.041 351.04C647.944 350.942 647.829 350.865 647.702 350.812C647.575 350.759 647.439 350.732 647.302 350.732C647.164 350.732 647.028 350.759 646.901 350.812C646.774 350.865 646.659 350.942 646.562 351.04C645.94 351.712 584.102 418.877 568.256 453.224C543.218 507.787 528.095 571.507 530.783 612.089C530.804 612.356 530.924 612.606 531.12 612.79C531.316 612.973 531.574 613.077 531.842 613.08V613.08ZM582.102 432.354C582.38 432.337 582.64 432.211 582.826 432.003C583.011 431.795 583.108 431.523 583.094 431.245L579.078 363.273C579.071 363.135 579.037 362.999 578.978 362.874C578.918 362.749 578.835 362.637 578.731 362.545C578.628 362.452 578.507 362.382 578.377 362.336C578.246 362.291 578.107 362.273 577.969 362.282C577.691 362.299 577.431 362.425 577.245 362.633C577.06 362.84 576.963 363.113 576.977 363.391L581.061 431.329C581.074 431.596 581.189 431.849 581.383 432.033C581.577 432.218 581.835 432.321 582.102 432.32V432.354ZM569.567 454.686C569.818 454.572 570.016 454.364 570.116 454.107C570.217 453.849 570.212 453.563 570.104 453.308L544.277 394.881C544.165 394.627 543.958 394.428 543.699 394.327C543.441 394.226 543.153 394.232 542.899 394.344C542.645 394.455 542.446 394.663 542.345 394.921C542.244 395.18 542.25 395.467 542.361 395.722L568.172 454.149C568.253 454.336 568.387 454.496 568.557 454.61C568.726 454.723 568.926 454.785 569.13 454.787C569.304 454.796 569.477 454.762 569.634 454.686H569.567ZM574.037 446.621L635.858 437.782C636.007 437.779 636.154 437.744 636.289 437.68C636.424 437.616 636.544 437.524 636.641 437.411C636.738 437.297 636.81 437.165 636.852 437.021C636.894 436.878 636.905 436.727 636.885 436.579C636.865 436.432 636.813 436.29 636.734 436.163C636.655 436.036 636.55 435.928 636.426 435.844C636.302 435.761 636.162 435.705 636.015 435.68C635.868 435.655 635.717 435.661 635.572 435.698L573.751 444.537C573.475 444.555 573.217 444.682 573.034 444.89C572.851 445.098 572.758 445.37 572.776 445.646C572.794 445.922 572.921 446.18 573.129 446.363C573.337 446.546 573.609 446.638 573.885 446.621H574.037ZM556.409 486.059C556.629 485.887 556.771 485.635 556.806 485.358C556.841 485.081 556.764 484.802 556.594 484.581L523.087 441.529C522.916 441.306 522.663 441.161 522.384 441.124C522.105 441.088 521.823 441.164 521.6 441.336C521.377 441.507 521.232 441.76 521.195 442.039C521.159 442.318 521.235 442.6 521.407 442.823L554.981 485.942C555.078 486.067 555.203 486.169 555.346 486.239C555.489 486.309 555.645 486.345 555.804 486.345C556.055 486.332 556.293 486.231 556.477 486.059H556.409ZM608.77 474.414C608.779 474.136 608.679 473.866 608.49 473.661C608.301 473.457 608.04 473.335 607.762 473.322L561.703 470.986C561.444 471.004 561.2 471.116 561.019 471.302C560.837 471.487 560.73 471.732 560.718 471.992C560.705 472.251 560.788 472.505 560.951 472.707C561.114 472.909 561.346 473.044 561.602 473.087L607.745 475.422C608.023 475.432 608.294 475.331 608.498 475.142C608.702 474.954 608.824 474.692 608.837 474.414H608.77ZM587.043 508.593C587.059 508.455 587.047 508.315 587.009 508.181C586.97 508.048 586.905 507.923 586.817 507.815C586.729 507.707 586.621 507.617 586.498 507.552C586.375 507.486 586.24 507.446 586.102 507.434L550.814 503.955C550.677 503.942 550.538 503.955 550.407 503.995C550.275 504.035 550.152 504.1 550.046 504.188C549.94 504.275 549.852 504.383 549.788 504.505C549.723 504.626 549.684 504.759 549.671 504.896C549.647 505.172 549.733 505.446 549.909 505.66C550.084 505.873 550.337 506.009 550.612 506.039L585.9 509.534H586.001C586.272 509.553 586.54 509.465 586.747 509.289C586.954 509.114 587.084 508.864 587.11 508.593H587.043ZM542.765 526.809C542.998 526.654 543.161 526.414 543.217 526.14C543.274 525.866 543.22 525.581 543.067 525.347L525.625 498.981C525.465 498.754 525.224 498.598 524.951 498.545C524.679 498.491 524.396 498.546 524.163 498.696C523.929 498.85 523.766 499.09 523.71 499.364C523.653 499.638 523.707 499.924 523.86 500.158L541.303 526.523C541.402 526.667 541.535 526.785 541.69 526.867C541.845 526.949 542.018 526.992 542.193 526.994C542.421 527.006 542.646 526.941 542.832 526.809H542.765ZM582.791 535.631C582.787 535.354 582.677 535.09 582.483 534.893C582.289 534.696 582.026 534.581 581.75 534.572L540.261 534.186C539.984 534.186 539.719 534.295 539.524 534.491C539.329 534.686 539.219 534.951 539.219 535.227C539.214 535.366 539.238 535.505 539.289 535.634C539.339 535.763 539.415 535.881 539.513 535.98C539.61 536.079 539.727 536.157 539.855 536.21C539.984 536.263 540.122 536.288 540.261 536.286L581.75 536.673C581.891 536.679 582.033 536.658 582.166 536.608C582.299 536.559 582.421 536.484 582.525 536.387C582.628 536.29 582.711 536.173 582.769 536.043C582.826 535.913 582.857 535.773 582.859 535.631H582.791ZM527.12 597.671C527.204 597.486 534.279 577.993 555.552 573.339C555.826 573.278 556.065 573.112 556.216 572.876C556.368 572.639 556.419 572.353 556.359 572.078C556.291 571.81 556.122 571.578 555.887 571.431C555.652 571.283 555.37 571.233 555.099 571.289C532.665 576.195 525.221 596.78 525.137 596.982C525.051 597.247 525.071 597.536 525.193 597.787C525.315 598.037 525.53 598.231 525.793 598.326H526.129C526.352 598.345 526.576 598.292 526.767 598.174C526.957 598.056 527.105 597.879 527.187 597.671H527.12ZM531.842 613.08C532.12 613.058 532.378 612.928 532.561 612.717C532.743 612.507 532.835 612.232 532.817 611.954C530.178 572.33 545.504 507.434 570.088 454.165C585.799 420.121 647.386 353.208 648.041 352.536C648.239 352.337 648.35 352.068 648.35 351.788C648.35 351.507 648.239 351.238 648.041 351.04C647.944 350.942 647.829 350.865 647.702 350.812C647.575 350.759 647.439 350.732 647.302 350.732C647.164 350.732 647.028 350.759 646.901 350.812C646.774 350.865 646.659 350.942 646.562 351.04C645.94 351.712 584.102 418.877 568.256 453.224C543.218 507.787 528.095 571.507 530.783 612.089C530.804 612.356 530.924 612.606 531.12 612.79C531.316 612.973 531.574 613.077 531.842 613.08V613.08ZM582.102 432.354C582.38 432.337 582.64 432.211 582.826 432.003C583.011 431.795 583.108 431.523 583.094 431.245L579.078 363.273C579.071 363.135 579.037 362.999 578.978 362.874C578.918 362.749 578.835 362.637 578.731 362.545C578.628 362.452 578.507 362.382 578.377 362.336C578.246 362.291 578.107 362.273 577.969 362.282C577.691 362.299 577.431 362.425 577.245 362.633C577.06 362.84 576.963 363.113 576.977 363.391L581.061 431.329C581.074 431.596 581.189 431.849 581.383 432.033C581.577 432.218 581.835 432.321 582.102 432.32V432.354ZM569.567 454.686C569.818 454.572 570.016 454.364 570.116 454.107C570.217 453.849 570.212 453.563 570.104 453.308L544.277 394.881C544.165 394.627 543.958 394.428 543.699 394.327C543.441 394.226 543.153 394.232 542.899 394.344C542.645 394.455 542.446 394.663 542.345 394.921C542.244 395.18 542.25 395.467 542.361 395.722L568.172 454.149C568.253 454.336 568.387 454.496 568.557 454.61C568.726 454.723 568.926 454.785 569.13 454.787C569.304 454.796 569.477 454.762 569.634 454.686H569.567ZM574.037 446.621L635.858 437.782C636.007 437.779 636.154 437.744 636.289 437.68C636.424 437.616 636.544 437.524 636.641 437.411C636.738 437.297 636.81 437.165 636.852 437.021C636.894 436.878 636.905 436.727 636.885 436.579C636.865 436.432 636.813 436.29 636.734 436.163C636.655 436.036 636.55 435.928 636.426 435.844C636.302 435.761 636.162 435.705 636.015 435.68C635.868 435.655 635.717 435.661 635.572 435.698L573.751 444.537C573.475 444.555 573.217 444.682 573.034 444.89C572.851 445.098 572.758 445.37 572.776 445.646C572.794 445.922 572.921 446.18 573.129 446.363C573.337 446.546 573.609 446.638 573.885 446.621H574.037ZM556.409 486.059C556.629 485.887 556.771 485.635 556.806 485.358C556.841 485.081 556.764 484.802 556.594 484.581L523.087 441.529C523.002 441.419 522.896 441.326 522.776 441.257C522.655 441.187 522.522 441.142 522.384 441.124C522.246 441.106 522.105 441.116 521.971 441.152C521.836 441.188 521.71 441.251 521.6 441.336C521.49 441.421 521.397 441.527 521.328 441.647C521.258 441.768 521.213 441.901 521.195 442.039C521.177 442.177 521.187 442.318 521.223 442.452C521.259 442.587 521.322 442.713 521.407 442.823L554.981 485.942C555.078 486.067 555.203 486.169 555.346 486.239C555.489 486.309 555.645 486.345 555.804 486.345C556.055 486.332 556.293 486.231 556.477 486.059H556.409ZM608.77 474.414C608.779 474.136 608.679 473.866 608.49 473.661C608.301 473.457 608.04 473.335 607.762 473.322L561.703 470.986C561.444 471.004 561.2 471.116 561.019 471.302C560.837 471.487 560.73 471.732 560.718 471.992C560.705 472.251 560.788 472.505 560.951 472.707C561.114 472.909 561.346 473.044 561.602 473.087L607.745 475.422C608.023 475.432 608.294 475.331 608.498 475.142C608.702 474.954 608.824 474.692 608.837 474.414H608.77ZM587.043 508.593C587.059 508.455 587.047 508.315 587.009 508.181C586.97 508.048 586.905 507.923 586.817 507.815C586.729 507.707 586.621 507.617 586.498 507.552C586.375 507.486 586.24 507.446 586.102 507.434L550.814 503.955C550.677 503.942 550.538 503.955 550.407 503.995C550.275 504.035 550.152 504.1 550.046 504.188C549.94 504.275 549.852 504.383 549.788 504.505C549.723 504.626 549.684 504.759 549.671 504.896C549.647 505.172 549.733 505.446 549.909 505.66C550.084 505.873 550.337 506.009 550.612 506.039L585.9 509.534H586.001C586.272 509.553 586.54 509.465 586.747 509.289C586.954 509.114 587.084 508.864 587.11 508.593H587.043ZM542.765 526.809C542.998 526.654 543.161 526.414 543.217 526.14C543.274 525.866 543.22 525.581 543.067 525.347L525.625 498.981C525.465 498.754 525.224 498.598 524.951 498.545C524.679 498.491 524.396 498.546 524.163 498.696C523.929 498.85 523.766 499.09 523.71 499.364C523.653 499.638 523.707 499.924 523.86 500.158L541.303 526.523C541.402 526.667 541.535 526.785 541.69 526.867C541.845 526.949 542.018 526.992 542.193 526.994C542.421 527.006 542.646 526.941 542.832 526.809H542.765ZM582.791 535.631C582.787 535.354 582.677 535.09 582.483 534.893C582.289 534.696 582.026 534.581 581.75 534.572L540.261 534.186C539.984 534.186 539.719 534.295 539.524 534.491C539.329 534.686 539.219 534.951 539.219 535.227C539.214 535.366 539.238 535.505 539.289 535.634C539.339 535.763 539.415 535.881 539.513 535.98C539.61 536.079 539.727 536.157 539.855 536.21C539.984 536.263 540.122 536.288 540.261 536.286L581.75 536.673C581.891 536.679 582.033 536.658 582.166 536.608C582.299 536.559 582.421 536.484 582.525 536.387C582.628 536.29 582.711 536.173 582.769 536.043C582.826 535.913 582.857 535.773 582.859 535.631H582.791ZM527.12 597.671C527.204 597.486 534.279 577.993 555.552 573.339C555.826 573.278 556.065 573.112 556.216 572.876C556.368 572.639 556.419 572.353 556.359 572.078C556.291 571.81 556.122 571.578 555.887 571.431C555.652 571.283 555.37 571.233 555.099 571.289C532.665 576.195 525.221 596.78 525.137 596.982C525.051 597.247 525.071 597.536 525.193 597.787C525.315 598.037 525.53 598.231 525.793 598.326H526.129C526.352 598.345 526.576 598.292 526.767 598.174C526.957 598.056 527.105 597.879 527.187 597.671H527.12Z" fill="#92E3A9"/>
<path opacity="0.2" d="M582.119 431.312L578.036 363.374L582.119 431.312ZM569.197 453.729L543.386 395.301L569.197 453.729ZM635.808 436.74L573.953 445.612L635.808 436.74ZM555.821 485.219L522.331 442.252L555.821 485.219ZM561.703 472.045L607.846 474.364L561.703 472.045ZM550.78 504.997L586.068 508.493L550.78 504.997ZM542.26 525.935L524.734 499.57L542.26 525.935ZM540.244 535.244L581.733 535.631L540.244 535.244ZM531.842 613.08C532.12 613.058 532.378 612.928 532.561 612.717C532.743 612.507 532.835 612.232 532.817 611.954C530.178 572.33 545.504 507.434 570.088 454.165C585.799 420.121 647.386 353.208 648.041 352.536C648.239 352.337 648.35 352.068 648.35 351.788C648.35 351.507 648.239 351.238 648.041 351.04C647.944 350.942 647.829 350.865 647.702 350.812C647.575 350.759 647.439 350.732 647.302 350.732C647.164 350.732 647.028 350.759 646.901 350.812C646.774 350.865 646.659 350.942 646.562 351.04C645.94 351.712 584.102 418.877 568.256 453.224C543.218 507.787 528.095 571.507 530.783 612.089C530.804 612.356 530.924 612.606 531.12 612.79C531.316 612.973 531.574 613.077 531.842 613.08V613.08ZM582.102 432.354C582.38 432.337 582.64 432.211 582.826 432.003C583.011 431.795 583.108 431.523 583.094 431.245L579.078 363.273C579.071 363.135 579.037 362.999 578.978 362.874C578.918 362.749 578.835 362.637 578.731 362.545C578.628 362.452 578.507 362.382 578.377 362.336C578.246 362.291 578.107 362.273 577.969 362.282C577.691 362.299 577.431 362.425 577.245 362.633C577.06 362.84 576.963 363.113 576.977 363.391L581.061 431.329C581.074 431.596 581.189 431.849 581.383 432.033C581.577 432.218 581.835 432.321 582.102 432.32V432.354ZM569.567 454.686C569.818 454.572 570.016 454.364 570.116 454.107C570.217 453.849 570.212 453.563 570.104 453.308L544.277 394.881C544.165 394.627 543.958 394.428 543.699 394.327C543.441 394.226 543.153 394.232 542.899 394.344C542.645 394.455 542.446 394.663 542.345 394.921C542.244 395.18 542.25 395.467 542.361 395.722L568.172 454.149C568.253 454.336 568.387 454.496 568.557 454.61C568.726 454.723 568.926 454.785 569.13 454.787C569.304 454.796 569.477 454.762 569.634 454.686H569.567ZM574.037 446.621L635.858 437.782C636.007 437.779 636.154 437.744 636.289 437.68C636.424 437.616 636.544 437.524 636.641 437.411C636.738 437.297 636.81 437.165 636.852 437.021C636.894 436.878 636.905 436.727 636.885 436.579C636.865 436.432 636.813 436.29 636.734 436.163C636.655 436.036 636.55 435.928 636.426 435.844C636.302 435.761 636.162 435.705 636.015 435.68C635.868 435.655 635.717 435.661 635.572 435.698L573.751 444.537C573.475 444.555 573.217 444.682 573.034 444.89C572.851 445.098 572.758 445.37 572.776 445.646C572.794 445.922 572.921 446.18 573.129 446.363C573.337 446.546 573.609 446.638 573.885 446.621H574.037ZM556.409 486.059C556.629 485.887 556.771 485.635 556.806 485.358C556.841 485.081 556.764 484.802 556.594 484.581L523.087 441.529C522.916 441.306 522.663 441.161 522.384 441.124C522.105 441.088 521.823 441.164 521.6 441.336C521.377 441.507 521.232 441.76 521.195 442.039C521.159 442.318 521.235 442.6 521.407 442.823L554.981 485.942C555.078 486.067 555.203 486.169 555.346 486.239C555.489 486.309 555.645 486.345 555.804 486.345C556.055 486.332 556.293 486.231 556.477 486.059H556.409ZM608.77 474.414C608.779 474.136 608.679 473.866 608.49 473.661C608.301 473.457 608.04 473.335 607.762 473.322L561.703 470.986C561.444 471.004 561.2 471.116 561.019 471.302C560.837 471.487 560.73 471.732 560.718 471.992C560.705 472.251 560.788 472.505 560.951 472.707C561.114 472.909 561.346 473.044 561.602 473.087L607.745 475.422C608.023 475.432 608.294 475.331 608.498 475.142C608.702 474.954 608.824 474.692 608.837 474.414H608.77ZM587.043 508.593C587.059 508.455 587.047 508.315 587.009 508.181C586.97 508.048 586.905 507.923 586.817 507.815C586.729 507.707 586.621 507.617 586.498 507.552C586.375 507.486 586.24 507.446 586.102 507.434L550.814 503.955C550.677 503.942 550.538 503.955 550.407 503.995C550.275 504.035 550.152 504.1 550.046 504.188C549.94 504.275 549.852 504.383 549.788 504.505C549.723 504.626 549.684 504.759 549.671 504.896C549.647 505.172 549.733 505.446 549.909 505.66C550.084 505.873 550.337 506.009 550.612 506.039L585.9 509.534H586.001C586.272 509.553 586.54 509.465 586.747 509.289C586.954 509.114 587.084 508.864 587.11 508.593H587.043ZM542.765 526.809C542.998 526.654 543.161 526.414 543.217 526.14C543.274 525.866 543.22 525.581 543.067 525.347L525.625 498.981C525.465 498.754 525.224 498.598 524.951 498.545C524.679 498.491 524.396 498.546 524.163 498.696C523.929 498.85 523.766 499.09 523.71 499.364C523.653 499.638 523.707 499.924 523.86 500.158L541.303 526.523C541.402 526.667 541.535 526.785 541.69 526.867C541.845 526.949 542.018 526.992 542.193 526.994C542.421 527.006 542.646 526.941 542.832 526.809H542.765ZM582.791 535.631C582.787 535.354 582.677 535.09 582.483 534.893C582.289 534.696 582.026 534.581 581.75 534.572L540.261 534.186C539.984 534.186 539.719 534.295 539.524 534.491C539.329 534.686 539.219 534.951 539.219 535.227C539.214 535.366 539.238 535.505 539.289 535.634C539.339 535.763 539.415 535.881 539.513 535.98C539.61 536.079 539.727 536.157 539.855 536.21C539.984 536.263 540.122 536.288 540.261 536.286L581.75 536.673C581.891 536.679 582.033 536.658 582.166 536.608C582.299 536.559 582.421 536.484 582.525 536.387C582.628 536.29 582.711 536.173 582.769 536.043C582.826 535.913 582.857 535.773 582.859 535.631H582.791ZM527.12 597.671C527.204 597.486 534.279 577.993 555.552 573.339C555.826 573.278 556.065 573.112 556.216 572.876C556.368 572.639 556.419 572.353 556.359 572.078C556.291 571.81 556.122 571.578 555.887 571.431C555.652 571.283 555.37 571.233 555.099 571.289C532.665 576.195 525.221 596.78 525.137 596.982C525.051 597.247 525.071 597.536 525.193 597.787C525.315 598.037 525.53 598.231 525.793 598.326H526.129C526.352 598.345 526.576 598.292 526.767 598.174C526.957 598.056 527.105 597.879 527.187 597.671H527.12ZM531.842 613.08C532.12 613.058 532.378 612.928 532.561 612.717C532.743 612.507 532.835 612.232 532.817 611.954C530.178 572.33 545.504 507.434 570.088 454.165C585.799 420.121 647.386 353.208 648.041 352.536C648.239 352.337 648.35 352.068 648.35 351.788C648.35 351.507 648.239 351.238 648.041 351.04C647.944 350.942 647.829 350.865 647.702 350.812C647.575 350.759 647.439 350.732 647.302 350.732C647.164 350.732 647.028 350.759 646.901 350.812C646.774 350.865 646.659 350.942 646.562 351.04C645.94 351.712 584.102 418.877 568.256 453.224C543.218 507.787 528.095 571.507 530.783 612.089C530.804 612.356 530.924 612.606 531.12 612.79C531.316 612.973 531.574 613.077 531.842 613.08V613.08ZM582.102 432.354C582.38 432.337 582.64 432.211 582.826 432.003C583.011 431.795 583.108 431.523 583.094 431.245L579.078 363.273C579.071 363.135 579.037 362.999 578.978 362.874C578.918 362.749 578.835 362.637 578.731 362.545C578.628 362.452 578.507 362.382 578.377 362.336C578.246 362.291 578.107 362.273 577.969 362.282C577.691 362.299 577.431 362.425 577.245 362.633C577.06 362.84 576.963 363.113 576.977 363.391L581.061 431.329C581.074 431.596 581.189 431.849 581.383 432.033C581.577 432.218 581.835 432.321 582.102 432.32V432.354ZM569.567 454.686C569.818 454.572 570.016 454.364 570.116 454.107C570.217 453.849 570.212 453.563 570.104 453.308L544.277 394.881C544.165 394.627 543.958 394.428 543.699 394.327C543.441 394.226 543.153 394.232 542.899 394.344C542.645 394.455 542.446 394.663 542.345 394.921C542.244 395.18 542.25 395.467 542.361 395.722L568.172 454.149C568.253 454.336 568.387 454.496 568.557 454.61C568.726 454.723 568.926 454.785 569.13 454.787C569.304 454.796 569.477 454.762 569.634 454.686H569.567ZM574.037 446.621L635.858 437.782C636.007 437.779 636.154 437.744 636.289 437.68C636.424 437.616 636.544 437.524 636.641 437.411C636.738 437.297 636.81 437.165 636.852 437.021C636.894 436.878 636.905 436.727 636.885 436.579C636.865 436.432 636.813 436.29 636.734 436.163C636.655 436.036 636.55 435.928 636.426 435.844C636.302 435.761 636.162 435.705 636.015 435.68C635.868 435.655 635.717 435.661 635.572 435.698L573.751 444.537C573.475 444.555 573.217 444.682 573.034 444.89C572.851 445.098 572.758 445.37 572.776 445.646C572.794 445.922 572.921 446.18 573.129 446.363C573.337 446.546 573.609 446.638 573.885 446.621H574.037ZM556.409 486.059C556.629 485.887 556.771 485.635 556.806 485.358C556.841 485.081 556.764 484.802 556.594 484.581L523.087 441.529C523.002 441.419 522.896 441.326 522.776 441.257C522.655 441.187 522.522 441.142 522.384 441.124C522.246 441.106 522.105 441.116 521.971 441.152C521.836 441.188 521.71 441.251 521.6 441.336C521.49 441.421 521.397 441.527 521.328 441.647C521.258 441.768 521.213 441.901 521.195 442.039C521.177 442.177 521.187 442.318 521.223 442.452C521.259 442.587 521.322 442.713 521.407 442.823L554.981 485.942C555.078 486.067 555.203 486.169 555.346 486.239C555.489 486.309 555.645 486.345 555.804 486.345C556.055 486.332 556.293 486.231 556.477 486.059H556.409ZM608.77 474.414C608.779 474.136 608.679 473.866 608.49 473.661C608.301 473.457 608.04 473.335 607.762 473.322L561.703 470.986C561.444 471.004 561.2 471.116 561.019 471.302C560.837 471.487 560.73 471.732 560.718 471.992C560.705 472.251 560.788 472.505 560.951 472.707C561.114 472.909 561.346 473.044 561.602 473.087L607.745 475.422C608.023 475.432 608.294 475.331 608.498 475.142C608.702 474.954 608.824 474.692 608.837 474.414H608.77ZM587.043 508.593C587.059 508.455 587.047 508.315 587.009 508.181C586.97 508.048 586.905 507.923 586.817 507.815C586.729 507.707 586.621 507.617 586.498 507.552C586.375 507.486 586.24 507.446 586.102 507.434L550.814 503.955C550.677 503.942 550.538 503.955 550.407 503.995C550.275 504.035 550.152 504.1 550.046 504.188C549.94 504.275 549.852 504.383 549.788 504.505C549.723 504.626 549.684 504.759 549.671 504.896C549.647 505.172 549.733 505.446 549.909 505.66C550.084 505.873 550.337 506.009 550.612 506.039L585.9 509.534H586.001C586.272 509.553 586.54 509.465 586.747 509.289C586.954 509.114 587.084 508.864 587.11 508.593H587.043ZM542.765 526.809C542.998 526.654 543.161 526.414 543.217 526.14C543.274 525.866 543.22 525.581 543.067 525.347L525.625 498.981C525.465 498.754 525.224 498.598 524.951 498.545C524.679 498.491 524.396 498.546 524.163 498.696C523.929 498.85 523.766 499.09 523.71 499.364C523.653 499.638 523.707 499.924 523.86 500.158L541.303 526.523C541.402 526.667 541.535 526.785 541.69 526.867C541.845 526.949 542.018 526.992 542.193 526.994C542.421 527.006 542.646 526.941 542.832 526.809H542.765ZM582.791 535.631C582.787 535.354 582.677 535.09 582.483 534.893C582.289 534.696 582.026 534.581 581.75 534.572L540.261 534.186C539.984 534.186 539.719 534.295 539.524 534.491C539.329 534.686 539.219 534.951 539.219 535.227C539.214 535.366 539.238 535.505 539.289 535.634C539.339 535.763 539.415 535.881 539.513 535.98C539.61 536.079 539.727 536.157 539.855 536.21C539.984 536.263 540.122 536.288 540.261 536.286L581.75 536.673C581.891 536.679 582.033 536.658 582.166 536.608C582.299 536.559 582.421 536.484 582.525 536.387C582.628 536.29 582.711 536.173 582.769 536.043C582.826 535.913 582.857 535.773 582.859 535.631H582.791ZM527.12 597.671C527.204 597.486 534.279 577.993 555.552 573.339C555.826 573.278 556.065 573.112 556.216 572.876C556.368 572.639 556.419 572.353 556.359 572.078C556.291 571.81 556.122 571.578 555.887 571.431C555.652 571.283 555.37 571.233 555.099 571.289C532.665 576.195 525.221 596.78 525.137 596.982C525.051 597.247 525.071 597.536 525.193 597.787C525.315 598.037 525.53 598.231 525.793 598.326H526.129C526.352 598.345 526.576 598.292 526.767 598.174C526.957 598.056 527.105 597.879 527.187 597.671H527.12Z" fill="black"/>
<path d="M559.283 583.455H511.711V593.302H515.862L524.448 647.024H546.545L555.132 593.302H559.283V583.455Z" fill="#92E3A9"/>
<path opacity="0.3" d="M559.283 583.455H511.711V593.302H515.862L524.448 647.024H546.545L555.132 593.302H559.283V583.455Z" fill="white"/>
<path d="M130.986 285.69L75.6512 267.625L70.7277 254.619L59.4859 254.266L39.0859 250.401L41.5393 254.619L67.2157 273.255L73.5507 276.414L131.423 306.644L130.986 285.69Z" fill="white" stroke="#263238" stroke-width="1.00396" stroke-miterlimit="10"/>
<path d="M70.7275 254.619L65.4511 251.46L54.915 255.325L56.6626 257.425L70.7275 254.619Z" fill="white" stroke="#263238" stroke-width="1.00396" stroke-linejoin="round"/>
<path d="M130.986 285.69L75.6512 267.625L70.7277 254.619L59.4859 254.266L39.0859 250.401L41.5393 254.619L67.2157 273.255L73.5507 276.414L131.423 306.644L130.986 285.69Z" fill="white"/>
<path opacity="0.5" d="M130.986 285.69L75.6512 267.625L70.7277 254.619L59.4859 254.266L39.0859 250.401L41.5393 254.619L67.2157 273.255L73.5507 276.414L131.423 306.644L130.986 285.69Z" fill="#92E3A9" stroke="#263238" stroke-width="1.00396" stroke-miterlimit="10"/>
<path d="M130.986 285.69L75.6512 267.625L70.7277 254.619L59.4859 254.266L39.0859 250.401L41.5393 254.619L67.2157 273.255L73.5507 276.414L131.423 306.644L130.986 285.69Z" stroke="#263238" stroke-width="1.00396" stroke-miterlimit="10"/>
<path d="M70.7275 254.619L65.4511 251.46L54.915 255.325L56.6626 257.425L70.7275 254.619Z" fill="white"/>
<path opacity="0.5" d="M70.7275 254.619L65.4511 251.46L54.915 255.325L56.6626 257.425L70.7275 254.619Z" fill="#92E3A9" stroke="#263238" stroke-width="1.00396" stroke-linejoin="round"/>
<path d="M70.7275 254.619L65.4511 251.46L54.915 255.325L56.6626 257.425L70.7275 254.619Z" stroke="#263238" stroke-width="1.00396" stroke-linejoin="round"/>
<path d="M142.733 168.449C142.733 168.449 141.876 176.011 144.01 180.867C146.144 185.723 157.991 202.174 157.991 202.174L135.877 219.902C135.877 219.902 126.702 201.418 124.954 198.427C123.206 195.436 121.106 182.564 126.802 173.339C132.499 164.113 140.699 161.626 142.733 168.449Z" fill="white"/>
<g style="mix-blend-mode:multiply" opacity="0.5">
<path d="M131.373 192.747L140.968 212.643L135.859 219.919L126.214 202.695L131.373 192.747Z" fill="#92E3A9"/>
</g>
<path d="M142.733 168.449C142.733 168.449 141.876 176.011 144.01 180.867C146.144 185.723 157.991 202.174 157.991 202.174L135.877 219.902C135.877 219.902 126.702 201.418 124.954 198.427C123.206 195.436 121.106 182.564 126.802 173.339C132.499 164.113 140.699 161.626 142.733 168.449Z" stroke="#263238" stroke-width="1.00396" stroke-miterlimit="10"/>
<path d="M149.588 154.602C148.227 146.2 138.598 129.111 123.323 129.766C113.409 130.203 108.771 132.203 104.469 134.639C100.963 136.705 97.6945 139.151 94.7232 141.932C87.2623 150.889 84.6409 153.342 86.086 160.198C85.9675 162.933 86.3959 165.663 87.3463 168.23C89.6316 174.33 91.1944 178.313 93.1773 181.22C92.5723 184.06 90.9928 191.554 90.9087 193.268C90.8247 194.982 95.9499 193.789 98.5377 193.134C103.344 203.888 112.149 211.349 114.888 212.206C119.66 213.702 127.205 205.854 131.204 199.771C135.204 193.688 132.179 186.849 132.196 184.127C132.213 181.405 141.186 175.422 144.513 173.524C147.84 171.625 150.932 162.988 149.588 154.602Z" fill="white"/>
<g style="mix-blend-mode:multiply" opacity="0.5">
<path d="M86.1538 160.198C86.0353 162.933 86.4638 165.663 87.4141 168.23C89.6995 174.33 91.2622 178.313 93.2451 181.22C92.6402 184.06 91.0606 191.554 90.9766 193.268C90.8925 194.982 96.0177 193.789 98.6055 193.134C103.411 203.888 112.217 211.349 114.956 212.206C119.728 213.702 127.273 205.854 131.272 199.771C132.271 198.253 132.92 196.531 133.171 194.73C132.953 193.94 132.801 193.453 132.801 193.453C132.801 193.453 130.55 202.107 126.08 200.981C121.61 199.855 114.771 190.899 110.956 187.807C107.142 184.715 108.705 180.648 107.949 176.044C107.192 171.44 95.9001 167.39 95.1439 164.752C94.3878 162.114 97.026 151.191 97.026 151.191C97.026 151.191 101.311 145.478 100.387 147.83C99.7335 149.87 99.4966 152.021 99.69 154.154C99.8834 156.287 100.503 158.359 101.513 160.249C102.221 161.739 103.345 162.994 104.749 163.861C106.153 164.728 107.777 165.172 109.427 165.138L113.527 144.823L104.873 137.664L94.791 141.865C87.2629 150.889 84.6919 153.342 86.1538 160.198Z" fill="#92E3A9"/>
</g>
<path d="M149.588 154.602C148.227 146.2 138.598 129.111 123.323 129.766C113.409 130.203 108.771 132.203 104.469 134.639C100.963 136.705 97.6945 139.151 94.7232 141.932C87.2623 150.889 84.6409 153.342 86.086 160.198C85.9675 162.933 86.3959 165.663 87.3463 168.23C89.6316 174.33 91.1944 178.313 93.1773 181.22C92.5723 184.06 90.9928 191.554 90.9087 193.268C90.8247 194.982 95.9499 193.789 98.5377 193.134C103.344 203.888 112.149 211.349 114.888 212.206C119.66 213.702 127.205 205.854 131.204 199.771C135.204 193.688 132.179 186.849 132.196 184.127C132.213 181.405 141.186 175.422 144.513 173.524C147.84 171.625 150.932 162.988 149.588 154.602Z" stroke="#263238" stroke-miterlimit="10"/>
<path d="M95.2617 176.145L96.9421 180.951C96.9421 180.951 100.555 182.144 104.958 177.338" stroke="#263238" stroke-miterlimit="10" stroke-linecap="round"/>
<path d="M107.679 198.595C107.679 198.595 111.678 198.192 113.291 192.579" stroke="#263238" stroke-miterlimit="10" stroke-linecap="round"/>
<path d="M92.4551 172.129C92.4551 172.129 93.6482 168.516 100.857 168.516" stroke="#263238" stroke-miterlimit="10" stroke-linecap="round"/>
<path d="M129.406 123.078C124.168 122.325 118.885 121.921 113.593 121.868C113.593 121.868 97.7642 112.744 82.5567 122.473C67.3491 132.203 74.6588 149.242 74.6588 153.493C74.6588 157.745 69.7857 157.762 72.8272 163.24C75.8687 168.718 86.1527 165.693 86.1527 165.693C86.2614 163.627 86.8074 161.607 87.7546 159.768C88.7019 157.928 90.0287 156.311 91.6476 155.023C97.1256 150.771 101.495 149.847 103.309 151.074C103.309 151.074 102.1 160.198 103.914 163.845C103.914 163.845 109.997 166.886 111.829 166.886C113.661 166.886 110.636 169.457 116.702 171.742C117.807 172.139 118.99 172.275 120.156 172.138C121.322 172 122.441 171.595 123.424 170.953C124.314 167.256 126.264 161.694 129.893 162.988C135.22 164.886 140.076 177.993 132.868 182.463C141.538 184.043 152.041 168.701 152.663 154.72C153.284 140.739 138.413 124.658 129.406 123.078Z" fill="#263238"/>
<path d="M103.579 145.075C103.579 145.075 108.049 142.672 113.527 147.814C119.005 152.956 129.659 159.828 143.774 156.048" stroke="white" stroke-width="0.5" stroke-linecap="round" stroke-linejoin="round"/>
<path d="M102.957 140.958C102.957 140.958 106.032 136.152 111.174 136.152C116.316 136.152 128.331 143.361 137.926 143.361" stroke="white" stroke-width="0.5" stroke-linecap="round" stroke-linejoin="round"/>
<path d="M99.4619 150.217C99.4619 150.217 93.6309 143.025 88.1528 148.855C82.6748 154.686 86.1532 160.198 86.1532 160.198" stroke="white" stroke-width="0.5" stroke-linecap="round" stroke-linejoin="round"/>
<path d="M76.1553 155.023C79.4967 152.009 81.5739 147.843 81.9694 143.361C82.6584 135.816 92.9592 129.296 99.4623 135.48" stroke="white" stroke-width="0.5" stroke-linecap="round" stroke-linejoin="round"/>
<path d="M86.7754 127.582C86.7754 127.582 97.0762 117.634 105.646 130.321" stroke="white" stroke-width="0.5" stroke-linecap="round" stroke-linejoin="round"/>
<path d="M170.61 616.693C170.61 616.693 176.945 626.54 176.239 632.875L175.55 639.21C175.55 639.21 152.311 645.579 147.387 645.579C142.464 645.579 116.401 643.108 116.401 643.108L115.275 638.639C115.196 638.309 115.233 637.961 115.38 637.655C115.527 637.349 115.775 637.103 116.081 636.958L139.321 626.12L146.648 618.104L170.61 616.693Z" fill="white" stroke="#263238" stroke-width="1.00396" stroke-miterlimit="10"/>
<path d="M150.916 640.622C157.217 641.109 169.181 637.261 176.121 634.807L175.634 639.21C175.634 639.21 152.31 645.579 147.387 645.579C142.463 645.579 116.4 643.109 116.4 643.109L115.594 639.916C119.761 639.933 142.581 639.983 150.916 640.622Z" fill="#92E3A9" stroke="#263238" stroke-width="1.00396" stroke-miterlimit="10"/>
<path d="M139.354 626.12L105.528 640.84C105.528 640.84 102.637 648.082 105.528 649.528C108.418 650.973 171.433 649.528 171.433 649.528C171.433 649.528 175.785 638.084 168.912 630.405C162.039 622.725 139.354 626.12 139.354 626.12Z" fill="white" stroke="#263238" stroke-width="1.00396" stroke-miterlimit="10"/>
<path d="M171.433 649.528C171.433 649.528 108.419 650.973 105.528 649.528C104.134 648.822 104.083 646.788 104.403 644.856H172.542C172.32 646.444 171.948 648.009 171.433 649.528Z" fill="#92E3A9" stroke="#263238" stroke-width="1.00396" stroke-miterlimit="10"/>
<path d="M123.357 370.348C123.357 370.348 114.518 409.518 111.174 434.018C107.83 458.518 105.864 507.602 106.57 513.231C107.275 518.86 142.463 613.181 142.463 613.181L145.975 621.583L170.609 616.659C170.609 616.659 159.351 580.766 155.133 561.055C150.915 541.344 141.69 508.963 141.69 503.334C141.69 497.704 163.535 390.193 165.098 383.135C166.66 376.078 173.752 365.239 173.752 365.239L126.583 364.281L123.357 370.348Z" fill="#92E3A9" stroke="#263238" stroke-width="1.00396" stroke-miterlimit="10"/>
<path d="M123.357 370.348C123.357 370.348 118.182 406.123 120.316 430.993C122.45 455.863 127.037 508.812 127.037 516.693C127.037 524.574 139.758 571.641 140.48 586.429C141.606 607.787 140.027 618.356 140.027 618.356L139.271 626.103C139.271 626.103 154.108 628.22 157.352 629.144C161.097 630.109 164.963 630.528 168.829 630.388C168.829 630.388 174.223 606.644 174.223 586.412C174.223 566.18 169.736 524.54 167.501 507.669C165.266 490.798 172.307 425.716 176.306 413.567C180.306 401.418 189.044 375.691 183.162 362.551C177.281 349.41 123.357 370.348 123.357 370.348Z" fill="#92E3A9" stroke="#263238" stroke-width="1.00396" stroke-miterlimit="10"/>
<path d="M189.699 355.964L189.162 371.961C189.162 371.961 179.583 373.86 166.678 376.095C156.024 377.943 129.273 375.607 120.266 374.733C119.445 374.661 118.686 374.267 118.154 373.637C117.622 373.008 117.361 372.194 117.426 371.373L118.3 356.921L189.699 355.964Z" fill="#263238"/>
<path d="M152.26 196.495C152.26 196.495 137.137 212.845 131.44 223.011C125.744 233.177 123.492 248.755 121.358 261.021C119.224 273.288 125.004 302.09 123.374 315.315L118.216 356.972C118.216 356.972 117.107 359.795 120.82 362.887C124.534 365.979 142.665 367.104 159.049 367.928C165.031 368.23 182.894 364.382 185.818 364.197C189.347 363.979 189.464 359.492 189.615 355.964C190.321 339.378 193.312 295.167 195.278 275.91C199.328 236.639 177.164 198.729 152.26 196.495Z" fill="white" stroke="#263238" stroke-width="1.00396" stroke-miterlimit="10"/>
<g style="mix-blend-mode:multiply">
<path d="M193.429 298.242C194.102 289.521 194.774 281.606 195.362 275.91C195.53 274.229 195.631 272.549 195.715 270.869L155.537 277.59L121.021 265.827C121.025 272.969 121.429 280.105 122.231 287.202L156.091 296.679L193.429 298.242Z" fill="#92E3A9"/>
</g>
<g style="mix-blend-mode:multiply">
<path d="M150.765 198.141C148.48 200.679 143.943 205.838 139.624 211.316L165.132 237.244L173.534 233.883L150.765 198.141Z" fill="#92E3A9"/>
</g>
<path d="M152.26 196.495C152.26 196.495 137.136 212.845 131.44 223.011C129.751 226.101 128.382 229.355 127.356 232.724L157.771 197.587C155.975 197.042 154.128 196.677 152.26 196.495V196.495Z" fill="#263238"/>
<g style="mix-blend-mode:multiply">
<path d="M122.534 254.401L155.537 265.256L195.614 260.652C194.986 250.668 192.768 240.849 189.044 231.564L156.73 244.52L127.844 231.43C125.482 238.938 123.707 246.618 122.534 254.401V254.401Z" fill="#92E3A9"/>
</g>
<g style="mix-blend-mode:multiply">
<path d="M179.348 339.378C162.609 342.189 145.434 340.785 129.373 335.295L121.324 332.539L118.82 352.704L127.995 355.275C145.437 360.151 163.667 361.556 181.65 359.408L189.061 358.518C189.446 357.701 189.663 356.815 189.699 355.913C189.901 351.426 190.254 344.907 190.707 337.429L179.348 339.378Z" fill="#92E3A9"/>
</g>
<g style="mix-blend-mode:multiply">
<path d="M183.834 311.921C167.095 314.742 149.915 313.333 133.859 307.82L123.609 304.308C123.863 307.969 123.813 311.645 123.458 315.298L122.265 324.994L132.481 327.851C149.917 332.732 168.141 334.143 186.119 332.001L191.161 331.396C191.581 324.675 192.068 317.516 192.589 310.442L183.834 311.921Z" fill="#92E3A9"/>
</g>
<path d="M26.1829 240.86L58.6738 266.984L60.0742 265.242L27.5833 239.118L26.1829 240.86Z" fill="#263238"/>
<path d="M167.905 214.626C167.905 214.626 179.819 222.742 180.087 241.915C180.205 250.317 179.331 258.165 177.399 271.927C175.466 285.69 163.468 330.506 154.125 335.95C144.782 341.395 130.281 331.111 130.281 331.111L60.1413 284.547L43.1861 270.852L34.7842 254.989L37.4224 249.948L58.108 265.811L46.967 255.51L49.1515 252.737L53.1844 255.543L64.9472 259.946L67.5182 276.75L71.1478 279.237L138.246 303.754C138.246 303.754 137.406 267.642 138.027 260.736C138.649 253.829 139.506 236.471 146.9 223.885" fill="white"/>
<g style="mix-blend-mode:multiply" opacity="0.5">
<path d="M137.775 276.464C137.775 288.933 138.195 303.754 138.195 303.754L71.164 279.338L67.5343 276.851L64.9633 260.047L53.2006 255.644L49.1845 252.788L47 255.56L58.1073 265.811L37.4217 249.948L34.918 254.905L43.3199 270.768L60.275 284.547L64.5432 287.387L157.217 317.247L137.775 276.464Z" fill="#92E3A9"/>
</g>
<path d="M167.905 214.626C167.905 214.626 179.819 222.742 180.087 241.915C180.205 250.317 179.331 258.165 177.399 271.927C175.466 285.69 163.468 330.506 154.125 335.95C144.782 341.395 130.281 331.111 130.281 331.111L60.1413 284.547L43.1861 270.852L34.7842 254.989L37.4224 249.948L58.108 265.811L46.967 255.51L49.1515 252.737L53.1844 255.543L64.9472 259.946L67.5182 276.75L71.1478 279.237L138.246 303.754C138.246 303.754 137.406 267.642 138.027 260.736C138.649 253.829 139.506 236.471 146.9 223.885" stroke="#263238" stroke-width="1.00396" stroke-miterlimit="10"/>
<path d="M138.246 303.754L163.855 322.238L170.492 310.475C170.492 310.475 175.08 306.863 175.752 304.14C176.424 301.418 175.567 296.999 176.256 294.276C176.945 291.554 180.373 289 180.692 282.413C181.012 275.826 180.692 270.331 180.692 270.331C180.692 270.331 186.238 247.528 185.633 237.614C185.028 227.699 175.466 210.173 167.804 209.786C160.141 209.4 150.177 210.559 142.447 222.255C134.717 233.95 136.297 268.096 135.087 270.23C133.877 272.364 135.557 282.9 135.557 282.9C134.886 283.401 134.328 284.039 133.923 284.772C133.517 285.505 133.272 286.317 133.205 287.152C133.07 289.891 136.028 296.629 136.028 296.629L138.246 303.754Z" fill="white" stroke="#263238" stroke-width="1.00396" stroke-miterlimit="10"/>
<g style="mix-blend-mode:multiply">
<path d="M135.759 261.458C135.811 264.391 135.592 267.321 135.103 270.213C134.028 272.129 135.255 280.783 135.523 282.547C149.927 287.021 165.158 288.17 180.071 285.908C180.391 284.739 180.583 283.539 180.642 282.329C180.978 275.759 180.642 270.247 180.642 270.247C180.642 270.247 181.129 268.214 181.801 265.122C166.358 266.103 150.853 264.87 135.759 261.458V261.458Z" fill="#92E3A9"/>
</g>
<g style="mix-blend-mode:multiply">
<path d="M141.405 224.12C139.002 228.943 137.658 236.185 136.885 243.529C152.14 249.35 168.587 251.352 184.793 249.36C185.439 245.473 185.726 241.536 185.65 237.597C185.359 234.483 184.623 231.428 183.465 228.523C169.315 228.853 155.18 227.374 141.405 224.12V224.12Z" fill="#92E3A9"/>
</g>
<path d="M136.027 296.814L138.195 303.754L163.804 322.238L170.442 310.475C170.442 310.475 175.029 306.863 175.701 304.14C175.821 303.667 175.894 303.183 175.92 302.695C162.424 302.462 149.016 300.485 136.027 296.814V296.814Z" fill="#263238"/>
<path d="M154.562 628.926C154.562 628.926 155.133 614.374 157.923 593.1C160.712 571.826 154.007 541.613 152.881 536.572C151.756 531.531 153.453 520.339 152.327 516.407C151.201 512.475 145.757 495.705 148.966 476.246C152.176 456.787 154.78 405.35 154.78 405.35C154.78 405.35 146.698 398.78 144.328 390.227C141.959 381.673 143.774 378.985 143.774 378.985" stroke="#263238" stroke-width="1.00396" stroke-miterlimit="10"/>
<path d="M158.309 379.775L155.2 396.982" stroke="#263238" stroke-width="1.00396" stroke-miterlimit="10"/>
</svg>
